<?xml version="1.0" encoding="utf-8"?>
<!-- Generator: Adobe Illustrator 16.0.0, SVG Export Plug-In . SVG Version: 6.00 Build 0)  -->
<!DOCTYPE svg PUBLIC "-//W3C//DTD SVG 1.1//EN" "http://www.w3.org/Graphics/SVG/1.1/DTD/svg11.dtd">
<svg version="1.1" id="레이어_1" xmlns="http://www.w3.org/2000/svg" xmlns:xlink="http://www.w3.org/1999/xlink" x="0px"
	 y="0px" width="24px" height="24px" viewBox="12 12 24 24" enable-background="new 0 0 48 48" xml:space="preserve">
<g>
	<path fill="#FFFFFF" d="M20.479,16.59c0.506-0.01,1.358,0.313,2.196,0.654c1.373,0.55,1.586,0.574,2.96,0.01
		c0.813-0.332,1.641-0.604,2.518-0.693c1.349-0.14,2.588,0.178,3.743,0.872c0.569,0.347,1.075,0.763,1.481,1.294
		c0.14,0.178,0.145,0.277-0.063,0.416c-2.306,1.517-3.134,4.546-1.934,7.055c0.56,1.17,1.448,2.018,2.607,2.577
		c0.184,0.09,0.214,0.169,0.144,0.357c-0.584,1.626-1.412,3.108-2.508,4.441c-0.264,0.317-0.531,0.63-0.828,0.923
		c-0.902,0.896-1.953,1.17-3.183,0.838c-0.535-0.145-1.036-0.382-1.557-0.561c-1.398-0.486-2.731-0.228-4.045,0.332
		c-0.476,0.203-0.967,0.332-1.477,0.387c-0.739,0.079-1.383-0.174-1.938-0.649c-1.105-0.941-1.958-2.093-2.682-3.346
		c-0.783-1.354-1.329-2.802-1.69-4.318c-0.342-1.433-0.486-2.881-0.322-4.348c0.149-1.354,0.561-2.623,1.373-3.724
		C16.454,17.512,18.036,16.635,20.479,16.59z"/>
	<path fill="#FFFFFF" d="M23.96,15.748c0.069-1.805,0.912-3.183,2.344-4.229c0.74-0.546,1.577-0.853,2.475-1.017
		c0.193-0.035,0.242,0.02,0.242,0.208c0.016,2.063-0.837,3.688-2.483,4.888c-0.664,0.486-1.452,0.694-2.285,0.685
		c-0.223,0-0.321-0.06-0.292-0.292C23.97,15.911,23.96,15.827,23.96,15.748z"/>
</g>
</svg>
