<?xml version="1.0" encoding="utf-8"?>
<!-- Generator: Adobe Illustrator 16.0.0, SVG Export Plug-In . SVG Version: 6.00 Build 0)  -->
<!DOCTYPE svg PUBLIC "-//W3C//DTD SVG 1.1//EN" "http://www.w3.org/Graphics/SVG/1.1/DTD/svg11.dtd">
<svg version="1.1" id="레이어_1" xmlns="http://www.w3.org/2000/svg" xmlns:xlink="http://www.w3.org/1999/xlink" x="0px"
	 y="0px" width="48px" height="48px" viewBox="0 0 48 48" enable-background="new 0 0 48 48" xml:space="preserve">
<g>
	<path fill="#FFFFFF" d="M34.393,18.517c0,1.542-0.004,3.084,0.004,4.622c0,0.209-0.051,0.296-0.26,0.27
		c-0.035-0.005-0.074,0-0.109,0c-2.676,0.013-5.352,0.026-8.031,0.044c-0.873,0.004-1.751,0.013-2.624,0.029
		c-0.213,0.005-0.287-0.057-0.287-0.281c0.009-2.577,0.009-5.152,0-7.729c0-0.222,0.048-0.313,0.291-0.34
		c0.978-0.117,1.946-0.256,2.918-0.391c1.348-0.19,2.689-0.391,4.031-0.582c1.281-0.182,2.564-0.352,3.846-0.534
		c0.203-0.03,0.225,0.057,0.225,0.226C34.393,15.401,34.393,16.962,34.393,18.517z"/>
	<path fill="#FFFFFF" d="M22.134,19.416c0,1.272,0,2.55,0,3.822c0,0.278,0,0.278-0.287,0.278c-0.53,0.004-1.056,0.004-1.585,0.009
		c-2.12,0.013-4.24,0.026-6.36,0.043c-0.309,0-0.309,0.005-0.309-0.3c0-2.163,0-4.326,0-6.494c0-0.299,0.004-0.287,0.3-0.33
		c0.765-0.104,1.529-0.222,2.293-0.33c0.587-0.082,1.178-0.152,1.764-0.23c1.182-0.16,2.363-0.33,3.541-0.495
		c0.169-0.026,0.339-0.073,0.512-0.073c0.091,0,0.135,0.03,0.131,0.125c-0.005,0.074,0,0.144,0,0.218
		C22.134,16.909,22.134,18.16,22.134,19.416z M22,19.39c0-1.242-0.004-2.489,0.004-3.731c0-0.183-0.065-0.222-0.226-0.213
		c-0.135,0.009-0.239,0.087-0.374,0.096c-0.287,0.017-0.569,0.069-0.856,0.108c-0.561,0.078-1.125,0.148-1.681,0.234
		c-0.339,0.053-0.691,0.048-1.017,0.183c-0.057,0.021-0.113,0.039-0.169,0.018c-0.182-0.074-0.369-0.009-0.53,0.03
		c-0.409,0.104-0.83,0.131-1.247,0.187c-0.348,0.048-0.695,0.117-1.047,0.131c-0.295,0.009-0.56,0.161-0.864,0.147
		c-0.261-0.014-0.295,0.035-0.295,0.305c0,2.084,0,4.165,0,6.251c0,0.282,0.03,0.304,0.313,0.308
		c1.386,0.022,2.776-0.064,4.162-0.047c1.155,0.013,2.315,0.004,3.471,0c0.334,0,0.352-0.014,0.352-0.361
		C22,21.818,22,20.606,22,19.39z"/>
	<path fill="#FFFFFF" d="M22.134,28.578c0,1.281-0.005,2.563,0.004,3.844c0,0.196-0.039,0.265-0.248,0.231
		c-0.625-0.101-1.255-0.188-1.885-0.274c-0.652-0.092-1.303-0.165-1.955-0.261c-0.921-0.131-1.842-0.273-2.767-0.404
		c-0.487-0.069-0.973-0.139-1.459-0.19c-0.174-0.018-0.234-0.074-0.234-0.252c0.004-2.207,0.004-4.415,0-6.625
		c0-0.187,0.047-0.274,0.247-0.239c0.091,0.014,0.187,0.004,0.283,0.004c2.598,0.014,5.195,0.031,7.793,0.04
		c0.187,0,0.23,0.061,0.226,0.233C22.129,25.984,22.134,27.278,22.134,28.578z M22,28.582c0-1.217-0.009-2.433,0.004-3.646
		c0.004-0.316-0.139-0.364-0.373-0.364c-0.356,0-0.708,0.018-1.069,0.009c-1.59-0.043-3.18,0.03-4.77-0.048
		c-0.6-0.03-1.199-0.004-1.803-0.004c-0.265,0-0.295,0.034-0.295,0.304c0,2.09,0,4.184,0,6.272c0,0.282,0.043,0.31,0.321,0.335
		c0.43,0.039,0.86,0.074,1.282,0.156c0.53,0.101,1.064,0.156,1.599,0.23c0.278,0.039,0.564,0.047,0.83,0.112
		c0.378,0.088,0.76,0.113,1.138,0.175c0.413,0.069,0.838,0.121,1.26,0.165c0.538,0.06,1.081,0.121,1.616,0.238
		c0.174,0.039,0.256-0.013,0.256-0.222C21.995,31.054,22,29.815,22,28.582z"/>
	<path fill="#FFFFFF" d="M34.41,29.464c0,1.533,0,3.067,0,4.605c0,0.334,0,0.338-0.344,0.29c-0.816-0.116-1.629-0.239-2.445-0.351
		c-1.125-0.157-2.25-0.305-3.371-0.466c-1.064-0.147-2.133-0.3-3.197-0.46c-0.59-0.092-1.189-0.14-1.78-0.248
		c-0.187-0.035-0.191-0.117-0.191-0.256c0-1.412,0-2.824,0-4.236c0-1.203,0-2.402,0-3.605c0-0.265,0.009-0.282,0.287-0.277
		c3.611,0.061,7.22,0.061,10.83,0.078c0.184,0,0.213,0.073,0.213,0.23C34.41,26.336,34.41,27.9,34.41,29.464L34.41,29.464z
		 M34.336,29.42c0-1.186,0-2.376,0-3.562c0-0.34,0-0.682,0-1.021c0-0.086,0.018-0.178-0.117-0.187
		c-0.152-0.009-0.299-0.034-0.451-0.039c-1.512-0.026-3.023,0-4.535-0.034c-1.916-0.044-3.836-0.014-5.756-0.014
		c-0.304,0-0.304,0-0.304,0.295c0,2.403,0,4.806,0,7.212c0,0.174,0.004,0.348,0,0.521c-0.004,0.131,0.052,0.175,0.182,0.183
		c0.208,0.014,0.413,0.062,0.622,0.065c0.36,0.01,0.704,0.135,1.069,0.152c0.352,0.018,0.699,0.064,1.047,0.108
		c0.412,0.057,0.82,0.174,1.234,0.179c0.463,0.004,0.906,0.147,1.367,0.174c0.43,0.026,0.852,0.126,1.277,0.187
		c0.504,0.069,1.012,0.122,1.516,0.204c0.391,0.065,0.783,0.096,1.174,0.147c0.408,0.057,0.809,0.151,1.221,0.13
		c0.029,0,0.064,0.031,0.096,0.044c0.252,0.108,0.359,0.039,0.359-0.239C34.336,32.431,34.336,30.928,34.336,29.42z"/>
	<path fill="#FFFFFF" d="M22,19.39c0,1.217,0,2.433,0,3.645c0,0.348-0.013,0.361-0.352,0.361c-1.155,0-2.315,0.013-3.471,0
		c-1.39-0.018-2.776,0.064-4.162,0.047c-0.282-0.004-0.313-0.029-0.313-0.308c0-2.086,0-4.167,0-6.251
		c0-0.27,0.035-0.318,0.295-0.305c0.3,0.018,0.569-0.139,0.864-0.147c0.352-0.009,0.7-0.083,1.047-0.131
		c0.413-0.056,0.834-0.078,1.247-0.187c0.161-0.043,0.347-0.104,0.53-0.03c0.057,0.021,0.113,0.004,0.169-0.018
		c0.326-0.135,0.678-0.13,1.017-0.183c0.561-0.086,1.121-0.16,1.681-0.234c0.282-0.039,0.569-0.092,0.856-0.108
		c0.135-0.009,0.243-0.087,0.374-0.096c0.165-0.009,0.226,0.035,0.226,0.213C22,16.9,22,18.144,22,19.39z"/>
	<path fill="#FFFFFF" d="M22,28.582c0,1.237-0.004,2.476,0.004,3.71c0,0.209-0.083,0.261-0.256,0.222
		c-0.534-0.117-1.078-0.183-1.616-0.239c-0.421-0.047-0.847-0.1-1.26-0.164c-0.378-0.062-0.76-0.088-1.138-0.175
		c-0.265-0.062-0.552-0.074-0.83-0.113c-0.534-0.073-1.069-0.13-1.599-0.229c-0.422-0.083-0.852-0.117-1.282-0.156
		c-0.282-0.026-0.321-0.049-0.321-0.335c0-2.089,0-4.184,0-6.272c0-0.274,0.03-0.305,0.295-0.305c0.599,0,1.203-0.025,1.803,0.005
		c1.59,0.077,3.18,0,4.77,0.048c0.356,0.008,0.713-0.005,1.069-0.01c0.235,0,0.378,0.049,0.374,0.365
		C21.991,26.149,22,27.365,22,28.582z"/>
	<path fill="#FFFFFF" d="M34.336,29.42c0,1.508,0,3.011,0,4.519c0,0.278-0.107,0.348-0.359,0.239
		c-0.035-0.014-0.066-0.044-0.096-0.044c-0.412,0.021-0.816-0.074-1.221-0.131c-0.391-0.052-0.783-0.082-1.174-0.147
		c-0.504-0.087-1.012-0.135-1.516-0.204c-0.426-0.061-0.852-0.161-1.277-0.187c-0.461-0.03-0.898-0.169-1.367-0.173
		c-0.414-0.006-0.822-0.123-1.234-0.179c-0.348-0.048-0.699-0.092-1.047-0.109c-0.361-0.017-0.705-0.143-1.069-0.151
		c-0.209-0.004-0.413-0.053-0.622-0.065c-0.125-0.009-0.182-0.057-0.182-0.183c0.004-0.174,0-0.348,0-0.521c0-2.402,0-4.805,0-7.211
		c0-0.295,0-0.295,0.304-0.295c1.92,0,3.836-0.031,5.756,0.013c1.512,0.034,3.023,0.009,4.535,0.034
		c0.152,0.005,0.299,0.031,0.451,0.039c0.135,0.005,0.117,0.101,0.117,0.188c0,0.338,0,0.682,0,1.021
		C34.336,27.049,34.336,28.234,34.336,29.42z"/>
</g>
</svg>
