<?xml version="1.0" encoding="utf-8"?>
<!-- Generator: Adobe Illustrator 16.0.0, SVG Export Plug-In . SVG Version: 6.00 Build 0)  -->
<!DOCTYPE svg PUBLIC "-//W3C//DTD SVG 1.1//EN" "http://www.w3.org/Graphics/SVG/1.1/DTD/svg11.dtd">
<svg version="1.1" id="레이어_1" xmlns="http://www.w3.org/2000/svg" xmlns:xlink="http://www.w3.org/1999/xlink" x="0px"
	 y="0px" width="48px" height="48px" viewBox="0 0 48 48" enable-background="new 0 0 48 48" xml:space="preserve">
<g>
	<path fill="#FFFFFF" d="M29.348,19.109l-13.208-7.07c-0.687-0.368-1.431-0.387-2.074-0.152l11.252,11.252L29.348,19.109z"/>
	<path fill="#FFFFFF" d="M34.272,21.747l-3.804-2.037L26.178,24l4.291,4.292l3.804-2.037C36.073,25.29,36.073,22.71,34.272,21.747z"
		/>
	<path fill="#FFFFFF" d="M13.035,12.578c-0.403,0.443-0.658,1.036-0.658,1.715v19.416c0,0.679,0.255,1.271,0.658,1.714L24.458,24
		L13.035,12.578z"/>
	<path fill="#FFFFFF" d="M14.065,36.113c0.644,0.235,1.388,0.217,2.074-0.151l13.208-7.071l-4.03-4.03L14.065,36.113z"/>
</g>
</svg>
