<?xml version="1.0" encoding="utf-8"?>
<!-- Generator: Adobe Illustrator 16.0.0, SVG Export Plug-In . SVG Version: 6.00 Build 0)  -->
<!DOCTYPE svg PUBLIC "-//W3C//DTD SVG 1.1//EN" "http://www.w3.org/Graphics/SVG/1.1/DTD/svg11.dtd">
<svg version="1.1" id="레이어_1" xmlns="http://www.w3.org/2000/svg" xmlns:xlink="http://www.w3.org/1999/xlink" x="0px"
	 y="0px" width="139px" height="33px" viewBox="0 0 139 33" enable-background="new 0 0 139 33" xml:space="preserve">
<g>
	<path fill="#232323" d="M51.725,9.002c-0.237-0.1-0.491-0.192-0.761-0.277s-0.571-0.159-0.902-0.222
		c-0.331-0.063-0.696-0.111-1.096-0.146s-0.845-0.053-1.335-0.053c-1.219,0-2.338,0.179-3.358,0.536
		c-1.02,0.358-1.898,0.895-2.637,1.61s-1.314,1.608-1.726,2.678c-0.412,1.069-0.618,2.315-0.618,3.738
		c0,1.511,0.176,2.834,0.527,3.971c0.352,1.136,0.861,2.082,1.529,2.84c0.668,0.757,1.481,1.326,2.44,1.706
		c0.959,0.382,2.048,0.572,3.268,0.572c0.324,0,0.677-0.017,1.058-0.051c0.38-0.033,0.766-0.091,1.158-0.171
		c0.391-0.082,0.775-0.19,1.151-0.328s0.719-0.313,1.027-0.524c0.162-0.112,0.307-0.247,0.434-0.405s0.19-0.331,0.19-0.519
		c0-0.129-0.021-0.243-0.065-0.343c-0.044-0.101-0.102-0.185-0.175-0.253c-0.073-0.069-0.158-0.12-0.256-0.153
		s-0.199-0.05-0.303-0.05c-0.167,0-0.324,0.026-0.471,0.078c-0.148,0.052-0.291,0.109-0.428,0.172
		c-0.429,0.187-0.914,0.325-1.458,0.415c-0.543,0.089-1.097,0.134-1.663,0.134c-0.812,0-1.551-0.146-2.219-0.44
		c-0.668-0.293-1.241-0.736-1.72-1.329s-0.849-1.333-1.111-2.222s-0.394-1.93-0.394-3.124c0-1.062,0.125-2.003,0.375-2.824
		c0.25-0.822,0.622-1.514,1.117-2.076c0.496-0.562,1.114-0.987,1.857-1.279c0.743-0.291,1.607-0.437,2.594-0.437
		c0.595,0,1.153,0.064,1.676,0.193c0.522,0.129,0.979,0.306,1.37,0.531L51.725,9.002z"/>
	<path fill="#232323" d="M65.855,12.622h-1.798l-0.175,1.522c-0.454-0.61-1.025-1.075-1.716-1.395
		c-0.69-0.318-1.475-0.477-2.353-0.477c-0.861,0-1.66,0.149-2.396,0.449c-0.737,0.299-1.375,0.743-1.917,1.332
		s-0.964,1.319-1.27,2.191c-0.306,0.871-0.459,1.877-0.459,3.018c0,1.082,0.135,2.038,0.406,2.868s0.652,1.529,1.146,2.097
		c0.493,0.568,1.088,0.997,1.785,1.288c0.697,0.292,1.474,0.438,2.331,0.438c0.229,0,0.467-0.014,0.715-0.041
		s0.492-0.068,0.733-0.122c0.241-0.054,0.47-0.123,0.687-0.206s0.407-0.18,0.571-0.29c0.165-0.11,0.295-0.236,0.394-0.378
		c0.098-0.141,0.146-0.295,0.146-0.462c0-0.125-0.022-0.234-0.065-0.33c-0.044-0.096-0.102-0.178-0.175-0.244
		s-0.158-0.116-0.256-0.149s-0.199-0.05-0.303-0.05c-0.063,0-0.139,0.011-0.228,0.031s-0.171,0.044-0.247,0.068
		c-0.287,0.1-0.554,0.171-0.802,0.213c-0.248,0.041-0.496,0.063-0.746,0.063c-0.533,0-1.022-0.099-1.47-0.297
		s-0.834-0.498-1.161-0.902c-0.327-0.403-0.581-0.91-0.765-1.52c-0.183-0.609-0.274-1.326-0.274-2.15c0-0.928,0.1-1.714,0.3-2.359
		c0.2-0.645,0.473-1.168,0.821-1.569c0.347-0.402,0.756-0.692,1.226-0.871s0.978-0.269,1.523-0.269c0.287,0,0.571,0.027,0.852,0.082
		c0.281,0.054,0.548,0.139,0.802,0.255c0.253,0.117,0.488,0.269,0.702,0.456s0.4,0.413,0.559,0.677
		c0.158,0.265,0.282,0.57,0.372,0.918c0.089,0.348,0.134,0.741,0.134,1.183v6.778c0,0.038,0.001,0.097,0.003,0.178
		c0.002,0.081,0.009,0.172,0.021,0.271c0.017,0.146,0.059,0.278,0.125,0.396c0.066,0.119,0.152,0.221,0.256,0.306
		c0.104,0.086,0.223,0.152,0.356,0.2c0.133,0.048,0.274,0.072,0.424,0.072s0.291-0.024,0.424-0.072s0.25-0.114,0.353-0.2
		c0.102-0.085,0.188-0.187,0.256-0.306c0.069-0.118,0.112-0.25,0.128-0.396c0.013-0.1,0.02-0.19,0.022-0.271
		c0.002-0.081,0.003-0.14,0.003-0.178V12.622z"/>
	<path fill="#232323" d="M69.85,6.681v17.775c0,0.038,0.001,0.098,0.003,0.178c0.002,0.082,0.01,0.172,0.022,0.272
		c0.021,0.146,0.064,0.277,0.131,0.396c0.066,0.119,0.151,0.221,0.252,0.307c0.102,0.085,0.22,0.151,0.353,0.199
		c0.133,0.048,0.274,0.072,0.424,0.072c0.15,0,0.291-0.024,0.425-0.072s0.251-0.114,0.353-0.199
		c0.102-0.086,0.188-0.188,0.256-0.307c0.068-0.118,0.111-0.25,0.129-0.396c0.012-0.101,0.02-0.19,0.021-0.272
		c0.002-0.08,0.003-0.14,0.003-0.178V6.681H69.85z"/>
	<path fill="#232323" d="M76.216,6.681v17.775c0,0.038,0.001,0.098,0.003,0.178c0.002,0.082,0.01,0.172,0.021,0.272
		c0.021,0.146,0.064,0.277,0.131,0.396c0.067,0.119,0.151,0.221,0.254,0.307c0.102,0.085,0.219,0.151,0.352,0.199
		c0.134,0.048,0.275,0.072,0.426,0.072c0.148,0,0.291-0.024,0.424-0.072s0.25-0.114,0.353-0.199
		c0.103-0.086,0.188-0.188,0.256-0.307c0.069-0.118,0.111-0.25,0.128-0.396c0.013-0.101,0.02-0.19,0.021-0.272
		c0.002-0.08,0.004-0.14,0.004-0.178V6.681H76.216z"/>
	<path fill="#232323" d="M98.561,9.177C98.057,8.902,97.42,8.68,96.65,8.51c-0.77-0.171-1.664-0.256-2.684-0.256
		c-0.471,0-0.941,0.03-1.411,0.093c-0.47,0.063-0.921,0.165-1.352,0.306C90.773,8.794,90.372,8.979,90,9.205
		c-0.373,0.228-0.696,0.505-0.971,0.834c-0.275,0.328-0.49,0.712-0.646,1.151c-0.156,0.438-0.233,0.941-0.233,1.507
		c0,0.462,0.057,0.888,0.171,1.276c0.115,0.389,0.279,0.748,0.494,1.077c0.214,0.329,0.473,0.631,0.776,0.907
		c0.304,0.277,0.646,0.534,1.023,0.771c0.388,0.237,0.779,0.46,1.177,0.668s0.809,0.431,1.232,0.668
		c0.088,0.049,0.197,0.109,0.328,0.181c0.131,0.07,0.273,0.149,0.428,0.237c0.153,0.088,0.314,0.179,0.48,0.274
		c0.166,0.097,0.33,0.192,0.493,0.29c0.162,0.098,0.317,0.197,0.465,0.297s0.277,0.193,0.39,0.281
		c0.25,0.199,0.438,0.447,0.564,0.742c0.127,0.295,0.191,0.627,0.191,0.992c0,0.324-0.047,0.612-0.141,0.861
		c-0.094,0.25-0.222,0.468-0.384,0.652c-0.163,0.186-0.354,0.341-0.574,0.465c-0.221,0.125-0.457,0.227-0.708,0.303
		c-0.252,0.078-0.514,0.133-0.783,0.166c-0.271,0.033-0.539,0.05-0.806,0.05c-0.196,0-0.392-0.005-0.587-0.013
		s-0.4-0.027-0.615-0.06c-0.214-0.03-0.439-0.075-0.677-0.134s-0.493-0.135-0.768-0.23c-0.532-0.191-0.924-0.287-1.173-0.287
		c-0.15,0-0.291,0.021-0.422,0.064c-0.131,0.045-0.244,0.106-0.34,0.188c-0.096,0.082-0.172,0.184-0.229,0.307
		c-0.057,0.122-0.084,0.261-0.084,0.414c0,0.204,0.043,0.383,0.131,0.534c0.088,0.152,0.205,0.285,0.354,0.399
		c0.146,0.115,0.316,0.213,0.508,0.297s0.391,0.156,0.6,0.218c0.428,0.125,0.908,0.214,1.438,0.269s1.085,0.081,1.663,0.081
		c0.5,0,0.996-0.039,1.488-0.118c0.494-0.079,0.963-0.201,1.408-0.365s0.857-0.375,1.238-0.63c0.381-0.257,0.711-0.563,0.99-0.918
		c0.278-0.356,0.496-0.763,0.654-1.22c0.158-0.458,0.238-0.973,0.238-1.542c0-0.433-0.054-0.837-0.16-1.211
		c-0.105-0.374-0.256-0.721-0.452-1.039c-0.195-0.318-0.43-0.611-0.702-0.878c-0.272-0.266-0.577-0.509-0.914-0.729
		c-0.166-0.108-0.353-0.222-0.559-0.34c-0.206-0.119-0.422-0.241-0.646-0.366c-0.225-0.124-0.453-0.248-0.687-0.371
		s-0.462-0.242-0.687-0.359c-0.225-0.116-0.443-0.23-0.655-0.343s-0.421-0.228-0.627-0.346c-0.206-0.119-0.412-0.245-0.618-0.378
		c-0.206-0.134-0.417-0.278-0.634-0.438c-0.286-0.212-0.509-0.459-0.665-0.742c-0.155-0.283-0.233-0.624-0.233-1.023
		c0-0.321,0.047-0.602,0.141-0.843c0.093-0.241,0.222-0.449,0.384-0.624s0.353-0.318,0.57-0.431
		c0.219-0.112,0.453-0.202,0.703-0.269s0.508-0.113,0.777-0.141c0.268-0.027,0.533-0.041,0.795-0.041
		c0.688,0,1.326,0.071,1.916,0.213c0.592,0.142,1.168,0.362,1.729,0.661L98.561,9.177z"/>
	<path fill="#232323" d="M99.833,12.622l4.818,11.935c0.046,0.116,0.078,0.223,0.097,0.318c0.02,0.096,0.028,0.206,0.028,0.33
		c0,0.075-0.007,0.155-0.019,0.241c-0.013,0.085-0.039,0.196-0.082,0.333c-0.111,0.396-0.25,0.779-0.414,1.152
		c-0.164,0.372-0.363,0.723-0.596,1.052c-0.234,0.328-0.503,0.63-0.809,0.904c-0.307,0.275-0.656,0.512-1.053,0.712
		c-0.1,0.05-0.202,0.106-0.309,0.169c-0.105,0.062-0.203,0.134-0.29,0.215s-0.159,0.174-0.216,0.277
		c-0.056,0.104-0.084,0.225-0.084,0.362c0,0.162,0.031,0.306,0.094,0.428s0.146,0.225,0.253,0.306s0.229,0.142,0.368,0.181
		c0.14,0.04,0.284,0.06,0.434,0.06c0.271,0,0.55-0.051,0.837-0.152c0.287-0.103,0.571-0.247,0.852-0.435
		c0.281-0.187,0.557-0.409,0.827-0.667c0.271-0.259,0.525-0.543,0.765-0.853s0.458-0.642,0.655-0.995s0.367-0.718,0.509-1.093
		l5.518-14.78h-2.422l-2.396,7.166c-0.079,0.232-0.167,0.49-0.266,0.773c-0.098,0.283-0.194,0.568-0.29,0.855
		s-0.186,0.563-0.269,0.83s-0.149,0.495-0.2,0.687h-0.1c-0.049-0.195-0.109-0.413-0.178-0.652s-0.145-0.493-0.228-0.761
		c-0.083-0.27-0.175-0.55-0.274-0.844c-0.1-0.293-0.206-0.59-0.318-0.889l-2.672-7.166H99.833z"/>
	<path fill="#232323" d="M114.014,12.622v11.834c0,0.038,0.001,0.098,0.003,0.178c0.002,0.082,0.009,0.172,0.022,0.272
		c0.021,0.146,0.064,0.277,0.131,0.396c0.066,0.119,0.15,0.221,0.252,0.307c0.103,0.085,0.221,0.151,0.354,0.199
		s0.274,0.072,0.424,0.072c0.15,0,0.291-0.024,0.425-0.072c0.133-0.048,0.251-0.114,0.353-0.199
		c0.102-0.086,0.188-0.188,0.256-0.307c0.068-0.118,0.111-0.25,0.128-0.396c0.013-0.101,0.021-0.19,0.022-0.272
		c0.002-0.08,0.002-0.14,0.002-0.178v-6.791c0-0.59,0.092-1.108,0.271-1.554c0.182-0.444,0.428-0.814,0.737-1.108
		c0.31-0.293,0.672-0.513,1.086-0.661c0.414-0.147,0.856-0.222,1.326-0.222c0.403,0,0.777,0.062,1.12,0.185
		c0.344,0.123,0.639,0.322,0.887,0.599c0.248,0.277,0.441,0.638,0.58,1.083c0.14,0.445,0.209,0.988,0.209,1.63v6.84
		c0,0.038,0.002,0.098,0.004,0.178c0.002,0.082,0.009,0.172,0.021,0.272c0.021,0.146,0.064,0.277,0.131,0.396
		c0.066,0.119,0.15,0.221,0.253,0.307c0.103,0.085,0.22,0.151,0.353,0.199s0.275,0.072,0.424,0.072c0.15,0,0.292-0.024,0.426-0.072
		c0.133-0.048,0.25-0.114,0.352-0.199c0.103-0.086,0.188-0.188,0.256-0.307c0.069-0.118,0.111-0.25,0.129-0.396
		c0.012-0.101,0.02-0.19,0.021-0.272c0.002-0.08,0.003-0.14,0.003-0.178v-7.015c0-0.903-0.118-1.682-0.353-2.335
		c-0.235-0.653-0.558-1.188-0.967-1.607c-0.41-0.418-0.895-0.727-1.451-0.927c-0.559-0.199-1.157-0.299-1.799-0.299
		c-0.424,0-0.842,0.046-1.254,0.14s-0.805,0.235-1.18,0.425s-0.722,0.427-1.043,0.711c-0.32,0.285-0.601,0.617-0.842,0.996v-1.923
		H114.014z"/>
	<path fill="#232323" d="M138.43,12.973c-0.453-0.213-0.98-0.378-1.582-0.497c-0.602-0.118-1.289-0.178-2.063-0.178
		c-0.586,0-1.162,0.058-1.726,0.172s-1.099,0.29-1.604,0.527s-0.971,0.539-1.398,0.904c-0.426,0.367-0.794,0.804-1.104,1.312
		c-0.311,0.507-0.552,1.087-0.725,1.737c-0.173,0.652-0.259,1.381-0.259,2.188c0,0.786,0.071,1.501,0.216,2.144
		c0.143,0.644,0.346,1.217,0.607,1.72c0.263,0.504,0.58,0.942,0.952,1.314s0.788,0.679,1.245,0.921
		c0.458,0.24,0.954,0.421,1.488,0.539c0.535,0.119,1.096,0.179,1.683,0.179c0.354,0,0.71-0.022,1.067-0.065
		c0.357-0.045,0.709-0.113,1.052-0.207s0.675-0.213,0.995-0.358s0.62-0.318,0.898-0.519c0.143-0.1,0.254-0.216,0.334-0.35
		c0.082-0.133,0.122-0.274,0.122-0.424c0-0.25-0.071-0.441-0.216-0.574c-0.143-0.133-0.32-0.2-0.533-0.2
		c-0.121,0-0.243,0.021-0.368,0.063c-0.124,0.041-0.26,0.095-0.405,0.161c-0.434,0.191-0.872,0.327-1.317,0.406
		s-0.896,0.118-1.354,0.118c-0.549,0-1.069-0.102-1.561-0.306c-0.49-0.204-0.92-0.513-1.289-0.927
		c-0.367-0.414-0.659-0.934-0.873-1.558c-0.215-0.624-0.322-1.358-0.322-2.203c0-0.79,0.107-1.486,0.318-2.088
		c0.213-0.601,0.517-1.104,0.912-1.511c0.395-0.405,0.877-0.71,1.445-0.914c0.567-0.203,1.207-0.306,1.918-0.306
		c0.563,0,1.076,0.056,1.543,0.166c0.465,0.109,0.875,0.271,1.229,0.483L138.43,12.973z"/>
	<linearGradient id="SVGID_1_" gradientUnits="userSpaceOnUse" x1="12.9399" y1="25.5635" x2="12.9399" y2="0.561">
		<stop  offset="0" style="stop-color:#5A8CFF"/>
		<stop  offset="1" style="stop-color:#25B6C8"/>
	</linearGradient>
	<path fill="url(#SVGID_1_)" d="M16.92,23.207v2.356l6.495-4.232l-6.495-4.23v2.355h-5.228c-4.175,0-7.571-3.397-7.571-7.573
		c0-4.175,3.397-7.571,7.572-7.571h11.939c1.035,0,1.875-0.84,1.875-1.876s-0.84-1.875-1.875-1.875H11.694
		c-6.244,0-11.324,5.079-11.324,11.322c0,6.244,5.079,11.324,11.322,11.324H16.92z"/>
	<linearGradient id="SVGID_2_" gradientUnits="userSpaceOnUse" x1="18.7749" y1="32.4395" x2="18.7749" y2="7.437">
		<stop  offset="0" style="stop-color:#5A8CFF"/>
		<stop  offset="1" style="stop-color:#25B6C8"/>
	</linearGradient>
	<path fill="url(#SVGID_2_)" d="M20.022,9.793h-5.228V7.437l-6.495,4.231l6.495,4.231v-2.354h5.228c4.174,0,7.571,3.396,7.571,7.571
		c0,4.176-3.397,7.572-7.572,7.572H8.081c-1.036,0-1.875,0.84-1.875,1.876c0,1.035,0.84,1.875,1.875,1.875h11.939
		c6.244,0,11.323-5.079,11.323-11.323C31.344,14.873,26.265,9.793,20.022,9.793z"/>
</g>
</svg>
