<?xml version="1.0" standalone="no"?>
<!DOCTYPE svg PUBLIC "-//W3C//DTD SVG 1.1//EN" "http://www.w3.org/Graphics/SVG/1.1/DTD/svg11.dtd" >
<svg xmlns="http://www.w3.org/2000/svg" xmlns:xlink="http://www.w3.org/1999/xlink" version="1.1">
<metadata>
Created by FontForge 20160407 at Fri Oct 28 03:40:41 2016
 By Jimmy Wärting
Spacing/Kerning by Igino Marini: www.ikern.com
</metadata>
<defs>
<font id="MajestiBanner-Bold" horiz-adv-x="621" >
  <font-face 
    font-family="Majesti Banner Bold"
    font-weight="700"
    font-stretch="normal"
    units-per-em="1000"
    panose-1="2 0 0 0 0 0 0 0 0 0"
    ascent="750"
    descent="-250"
    x-height="412"
    cap-height="618"
    bbox="-878 -494 1307 961"
    underline-thickness="50"
    underline-position="-100"
    unicode-range="U+0020-FB06"
  />
<missing-glyph horiz-adv-x="275" 
 />
    <glyph glyph-name="fi" unicode="fi" horiz-adv-x="636" 
d="M18 0v6c54 0 80 21 80 79v314h-84v13h84v44c0 121 93 203 241 203c130 0 197 -62 197 -119c0 -42 -31 -77 -74 -77c-40 0 -72 34 -72 76c0 32 19 61 48 71c-18 27 -53 43 -92 43c-73 0 -111 -54 -111 -124v-117h204l119 11v-340c0 -50 11 -77 65 -77v-6h-266v6
c54 0 65 27 65 77v240c0 47 -10 76 -58 76h-129v-314c0 -68 37 -79 91 -79v-6h-308z" />
    <glyph glyph-name="f_j" unicode="fj" horiz-adv-x="625" 
d="M18 0v6c54 0 80 21 80 79v314h-84v13h84v44c0 121 93 203 241 203c130 0 197 -62 197 -119c0 -42 -31 -77 -74 -77c-40 0 -72 34 -72 76c0 32 19 61 48 71c-18 27 -53 43 -92 43c-73 0 -111 -54 -111 -124v-117h204l119 11v-403c0 -110 -124 -167 -220 -196l-3 4
c85 46 87 101 87 167v328c0 47 -10 76 -58 76h-129v-314c0 -68 37 -79 91 -79v-6h-308z" />
    <glyph glyph-name="fl" unicode="fl" horiz-adv-x="636" 
d="M18 0v6c54 0 80 21 80 79v314h-84v13h84v55c0 120 88 192 226 192c72 0 123 -19 155 -47l75 56h4v-585c0 -50 11 -77 65 -77v-6h-266v6c54 0 65 27 65 77v389c-28 9 -47 36 -47 69c0 32 19 59 48 69c-18 27 -49 43 -87 43c-69 0 -101 -54 -101 -124v-117h114v-13h-114
v-314c0 -68 37 -79 91 -79v-6h-308z" />
    <glyph glyph-name="f_y" unicode="fy" horiz-adv-x="822" 
d="M18 0v6c54 0 80 21 80 79v314h-84v13h84v66c0 121 88 181 195 181c114 0 161 -67 161 -118c0 -41 -32 -69 -67 -69c-38 0 -67 30 -67 69c0 33 20 60 50 68c-10 26 -29 44 -60 44c-48 0 -75 -41 -75 -109v-132h366v-6c-59 0 -68 -33 -43 -86l80 -176l34 79
c25 58 40 100 40 129c0 32 -16 54 -61 54v6h191v-6c-45 0 -77 -24 -103 -64c-18 -28 -35 -70 -59 -124l-108 -239c-25 -54 -77 -153 -167 -153c-40 0 -54 19 -54 42c0 81 168 17 210 107l10 22l-159 318c-24 48 -43 84 -99 84h-78v-314c0 -68 37 -79 91 -79v-6h-308z" />
    <glyph glyph-name=".notdef" horiz-adv-x="275" 
 />
    <glyph glyph-name="A" unicode="A" horiz-adv-x="671" 
d="M-40 0v6c106 0 145 107 190 209l177 408h7l230 -486c29 -63 68 -131 132 -131v-6h-353v6c73 0 88 56 56 128l-32 70h-211l-7 -18c-35 -95 -28 -180 86 -180v-6h-275zM161 214h201l-103 227z" />
    <glyph glyph-name="B" unicode="B" horiz-adv-x="685" 
d="M28 0v6c70 0 85 22 85 98v410c0 76 -15 98 -85 98v6h331c183 0 263 -55 263 -149c0 -88 -70 -144 -242 -147v-3c189 -3 262 -61 262 -155s-74 -164 -261 -164h-353zM262 7h84c99 0 139 80 139 160c0 78 -39 149 -146 149h-77v-309zM262 323h57c103 0 145 60 145 145
c0 67 -27 143 -124 143h-78v-288z" />
    <glyph glyph-name="C" unicode="C" horiz-adv-x="690" 
d="M406 -12c-239 0 -366 136 -366 317c0 196 148 325 359 325c85 0 155 -21 228 -2l18 -211h-6c-59 147 -135 207 -230 207c-155 0 -208 -157 -208 -314s51 -316 203 -316c117 0 197 96 249 222l5 -1l-34 -197c-52 -16 -140 -30 -218 -30z" />
    <glyph glyph-name="D" unicode="D" horiz-adv-x="768" 
d="M28 0v6c70 0 85 22 85 98v410c0 76 -15 98 -85 98v6h335c226 0 363 -119 363 -309s-137 -309 -363 -309h-335zM262 7h82c165 0 222 149 222 302s-57 302 -221 302h-83v-604z" />
    <glyph glyph-name="E" unicode="E" horiz-adv-x="640" 
d="M28 0v6c70 0 85 22 85 98v410c0 76 -15 98 -85 98v6h539l14 -202l-4 -1c-26 115 -91 196 -243 196h-72v-299h27c114 0 164 61 182 145h5v-296h-5c-18 84 -68 144 -182 144h-27v-298h79c161 0 216 106 246 210l5 -1l-19 -216h-545z" />
    <glyph glyph-name="F" unicode="F" horiz-adv-x="602" 
d="M28 0v6c70 0 85 22 85 98v410c0 76 -15 98 -85 98v6h535l15 -206l-5 -1c-26 116 -97 200 -243 200h-68v-308h23c115 0 164 63 183 147h4v-300h-4c-19 83 -68 146 -183 146h-23v-184c0 -87 30 -106 100 -106v-6h-334z" />
    <glyph glyph-name="G" unicode="G" horiz-adv-x="780" 
d="M416 -12c-255 0 -376 140 -376 313c0 207 173 329 369 329c81 0 172 -21 245 -2l18 -203l-5 -1c-53 143 -152 199 -246 199c-156 0 -220 -154 -220 -324c0 -155 54 -305 213 -305c49 0 93 14 135 35v157c0 76 -18 104 -92 104v6h318v-6c-68 0 -83 -20 -83 -97v-162
c-68 -20 -172 -43 -276 -43z" />
    <glyph glyph-name="H" unicode="H" horiz-adv-x="811" 
d="M28 0v6c70 0 85 22 85 98v410c0 76 -15 98 -85 98v6h319v-6c-70 0 -85 -22 -85 -98v-197h287v197c0 76 -15 98 -85 98v6h318v-6c-70 0 -85 -22 -85 -98v-410c0 -76 15 -98 85 -98v-6h-318v6c70 0 85 22 85 98v204h-287v-204c0 -76 15 -98 85 -98v-6h-319z" />
    <glyph glyph-name="I" unicode="I" horiz-adv-x="375" 
d="M28 0v6c70 0 85 22 85 98v410c0 76 -15 98 -85 98v6h319v-6c-70 0 -85 -22 -85 -98v-410c0 -76 15 -98 85 -98v-6h-319z" />
    <glyph glyph-name="J" unicode="J" horiz-adv-x="363" 
d="M9 -167l-2 3c91 48 100 110 100 180v498c0 76 -15 98 -85 98v6h319v-6c-70 0 -85 -22 -85 -98v-472c0 -110 -124 -177 -247 -209z" />
    <glyph glyph-name="K" unicode="K" horiz-adv-x="725" 
d="M28 0v6c70 0 85 22 85 98v410c0 76 -15 98 -85 98v6h319v-6c-70 0 -85 -22 -85 -98v-257l168 167c59 59 93 109 93 143c0 27 -22 45 -77 45v6h283v-6c-56 0 -104 -24 -149 -59c-42 -32 -86 -75 -140 -130l-22 -22l210 -308c43 -63 77 -87 115 -87v-6h-234l-195 297
l-52 -52v-141c0 -76 15 -98 85 -98v-6h-319z" />
    <glyph glyph-name="L" unicode="L" horiz-adv-x="603" 
d="M28 0v6c70 0 85 22 85 98v410c0 76 -15 98 -85 98v6h334v-6c-70 0 -100 -20 -100 -106v-499h62c150 0 223 98 249 213l4 -1l-15 -219h-534z" />
    <glyph glyph-name="M" unicode="M" horiz-adv-x="923" 
d="M-5 0v6c106 0 135 51 150 282l12 155c8 110 -15 169 -119 169v6h253l201 -418l177 418h211v-6c-76 0 -88 -47 -85 -124l18 -359c5 -84 21 -123 95 -123v-6h-327v6c72 0 88 40 84 116l-23 409l-220 -518h-4l-246 501l-18 -226c-16 -232 1 -282 105 -282v-6h-264z" />
    <glyph glyph-name="N" unicode="N" horiz-adv-x="723" 
d="M10 0v6c115 0 127 59 127 271v181c0 102 -26 154 -120 154v6h218l355 -391v114c0 212 -12 271 -127 271v6h265v-6c-115 0 -128 -59 -128 -271v-348l-5 -1l-448 493v-208c0 -212 13 -271 128 -271v-6h-265z" />
    <glyph glyph-name="O" unicode="O" horiz-adv-x="769" 
d="M385 -12c-199 0 -345 134 -345 321s146 321 345 321c198 0 345 -134 345 -321s-147 -321 -345 -321zM385 -4c145 0 184 155 184 313s-39 313 -184 313c-146 0 -185 -157 -185 -313c0 -157 40 -313 185 -313z" />
    <glyph glyph-name="P" unicode="P" horiz-adv-x="641" 
d="M28 0v6c70 0 85 22 85 98v410c0 76 -15 98 -85 98v6h328c194 0 266 -82 266 -181c0 -98 -72 -178 -266 -178h-53v7h21c108 0 139 90 139 171c0 82 -31 174 -139 174h-62v-507c0 -76 15 -98 85 -98v-6h-319z" />
    <glyph glyph-name="Q" unicode="Q" horiz-adv-x="769" 
d="M200 -138l-4 3c52 54 96 115 177 123c-193 5 -333 137 -333 321c0 187 146 321 345 321c198 0 345 -134 345 -321c0 -179 -135 -310 -320 -320c108 -9 175 -102 276 -102c51 0 80 26 97 50l4 -2c-37 -65 -87 -137 -166 -137c-99 0 -204 112 -312 112
c-54 0 -89 -29 -109 -48zM385 -4c145 0 184 155 184 313s-39 313 -184 313c-146 0 -185 -157 -185 -313c0 -157 40 -313 185 -313z" />
    <glyph glyph-name="R" unicode="R" horiz-adv-x="716" 
d="M28 0v6c70 0 85 22 85 98v410c0 76 -15 98 -85 98v6h331c191 0 276 -64 276 -163c0 -130 -144 -152 -258 -157v-4c229 -2 201 -60 246 -201c20 -63 38 -87 98 -87v-6h-219c-15 25 -25 60 -38 110c-34 143 -34 183 -141 183h-61v-189c0 -76 15 -98 85 -98v-6h-319z
M262 300h75c106 0 145 76 145 155c0 81 -40 156 -151 156h-69v-311z" />
    <glyph glyph-name="S" unicode="S" horiz-adv-x="580" 
d="M281 -12c-72 0 -159 14 -218 26l-10 189l6 1c43 -112 94 -209 221 -209c93 0 137 51 137 112c0 175 -357 116 -357 347c0 109 79 176 231 176c82 0 133 -20 202 -4l11 -199l-5 -1c-40 99 -86 198 -203 198c-83 0 -121 -49 -121 -104c0 -165 359 -113 359 -346
c0 -118 -94 -186 -253 -186z" />
    <glyph glyph-name="T" unicode="T" horiz-adv-x="668" 
d="M159 0v6c70 0 100 19 100 106v499h-8c-138 0 -185 -103 -219 -215l-4 1l16 221h579l17 -221l-5 -1c-33 112 -80 215 -219 215h-8v-499c0 -87 30 -106 100 -106v-6h-349z" />
    <glyph glyph-name="U" unicode="U" horiz-adv-x="704" 
d="M358 -12c-140 0 -257 63 -257 223v291c0 76 -15 110 -85 110v6h319v-6c-70 0 -85 -34 -85 -110v-324c0 -104 41 -174 149 -174c102 0 180 63 180 200v143c0 208 -15 265 -128 265v6h265v-6c-115 0 -127 -59 -127 -265v-143c0 -143 -81 -216 -231 -216z" />
    <glyph glyph-name="V" unicode="V" horiz-adv-x="657" 
d="M330 -5l-220 487c-28 61 -60 130 -131 130v6h351v-6c-77 -2 -86 -61 -57 -127l132 -307l80 200c24 61 37 110 37 146c0 52 -26 88 -88 88v6h260v-6c-61 0 -98 -31 -129 -85c-22 -37 -44 -88 -71 -153l-157 -379h-7z" />
    <glyph glyph-name="W" unicode="W" horiz-adv-x="988" 
d="M316 -5l-206 487c-22 51 -55 130 -130 130v6h328v-6c-71 0 -72 -52 -49 -112l128 -320l106 269l-12 33c-29 73 -67 130 -128 130v6h341v-6c-77 0 -82 -63 -59 -127l111 -299l72 193c23 62 34 111 34 146c0 54 -27 87 -87 87v6h260v-6c-61 0 -100 -33 -130 -83
c-24 -39 -44 -93 -68 -155l-147 -379h-6l-175 439l-176 -439h-7z" />
    <glyph glyph-name="X" unicode="X" horiz-adv-x="710" 
d="M-27 0v6c56 0 108 31 159 78c39 36 80 84 122 140l40 52l-126 195c-46 71 -96 141 -165 141v6h361v-6c-79 0 -72 -61 -39 -112l84 -130l27 36c48 64 71 111 71 146c0 37 -26 60 -75 60v6h292v-6c-55 0 -104 -26 -156 -72c-40 -35 -82 -83 -127 -142l-28 -35l142 -219
c43 -68 102 -138 168 -138v-6h-360v6c66 0 76 48 35 111l-99 151l-38 -49c-45 -63 -66 -109 -66 -144c0 -44 33 -69 85 -69v-6h-307z" />
    <glyph glyph-name="Y" unicode="Y" horiz-adv-x="677" 
d="M172 0v6c73 0 100 27 100 113v129l-159 257c-39 64 -79 107 -129 107v6h345v-6c-66 0 -80 -45 -42 -107l126 -209h1l61 105c40 68 60 114 60 147c0 38 -23 64 -87 64v6h261v-6c-58 0 -96 -26 -130 -68c-25 -31 -52 -74 -96 -149l-62 -103v-173c0 -86 28 -113 100 -113v-6
h-349z" />
    <glyph glyph-name="Z" unicode="Z" horiz-adv-x="626" 
d="M29 0l-1 2l383 608h-138c-119 0 -191 -106 -220 -209l-6 1l18 216h519l2 -2l-386 -608h161c121 0 191 112 220 211h6l-19 -219h-539z" />
    <glyph glyph-name="a" unicode="a" horiz-adv-x="529" 
d="M178 -11c-85 0 -143 44 -143 116c0 83 77 116 171 116c38 0 79 -6 110 -15v103c0 60 -14 108 -81 108c-45 0 -72 -22 -89 -46c26 -11 42 -38 42 -65c0 -37 -30 -67 -68 -67c-43 0 -66 36 -66 70c0 63 76 114 188 114c99 0 211 -41 211 -156v-217c0 -23 12 -31 27 -31
c28 0 52 31 66 53l5 -3c-25 -40 -59 -79 -124 -79c-56 0 -91 29 -104 70c-27 -37 -70 -71 -145 -71zM240 17c29 0 54 17 76 46v135c-18 5 -39 10 -59 10c-54 0 -82 -33 -82 -97c0 -53 20 -94 65 -94z" />
    <glyph glyph-name="b" unicode="b" horiz-adv-x="553" 
d="M295 -11c-57 0 -91 14 -118 34l-107 -33l-3 1v575c0 50 -11 76 -65 76v6l201 20v-312c27 32 71 67 138 67c117 0 176 -105 176 -213c0 -121 -75 -221 -222 -221zM271 -4c79 0 103 112 103 205c0 101 -27 185 -96 185c-32 0 -56 -17 -75 -39v-295c5 -24 25 -56 68 -56z
" />
    <glyph glyph-name="c" unicode="c" horiz-adv-x="483" 
d="M256 -11c-144 0 -222 103 -222 217c0 136 110 217 236 217c114 0 179 -69 179 -132c0 -44 -33 -72 -71 -72c-40 0 -71 32 -71 71c0 36 24 65 58 71c-12 29 -36 56 -79 56c-84 0 -111 -105 -111 -197c0 -132 51 -208 136 -208c63 0 110 43 139 86l6 -4
c-31 -46 -91 -105 -200 -105z" />
    <glyph glyph-name="d" unicode="d" horiz-adv-x="562" 
d="M217 -11c-114 0 -181 102 -181 215c0 121 77 219 210 219c47 0 81 -13 103 -30v173c0 58 -26 76 -80 76v6l216 20v-585c0 -50 11 -77 65 -77v-6h-197v55c-29 -35 -72 -66 -136 -66zM279 26c31 0 53 16 70 36v291c-10 32 -37 61 -73 61c-72 0 -97 -120 -97 -204
c0 -102 32 -184 100 -184z" />
    <glyph glyph-name="e" unicode="e" horiz-adv-x="501" 
d="M263 -11c-150 0 -229 104 -229 217c0 123 93 217 228 217c118 0 202 -73 205 -196h-292c0 -132 50 -215 142 -215c69 0 116 47 143 86l6 -4c-33 -46 -90 -105 -203 -105zM259 417c-58 0 -81 -102 -83 -182h156c-1 47 -4 182 -73 182z" />
    <glyph glyph-name="f" unicode="f" horiz-adv-x="360" 
d="M18 0v6c54 0 80 21 80 79v314h-84v13h84v66c0 121 88 181 195 181c114 0 161 -67 161 -118c0 -41 -32 -69 -67 -69c-38 0 -67 30 -67 69c0 33 20 60 50 68c-10 26 -29 44 -60 44c-48 0 -75 -41 -75 -109v-132h114v-13h-114v-314c0 -68 37 -79 91 -79v-6h-308z" />
    <glyph glyph-name="g" unicode="g" horiz-adv-x="484" 
d="M226 -174c-119 0 -211 27 -211 83c0 48 68 63 99 69c-36 11 -60 29 -60 66c0 51 44 78 89 95c-67 23 -107 72 -107 134c0 87 79 150 202 150c41 0 77 -7 108 -20c42 82 50 112 73 127c19 14 46 10 60 -11c15 -18 13 -42 -4 -58c-20 -19 -66 -36 -123 -61
c56 -26 89 -71 89 -127c0 -85 -78 -149 -203 -149c-33 0 -63 5 -89 13c-13 -6 -25 -17 -25 -30c0 -68 348 38 348 -143c0 -85 -76 -138 -246 -138zM238 417c-49 0 -67 -60 -67 -144c0 -83 18 -143 67 -143s67 60 67 143c0 84 -18 144 -67 144zM235 -169c133 0 158 51 158 80
c0 75 -175 39 -272 65c-23 -12 -37 -28 -37 -56c0 -51 36 -89 151 -89z" />
    <glyph glyph-name="h" unicode="h" horiz-adv-x="573" 
d="M12 0v6c54 0 65 27 65 77v483c0 50 -11 76 -65 76v6l202 20v-325c38 38 94 80 161 80c66 0 122 -39 122 -135v-205c0 -50 11 -77 65 -77v-6h-259v6c45 0 58 27 58 77v219c0 52 -23 75 -60 75c-36 0 -65 -22 -87 -44v-250c0 -50 11 -77 65 -77v-6h-267z" />
    <glyph glyph-name="i" unicode="i" horiz-adv-x="299" 
d="M150 483c-45 0 -82 32 -82 78c0 45 37 77 82 77s81 -32 81 -77c0 -46 -36 -78 -81 -78zM20 0v6c54 0 65 27 65 77v237c0 50 -11 77 -65 77v6l201 20v-340c0 -50 11 -77 65 -77v-6h-266z" />
    <glyph glyph-name="j" unicode="j" horiz-adv-x="286" 
d="M-1 -176l-3 4c85 46 87 101 87 167v324c0 52 -19 77 -73 77v7l209 20v-403c0 -110 -124 -167 -220 -196zM148 483c-45 0 -81 32 -81 78c0 45 36 77 81 77s81 -32 81 -77c0 -46 -36 -78 -81 -78z" />
    <glyph glyph-name="k" unicode="k" horiz-adv-x="552" 
d="M12 0v6c54 0 65 27 65 77v483c0 50 -11 76 -65 76v6l202 20v-489l87 86c42 41 66 75 66 101c0 25 -20 40 -67 40v6h238v-6c-50 0 -89 -17 -131 -50c-20 -15 -41 -33 -66 -58l-7 -7l147 -222c24 -37 52 -63 91 -63v-6h-201l-130 195l-27 -26v-86c0 -50 11 -77 65 -77v-6
h-267z" />
    <glyph glyph-name="l" unicode="l" horiz-adv-x="292" 
d="M13 0v6c54 0 65 27 65 77v483c0 50 -11 76 -65 76v6l201 20v-585c0 -50 11 -77 65 -77v-6h-266z" />
    <glyph glyph-name="m" unicode="m" horiz-adv-x="833" 
d="M19 0v6c54 0 65 27 65 77v237c0 50 -11 77 -65 77v6l194 20v-83c38 40 90 83 157 83c51 0 96 -25 111 -85c38 41 91 85 159 85c64 0 117 -39 117 -135v-205c0 -50 11 -77 65 -77v-6h-255v6c45 0 58 27 58 77v219c0 52 -23 75 -58 75c-36 0 -63 -24 -84 -46
c2 -13 4 -27 4 -43v-205c0 -50 10 -77 61 -77v-6h-251v6c45 0 57 27 57 77v219c0 52 -22 75 -58 75c-32 0 -58 -21 -79 -42v-252c0 -50 12 -77 57 -77v-6h-255z" />
    <glyph glyph-name="n" unicode="n" horiz-adv-x="580" 
d="M19 0v6c54 0 65 27 65 77v237c0 50 -11 77 -65 77v6l198 20v-84c38 40 95 84 165 84c65 0 122 -39 122 -135v-205c0 -50 11 -77 65 -77v-6h-259v6c45 0 58 27 58 77v219c0 52 -23 75 -60 75c-36 0 -65 -22 -87 -44v-250c0 -50 12 -77 57 -77v-6h-259z" />
    <glyph glyph-name="o" unicode="o" horiz-adv-x="548" 
d="M274 -11c-131 0 -240 82 -240 217c0 134 109 217 240 217c132 0 240 -83 240 -217c0 -135 -108 -217 -240 -217zM274 -4c70 0 95 79 95 210s-25 209 -95 209c-69 0 -95 -78 -95 -209s26 -210 95 -210z" />
    <glyph glyph-name="p" unicode="p" horiz-adv-x="562" 
d="M12 -163v6c54 0 65 29 65 79v395c0 50 -11 79 -65 79v6l198 20v-66c28 34 71 67 135 67c114 0 182 -102 182 -216c0 -119 -75 -218 -210 -218c-49 0 -83 13 -104 29v-102c0 -50 20 -73 73 -73v-6h-274zM284 386c-32 0 -55 -17 -71 -36v-266c0 -57 36 -86 74 -86
c72 0 96 114 96 202c0 108 -31 186 -99 186z" />
    <glyph glyph-name="q" unicode="q" horiz-adv-x="553" 
d="M277 -163v6c54 0 72 25 72 79v133c-27 -32 -71 -66 -137 -66c-117 0 -176 106 -176 211c0 124 80 223 222 223c59 0 94 -18 119 -36l105 35l4 -1v-499c0 -50 11 -79 65 -79v-6h-274zM282 416c-79 0 -103 -112 -103 -205c0 -102 27 -185 96 -185c31 0 55 17 74 38v299
c-7 23 -26 53 -67 53z" />
    <glyph glyph-name="r" unicode="r" horiz-adv-x="437" 
d="M19 0v6c54 0 65 29 65 79v232c0 50 -11 79 -65 79v6l198 20v-136c21 70 68 137 134 137c52 0 78 -39 78 -76c0 -42 -33 -75 -73 -75c-41 0 -76 34 -73 81c-27 -12 -50 -39 -62 -71v-197c0 -55 18 -79 72 -79v-6h-274z" />
    <glyph glyph-name="s" unicode="s" horiz-adv-x="435" 
d="M209 -11c-54 0 -120 11 -160 19l-5 130l5 1c33 -71 65 -144 156 -144c69 0 87 41 87 69c0 112 -245 68 -245 230c0 82 62 129 172 129c59 0 99 -14 150 -2l6 -140l-5 -1c-29 65 -68 137 -145 137c-55 0 -76 -36 -76 -66c0 -106 248 -65 248 -227
c0 -87 -73 -135 -188 -135z" />
    <glyph glyph-name="t" unicode="t" horiz-adv-x="352" 
d="M204 -11c-74 0 -125 43 -125 131v279h-65v13h65v107l137 26v-133h123v-13h-123v-300c0 -50 17 -73 52 -73c40 0 70 30 92 57l5 -4c-34 -41 -82 -90 -161 -90z" />
    <glyph glyph-name="u" unicode="u" horiz-adv-x="572" 
d="M197 -11c-65 0 -122 38 -122 134v194c0 50 -11 79 -65 79v6l201 20v-312c0 -52 23 -76 60 -76c35 0 64 22 87 45v238c0 50 -12 79 -57 79v6l194 20v-337c0 -50 11 -79 65 -79v-6h-198v73c-39 -41 -96 -84 -165 -84z" />
    <glyph glyph-name="v" unicode="v" horiz-adv-x="493" 
d="M245 -5l-161 320c-24 48 -53 91 -98 91v6h287v-6c-59 0 -68 -33 -44 -86l81 -176l36 83c23 55 37 96 37 126c0 31 -16 53 -61 53v6h192v-6c-44 0 -75 -23 -100 -60c-19 -29 -38 -70 -61 -124l-103 -227h-5z" />
    <glyph glyph-name="w" unicode="w" horiz-adv-x="755" 
d="M250 -5l-161 320c-24 48 -53 91 -98 91v6h274v-6c-55 0 -58 -33 -34 -86l82 -178l66 153l-10 23c-22 48 -41 88 -80 88v6h267v-6c-59 0 -66 -33 -45 -86l67 -170l32 81c22 53 37 97 37 127c0 28 -14 48 -57 48v6h184v-6c-43 0 -76 -21 -99 -56c-21 -31 -37 -74 -57 -124
l-98 -231h-5l-130 288l-130 -288h-5z" />
    <glyph glyph-name="x" unicode="x" horiz-adv-x="509" 
d="M-17 0v6c38 0 78 20 116 53c28 25 55 59 83 96l21 29l-72 119c-37 59 -71 103 -123 103v6h274v-6c-48 0 -47 -37 -25 -71l50 -81l16 21c26 35 44 68 44 92c0 25 -17 39 -57 39v6h199v-6c-39 0 -73 -19 -107 -51c-24 -23 -48 -53 -75 -88l-16 -20l86 -139
c35 -55 74 -102 124 -102v-6h-281v6c50 0 49 39 26 76l-59 96l-21 -31c-27 -38 -44 -73 -44 -99s18 -42 60 -42v-6h-219z" />
    <glyph glyph-name="y" unicode="y" horiz-adv-x="500" 
d="M83 -174c-40 0 -54 19 -54 42c0 81 168 17 210 107l10 22l-159 318c-24 48 -52 91 -98 91v6h287v-6c-59 0 -68 -33 -43 -86l80 -176l34 79c25 58 40 100 40 129c0 32 -16 54 -61 54v6h191v-6c-45 0 -77 -24 -103 -64c-18 -28 -35 -70 -59 -124l-108 -239
c-25 -54 -77 -153 -167 -153z" />
    <glyph glyph-name="z" unicode="z" horiz-adv-x="471" 
d="M34 0l-2 3l250 402h-65c-87 0 -145 -88 -172 -166l-5 1l17 172h373l2 -3l-249 -402h73c93 0 146 96 175 164h5l-18 -171h-384z" />
    <glyph glyph-name="period" unicode="." horiz-adv-x="247" 
d="M124 -9c-43 0 -78 35 -78 78s35 78 78 78s77 -35 77 -78s-34 -78 -77 -78z" />
    <glyph glyph-name="ellipsis" unicode="&#x2026;" horiz-adv-x="807" 
d="M124 -9c-43 0 -78 35 -78 78s35 78 78 78s77 -35 77 -78s-34 -78 -77 -78zM404 -9c-43 0 -78 35 -78 78s35 78 78 78s77 -35 77 -78s-34 -78 -77 -78zM684 -9c-43 0 -78 35 -78 78s35 78 78 78s77 -35 77 -78s-34 -78 -77 -78z" />
    <glyph glyph-name="comma" unicode="," horiz-adv-x="254" 
d="M41 -138l-3 4c62 23 121 81 125 149c-12 -9 -27 -15 -44 -15c-40 0 -73 33 -73 73s34 74 79 74c49 0 80 -40 80 -93c0 -72 -57 -156 -164 -192z" />
    <glyph glyph-name="quotesinglbase" unicode="&#x201a;" horiz-adv-x="254" 
d="M41 -138l-3 4c62 23 121 81 125 149c-12 -9 -27 -15 -44 -15c-40 0 -73 33 -73 73s34 74 79 74c49 0 80 -40 80 -93c0 -72 -57 -156 -164 -192z" />
    <glyph glyph-name="quotedblbase" unicode="&#x201e;" horiz-adv-x="471" 
d="M41 -138l-3 4c62 23 121 81 125 149c-12 -9 -27 -15 -44 -15c-40 0 -73 33 -73 73s34 74 79 74c49 0 80 -40 80 -93c0 -72 -57 -156 -164 -192zM258 -138l-2 4c61 23 120 81 125 149c-13 -9 -28 -15 -44 -15c-41 0 -74 33 -74 73s34 74 80 74c49 0 80 -40 80 -93
c0 -72 -57 -156 -165 -192z" />
    <glyph glyph-name="periodcentered" unicode="&#xb7;" horiz-adv-x="253" 
d="M126 170c-43 0 -77 35 -77 78s34 78 77 78s78 -35 78 -78s-35 -78 -78 -78z" />
    <glyph glyph-name="quotesingle" unicode="'" horiz-adv-x="203" 
d="M98 359c-24 104 -62 163 -62 208c0 34 22 63 66 63c42 0 65 -28 65 -62c0 -46 -38 -106 -61 -209h-8z" />
    <glyph glyph-name="quotedbl" unicode="&#x22;" horiz-adv-x="385" 
d="M98 359c-24 104 -62 163 -62 208c0 34 22 63 66 63c42 0 65 -28 65 -62c0 -46 -38 -106 -61 -209h-8zM279 359c-24 104 -61 163 -61 208c0 34 22 63 65 63c42 0 66 -28 66 -62c0 -46 -39 -106 -62 -209h-8z" />
    <glyph glyph-name="quoteleft" unicode="&#x2018;" horiz-adv-x="238" 
d="M200 685l2 -4c-61 -23 -120 -81 -124 -149c12 9 27 15 44 15c40 0 73 -33 73 -73s-34 -74 -79 -74c-50 0 -80 40 -80 93c0 72 56 156 164 192z" />
    <glyph glyph-name="quoteright" unicode="&#x2019;" horiz-adv-x="245" 
d="M51 400l-3 4c62 23 120 81 125 149c-12 -9 -27 -15 -44 -15c-40 0 -73 33 -73 73s33 74 79 74c49 0 80 -40 80 -93c0 -72 -57 -156 -164 -192z" />
    <glyph glyph-name="quotedblleft" unicode="&#x201c;" horiz-adv-x="456" 
d="M200 685l2 -4c-61 -23 -120 -81 -124 -149c12 9 27 15 44 15c40 0 73 -33 73 -73s-34 -74 -79 -74c-50 0 -80 40 -80 93c0 72 56 156 164 192zM417 685l3 -4c-62 -23 -120 -81 -125 -149c12 9 27 15 44 15c40 0 73 -33 73 -73s-33 -74 -79 -74c-49 0 -80 40 -80 93
c0 72 57 156 164 192z" />
    <glyph glyph-name="quotedblright" unicode="&#x201d;" horiz-adv-x="462" 
d="M51 400l-3 4c62 23 120 81 125 149c-12 -9 -27 -15 -44 -15c-40 0 -73 33 -73 73s33 74 79 74c49 0 80 -40 80 -93c0 -72 -57 -156 -164 -192zM268 400l-2 4c61 23 120 81 124 149c-12 -9 -27 -15 -44 -15c-40 0 -73 33 -73 73s34 74 79 74c50 0 80 -40 80 -93
c0 -72 -56 -156 -164 -192z" />
    <glyph glyph-name="asterisk" unicode="*" horiz-adv-x="423" 
d="M60 546c12 23 38 30 60 17c21 -12 33 -46 81 -96l-3 -5c-67 16 -102 10 -123 22c-20 11 -31 35 -15 62zM59 369c-13 23 -7 49 16 61c20 13 56 6 123 22l3 -4c-48 -50 -59 -84 -81 -96c-19 -12 -46 -9 -61 17zM212 281c-30 0 -46 21 -46 44c0 25 24 52 44 118h4
c20 -66 44 -94 44 -118c0 -25 -19 -44 -46 -44zM365 369c-15 -26 -41 -29 -61 -17c-22 12 -33 46 -80 96l2 4c67 -16 103 -9 124 -22c21 -12 28 -38 15 -61zM364 546c16 -27 5 -51 -15 -62c-21 -12 -56 -6 -123 -22l-2 5c47 50 59 84 80 96c21 13 48 6 60 -17zM212 634
c27 0 46 -19 46 -44s-24 -52 -44 -118h-4c-20 66 -44 93 -44 118c0 23 16 44 46 44z" />
    <glyph glyph-name="underscore" unicode="_" horiz-adv-x="516" 
d="M0 -58v9h516v-9h-516z" />
    <glyph glyph-name="uni00AD" unicode="&#xad;" horiz-adv-x="368" 
d="M53 218v33h261v-33h-261z" />
    <glyph glyph-name="hyphen" unicode="-" horiz-adv-x="378" 
d="M57 216v38h264v-38h-264z" />
    <glyph glyph-name="endash" unicode="&#x2013;" horiz-adv-x="572" 
d="M57 216v38h458v-38h-458z" />
    <glyph glyph-name="emdash" unicode="&#x2014;" horiz-adv-x="868" 
d="M57 216v38h754v-38h-754z" />
    <glyph glyph-name="colon" unicode=":" horiz-adv-x="261" 
d="M130 -9c-43 0 -77 35 -77 78s34 78 77 78s78 -35 78 -78s-35 -78 -78 -78zM130 256c-43 0 -77 35 -77 78s34 77 77 77s78 -34 78 -77s-35 -78 -78 -78z" />
    <glyph glyph-name="semicolon" unicode=";" horiz-adv-x="270" 
d="M134 256c-43 0 -78 35 -78 78s35 77 78 77s77 -34 77 -77s-34 -78 -77 -78zM51 -138l-3 4c62 23 121 81 125 149c-12 -9 -27 -15 -44 -15c-40 0 -73 33 -73 73s34 74 79 74c49 0 80 -40 80 -93c0 -72 -57 -156 -164 -192z" />
    <glyph glyph-name="exclam" unicode="!" horiz-adv-x="257" 
d="M125 197c-19 214 -79 282 -79 349c0 52 37 84 82 84s84 -31 84 -84c0 -67 -61 -135 -80 -349h-7zM129 -9c-43 0 -78 35 -78 78s35 78 78 78s78 -35 78 -78s-35 -78 -78 -78z" />
    <glyph glyph-name="exclamdown" unicode="&#xa1;" horiz-adv-x="246" 
d="M124 -227c-45 0 -84 31 -84 84c0 67 60 134 79 348h8c19 -214 79 -281 79 -348c0 -52 -37 -84 -82 -84zM123 411c43 0 77 -34 77 -77s-34 -78 -77 -78s-78 35 -78 78s35 77 78 77z" />
    <glyph glyph-name="question" unicode="?" horiz-adv-x="543" 
d="M244 197l-5 100c77 21 125 71 125 165c0 86 -39 160 -128 160c-59 0 -98 -31 -118 -67c36 -6 62 -38 62 -77c0 -43 -33 -77 -74 -77c-44 0 -74 37 -74 80c0 73 87 149 235 149c150 0 243 -77 243 -170c0 -124 -177 -149 -256 -168l-4 -95h-6zM250 -9c-43 0 -78 35 -78 78
s35 78 78 78s77 -35 77 -78s-34 -78 -77 -78z" />
    <glyph glyph-name="questiondown" unicode="&#xbf;" horiz-adv-x="534" 
d="M271 -227c-149 0 -243 76 -243 170c0 124 177 149 256 167l5 95h6l4 -99c-77 -21 -125 -72 -125 -166c0 -86 39 -159 128 -159c59 0 98 31 118 67c-35 6 -62 37 -62 76c0 44 33 78 75 78c44 0 74 -37 74 -80c0 -73 -87 -149 -236 -149zM289 411c43 0 77 -34 77 -77
s-34 -78 -77 -78s-78 35 -78 78s35 77 78 77z" />
    <glyph glyph-name="bracketleft" unicode="[" horiz-adv-x="322" 
d="M63 -168v860h261v-6h-94c-26 0 -47 -10 -47 -43v-763c0 -33 21 -43 47 -43h94v-5h-261z" />
    <glyph glyph-name="bracketright" unicode="]" horiz-adv-x="322" 
d="M-1 -168v5h94c26 0 47 10 47 43v763c0 33 -21 43 -47 43h-94v6h260v-860h-260z" />
    <glyph glyph-name="braceleft" unicode="{" horiz-adv-x="353" 
d="M346 -174c-146 0 -221 29 -221 116c0 48 20 92 20 162c0 114 -55 155 -157 155v6c102 0 157 41 157 155c0 69 -20 114 -20 162c0 86 75 116 221 116v-5c-96 -2 -118 -31 -118 -88c0 -79 44 -167 44 -227c0 -84 -88 -109 -226 -114v-5c138 -11 226 -30 226 -113
c0 -60 -44 -148 -44 -227c0 -57 22 -87 118 -88v-5z" />
    <glyph glyph-name="braceright" unicode="}" horiz-adv-x="353" 
d="M7 -169c96 1 118 31 118 88c0 79 -44 167 -44 227c0 83 88 102 226 113v5c-138 5 -226 30 -226 114c0 60 44 148 44 227c0 57 -22 86 -118 88v5c146 0 221 -30 221 -116c0 -48 -20 -93 -20 -162c0 -114 55 -155 157 -155v-6c-102 0 -157 -41 -157 -155
c0 -70 20 -114 20 -162c0 -87 -75 -116 -221 -116v5z" />
    <glyph glyph-name="parenleft" unicode="(" horiz-adv-x="338" 
d="M344 -182c-98 75 -312 189 -312 444c0 254 214 368 312 444l3 -4c-78 -58 -183 -196 -183 -440c0 -245 105 -382 183 -440z" />
    <glyph glyph-name="parenright" unicode=")" horiz-adv-x="338" 
d="M-6 -182l-3 4c78 58 184 195 184 440c0 244 -106 382 -184 440l3 4c98 -76 312 -190 312 -444c0 -255 -214 -369 -312 -444z" />
    <glyph glyph-name="slash" unicode="/" horiz-adv-x="438" 
d="M31 -164l-8 4l383 859l9 -4z" />
    <glyph glyph-name="backslash" unicode="\" horiz-adv-x="438" 
d="M408 -164l-384 859l8 4l383 -859z" />
    <glyph glyph-name="bar" unicode="|" horiz-adv-x="136" 
d="M63 -168v860h10v-860h-10z" />
    <glyph glyph-name="brokenbar" unicode="&#xa6;" horiz-adv-x="144" 
d="M67 -168v400h10v-400h-10zM67 342v350h10v-350h-10z" />
    <glyph glyph-name="dollar" unicode="$" horiz-adv-x="564" 
d="M276 -105v93c-145 2 -236 68 -236 142c0 41 28 77 73 77c44 0 76 -33 76 -75c0 -38 -26 -69 -59 -76c19 -29 61 -60 146 -60v254c-105 42 -220 77 -220 205c0 107 80 173 220 175v66h10v-66c135 -2 216 -63 216 -136c0 -43 -28 -77 -73 -77c-44 0 -76 32 -76 75
c0 35 23 65 55 74c-19 28 -52 56 -122 56v-229c105 -42 236 -79 236 -218c0 -110 -82 -186 -236 -187v-93h-10zM414 114c0 73 -60 104 -128 132v-250c93 7 128 63 128 118zM162 518c0 -65 50 -94 114 -121v225c-80 -4 -114 -53 -114 -104z" />
    <glyph glyph-name="Euro" unicode="&#x20ac;" horiz-adv-x="681" 
d="M392 -12c-157 0 -269 100 -292 254h-66v9h65c-2 17 -3 34 -3 52c0 25 2 49 6 72h-68v9h69c32 150 150 246 305 246c150 0 223 -91 223 -162c0 -47 -31 -84 -76 -84c-42 0 -76 35 -76 79c0 40 28 73 66 78c-17 42 -49 81 -116 81c-117 0 -171 -114 -185 -238h195v-9h-196
c-2 -22 -3 -44 -3 -66c0 -17 0 -37 2 -58h197v-9h-196c11 -113 56 -240 183 -240c92 0 162 66 205 169l7 -3c-47 -109 -115 -180 -246 -180z" />
    <glyph glyph-name="cent" unicode="&#xa2;" horiz-adv-x="500" 
d="M265 10v95c-146 1 -223 103 -223 217c0 131 103 212 224 217v83h9v-83c118 1 182 -69 182 -132c0 -44 -33 -72 -71 -72c-40 0 -71 32 -71 71c0 36 24 65 58 71c-12 29 -36 56 -79 56c-84 0 -111 -105 -111 -197c0 -132 51 -208 136 -208c63 0 110 43 139 86l6 -4
c-31 -45 -87 -101 -191 -105v-95h-8z" />
    <glyph glyph-name="yen" unicode="&#xa5;" horiz-adv-x="756" 
d="M210 0v6c73 0 100 27 100 113v79h-162v9h162v43l-50 81h-112v9h107l-101 165c-39 65 -77 107 -128 107v6h332v-6c-65 0 -80 -44 -43 -107l122 -209h2l67 116c35 60 51 104 51 135c0 39 -24 65 -86 65v6h257v-6c-60 0 -99 -29 -134 -77c-23 -30 -44 -67 -80 -129l-39 -66
h127v-9h-133l-24 -41v-83h157v-9h-157v-79c0 -86 27 -113 100 -113v-6h-335z" />
    <glyph glyph-name="sterling" unicode="&#xa3;" horiz-adv-x="629" 
d="M140 -7c-52 0 -83 29 -83 71c0 49 43 80 118 80c15 0 34 -1 53 -4c-14 62 -61 119 -96 181h-93v9h88c-19 36 -33 75 -33 118c0 115 107 182 245 182c155 0 234 -83 234 -155c0 -45 -31 -82 -75 -82c-42 0 -76 35 -76 78c0 40 28 72 63 77c-17 39 -52 73 -117 73
c-96 0 -128 -74 -128 -175c0 -34 5 -75 11 -116h170v-9h-168c6 -44 12 -88 12 -126c0 -19 -1 -39 -4 -59c60 -8 128 -21 175 -21c86 0 128 39 130 130h6c7 -96 3 -256 -121 -256c-90 0 -120 83 -194 124c-14 -65 -47 -120 -117 -120zM137 0c65 0 101 60 93 125
c-18 7 -38 11 -62 11c-63 0 -102 -27 -102 -71c0 -36 23 -65 71 -65z" />
    <glyph glyph-name="plus" unicode="+" horiz-adv-x="518" 
d="M254 23v218h-217v9h217v218h10v-218h217v-9h-217v-218h-10z" />
    <glyph glyph-name="plusminus" unicode="&#xb1;" horiz-adv-x="565" 
d="M278 103v218h-218v9h218v218h9v-218h218v-9h-218v-218h-9zM60 0v9h445v-9h-445z" />
    <glyph glyph-name="minus" unicode="&#x2212;" horiz-adv-x="570" 
d="M62 241v9h445v-9h-445z" />
    <glyph glyph-name="multiply" unicode="&#xd7;" horiz-adv-x="460" 
d="M50 57l-7 7l181 181l-181 180l7 6l181 -180l180 180l6 -6l-180 -180l180 -181l-6 -7l-180 181z" />
    <glyph glyph-name="divide" unicode="&#xf7;" horiz-adv-x="574" 
d="M287 360c-27 0 -48 23 -48 49c0 27 21 48 48 48s48 -21 48 -48c0 -26 -21 -49 -48 -49zM287 34c-27 0 -48 22 -48 48c0 27 21 49 48 49s48 -22 48 -49c0 -26 -21 -48 -48 -48zM64 241v9h445v-9h-445z" />
    <glyph glyph-name="equal" unicode="=" horiz-adv-x="570" 
d="M63 349v9h445v-9h-445zM63 132v10h445v-10h-445z" />
    <glyph glyph-name="notequal" unicode="&#x2260;" horiz-adv-x="570" 
d="M124 -1l-8 5l94 158h-150v10h155l123 207h-278v9h284l99 167l8 -5l-96 -162h150v-9h-156l-123 -207h279v-10h-284z" />
    <glyph glyph-name="less" unicode="&#x3c;" horiz-adv-x="468" 
d="M417 44l-388 198v6l388 198v-11l-375 -190l375 -190v-11z" />
    <glyph glyph-name="greater" unicode="&#x3e;" horiz-adv-x="468" 
d="M51 44v11l375 190l-375 190v11l388 -198v-6z" />
    <glyph glyph-name="mu" unicode="&#xb5;" horiz-adv-x="603" 
d="M145 -198c-80 0 -82 137 -82 221v384l137 14v-311c0 -52 23 -76 59 -76s65 22 88 45v327l136 15v-351c0 -34 13 -55 44 -55c19 0 31 8 45 16l3 -5c-34 -22 -71 -36 -119 -36c-75 0 -105 34 -105 83c-39 -41 -96 -84 -165 -84c-53 0 -100 24 -116 83v-38
c0 -95 118 -131 118 -192c0 -21 -13 -40 -43 -40z" />
    <glyph glyph-name="at" unicode="@" horiz-adv-x="802" 
d="M320 51c-77 0 -113 57 -113 130c0 114 86 219 217 219c43 0 71 -12 87 -33l107 29l5 -4l-54 -223c-3 -12 -8 -33 -8 -52c0 -28 10 -52 42 -52c70 0 137 77 137 197c0 168 -130 309 -307 309c-191 0 -345 -164 -345 -369c0 -174 111 -318 286 -318c78 0 159 27 222 75
l4 -6c-66 -53 -146 -80 -227 -80c-183 0 -330 138 -330 330c0 219 192 383 389 383c188 0 322 -149 322 -325c0 -118 -61 -209 -166 -209c-68 0 -113 23 -127 70c-36 -39 -83 -71 -141 -71zM380 86c28 0 55 18 80 45c-2 6 -2 13 -2 20c0 15 2 33 6 48l36 155
c-9 19 -24 34 -51 34c-80 0 -126 -138 -126 -216c0 -49 18 -86 57 -86z" />
    <glyph glyph-name="ampersand" unicode="&#x26;" horiz-adv-x="781" 
d="M290 -12c-145 0 -249 61 -249 156c0 88 85 126 186 159l-23 23c-49 48 -84 96 -84 153c0 96 100 151 229 151c133 0 203 -57 203 -126c0 -93 -127 -115 -192 -137l204 -198c14 35 22 67 25 89c4 41 -2 70 -98 70v7h231v-7c-93 0 -99 -28 -123 -91
c-10 -29 -19 -53 -29 -74l98 -94c49 -48 72 -62 115 -62v-7h-241l-53 51c-46 -39 -109 -63 -199 -63zM340 4c60 0 107 22 143 53l-251 242c-28 -24 -52 -68 -52 -134c0 -95 56 -161 160 -161zM349 623c-59 0 -92 -42 -92 -99c0 -44 20 -76 73 -127l26 -26
c45 28 83 73 83 144c0 56 -24 108 -90 108z" />
    <glyph glyph-name="section" unicode="&#xa7;" horiz-adv-x="484" 
d="M233 -71c-117 0 -182 55 -182 107c0 33 26 55 57 55c32 0 57 -25 57 -57c0 -27 -17 -50 -42 -56c15 -23 47 -45 103 -45c78 0 105 43 105 79c0 116 -278 84 -278 233c0 61 48 94 116 128c-54 24 -97 57 -97 122c0 82 72 135 180 135c109 0 166 -55 166 -105
c0 -36 -28 -57 -57 -57c-32 0 -57 26 -57 57c0 28 18 52 44 57c-13 21 -39 43 -90 43c-65 0 -100 -36 -100 -77c0 -119 278 -85 278 -239c0 -57 -38 -87 -112 -125c52 -24 95 -57 95 -120c0 -81 -70 -135 -186 -135zM318 186c18 13 40 29 40 63c0 71 -101 86 -182 121
c-21 -11 -45 -31 -45 -65c0 -69 104 -83 187 -119z" />
    <glyph glyph-name="paragraph" unicode="&#xb6;" horiz-adv-x="495" 
d="M252 -59v332c-144 0 -221 78 -221 171c0 98 88 174 215 174h212v-7h-60v-670h-8v670h-129v-670h-9z" />
    <glyph glyph-name="numbersign" unicode="#" horiz-adv-x="534" 
d="M83 0l40 180h-90v10h93l53 240h-99v9h101l40 179h11l-40 -179h210l40 179h11l-40 -179h88v-9h-90l-53 -240h96v-10h-99l-40 -180h-11l40 180h-210l-40 -180h-11zM137 190h210l53 240h-210z" />
    <glyph glyph-name="guilsinglleft" unicode="&#x2039;" horiz-adv-x="349" 
d="M312 23l-289 199v4l289 199l3 -4l-207 -197l207 -197z" />
    <glyph glyph-name="guilsinglright" unicode="&#x203a;" horiz-adv-x="349" 
d="M36 23l-3 4l208 197l-208 197l3 4l289 -199v-4z" />
    <glyph glyph-name="guillemotleft" unicode="&#xab;" horiz-adv-x="582" 
d="M312 23l-289 199v4l289 199l3 -4l-207 -197l207 -197zM546 23l-289 199v4l289 199l3 -4l-208 -197l208 -197z" />
    <glyph glyph-name="guillemotright" unicode="&#xbb;" horiz-adv-x="582" 
d="M36 23l-3 4l208 197l-208 197l3 4l289 -199v-4zM270 23l-3 4l207 197l-207 197l3 4l289 -199v-4z" />
    <glyph glyph-name="dieresis" unicode="&#xa8;" horiz-adv-x="482" 
d="M151 491c-35 0 -66 30 -66 67c0 35 28 65 65 65s66 -29 66 -66c0 -36 -29 -66 -65 -66zM336 491c-35 0 -66 30 -66 67c0 35 28 65 65 65s66 -29 66 -66c0 -36 -29 -66 -65 -66z" />
    <glyph glyph-name="grave" unicode="`" horiz-adv-x="347" 
d="M280 474c-85 41 -149 68 -176 89c-26 22 -32 53 -14 74c18 22 50 22 76 -1c26 -22 63 -84 116 -160z" />
    <glyph glyph-name="tilde" unicode="&#x2dc;" horiz-adv-x="414" 
d="M59 485c5 51 13 148 85 148c52 0 103 -50 157 -50c45 0 52 34 55 59h5c-6 -64 -18 -149 -85 -149c-52 0 -102 50 -157 50c-45 0 -52 -34 -55 -59z" />
    <glyph glyph-name="circumflex" unicode="&#x2c6;" horiz-adv-x="453" 
d="M79 464l-2 2l112 151c10 13 22 22 39 22c18 0 30 -9 40 -22l112 -151l-2 -2l-150 81z" />
    <glyph glyph-name="acute" unicode="&#xb4;" horiz-adv-x="347" 
d="M73 474l-2 2c54 77 92 138 118 160c26 23 57 23 75 1c18 -21 12 -52 -14 -74c-27 -21 -91 -47 -177 -89z" />
    <glyph glyph-name="ring" unicode="&#x2da;" horiz-adv-x="346" 
d="M173 464c-73 0 -123 41 -123 101c0 61 50 103 123 103s123 -42 123 -103c0 -60 -50 -101 -123 -101zM173 467c32 0 36 57 36 98c0 42 -4 99 -36 99c-33 0 -37 -57 -37 -99c0 -41 4 -98 37 -98z" />
    <glyph glyph-name="cedilla" unicode="&#xb8;" horiz-adv-x="335" 
d="M156 -226c-50 0 -92 13 -122 32l4 5c18 -12 50 -22 78 -22c53 0 81 34 81 76c0 38 -22 67 -65 67c-14 0 -27 -3 -37 -8l-3 3l70 70l9 -2l-58 -58c15 4 36 7 60 7c75 0 125 -29 125 -82c0 -66 -75 -88 -142 -88z" />
    <glyph glyph-name="caron" unicode="&#x2c7;" horiz-adv-x="449" 
d="M228 465c-17 0 -29 9 -39 22l-112 151l2 2l149 -81l150 81l2 -2l-112 -151c-10 -13 -22 -22 -40 -22z" />
    <glyph glyph-name="ogonek" unicode="&#x2db;" horiz-adv-x="354" 
d="M177 -222c-72 0 -111 32 -111 82c0 92 138 119 202 150l3 -4c-42 -23 -99 -50 -99 -126c0 -54 30 -81 79 -81c21 0 39 5 51 9l2 -5c-33 -13 -84 -25 -127 -25z" />
    <glyph glyph-name="breve" unicode="&#x2d8;" horiz-adv-x="365" 
d="M184 476c-99 0 -126 108 -126 173h3c9 -39 40 -81 123 -81s113 42 122 81h3c0 -65 -27 -173 -125 -173z" />
    <glyph glyph-name="hungarumlaut" unicode="&#x2dd;" horiz-adv-x="480" 
d="M82 472l-2 2c32 78 55 143 74 166c18 25 45 29 64 15c20 -14 26 -40 6 -67c-19 -25 -74 -63 -142 -116zM250 472l-2 2c32 78 56 143 74 166c19 25 45 29 65 15c19 -14 26 -40 5 -67c-19 -25 -74 -63 -142 -116z" />
    <glyph glyph-name="dotaccent" unicode="&#x2d9;" horiz-adv-x="299" 
d="M154 491c-37 0 -68 31 -68 69c0 37 31 68 68 68c38 0 69 -31 69 -68c0 -38 -31 -69 -69 -69z" />
    <glyph glyph-name="macron" unicode="&#xaf;" horiz-adv-x="433" 
d="M73 500v37h289v-37h-289z" />
    <glyph glyph-name="agrave" unicode="&#xe0;" horiz-adv-x="529" 
d="M178 -11c-85 0 -143 44 -143 116c0 83 77 116 171 116c38 0 79 -6 110 -15v103c0 60 -14 108 -81 108c-45 0 -72 -22 -89 -46c26 -11 42 -38 42 -65c0 -37 -30 -67 -68 -67c-43 0 -66 36 -66 70c0 63 76 114 188 114c99 0 211 -41 211 -156v-217c0 -23 12 -31 27 -31
c28 0 52 31 66 53l5 -3c-25 -40 -59 -79 -124 -79c-56 0 -91 29 -104 70c-27 -37 -70 -71 -145 -71zM240 17c29 0 54 17 76 46v135c-18 5 -39 10 -59 10c-54 0 -82 -33 -82 -97c0 -53 20 -94 65 -94zM339 474c-85 41 -149 68 -176 89c-26 22 -32 53 -14 74
c18 22 50 22 76 -1c26 -22 63 -84 116 -160z" />
    <glyph glyph-name="aacute" unicode="&#xe1;" horiz-adv-x="529" 
d="M178 -11c-85 0 -143 44 -143 116c0 83 77 116 171 116c38 0 79 -6 110 -15v103c0 60 -14 108 -81 108c-45 0 -72 -22 -89 -46c26 -11 42 -38 42 -65c0 -37 -30 -67 -68 -67c-43 0 -66 36 -66 70c0 63 76 114 188 114c99 0 211 -41 211 -156v-217c0 -23 12 -31 27 -31
c28 0 52 31 66 53l5 -3c-25 -40 -59 -79 -124 -79c-56 0 -91 29 -104 70c-27 -37 -70 -71 -145 -71zM240 17c29 0 54 17 76 46v135c-18 5 -39 10 -59 10c-54 0 -82 -33 -82 -97c0 -53 20 -94 65 -94zM171 474l-2 2c54 77 92 138 118 160c26 23 57 23 75 1
c18 -21 12 -52 -14 -74c-27 -21 -91 -47 -177 -89z" />
    <glyph glyph-name="acircumflex" unicode="&#xe2;" horiz-adv-x="529" 
d="M178 -11c-85 0 -143 44 -143 116c0 83 77 116 171 116c38 0 79 -6 110 -15v103c0 60 -14 108 -81 108c-45 0 -72 -22 -89 -46c26 -11 42 -38 42 -65c0 -37 -30 -67 -68 -67c-43 0 -66 36 -66 70c0 63 76 114 188 114c99 0 211 -41 211 -156v-217c0 -23 12 -31 27 -31
c28 0 52 31 66 53l5 -3c-25 -40 -59 -79 -124 -79c-56 0 -91 29 -104 70c-27 -37 -70 -71 -145 -71zM240 17c29 0 54 17 76 46v135c-18 5 -39 10 -59 10c-54 0 -82 -33 -82 -97c0 -53 20 -94 65 -94zM103 464l-2 2l112 151c10 13 22 22 40 22c17 0 29 -9 39 -22l112 -151
l-2 -2l-149 81z" />
    <glyph glyph-name="adieresis" unicode="&#xe4;" horiz-adv-x="529" 
d="M178 -11c-85 0 -143 44 -143 116c0 83 77 116 171 116c38 0 79 -6 110 -15v103c0 60 -14 108 -81 108c-45 0 -72 -22 -89 -46c26 -11 42 -38 42 -65c0 -37 -30 -67 -68 -67c-43 0 -66 36 -66 70c0 63 76 114 188 114c99 0 211 -41 211 -156v-217c0 -23 12 -31 27 -31
c28 0 52 31 66 53l5 -3c-25 -40 -59 -79 -124 -79c-56 0 -91 29 -104 70c-27 -37 -70 -71 -145 -71zM240 17c29 0 54 17 76 46v135c-18 5 -39 10 -59 10c-54 0 -82 -33 -82 -97c0 -53 20 -94 65 -94zM158 491c-35 0 -66 30 -66 67c0 35 28 65 65 65s66 -29 66 -66
c0 -36 -29 -66 -65 -66zM343 491c-35 0 -66 30 -66 67c0 35 28 65 65 65s66 -29 66 -66c0 -36 -29 -66 -65 -66z" />
    <glyph glyph-name="atilde" unicode="&#xe3;" horiz-adv-x="529" 
d="M178 -11c-85 0 -143 44 -143 116c0 83 77 116 171 116c38 0 79 -6 110 -15v103c0 60 -14 108 -81 108c-45 0 -72 -22 -89 -46c26 -11 42 -38 42 -65c0 -37 -30 -67 -68 -67c-43 0 -66 36 -66 70c0 63 76 114 188 114c99 0 211 -41 211 -156v-217c0 -23 12 -31 27 -31
c28 0 52 31 66 53l5 -3c-25 -40 -59 -79 -124 -79c-56 0 -91 29 -104 70c-27 -37 -70 -71 -145 -71zM240 17c29 0 54 17 76 46v135c-18 5 -39 10 -59 10c-54 0 -82 -33 -82 -97c0 -53 20 -94 65 -94zM101 485c5 51 12 148 85 148c52 0 103 -50 157 -50c45 0 52 34 55 59h5
c-6 -64 -18 -149 -86 -149c-51 0 -101 50 -156 50c-45 0 -52 -34 -55 -59z" />
    <glyph glyph-name="aring" unicode="&#xe5;" horiz-adv-x="529" 
d="M178 -11c-85 0 -143 44 -143 116c0 83 77 116 171 116c38 0 79 -6 110 -15v103c0 60 -14 108 -81 108c-45 0 -72 -22 -89 -46c26 -11 42 -38 42 -65c0 -37 -30 -67 -68 -67c-43 0 -66 36 -66 70c0 63 76 114 188 114c99 0 211 -41 211 -156v-217c0 -23 12 -31 27 -31
c28 0 52 31 66 53l5 -3c-25 -40 -59 -79 -124 -79c-56 0 -91 29 -104 70c-27 -37 -70 -71 -145 -71zM240 17c29 0 54 17 76 46v135c-18 5 -39 10 -59 10c-54 0 -82 -33 -82 -97c0 -53 20 -94 65 -94zM249 464c-73 0 -123 41 -123 101c0 61 50 103 123 103s123 -42 123 -103
c0 -60 -50 -101 -123 -101zM249 467c32 0 36 57 36 98c0 42 -4 99 -36 99c-33 0 -37 -57 -37 -99c0 -41 4 -98 37 -98z" />
    <glyph glyph-name="ae" unicode="&#xe6;" horiz-adv-x="774" 
d="M182 -11c-91 0 -147 44 -147 116c0 83 76 116 171 116c38 0 79 -6 110 -15v103c0 60 -15 108 -81 108c-46 0 -72 -22 -89 -46c25 -11 42 -38 42 -65c0 -37 -30 -67 -69 -67c-42 0 -66 36 -66 70c0 63 77 114 189 114c57 0 113 -14 151 -49c37 31 85 49 143 49
c117 0 201 -73 205 -196h-292c-1 -132 49 -215 141 -215c69 0 116 47 144 86l5 -4c-32 -46 -89 -105 -203 -105c-85 0 -146 33 -181 83c-31 -39 -84 -83 -173 -83zM251 18c40 0 75 27 99 61c-22 34 -34 76 -34 119c-18 5 -39 10 -59 10c-54 0 -82 -35 -82 -92
c0 -58 27 -98 76 -98zM533 417c-59 0 -82 -102 -84 -182h157c0 47 -4 182 -73 182z" />
    <glyph glyph-name="ccedilla" unicode="&#xe7;" horiz-adv-x="483" 
d="M226 -226c-50 0 -92 13 -122 32l4 5c18 -12 50 -22 78 -22c53 0 81 34 81 76c0 38 -22 67 -65 67c-14 0 -27 -3 -37 -8l-3 3l63 64c-124 13 -191 109 -191 215c0 136 110 217 236 217c114 0 179 -69 179 -132c0 -44 -33 -72 -71 -72c-40 0 -71 32 -71 71
c0 36 24 65 58 71c-12 29 -36 56 -79 56c-84 0 -111 -105 -111 -197c0 -132 51 -208 136 -208c63 0 110 43 139 86l6 -4c-48 -67 -123 -111 -220 -104l-53 -53c15 4 36 7 60 7c75 0 125 -29 125 -82c0 -66 -75 -88 -142 -88z" />
    <glyph glyph-name="egrave" unicode="&#xe8;" horiz-adv-x="501" 
d="M263 -11c-150 0 -229 104 -229 217c0 123 93 217 228 217c118 0 202 -73 205 -196h-292c0 -132 50 -215 142 -215c69 0 116 47 143 86l6 -4c-33 -46 -90 -105 -203 -105zM259 417c-58 0 -81 -102 -83 -182h156c-1 47 -4 182 -73 182zM347 474c-86 41 -149 68 -176 89
c-26 22 -32 53 -14 74c18 22 49 22 75 -1c26 -22 63 -84 117 -160z" />
    <glyph glyph-name="eacute" unicode="&#xe9;" horiz-adv-x="501" 
d="M263 -11c-150 0 -229 104 -229 217c0 123 93 217 228 217c118 0 202 -73 205 -196h-292c0 -132 50 -215 142 -215c69 0 116 47 143 86l6 -4c-33 -46 -90 -105 -203 -105zM259 417c-58 0 -81 -102 -83 -182h156c-1 47 -4 182 -73 182zM174 474l-2 2c53 77 91 138 117 160
c26 23 57 23 76 1c18 -21 12 -52 -15 -74c-26 -21 -91 -47 -176 -89z" />
    <glyph glyph-name="ecircumflex" unicode="&#xea;" horiz-adv-x="501" 
d="M263 -11c-150 0 -229 104 -229 217c0 123 93 217 228 217c118 0 202 -73 205 -196h-292c0 -132 50 -215 142 -215c69 0 116 47 143 86l6 -4c-33 -46 -90 -105 -203 -105zM259 417c-58 0 -81 -102 -83 -182h156c-1 47 -4 182 -73 182zM108 464l-2 2l112 151
c11 13 23 22 40 22s29 -9 39 -22l113 -151l-2 -2l-150 81z" />
    <glyph glyph-name="edieresis" unicode="&#xeb;" horiz-adv-x="501" 
d="M263 -11c-150 0 -229 104 -229 217c0 123 93 217 228 217c118 0 202 -73 205 -196h-292c0 -132 50 -215 142 -215c69 0 116 47 143 86l6 -4c-33 -46 -90 -105 -203 -105zM259 417c-58 0 -81 -102 -83 -182h156c-1 47 -4 182 -73 182zM167 491c-35 0 -66 30 -66 67
c0 35 28 65 65 65s66 -29 66 -66c0 -36 -29 -66 -65 -66zM352 491c-35 0 -66 30 -66 67c0 35 28 65 65 65s66 -29 66 -66c0 -36 -29 -66 -65 -66z" />
    <glyph glyph-name="eth" unicode="&#xf0;" horiz-adv-x="552" 
d="M270 -11c-153 0 -235 89 -235 207c0 136 109 204 230 204c33 0 61 -6 83 -15c-17 62 -46 119 -91 169l-150 -79l-4 7l149 78c-33 36 -75 68 -126 96l2 4c47 -25 99 -52 150 -86l120 63l4 -8l-116 -61c120 -80 228 -188 228 -339c0 -113 -59 -240 -244 -240zM272 -4
c81 0 98 119 98 215c0 58 -6 113 -19 164c-16 7 -34 13 -54 13c-89 0 -119 -85 -119 -200c0 -93 19 -192 94 -192z" />
    <glyph glyph-name="igrave" unicode="&#xec;" horiz-adv-x="299" 
d="M20 0v6c54 0 65 27 65 77v237c0 50 -11 77 -65 77v6l201 20v-340c0 -50 11 -77 65 -77v-6h-266zM234 474c-86 41 -149 68 -176 89c-26 22 -32 53 -14 74c18 22 49 22 75 -1c26 -22 63 -84 117 -160z" />
    <glyph glyph-name="iacute" unicode="&#xed;" horiz-adv-x="299" 
d="M20 0v6c54 0 65 27 65 77v237c0 50 -11 77 -65 77v6l201 20v-340c0 -50 11 -77 65 -77v-6h-266zM52 474l-2 2c53 77 91 138 117 160c26 23 57 23 76 1c18 -21 12 -52 -15 -74c-26 -21 -91 -47 -176 -89z" />
    <glyph glyph-name="icircumflex" unicode="&#xee;" horiz-adv-x="299" 
d="M20 0v6c54 0 65 27 65 77v237c0 50 -11 77 -65 77v6l201 20v-340c0 -50 11 -77 65 -77v-6h-266zM-5 464l-2 2l112 151c10 13 22 22 40 22c17 0 29 -9 39 -22l112 -151l-2 -2l-149 81z" />
    <glyph glyph-name="idieresis" unicode="&#xef;" horiz-adv-x="299" 
d="M20 0v6c54 0 65 27 65 77v237c0 50 -11 77 -65 77v6l201 20v-340c0 -50 11 -77 65 -77v-6h-266zM52 491c-35 0 -66 30 -66 67c0 35 28 65 65 65s66 -29 66 -66c0 -36 -29 -66 -65 -66zM237 491c-35 0 -66 30 -66 67c0 35 28 65 65 65s66 -29 66 -66
c0 -36 -29 -66 -65 -66z" />
    <glyph glyph-name="dotlessi" unicode="&#x131;" horiz-adv-x="299" 
d="M20 0v6c54 0 65 27 65 77v237c0 50 -11 77 -65 77v6l201 20v-340c0 -50 11 -77 65 -77v-6h-266z" />
    <glyph glyph-name="lslash" unicode="&#x142;" horiz-adv-x="297" 
d="M10 255l-3 8l73 32v271c0 50 -11 76 -65 76v6l202 20v-315l72 32l3 -8l-75 -33v-261c0 -50 11 -77 65 -77v-6h-267v6c54 0 65 27 65 77v203z" />
    <glyph glyph-name="ntilde" unicode="&#xf1;" horiz-adv-x="580" 
d="M19 0v6c54 0 65 27 65 77v237c0 50 -11 77 -65 77v6l198 20v-84c38 40 95 84 165 84c65 0 122 -39 122 -135v-205c0 -50 11 -77 65 -77v-6h-259v6c45 0 58 27 58 77v219c0 52 -23 75 -60 75c-36 0 -65 -22 -87 -44v-250c0 -50 12 -77 57 -77v-6h-259zM143 485
c5 51 12 148 84 148c52 0 104 -50 157 -50c45 0 52 34 56 59h5c-6 -64 -19 -149 -86 -149c-51 0 -102 50 -156 50c-45 0 -52 -34 -55 -59z" />
    <glyph glyph-name="ograve" unicode="&#xf2;" horiz-adv-x="548" 
d="M274 -11c-131 0 -240 82 -240 217c0 134 109 217 240 217c132 0 240 -83 240 -217c0 -135 -108 -217 -240 -217zM274 -4c70 0 95 79 95 210s-25 209 -95 209c-69 0 -95 -78 -95 -209s26 -210 95 -210zM358 474c-86 41 -150 68 -176 89c-27 22 -33 53 -15 74
c19 22 50 22 76 -1c26 -22 63 -84 117 -160z" />
    <glyph glyph-name="oacute" unicode="&#xf3;" horiz-adv-x="548" 
d="M274 -11c-131 0 -240 82 -240 217c0 134 109 217 240 217c132 0 240 -83 240 -217c0 -135 -108 -217 -240 -217zM274 -4c70 0 95 79 95 210s-25 209 -95 209c-69 0 -95 -78 -95 -209s26 -210 95 -210zM196 474l-2 2c54 77 91 138 117 160c26 23 58 23 76 1
c18 -21 12 -52 -14 -74c-27 -21 -91 -47 -177 -89z" />
    <glyph glyph-name="ocircumflex" unicode="&#xf4;" horiz-adv-x="548" 
d="M274 -11c-131 0 -240 82 -240 217c0 134 109 217 240 217c132 0 240 -83 240 -217c0 -135 -108 -217 -240 -217zM274 -4c70 0 95 79 95 210s-25 209 -95 209c-69 0 -95 -78 -95 -209s26 -210 95 -210zM125 464l-2 2l112 151c11 13 23 22 40 22s29 -9 39 -22l113 -151
l-2 -2l-150 81z" />
    <glyph glyph-name="odieresis" unicode="&#xf6;" horiz-adv-x="548" 
d="M274 -11c-131 0 -240 82 -240 217c0 134 109 217 240 217c132 0 240 -83 240 -217c0 -135 -108 -217 -240 -217zM274 -4c70 0 95 79 95 210s-25 209 -95 209c-69 0 -95 -78 -95 -209s26 -210 95 -210zM183 491c-36 0 -66 30 -66 67c0 35 28 65 65 65c36 0 66 -29 66 -66
c0 -36 -30 -66 -65 -66zM367 491c-35 0 -65 30 -65 67c0 35 28 65 65 65c36 0 66 -29 66 -66c0 -36 -30 -66 -66 -66z" />
    <glyph glyph-name="otilde" unicode="&#xf5;" horiz-adv-x="548" 
d="M274 -11c-131 0 -240 82 -240 217c0 134 109 217 240 217c132 0 240 -83 240 -217c0 -135 -108 -217 -240 -217zM274 -4c70 0 95 79 95 210s-25 209 -95 209c-69 0 -95 -78 -95 -209s26 -210 95 -210zM124 485c5 51 13 148 85 148c52 0 103 -50 157 -50c45 0 52 34 55 59
h5c-6 -64 -18 -149 -85 -149c-52 0 -102 50 -157 50c-45 0 -52 -34 -55 -59z" />
    <glyph glyph-name="oslash" unicode="&#xf8;" horiz-adv-x="548" 
d="M274 -11c-59 0 -113 16 -155 46l-45 -49l-7 6l45 48c-48 38 -78 95 -78 166c0 134 109 217 240 217c58 0 112 -16 153 -46l47 50l6 -6l-46 -49c49 -38 80 -95 80 -166c0 -135 -108 -217 -240 -217zM274 -4c70 0 95 79 95 210c0 33 -3 64 -8 90l-173 -189
c12 -72 38 -111 86 -111zM274 415c-69 0 -95 -78 -95 -209c0 -34 2 -64 8 -89l172 189c-12 70 -37 109 -85 109z" />
    <glyph glyph-name="oe" unicode="&#x153;" horiz-adv-x="835" 
d="M274 -11c-132 0 -240 82 -240 217c0 134 108 217 240 217c67 0 126 -22 166 -63c37 39 91 63 157 63c117 0 201 -73 205 -196h-292c-1 -132 49 -215 142 -215c68 0 115 47 143 86l6 -4c-33 -46 -90 -105 -204 -105c-70 0 -123 23 -159 60c-40 -39 -98 -60 -164 -60z
M274 -4c70 0 95 79 95 210s-25 209 -95 209c-69 0 -95 -78 -95 -209s26 -210 95 -210zM594 417c-58 0 -82 -102 -84 -182h157c0 47 -4 182 -73 182z" />
    <glyph glyph-name="scaron" unicode="&#x161;" horiz-adv-x="435" 
d="M209 -11c-54 0 -120 11 -160 19l-5 130l5 1c33 -71 65 -144 156 -144c69 0 87 41 87 69c0 112 -245 68 -245 230c0 82 62 129 172 129c59 0 99 -14 150 -2l6 -140l-5 -1c-29 65 -68 137 -145 137c-55 0 -76 -36 -76 -66c0 -106 248 -65 248 -227
c0 -87 -73 -135 -188 -135zM217 465c-18 0 -30 9 -40 22l-112 151l2 2l150 -81l149 81l2 -2l-112 -151c-10 -13 -22 -22 -39 -22z" />
    <glyph glyph-name="ugrave" unicode="&#xf9;" horiz-adv-x="572" 
d="M197 -11c-65 0 -122 38 -122 134v194c0 50 -11 79 -65 79v6l201 20v-312c0 -52 23 -76 60 -76c35 0 64 22 87 45v238c0 50 -12 79 -57 79v6l194 20v-337c0 -50 11 -79 65 -79v-6h-198v73c-39 -41 -96 -84 -165 -84zM349 474c-86 41 -149 68 -176 89c-26 22 -32 53 -14 74
c18 22 49 22 75 -1c26 -22 63 -84 117 -160z" />
    <glyph glyph-name="uacute" unicode="&#xfa;" horiz-adv-x="572" 
d="M197 -11c-65 0 -122 38 -122 134v194c0 50 -11 79 -65 79v6l201 20v-312c0 -52 23 -76 60 -76c35 0 64 22 87 45v238c0 50 -12 79 -57 79v6l194 20v-337c0 -50 11 -79 65 -79v-6h-198v73c-39 -41 -96 -84 -165 -84zM197 474l-2 2c54 77 92 138 118 160c26 23 57 23 75 1
c18 -21 12 -52 -14 -74c-27 -21 -91 -47 -177 -89z" />
    <glyph glyph-name="ucircumflex" unicode="&#xfb;" horiz-adv-x="572" 
d="M197 -11c-65 0 -122 38 -122 134v194c0 50 -11 79 -65 79v6l201 20v-312c0 -52 23 -76 60 -76c35 0 64 22 87 45v238c0 50 -12 79 -57 79v6l194 20v-337c0 -50 11 -79 65 -79v-6h-198v73c-39 -41 -96 -84 -165 -84zM126 464l-2 2l112 151c11 13 23 22 40 22s29 -9 39 -22
l113 -151l-2 -2l-150 81z" />
    <glyph glyph-name="udieresis" unicode="&#xfc;" horiz-adv-x="572" 
d="M197 -11c-65 0 -122 38 -122 134v194c0 50 -11 79 -65 79v6l201 20v-312c0 -52 23 -76 60 -76c35 0 64 22 87 45v238c0 50 -12 79 -57 79v6l194 20v-337c0 -50 11 -79 65 -79v-6h-198v73c-39 -41 -96 -84 -165 -84zM184 491c-36 0 -66 30 -66 67c0 35 28 65 65 65
c36 0 66 -29 66 -66c0 -36 -30 -66 -65 -66zM369 491c-36 0 -66 30 -66 67c0 35 28 65 65 65c36 0 66 -29 66 -66c0 -36 -30 -66 -65 -66z" />
    <glyph glyph-name="yacute" unicode="&#xfd;" horiz-adv-x="500" 
d="M83 -174c-40 0 -54 19 -54 42c0 81 168 17 210 107l10 22l-159 318c-24 48 -52 91 -98 91v6h287v-6c-59 0 -68 -33 -43 -86l80 -176l34 79c25 58 40 100 40 129c0 32 -16 54 -61 54v6h191v-6c-45 0 -77 -24 -103 -64c-18 -28 -35 -70 -59 -124l-108 -239
c-25 -54 -77 -153 -167 -153zM199 474l-2 2c53 77 91 138 117 160c26 23 57 23 76 1c18 -21 12 -52 -15 -74c-26 -21 -91 -47 -176 -89z" />
    <glyph glyph-name="ydieresis" unicode="&#xff;" horiz-adv-x="500" 
d="M83 -174c-40 0 -54 19 -54 42c0 81 168 17 210 107l10 22l-159 318c-24 48 -52 91 -98 91v6h287v-6c-59 0 -68 -33 -43 -86l80 -176l34 79c25 58 40 100 40 129c0 32 -16 54 -61 54v6h191v-6c-45 0 -77 -24 -103 -64c-18 -28 -35 -70 -59 -124l-108 -239
c-25 -54 -77 -153 -167 -153zM182 491c-36 0 -66 30 -66 67c0 35 28 65 65 65c36 0 66 -29 66 -66c0 -36 -30 -66 -65 -66zM367 491c-36 0 -66 30 -66 67c0 35 28 65 65 65c36 0 66 -29 66 -66c0 -36 -30 -66 -65 -66z" />
    <glyph glyph-name="zcaron" unicode="&#x17e;" horiz-adv-x="471" 
d="M34 0l-2 3l250 402h-65c-87 0 -145 -88 -172 -166l-5 1l17 172h373l2 -3l-249 -402h73c93 0 146 96 175 164h5l-18 -171h-384zM245 465c-17 0 -29 9 -39 22l-112 151l2 2l149 -81l150 81l2 -2l-112 -151c-10 -13 -22 -22 -40 -22z" />
    <glyph glyph-name="thorn" unicode="&#xfe;" horiz-adv-x="547" 
d="M302 -11c-49 0 -83 13 -104 29v-102c0 -50 20 -73 73 -73v-6h-274v6c54 0 65 29 65 79v644c0 50 -11 76 -65 76v6l201 20v-308c28 33 71 63 132 63c113 0 181 -102 181 -216c0 -119 -75 -218 -209 -218zM272 -2c71 0 96 114 96 202c0 108 -31 186 -99 186
c-32 0 -55 -17 -71 -36v-291c9 -32 36 -61 74 -61z" />
    <glyph glyph-name="germandbls" unicode="&#xdf;" horiz-adv-x="655" 
d="M18 0v6c54 0 80 21 80 79v314h-84v13h84v59c0 120 94 188 224 188c150 0 216 -97 238 -204c-78 -12 -162 -20 -162 -77c0 -94 236 -102 236 -254c0 -80 -65 -135 -186 -135c-47 0 -108 8 -151 19l-5 130l6 1c25 -55 57 -144 150 -144c69 0 82 48 82 73
c0 104 -229 115 -229 250c0 67 59 99 140 119c-7 84 -28 216 -122 216c-52 0 -84 -41 -84 -109v-544h-217z" />
    <glyph glyph-name="Agrave" unicode="&#xc0;" horiz-adv-x="671" 
d="M-40 0v6c106 0 145 107 190 209l177 408h7l230 -486c29 -63 68 -131 132 -131v-6h-353v6c73 0 88 56 56 128l-32 70h-211l-7 -18c-35 -95 -28 -180 86 -180v-6h-275zM161 214h201l-103 227zM425 674c-85 41 -149 68 -176 89c-26 22 -32 53 -14 74c18 22 50 22 76 -1
c26 -22 63 -84 116 -160z" />
    <glyph glyph-name="Aacute" unicode="&#xc1;" horiz-adv-x="671" 
d="M-40 0v6c106 0 145 107 190 209l177 408h7l230 -486c29 -63 68 -131 132 -131v-6h-353v6c73 0 88 56 56 128l-32 70h-211l-7 -18c-35 -95 -28 -180 86 -180v-6h-275zM161 214h201l-103 227zM251 674l-2 2c54 77 91 138 117 160c26 23 58 23 76 1c18 -21 12 -52 -14 -74
c-27 -21 -91 -47 -177 -89z" />
    <glyph glyph-name="Acircumflex" unicode="&#xc2;" horiz-adv-x="671" 
d="M-40 0v6c106 0 145 107 190 209l177 408h7l230 -486c29 -63 68 -131 132 -131v-6h-353v6c73 0 88 56 56 128l-32 70h-211l-7 -18c-35 -95 -28 -180 86 -180v-6h-275zM161 214h201l-103 227zM182 664l-2 2l112 151c11 13 23 22 40 22s29 -9 39 -22l113 -151l-2 -2l-150 81
z" />
    <glyph glyph-name="Adieresis" unicode="&#xc4;" horiz-adv-x="671" 
d="M-40 0v6c106 0 145 107 190 209l177 408h7l230 -486c29 -63 68 -131 132 -131v-6h-353v6c73 0 88 56 56 128l-32 70h-211l-7 -18c-35 -95 -28 -180 86 -180v-6h-275zM161 214h201l-103 227zM239 691c-35 0 -66 30 -66 67c0 35 28 65 65 65s66 -29 66 -66
c0 -36 -29 -66 -65 -66zM424 691c-35 0 -66 30 -66 67c0 35 28 65 65 65s66 -29 66 -66c0 -36 -29 -66 -65 -66z" />
    <glyph glyph-name="Atilde" unicode="&#xc3;" horiz-adv-x="671" 
d="M-40 0v6c106 0 145 107 190 209l177 408h7l230 -486c29 -63 68 -131 132 -131v-6h-353v6c73 0 88 56 56 128l-32 70h-211l-7 -18c-35 -95 -28 -180 86 -180v-6h-275zM161 214h201l-103 227zM181 685c5 51 12 148 85 148c52 0 103 -50 157 -50c45 0 52 34 55 59h5
c-6 -64 -18 -149 -86 -149c-51 0 -101 50 -156 50c-45 0 -52 -34 -55 -59z" />
    <glyph glyph-name="Aring" unicode="&#xc5;" horiz-adv-x="671" 
d="M-40 0v6c106 0 145 107 190 209l177 408h7l230 -486c29 -63 68 -131 132 -131v-6h-353v6c73 0 88 56 56 128l-32 70h-211l-7 -18c-35 -95 -28 -180 86 -180v-6h-275zM161 214h201l-103 227zM331 664c-73 0 -123 41 -123 101c0 61 50 103 123 103s124 -42 124 -103
c0 -60 -51 -101 -124 -101zM331 667c33 0 37 57 37 98c0 42 -4 99 -37 99s-37 -57 -37 -99c0 -41 4 -98 37 -98z" />
    <glyph glyph-name="AE" unicode="&#xc6;" horiz-adv-x="1011" 
d="M-44 0v6c94 0 179 99 252 203l265 371c-12 24 -34 32 -74 32v6h539l14 -202l-4 -1c-26 115 -91 196 -243 196h-72v-299h27c114 0 164 61 182 145h5v-296h-5c-18 84 -68 144 -182 144h-27v-298h79c161 0 216 106 246 210l5 -1l-19 -216h-545v6c70 0 85 22 85 98v118h-254
l-13 -19c-85 -120 -82 -197 31 -197v-6h-292zM237 232h247v282c0 24 -1 43 -7 57z" />
    <glyph glyph-name="Ccedilla" unicode="&#xc7;" horiz-adv-x="690" 
d="M359 -226c-51 0 -93 13 -122 32l4 5c18 -12 50 -22 78 -22c53 0 81 34 81 76c0 38 -23 67 -65 67c-14 0 -27 -3 -38 -8l-2 3l63 63c-208 17 -318 146 -318 315c0 196 148 325 359 325c85 0 155 -21 228 -2l18 -211h-6c-59 147 -135 207 -230 207
c-155 0 -208 -157 -208 -314s51 -316 203 -316c117 0 197 96 249 222l5 -1l-34 -197c-81 -23 -168 -34 -256 -29l-52 -52c15 4 36 7 60 7c75 0 125 -29 125 -82c0 -66 -75 -88 -142 -88z" />
    <glyph glyph-name="Egrave" unicode="&#xc8;" horiz-adv-x="640" 
d="M28 0v6c70 0 85 22 85 98v410c0 76 -15 98 -85 98v6h539l14 -202l-4 -1c-26 115 -91 196 -243 196h-72v-299h27c114 0 164 61 182 145h5v-296h-5c-18 84 -68 144 -182 144h-27v-298h79c161 0 216 106 246 210l5 -1l-19 -216h-545zM414 674c-86 41 -150 68 -176 89
c-27 22 -33 53 -15 74c19 22 50 22 76 -1c26 -22 63 -84 117 -160z" />
    <glyph glyph-name="Eacute" unicode="&#xc9;" horiz-adv-x="640" 
d="M28 0v6c70 0 85 22 85 98v410c0 76 -15 98 -85 98v6h539l14 -202l-4 -1c-26 115 -91 196 -243 196h-72v-299h27c114 0 164 61 182 145h5v-296h-5c-18 84 -68 144 -182 144h-27v-298h79c161 0 216 106 246 210l5 -1l-19 -216h-545zM251 674l-2 2c54 77 92 138 118 160
c26 23 57 23 75 1c18 -21 12 -52 -14 -74c-27 -21 -91 -47 -177 -89z" />
    <glyph glyph-name="Ecircumflex" unicode="&#xca;" horiz-adv-x="640" 
d="M28 0v6c70 0 85 22 85 98v410c0 76 -15 98 -85 98v6h539l14 -202l-4 -1c-26 115 -91 196 -243 196h-72v-299h27c114 0 164 61 182 145h5v-296h-5c-18 84 -68 144 -182 144h-27v-298h79c161 0 216 106 246 210l5 -1l-19 -216h-545zM180 664l-2 2l112 151
c10 13 22 22 39 22c18 0 30 -9 40 -22l112 -151l-2 -2l-150 81z" />
    <glyph glyph-name="Edieresis" unicode="&#xcb;" horiz-adv-x="640" 
d="M28 0v6c70 0 85 22 85 98v410c0 76 -15 98 -85 98v6h539l14 -202l-4 -1c-26 115 -91 196 -243 196h-72v-299h27c114 0 164 61 182 145h5v-296h-5c-18 84 -68 144 -182 144h-27v-298h79c161 0 216 106 246 210l5 -1l-19 -216h-545zM244 691c-35 0 -66 30 -66 67
c0 35 28 65 65 65c36 0 66 -29 66 -66c0 -36 -30 -66 -65 -66zM429 691c-36 0 -66 30 -66 67c0 35 28 65 65 65c36 0 66 -29 66 -66c0 -36 -30 -66 -65 -66z" />
    <glyph glyph-name="Eth" unicode="&#xd0;" horiz-adv-x="768" 
d="M28 0v6c70 0 85 22 85 98v202h-78v9h78v199c0 76 -15 98 -85 98v6h336c225 0 362 -119 362 -309s-137 -309 -362 -309h-336zM262 7h82c165 0 222 149 222 302s-57 302 -221 302h-83v-296h163v-9h-163v-299z" />
    <glyph glyph-name="Igrave" unicode="&#xcc;" horiz-adv-x="375" 
d="M28 0v6c70 0 85 22 85 98v410c0 76 -15 98 -85 98v6h319v-6c-70 0 -85 -22 -85 -98v-410c0 -76 15 -98 85 -98v-6h-319zM274 674c-86 41 -149 68 -176 89c-26 22 -32 53 -14 74c18 22 49 22 75 -1c26 -22 63 -84 117 -160z" />
    <glyph glyph-name="Iacute" unicode="&#xcd;" horiz-adv-x="375" 
d="M28 0v6c70 0 85 22 85 98v410c0 76 -15 98 -85 98v6h319v-6c-70 0 -85 -22 -85 -98v-410c0 -76 15 -98 85 -98v-6h-319zM96 674l-2 2c54 77 92 138 118 160c26 23 57 23 75 1c18 -21 12 -52 -14 -74c-27 -21 -91 -47 -177 -89z" />
    <glyph glyph-name="Icircumflex" unicode="&#xce;" horiz-adv-x="375" 
d="M28 0v6c70 0 85 22 85 98v410c0 76 -15 98 -85 98v6h319v-6c-70 0 -85 -22 -85 -98v-410c0 -76 15 -98 85 -98v-6h-319zM37 664l-2 2l113 151c10 13 22 22 39 22s29 -9 40 -22l112 -151l-2 -2l-150 81z" />
    <glyph glyph-name="Idieresis" unicode="&#xcf;" horiz-adv-x="375" 
d="M28 0v6c70 0 85 22 85 98v410c0 76 -15 98 -85 98v6h319v-6c-70 0 -85 -22 -85 -98v-410c0 -76 15 -98 85 -98v-6h-319zM96 691c-36 0 -66 30 -66 67c0 35 28 65 65 65c36 0 66 -29 66 -66c0 -36 -30 -66 -65 -66zM280 691c-35 0 -65 30 -65 67c0 35 28 65 65 65
c36 0 66 -29 66 -66c0 -36 -30 -66 -66 -66z" />
    <glyph glyph-name="Lslash" unicode="&#x141;" horiz-adv-x="604" 
d="M27 252l-3 9l90 31v222c0 76 -15 98 -85 98v6h333v-6c-70 0 -100 -20 -100 -106v-163l142 50l3 -9l-145 -51v-326h62c151 0 223 98 249 213l5 -1l-15 -219h-534v6c70 0 85 22 85 98v178z" />
    <glyph glyph-name="Ntilde" unicode="&#xd1;" horiz-adv-x="723" 
d="M10 0v6c115 0 127 59 127 271v181c0 102 -26 154 -120 154v6h218l355 -391v114c0 212 -12 271 -127 271v6h265v-6c-115 0 -128 -59 -128 -271v-348l-5 -1l-448 493v-208c0 -212 13 -271 128 -271v-6h-265zM226 685c5 51 12 148 84 148c52 0 104 -50 157 -50
c45 0 52 34 56 59h5c-6 -64 -19 -149 -86 -149c-51 0 -102 50 -156 50c-45 0 -52 -34 -55 -59z" />
    <glyph glyph-name="Ograve" unicode="&#xd2;" horiz-adv-x="769" 
d="M385 -12c-199 0 -345 134 -345 321s146 321 345 321c198 0 345 -134 345 -321s-147 -321 -345 -321zM385 -4c145 0 184 155 184 313s-39 313 -184 313c-146 0 -185 -157 -185 -313c0 -157 40 -313 185 -313zM468 684c-86 41 -149 68 -176 89c-26 22 -32 53 -14 74
c18 22 49 22 75 -1c26 -22 63 -84 117 -160z" />
    <glyph glyph-name="Oacute" unicode="&#xd3;" horiz-adv-x="769" 
d="M385 -12c-199 0 -345 134 -345 321s146 321 345 321c198 0 345 -134 345 -321s-147 -321 -345 -321zM385 -4c145 0 184 155 184 313s-39 313 -184 313c-146 0 -185 -157 -185 -313c0 -157 40 -313 185 -313zM296 684l-2 2c54 77 92 138 118 160c26 23 57 23 75 1
c18 -21 12 -52 -14 -74c-27 -21 -91 -47 -177 -89z" />
    <glyph glyph-name="Ocircumflex" unicode="&#xd4;" horiz-adv-x="769" 
d="M385 -12c-199 0 -345 134 -345 321s146 321 345 321c198 0 345 -134 345 -321s-147 -321 -345 -321zM385 -4c145 0 184 155 184 313s-39 313 -184 313c-146 0 -185 -157 -185 -313c0 -157 40 -313 185 -313zM235 674l-2 2l112 151c10 13 22 22 39 22c18 0 30 -9 40 -22
l112 -151l-2 -2l-150 81z" />
    <glyph glyph-name="Odieresis" unicode="&#xd6;" horiz-adv-x="769" 
d="M385 -12c-199 0 -345 134 -345 321s146 321 345 321c198 0 345 -134 345 -321s-147 -321 -345 -321zM385 -4c145 0 184 155 184 313s-39 313 -184 313c-146 0 -185 -157 -185 -313c0 -157 40 -313 185 -313zM293 701c-36 0 -66 30 -66 67c0 35 28 65 65 65
c36 0 66 -29 66 -66c0 -36 -30 -66 -65 -66zM478 701c-36 0 -66 30 -66 67c0 35 28 65 65 65c36 0 66 -29 66 -66c0 -36 -30 -66 -65 -66z" />
    <glyph glyph-name="Otilde" unicode="&#xd5;" horiz-adv-x="769" 
d="M385 -12c-199 0 -345 134 -345 321s146 321 345 321c198 0 345 -134 345 -321s-147 -321 -345 -321zM385 -4c145 0 184 155 184 313s-39 313 -184 313c-146 0 -185 -157 -185 -313c0 -157 40 -313 185 -313zM231 695c5 51 13 148 85 148c52 0 103 -50 157 -50
c45 0 52 34 55 59h5c-6 -64 -18 -149 -85 -149c-52 0 -102 50 -157 50c-45 0 -52 -34 -55 -59z" />
    <glyph glyph-name="Oslash" unicode="&#xd8;" horiz-adv-x="770" 
d="M385 -12c-81 0 -154 22 -211 61l-61 -71l-8 7l60 70c-78 58 -125 147 -125 254c0 187 146 321 345 321c82 0 155 -23 212 -63l61 72l7 -7l-60 -71c78 -57 125 -146 125 -252c0 -187 -147 -321 -345 -321zM385 -4c145 0 184 155 184 313c0 64 -7 127 -25 179l-314 -372
c26 -71 74 -120 155 -120zM385 622c-146 0 -184 -157 -184 -313c0 -65 7 -128 25 -181l314 371c-26 73 -74 123 -155 123z" />
    <glyph glyph-name="OE" unicode="&#x152;" horiz-adv-x="1057" 
d="M385 -12c-199 0 -345 126 -345 321s146 321 345 321c35 0 112 -12 147 -12h452l14 -202l-4 -1c-26 115 -91 196 -243 196h-72v-299h27c114 0 164 61 182 145h5v-296h-5c-18 84 -68 144 -182 144h-27v-298h79c161 0 216 106 246 210l5 -1l-19 -216h-458
c-33 0 -111 -12 -147 -12zM385 -4c95 0 145 39 145 113v399c0 73 -51 114 -145 114c-145 0 -184 -157 -184 -313c0 -157 39 -313 184 -313z" />
    <glyph glyph-name="Scaron" unicode="&#x160;" horiz-adv-x="580" 
d="M281 -12c-72 0 -159 14 -218 26l-10 189l6 1c43 -112 94 -209 221 -209c93 0 137 51 137 112c0 175 -357 116 -357 347c0 109 79 176 231 176c82 0 133 -20 202 -4l11 -199l-5 -1c-40 99 -86 198 -203 198c-83 0 -121 -49 -121 -104c0 -165 359 -113 359 -346
c0 -118 -94 -186 -253 -186zM296 675c-17 0 -29 9 -39 22l-112 151l2 2l149 -81l150 81l2 -2l-112 -151c-10 -13 -22 -22 -40 -22z" />
    <glyph glyph-name="Uacute" unicode="&#xda;" horiz-adv-x="704" 
d="M358 -12c-140 0 -257 63 -257 223v291c0 76 -15 110 -85 110v6h319v-6c-70 0 -85 -34 -85 -110v-324c0 -104 41 -174 149 -174c102 0 180 63 180 200v143c0 208 -15 265 -128 265v6h265v-6c-115 0 -127 -59 -127 -265v-143c0 -143 -81 -216 -231 -216zM300 674l-2 2
c53 77 91 138 117 160c26 23 57 23 76 1c18 -21 12 -52 -15 -74c-26 -21 -91 -47 -176 -89z" />
    <glyph glyph-name="Ugrave" unicode="&#xd9;" horiz-adv-x="704" 
d="M358 -12c-140 0 -257 63 -257 223v291c0 76 -15 110 -85 110v6h319v-6c-70 0 -85 -34 -85 -110v-324c0 -104 41 -174 149 -174c102 0 180 63 180 200v143c0 208 -15 265 -128 265v6h265v-6c-115 0 -127 -59 -127 -265v-143c0 -143 -81 -216 -231 -216zM451 674
c-86 41 -149 68 -176 89c-26 22 -32 53 -14 74c18 22 49 22 75 -1c26 -22 63 -84 117 -160z" />
    <glyph glyph-name="Ucircumflex" unicode="&#xdb;" horiz-adv-x="704" 
d="M358 -12c-140 0 -257 63 -257 223v291c0 76 -15 110 -85 110v6h319v-6c-70 0 -85 -34 -85 -110v-324c0 -104 41 -174 149 -174c102 0 180 63 180 200v143c0 208 -15 265 -128 265v6h265v-6c-115 0 -127 -59 -127 -265v-143c0 -143 -81 -216 -231 -216zM222 664l-2 2
l112 151c10 13 22 22 40 22c17 0 29 -9 39 -22l112 -151l-2 -2l-149 81z" />
    <glyph glyph-name="Udieresis" unicode="&#xdc;" horiz-adv-x="704" 
d="M358 -12c-140 0 -257 63 -257 223v291c0 76 -15 110 -85 110v6h319v-6c-70 0 -85 -34 -85 -110v-324c0 -104 41 -174 149 -174c102 0 180 63 180 200v143c0 208 -15 265 -128 265v6h265v-6c-115 0 -127 -59 -127 -265v-143c0 -143 -81 -216 -231 -216zM284 691
c-36 0 -66 30 -66 67c0 35 28 65 65 65c36 0 66 -29 66 -66c0 -36 -30 -66 -65 -66zM469 691c-36 0 -66 30 -66 67c0 35 28 65 65 65c36 0 66 -29 66 -66c0 -36 -30 -66 -65 -66z" />
    <glyph glyph-name="Yacute" unicode="&#xdd;" horiz-adv-x="677" 
d="M172 0v6c73 0 100 27 100 113v129l-159 257c-39 64 -79 107 -129 107v6h345v-6c-66 0 -80 -45 -42 -107l126 -209h1l61 105c40 68 60 114 60 147c0 38 -23 64 -87 64v6h261v-6c-58 0 -96 -26 -130 -68c-25 -31 -52 -74 -96 -149l-62 -103v-173c0 -86 28 -113 100 -113v-6
h-349zM288 674l-2 2c54 77 92 138 118 160c26 23 57 23 75 1c18 -21 12 -52 -14 -74c-27 -21 -91 -47 -177 -89z" />
    <glyph glyph-name="Ydieresis" unicode="&#x178;" horiz-adv-x="677" 
d="M172 0v6c73 0 100 27 100 113v129l-159 257c-39 64 -79 107 -129 107v6h345v-6c-66 0 -80 -45 -42 -107l126 -209h1l61 105c40 68 60 114 60 147c0 38 -23 64 -87 64v6h261v-6c-58 0 -96 -26 -130 -68c-25 -31 -52 -74 -96 -149l-62 -103v-173c0 -86 28 -113 100 -113v-6
h-349zM272 691c-35 0 -66 30 -66 67c0 35 28 65 65 65c36 0 66 -29 66 -66c0 -36 -30 -66 -65 -66zM457 691c-36 0 -66 30 -66 67c0 35 28 65 65 65c36 0 66 -29 66 -66c0 -36 -30 -66 -65 -66z" />
    <glyph glyph-name="Zcaron" unicode="&#x17d;" horiz-adv-x="626" 
d="M29 0l-1 2l383 608h-138c-119 0 -191 -106 -220 -209l-6 1l18 216h519l2 -2l-386 -608h161c121 0 191 112 220 211h6l-19 -219h-539zM324 665c-17 0 -29 9 -40 22l-112 151l2 2l150 -81l150 81l2 -2l-113 -151c-10 -13 -22 -22 -39 -22z" />
    <glyph glyph-name="Thorn" unicode="&#xde;" horiz-adv-x="645" 
d="M28 0v6c70 0 85 22 85 98v410c0 76 -15 98 -85 98v6h319v-6c-70 0 -85 -22 -85 -98v-19h94c194 0 266 -81 266 -180s-72 -178 -266 -178h-53v6h21c108 0 139 91 139 172s-31 173 -139 173h-62v-384c0 -76 15 -98 85 -98v-6h-319z" />
    <glyph glyph-name="bullet" unicode="&#x2022;" horiz-adv-x="359" 
d="M179 137c-58 0 -105 48 -105 106s47 105 105 105c59 0 106 -47 106 -105s-47 -106 -106 -106z" />
    <glyph glyph-name="asciitilde" unicode="~" horiz-adv-x="463" 
d="M66 179l-5 2c19 90 40 150 105 150c58 0 112 -51 167 -51c45 0 61 31 69 57l3 -1c-16 -79 -34 -150 -104 -150c-58 0 -112 51 -168 51c-45 0 -60 -33 -67 -58z" />
    <glyph glyph-name="degree" unicode="&#xb0;" horiz-adv-x="376" 
d="M187 384c-70 0 -151 39 -151 129c0 89 81 128 151 128c72 0 153 -38 153 -128s-81 -129 -153 -129zM187 390c54 0 61 76 61 123c0 46 -7 123 -61 123c-53 0 -59 -77 -59 -123c0 -47 6 -123 59 -123z" />
    <glyph glyph-name="asciicircum" unicode="^" horiz-adv-x="466" 
d="M43 335l-4 2l191 298h6l191 -298l-4 -2l-190 175z" />
    <glyph glyph-name="dagger" unicode="&#x2020;" horiz-adv-x="513" 
d="M257 -173c-39 0 -62 24 -62 73c0 84 57 214 58 504c-147 0 -148 -32 -157 -89c-1 -8 -4 -9 -7 -9c-16 0 -44 62 -44 104c0 32 16 55 43 55c41 0 93 -54 165 -54c-1 74 -53 144 -53 192c0 40 25 61 57 61c31 0 56 -21 56 -61c0 -48 -52 -118 -53 -192c72 0 123 54 165 54
c27 0 43 -23 43 -55c0 -42 -27 -104 -44 -104c-2 0 -5 1 -6 9c-9 57 -11 89 -158 89c1 -290 58 -419 58 -504c0 -48 -22 -73 -61 -73z" />
    <glyph glyph-name="daggerdbl" unicode="&#x2021;" horiz-adv-x="513" 
d="M257 -187c-32 0 -57 21 -57 61c0 49 52 118 53 193c-72 -2 -124 -55 -165 -55c-27 0 -43 24 -43 55c0 42 28 104 44 104c3 0 6 -1 7 -9c9 -58 10 -89 157 -89c-2 61 -40 116 -40 166c0 49 38 103 40 165c-147 0 -148 -32 -157 -89c-1 -8 -4 -9 -7 -9
c-16 0 -44 62 -44 104c0 32 16 55 43 55c41 0 93 -54 165 -54c-1 74 -53 144 -53 192c0 40 25 61 57 61c31 0 56 -21 56 -61c0 -48 -52 -118 -53 -192c72 0 123 54 165 54c27 0 43 -23 43 -55c0 -42 -27 -104 -44 -104c-2 0 -5 1 -6 9c-9 57 -11 89 -158 89
c2 -61 47 -115 47 -165c0 -51 -45 -105 -47 -166c147 0 149 31 158 89c1 8 4 9 6 9c17 0 44 -62 44 -104c0 -31 -16 -55 -43 -55c-42 0 -93 53 -165 55c1 -75 53 -144 53 -193c0 -40 -25 -61 -56 -61z" />
    <glyph glyph-name="copyright" unicode="&#xa9;" horiz-adv-x="729" 
d="M365 -12c-177 0 -321 144 -321 321c0 178 144 321 321 321s321 -143 321 -321c0 -177 -144 -321 -321 -321zM365 -3c172 0 312 140 312 312c0 173 -140 312 -312 312s-312 -139 -312 -312c0 -172 140 -312 312 -312zM390 127c-154 0 -225 78 -225 179
c0 114 89 185 217 185c53 0 95 -12 139 -1l10 -125l-3 -1c-37 91 -85 123 -136 123c-85 0 -110 -92 -110 -177s25 -179 109 -179c66 0 114 58 145 135l4 -2l-22 -120c-29 -8 -77 -17 -128 -17z" />
    <glyph glyph-name="uni2117" unicode="&#x2117;" horiz-adv-x="729" 
d="M192 130v4c39 0 49 13 49 56v237c0 44 -10 57 -49 57v3h210c118 0 163 -47 163 -103c0 -58 -43 -104 -163 -104h-35v4h11c65 0 80 53 80 100c0 46 -15 99 -80 99h-33v-293c0 -43 10 -56 49 -56v-4h-202zM365 -12c-177 0 -321 144 -321 321c0 178 144 321 321 321
s321 -143 321 -321c0 -177 -144 -321 -321 -321zM365 -3c172 0 312 140 312 312c0 173 -140 312 -312 312s-312 -139 -312 -312c0 -172 140 -312 312 -312z" />
    <glyph glyph-name="registered" unicode="&#xae;" horiz-adv-x="403" 
d="M201 339c-86 0 -156 70 -156 156s70 156 156 156c87 0 156 -70 156 -156s-69 -156 -156 -156zM201 347c82 0 148 66 148 148s-66 148 -148 148c-81 0 -148 -66 -148 -148s67 -148 148 -148zM120 418v2c16 0 20 4 20 24v102c0 20 -4 24 -20 24v2h87c49 0 70 -17 70 -41
c0 -33 -37 -38 -66 -39v-1c60 0 51 -13 63 -50c5 -15 9 -21 24 -21v-2h-59c-4 6 -6 17 -9 29c-9 37 -10 43 -35 43h-13v-46c0 -20 5 -24 20 -24v-2h-82zM182 493h18c25 0 34 19 34 38s-9 38 -35 38h-17v-76z" />
    <glyph glyph-name="trademark" unicode="&#x2122;" horiz-adv-x="851" 
d="M108 326c32 0 48 8 48 51v237h-4c-63 0 -87 -49 -103 -103h-3l8 107h281l8 -107h-3c-17 54 -40 103 -103 103h-4v-237c0 -43 16 -51 48 -51v-4h-173v4zM359 326c49 0 65 25 72 124l6 83c4 53 -6 82 -57 82v3h128l92 -194l83 194h104v-3c-34 0 -40 -23 -39 -61l8 -167
c2 -42 11 -61 45 -61v-4h-160v4c33 0 41 19 39 57l-10 190l-106 -245h-2l-117 238l-10 -116c-8 -99 2 -124 52 -124v-4h-128v4z" />
    <glyph glyph-name="fraction" unicode="&#x2044;" horiz-adv-x="160" 
d="M-131 -9l-7 5l428 631l7 -4z" />
    <glyph glyph-name="onehalf" unicode="&#xbd;" horiz-adv-x="858" 
d="M507 0c-10 45 -3 73 26 104c55 61 168 99 168 200c0 47 -25 80 -73 80c-42 0 -67 -25 -77 -47c25 -4 45 -25 45 -51c0 -29 -24 -51 -53 -51c-32 0 -52 26 -52 54c0 46 57 102 163 102c84 0 157 -35 157 -105c0 -112 -189 -96 -277 -189c-10 -11 -15 -20 -20 -31
c15 27 46 44 98 44s94 -19 138 -19c38 0 62 14 62 52c0 8 -1 16 -3 24h5c5 -18 8 -41 8 -63c0 -54 -17 -110 -78 -110c-79 0 -110 95 -179 95c-37 0 -56 -28 -56 -61c0 -10 2 -22 4 -28h-6zM40 235v4c46 0 71 12 71 67v231c0 22 -5 33 -29 33h-45v4c59 5 116 16 173 45l4 -1
v-317c0 -55 23 -62 64 -62v-4h-238zM200 -9l-7 5l428 631l7 -4z" />
    <glyph glyph-name="onequarter" unicode="&#xbc;" horiz-adv-x="849" 
d="M46 235v4c46 0 71 12 71 67v231c0 22 -5 33 -29 33h-45v4c59 5 116 16 173 45l4 -1v-317c0 -55 23 -62 64 -62v-4h-238zM206 -9l-7 5l428 631l7 -4zM579 0v4c46 0 71 12 71 67v29h-204l-1 3l56 49c37 31 69 84 69 139c0 48 -25 80 -54 99c79 4 175 -21 175 -81
c0 -65 -110 -102 -182 -158l-55 -46h196v57l100 87h3v-144c41 0 44 7 53 7c8 0 13 -5 13 -10s-7 -9 -13 -9c-7 0 -13 6 -53 6v-33c0 -55 23 -62 64 -62v-4h-238z" />
    <glyph glyph-name="threequarters" unicode="&#xbe;" horiz-adv-x="907" 
d="M201 228c-97 0 -160 38 -160 86c0 26 21 52 52 52c30 0 53 -22 53 -52c0 -23 -17 -45 -39 -51c9 -15 28 -29 64 -29c63 0 94 44 94 101c0 59 -33 92 -101 94c-33 0 -41 -7 -48 -7s-12 4 -12 9s5 10 11 10c8 0 20 -7 47 -7c68 0 91 49 91 97c0 54 -29 88 -78 88
c-33 0 -52 -15 -62 -30c23 -6 40 -25 40 -50c0 -29 -22 -50 -52 -50c-32 0 -51 23 -51 50c0 49 60 87 155 87c94 0 159 -36 159 -97c0 -66 -77 -97 -170 -96h-6v-3h6c98 0 182 -29 182 -98c0 -70 -82 -104 -175 -104zM264 -9l-7 5l428 631l7 -4zM637 0v4c46 0 71 12 71 67
v29h-204l-1 3l56 49c37 31 69 84 69 139c0 48 -25 80 -54 99c79 4 175 -21 175 -81c0 -65 -110 -102 -182 -158l-55 -46h196v57l100 87h3v-144c41 0 44 7 53 7c8 0 13 -5 13 -10s-7 -9 -13 -9c-7 0 -13 6 -53 6v-33c0 -55 23 -62 64 -62v-4h-238z" />
    <glyph glyph-name="onesuperior" unicode="&#xb9;" horiz-adv-x="261" 
d="M17 335v4c46 0 71 12 71 67v231c0 22 -5 33 -29 33h-45v4c59 5 116 16 173 45l4 -1v-317c0 -55 23 -62 64 -62v-4h-238z" />
    <glyph glyph-name="twosuperior" unicode="&#xb2;" horiz-adv-x="388" 
d="M41 335c-9 45 -3 73 26 104c55 61 168 99 168 200c0 47 -25 80 -73 80c-42 0 -67 -25 -76 -47c25 -4 44 -25 44 -51c0 -29 -23 -51 -53 -51c-32 0 -52 26 -52 54c0 46 57 102 164 102c84 0 156 -35 156 -105c0 -112 -188 -96 -277 -189c-10 -11 -15 -20 -20 -31
c15 27 46 44 99 44c51 0 93 -19 137 -19c38 0 62 14 62 52c0 8 -1 16 -3 24h5c5 -18 8 -41 8 -63c0 -54 -17 -110 -77 -110c-80 0 -111 95 -180 95c-37 0 -56 -28 -56 -61c0 -10 2 -22 4 -28h-6z" />
    <glyph glyph-name="threesuperior" unicode="&#xb3;" horiz-adv-x="389" 
d="M186 328c-98 0 -160 38 -160 86c0 26 20 52 51 52c30 0 53 -22 53 -52c0 -23 -16 -45 -39 -51c10 -15 29 -29 64 -29c64 0 94 44 94 101c0 59 -33 92 -101 94c-33 0 -40 -7 -48 -7c-6 0 -12 4 -12 9s5 10 12 10s20 -7 47 -7c68 0 90 49 90 97c0 54 -29 88 -78 88
c-32 0 -52 -15 -62 -30c23 -6 40 -25 40 -50c0 -29 -21 -50 -52 -50c-32 0 -50 23 -50 50c0 49 59 87 155 87c93 0 158 -36 158 -97c0 -66 -76 -97 -170 -96h-6v-3h6c99 0 182 -29 182 -98c0 -70 -81 -104 -174 -104z" />
    <glyph glyph-name="ordmasculine" unicode="&#xba;" horiz-adv-x="513" 
d="M257 282c-110 0 -198 68 -198 176c0 110 88 178 198 178c109 0 197 -68 197 -178c0 -108 -88 -176 -197 -176zM257 288c54 0 74 63 74 170c0 108 -20 172 -74 172c-55 0 -75 -64 -75 -172c0 -107 20 -170 75 -170zM64 212v9h385v-9h-385z" />
    <glyph glyph-name="ordfeminine" unicode="&#xaa;" horiz-adv-x="526" 
d="M183 282c-69 0 -117 36 -117 94c0 68 62 95 140 95c31 0 65 -5 90 -12v84c0 49 -13 88 -67 88c-37 0 -59 -18 -72 -38c22 -8 35 -31 35 -53c0 -31 -25 -54 -57 -54c-35 0 -54 29 -54 56c0 52 63 94 154 94c81 0 173 -34 173 -127v-177c0 -19 10 -25 22 -25
c22 0 42 25 54 42l4 -2c-21 -33 -48 -64 -102 -64c-46 0 -75 23 -85 57c-22 -30 -57 -58 -118 -58zM234 305c23 0 44 14 62 37v110c-15 5 -33 8 -48 8c-44 0 -66 -27 -66 -78c0 -43 15 -77 52 -77zM56 212v9h413v-9h-413z" />
    <glyph glyph-name="percent" unicode="%" horiz-adv-x="748" 
d="M202 297c-83 0 -170 57 -170 165c0 110 87 166 170 166c56 0 114 -26 145 -78c20 -5 39 -7 58 -7c47 0 115 15 168 40c14 21 13 52 33 52c10 0 16 -7 16 -17c0 -21 -25 -36 -40 -42l-434 -585l-8 7l427 573c-50 -22 -107 -37 -160 -37c-17 0 -36 1 -54 6
c11 -22 18 -48 18 -78c0 -108 -87 -165 -169 -165zM546 -10c-83 0 -170 56 -170 165s87 165 170 165c82 0 169 -56 169 -165s-87 -165 -169 -165zM546 -4c50 0 63 69 63 159s-13 159 -63 159c-51 0 -63 -69 -63 -159s12 -159 63 -159zM202 304c50 0 63 68 63 158
c0 54 -5 100 -19 128c-11 9 -22 18 -33 29c-3 1 -7 3 -11 3c-51 0 -63 -69 -63 -160c0 -90 12 -158 63 -158z" />
    <glyph glyph-name="perthousand" unicode="&#x2030;" horiz-adv-x="1130" 
d="M202 297c-83 0 -170 57 -170 165c0 110 87 166 170 166c56 0 114 -26 145 -78c20 -5 39 -7 58 -7c47 0 115 15 168 40c14 21 13 52 33 52c10 0 16 -7 16 -17c0 -21 -25 -36 -40 -42l-434 -585l-8 7l427 573c-50 -22 -107 -37 -160 -37c-17 0 -36 1 -54 6
c11 -22 18 -48 18 -78c0 -108 -87 -165 -169 -165zM929 -10c-82 0 -170 56 -170 165s88 165 170 165s169 -56 169 -165s-87 -165 -169 -165zM546 -10c-83 0 -170 56 -170 165s87 165 170 165c82 0 169 -56 169 -165s-87 -165 -169 -165zM929 -4c51 0 63 69 63 159
s-12 159 -63 159s-62 -69 -62 -159s11 -159 62 -159zM546 -4c50 0 63 69 63 159s-13 159 -63 159c-51 0 -63 -69 -63 -159s12 -159 63 -159zM202 304c50 0 63 68 63 158c0 54 -5 100 -19 128c-11 9 -22 18 -33 29c-3 1 -7 3 -11 3c-51 0 -63 -69 -63 -160
c0 -90 12 -158 63 -158z" />
    <glyph glyph-name="uni2116" unicode="&#x2116;" horiz-adv-x="1145" 
d="M903 171c-100 0 -187 63 -187 170c0 108 87 171 187 171s188 -63 188 -171c0 -107 -88 -170 -188 -170zM136 -122c-64 0 -107 59 -107 140c25 -20 51 -35 95 -35c91 0 123 59 123 173v302c0 102 -26 154 -120 154v6h211l297 -392v263c0 136 32 253 122 253
c64 0 106 -58 106 -139c-24 19 -51 33 -94 33c-91 0 -124 -58 -124 -172v-471l-5 -1l-383 493v-354c0 -136 -31 -253 -121 -253zM903 177c45 0 64 56 64 165c0 108 -19 163 -64 163s-64 -55 -64 -164s19 -164 64 -164zM711 36v9h385v-9h-385zM711 106v9h385v-9h-385z" />
    <glyph glyph-name="c_k" horiz-adv-x="1016" 
d="M256 -11c-144 0 -222 103 -222 217c0 136 110 217 236 217c19 0 37 -2 55 -6c-23 24 -33 44 -33 67c0 70 101 102 205 134c119 36 150 44 178 65l3 -2v-502l87 86c42 41 66 75 66 101c0 25 -21 40 -68 40v6h239v-6c-55 0 -91 -19 -132 -50c-20 -15 -39 -32 -65 -58l-7 -7
l147 -222c24 -37 52 -63 91 -63v-6h-201l-130 195l-27 -26v-86c0 -50 11 -77 65 -77v-6h-267v6c54 0 65 27 65 77v539c-13 -4 -27 -8 -40 -12c-100 -31 -199 -60 -199 -126c0 -26 15 -47 38 -71c70 -21 109 -74 109 -122c0 -44 -33 -72 -71 -72c-40 0 -71 32 -71 71
c0 36 24 65 58 71c-12 29 -36 56 -79 56c-84 0 -111 -105 -111 -197c0 -132 51 -208 136 -208c63 0 110 43 139 86l6 -4c-31 -46 -91 -105 -200 -105z" />
    <glyph glyph-name="c_t" horiz-adv-x="816" 
d="M256 -11c-144 0 -222 103 -222 217c0 136 110 217 236 217c32 0 60 -6 84 -15c-32 32 -49 73 -49 122c0 104 83 188 189 188c101 0 186 -75 186 -178v-128h123v-13h-123v-300c0 -50 17 -73 52 -73c39 0 70 30 92 57l5 -4c-34 -41 -83 -90 -161 -90
c-74 0 -125 43 -125 131v278h-54v10c102 0 182 20 182 131c0 98 -85 171 -177 171c-99 0 -180 -85 -180 -179c0 -54 27 -104 69 -137c42 -26 66 -65 66 -103c0 -44 -33 -72 -71 -72c-40 0 -71 32 -71 71c0 36 24 65 58 71c-12 29 -36 56 -79 56c-84 0 -111 -105 -111 -197
c0 -132 51 -208 136 -208c63 0 110 43 139 86l6 -4c-31 -46 -91 -105 -200 -105z" />
    <glyph glyph-name="r_k" horiz-adv-x="964" 
d="M19 0v6c54 0 65 29 65 79v232c0 50 -11 79 -65 79v6l198 20v-136c15 53 47 106 90 127c-22 24 -35 47 -35 76c0 67 80 99 172 129c77 24 144 39 178 65l3 -2v-502l88 86c42 41 65 75 65 101c0 25 -20 40 -67 40v6h238v-6c-55 0 -90 -19 -131 -50c-20 -15 -38 -30 -66 -58
l-6 -7l146 -222c24 -37 52 -63 92 -63v-6h-202l-130 195l-27 -26v-86c0 -50 11 -77 65 -77v-6h-266v6c54 0 65 27 65 77v539c-14 -5 -29 -9 -41 -12c-94 -30 -166 -61 -166 -122c0 -28 13 -48 35 -71c10 3 22 6 34 6c52 0 78 -39 78 -76c0 -42 -33 -75 -73 -75
c-41 0 -76 34 -73 81c-27 -12 -50 -39 -62 -71v-197c0 -55 18 -79 72 -79v-6h-274z" />
    <glyph glyph-name="s_t" unicode="&#xfb06;" horiz-adv-x="764" 
d="M209 -11c-54 0 -120 11 -160 19l-5 130l5 1c33 -71 65 -144 156 -144c69 0 87 41 87 69c0 112 -245 68 -245 230c0 82 62 129 172 129c28 0 52 -4 75 -6c-26 31 -41 69 -41 113c0 104 83 188 189 188c101 0 186 -75 186 -178v-128h123v-13h-123v-300c0 -50 17 -73 52 -73
c39 0 70 30 92 57l5 -4c-34 -41 -83 -90 -161 -90c-74 0 -125 43 -125 131v278h-54v10c102 0 182 20 182 131c0 98 -85 171 -177 171c-99 0 -180 -85 -180 -179c0 -43 17 -84 45 -115c20 -1 40 0 62 5l6 -140l-5 -1c-29 65 -68 137 -145 137c-55 0 -76 -36 -76 -66
c0 -106 248 -65 248 -227c0 -87 -73 -135 -188 -135z" />
    <glyph glyph-name="t_t" horiz-adv-x="689" 
d="M204 -11c-74 0 -125 43 -125 131v279h-65v13h65v107l137 26v-133h200v107l136 26v-133h123v-13h-123v-300c0 -50 17 -73 52 -73c40 0 70 30 92 57l5 -4c-33 -41 -82 -90 -161 -90c-73 0 -124 43 -124 131v279h-200v-300c0 -50 17 -73 52 -73c40 0 70 30 92 57l5 -4
c-34 -41 -82 -90 -161 -90z" />
    <glyph glyph-name="F_i" horiz-adv-x="1042" 
d="M249 0v6c70 0 85 22 85 98v490c-15 2 -29 3 -41 3c-136 0 -171 -54 -171 -118c0 -39 13 -77 53 -111c-76 9 -165 46 -165 123c0 81 96 115 240 115c182 0 337 -54 457 -54c130 0 162 62 162 120c0 39 -14 74 -53 107c76 -9 165 -45 165 -123c0 -81 -94 -114 -230 -114
c-98 0 -185 17 -268 32v-271h23c115 0 164 63 183 147h4v-300h-4c-19 83 -68 146 -183 146h-23v-184c0 -87 30 -106 100 -106v-6h-334zM762 0v6c54 0 65 27 65 77v237c0 50 -11 77 -65 77v6l202 20v-340c0 -50 11 -77 65 -77v-6h-267z" />
    <glyph glyph-name="T_h" horiz-adv-x="1215" 
d="M233 6c70 0 100 19 100 106v502c-20 2 -38 3 -53 3c-130 0 -159 -59 -159 -119c0 -39 13 -76 53 -110c-75 9 -165 45 -165 123c0 81 95 115 232 115c153 0 307 -42 416 -42c131 0 159 60 159 117c0 43 -16 78 -53 111c75 -9 164 -45 164 -123c0 -43 -26 -71 -71 -89v-257
c38 38 94 80 161 80c66 0 122 -39 122 -135v-205c0 -50 11 -77 65 -77v-6h-259v6c45 0 58 27 58 77v219c0 52 -23 75 -60 75c-36 0 -65 -22 -87 -44v-250c0 -50 11 -77 65 -77v-6h-267v6c54 0 65 27 65 77v494c-11 -2 -30 -2 -38 -2c-66 0 -130 9 -199 19v-482
c0 -87 30 -106 100 -106v-6h-349v6z" />
    <glyph glyph-name="C_o" horiz-adv-x="1138" 
d="M714 36v9h385v-9h-385zM906 171c-100 0 -187 63 -187 170c0 108 87 171 187 171s188 -63 188 -171c0 -107 -88 -170 -188 -170zM906 177c46 0 64 56 64 165c0 108 -18 163 -64 163c-45 0 -64 -55 -64 -164s19 -164 64 -164zM714 106v9h385v-9h-385zM406 -12
c-239 0 -366 136 -366 317c0 196 148 325 359 325c85 0 155 -21 228 -2l18 -211h-6c-59 147 -135 207 -230 207c-155 0 -208 -157 -208 -314s51 -316 203 -316c117 0 197 96 249 222l5 -1l-34 -197c-52 -16 -140 -30 -218 -30z" />
    <glyph glyph-name="zero" unicode="0" horiz-adv-x="627" 
d="M314 -12c-168 0 -267 135 -267 321s99 321 267 321c167 0 266 -135 266 -321s-99 -321 -266 -321zM314 -5c92 0 112 170 112 314c0 143 -20 314 -112 314c-93 0 -112 -171 -112 -314c0 -144 19 -314 112 -314z" />
    <glyph glyph-name="one" unicode="1" horiz-adv-x="407" 
d="M38 0v6c75 0 109 21 109 105v380c0 34 -8 53 -45 53h-70v5c89 8 172 26 254 71l5 -2v-514c0 -84 32 -98 100 -98v-6h-353z" />
    <glyph glyph-name="two" unicode="2" horiz-adv-x="587" 
d="M64 0c-15 69 -6 115 35 163c86 106 267 161 267 327c0 74 -36 130 -117 130c-66 0 -102 -37 -121 -78c38 -6 66 -38 66 -79c0 -44 -33 -78 -76 -78c-47 0 -76 40 -76 83c0 72 84 162 243 162c128 0 235 -58 235 -167c0 -179 -293 -159 -419 -312c-13 -17 -23 -34 -29 -53
c19 46 65 74 142 74c81 0 145 -36 214 -36c60 0 95 26 95 84c0 11 -2 25 -5 39h7c6 -27 12 -63 12 -100c0 -82 -28 -169 -116 -169c-118 0 -163 152 -268 152c-57 0 -86 -43 -85 -99c0 -14 2 -30 6 -43h-10z" />
    <glyph glyph-name="three" unicode="3" horiz-adv-x="590" 
d="M281 -12c-146 0 -240 63 -240 137c0 43 31 82 76 82c42 0 76 -35 76 -79c0 -38 -25 -70 -59 -78c15 -27 47 -52 107 -52c101 0 147 71 147 163c0 98 -54 149 -156 151c-54 1 -64 -10 -76 -10c-8 0 -18 6 -18 15c0 8 7 16 18 16c12 0 17 -13 76 -12c99 4 137 77 137 157
c0 84 -43 142 -123 142c-54 0 -85 -26 -102 -53c35 -7 61 -38 61 -77c0 -43 -33 -76 -77 -76c-45 0 -74 34 -74 78c0 76 89 138 232 138c137 0 238 -56 238 -156c0 -103 -110 -154 -251 -155h-7v-4h7c144 0 271 -44 271 -158c0 -113 -125 -169 -263 -169z" />
    <glyph glyph-name="four" unicode="4" horiz-adv-x="596" 
d="M218 0v6c75 0 109 21 109 105v51h-311l-2 4l92 88c52 47 103 133 103 221c0 75 -36 125 -79 154c121 4 252 -37 252 -126c0 -99 -158 -161 -263 -252l-90 -81h298v97l138 131h5v-228c65 1 70 12 83 12c12 0 19 -8 19 -16c0 -9 -10 -15 -19 -15c-11 0 -22 10 -83 10v-57
c0 -84 33 -98 100 -98v-6h-352z" />
    <glyph glyph-name="five" unicode="5" horiz-adv-x="574" 
d="M267 -12c-141 0 -232 62 -232 138c0 44 31 81 77 81s75 -35 75 -78c0 -40 -25 -71 -59 -78c16 -28 44 -53 99 -53c104 0 150 93 150 186c0 98 -50 168 -148 168c-52 0 -99 -21 -128 -36c-4 -20 -8 -34 -24 -34c-9 0 -14 5 -14 14c0 12 14 21 31 27l27 295
c115 -5 332 -25 379 38c10 -26 16 -51 16 -73c0 -83 -68 -108 -134 -108c-80 0 -160 36 -258 90l-23 -240c51 24 103 42 176 42c136 0 255 -64 255 -187s-118 -192 -265 -192z" />
    <glyph glyph-name="six" unicode="6" horiz-adv-x="620" 
d="M322 -12c-205 0 -275 156 -275 308c0 190 109 334 298 334c125 0 205 -63 205 -137c0 -44 -29 -80 -75 -80c-44 0 -76 34 -76 77c0 36 22 66 54 75c-14 30 -40 57 -91 57c-132 0 -177 -183 -169 -352c17 73 76 123 171 123c121 0 209 -83 209 -196
c0 -118 -95 -209 -251 -209zM315 -6c88 0 116 111 116 202c0 99 -30 178 -105 178c-61 0 -134 -50 -133 -188c0 -101 41 -192 122 -192z" />
    <glyph glyph-name="seven" unicode="7" horiz-adv-x="507" 
d="M154 0c16 167 127 291 235 427c29 33 61 64 83 104l-3 1c-28 -42 -56 -79 -122 -79c-55 0 -132 26 -202 26c-65 0 -94 -26 -97 -107h-9v246h10l5 -161h1c10 90 26 171 105 171c99 0 155 -124 242 -124c61 0 83 67 83 94c0 9 0 14 -1 20h10c1 -5 1 -11 1 -17
c-1 -68 -47 -127 -79 -191c-64 -125 -102 -236 -111 -410h-151z" />
    <glyph glyph-name="eight" unicode="8" horiz-adv-x="638" 
d="M319 -12c-200 0 -272 85 -272 171c0 80 60 154 229 165c-141 10 -211 67 -211 150c0 91 87 156 254 156c166 0 254 -65 254 -156c0 -83 -71 -140 -211 -150c167 -11 229 -85 229 -165c0 -86 -72 -171 -272 -171zM319 -5c74 0 117 59 117 163c0 103 -43 163 -117 163
c-75 0 -117 -60 -117 -163c0 -104 42 -163 117 -163zM319 623c-70 0 -100 -59 -100 -148c0 -88 30 -147 100 -147c69 0 100 59 100 147c0 89 -31 148 -100 148z" />
    <glyph glyph-name="nine" unicode="9" horiz-adv-x="620" 
d="M274 -12c-127 0 -207 63 -207 136c0 44 29 80 75 80c44 0 76 -33 76 -76c0 -36 -23 -66 -55 -75c15 -31 42 -58 96 -58c157 0 173 239 167 361c-17 -73 -74 -123 -171 -123c-118 0 -208 76 -208 190c0 118 96 207 250 207c202 0 276 -154 276 -307
c0 -182 -103 -335 -299 -335zM306 623c-88 0 -117 -107 -117 -194c0 -121 51 -174 113 -174c59 0 123 48 123 180c0 101 -38 188 -119 188z" />
    <glyph glyph-name="zero.op" horiz-adv-x="612" 
d="M306 -11c-167 0 -258 123 -258 259c0 135 91 259 258 259s258 -124 258 -259c0 -136 -91 -259 -258 -259zM306 -4c86 0 106 126 106 252c0 125 -20 252 -106 252s-106 -127 -106 -252c0 -126 20 -252 106 -252z" />
    <glyph glyph-name="one.op" horiz-adv-x="421" 
d="M51 0v6c75 0 109 21 109 105v258c0 33 -8 52 -45 52h-71v5c90 8 172 26 255 71l4 -2v-391c0 -84 33 -98 100 -98v-6h-352z" />
    <glyph glyph-name="two.op" horiz-adv-x="565" 
d="M71 0c-13 48 -7 92 27 132c70 86 249 123 249 261c0 64 -38 105 -106 105c-57 0 -91 -29 -108 -64c34 -6 60 -34 60 -72c0 -41 -32 -72 -72 -72c-43 0 -72 36 -72 75c0 65 79 142 230 142c118 0 218 -48 218 -138c0 -153 -281 -119 -392 -243c-6 -8 -12 -17 -16 -26
c23 30 65 46 122 47c77 0 136 -31 199 -31c56 0 88 23 88 74c0 9 -1 20 -3 31h6c6 -23 10 -51 10 -81c0 -73 -24 -150 -108 -150c-109 0 -153 130 -252 130c-43 0 -68 -24 -75 -59c-3 -16 -3 -38 3 -61h-8z" />
    <glyph glyph-name="three.op" horiz-adv-x="591" 
d="M281 -135c-146 0 -240 63 -240 137c0 43 31 82 76 82c42 0 76 -35 76 -79c0 -38 -25 -70 -59 -78c15 -27 47 -52 107 -52c101 0 147 71 147 163c0 98 -54 149 -156 151c-54 1 -64 -10 -76 -10c-8 0 -18 6 -18 15c0 8 7 16 18 16c12 0 17 -13 76 -12c99 4 137 77 137 157
c0 84 -43 142 -123 142c-54 0 -85 -26 -102 -53c35 -7 61 -38 61 -77c0 -43 -33 -76 -77 -76c-45 0 -74 34 -74 78c0 76 89 138 232 138c137 0 238 -56 238 -156c0 -103 -110 -154 -251 -155h-7v-4h7c144 0 271 -44 271 -158c0 -113 -125 -169 -263 -169z" />
    <glyph glyph-name="four.op" horiz-adv-x="590" 
d="M221 -124v6c75 0 109 21 109 105v51h-311l-2 5l92 87c52 48 104 134 104 222c0 74 -37 125 -80 153c121 4 252 -36 252 -126c0 -99 -157 -161 -262 -252l-91 -81h298v98l138 130h5v-228c65 1 70 12 83 12c12 0 19 -8 19 -16c0 -9 -10 -15 -19 -15c-11 0 -22 10 -83 10
v-57c0 -84 33 -98 100 -98v-6h-352z" />
    <glyph glyph-name="five.op" horiz-adv-x="577" 
d="M267 -134c-141 0 -232 62 -232 137c0 45 31 81 77 81s75 -34 75 -77c0 -40 -25 -71 -59 -78c16 -28 44 -54 99 -54c104 0 150 94 150 187c0 97 -50 167 -148 167c-52 0 -99 -20 -128 -35c-4 -20 -8 -34 -24 -34c-9 0 -14 5 -14 14c0 12 14 21 31 27l27 295
c115 -6 332 -26 379 38c10 -26 16 -51 16 -73c0 -83 -68 -109 -134 -109c-80 0 -160 37 -258 91l-23 -240c51 24 103 42 176 42c136 0 255 -64 255 -187c0 -124 -118 -192 -265 -192z" />
    <glyph glyph-name="six.op" horiz-adv-x="620" 
d="M322 -12c-205 0 -275 156 -275 308c0 190 109 334 298 334c125 0 205 -63 205 -137c0 -44 -29 -80 -75 -80c-44 0 -76 34 -76 77c0 36 22 66 54 75c-14 30 -40 57 -91 57c-132 0 -177 -183 -169 -352c17 73 76 123 171 123c121 0 209 -83 209 -196
c0 -118 -95 -209 -251 -209zM315 -6c88 0 116 111 116 202c0 99 -30 178 -105 178c-61 0 -134 -50 -133 -188c0 -101 41 -192 122 -192z" />
    <glyph glyph-name="seven.op" horiz-adv-x="521" 
d="M159 -124c17 167 127 291 235 427c29 33 61 64 83 104l-2 2c-29 -43 -57 -80 -123 -80c-55 0 -132 26 -202 26c-65 0 -93 -26 -97 -107h-8v246h9l5 -161h2c9 90 25 171 105 171c98 0 155 -124 241 -124c61 0 84 67 84 94c0 10 -1 14 -2 20h10c1 -5 1 -11 1 -17
c-1 -68 -46 -127 -79 -190c-64 -126 -102 -237 -111 -411h-151z" />
    <glyph glyph-name="eight.op" horiz-adv-x="638" 
d="M319 -12c-200 0 -272 85 -272 171c0 80 60 154 229 165c-141 10 -211 67 -211 150c0 91 87 156 254 156c166 0 254 -65 254 -156c0 -83 -71 -140 -211 -150c167 -11 229 -85 229 -165c0 -86 -72 -171 -272 -171zM319 -5c74 0 117 59 117 163c0 103 -43 163 -117 163
c-75 0 -117 -60 -117 -163c0 -104 42 -163 117 -163zM319 623c-70 0 -100 -59 -100 -148c0 -88 30 -147 100 -147c69 0 100 59 100 147c0 89 -31 148 -100 148z" />
    <glyph glyph-name="nine.op" horiz-adv-x="620" 
d="M274 -135c-127 0 -207 63 -207 136c0 44 29 80 75 80c44 0 76 -33 76 -76c0 -36 -23 -66 -55 -75c15 -31 42 -58 96 -58c157 0 173 239 167 361c-17 -73 -74 -123 -171 -123c-118 0 -208 76 -208 190c0 118 96 207 250 207c202 0 276 -154 276 -307
c0 -182 -103 -335 -299 -335zM306 500c-88 0 -117 -107 -117 -194c0 -121 51 -174 113 -174c59 0 123 48 123 180c0 101 -38 188 -119 188z" />
    <glyph glyph-name="A.alt" horiz-adv-x="1109" 
d="M242 -157c-138 0 -242 71 -242 178c0 123 136 191 259 177c-85 -24 -128 -90 -128 -172c0 -92 53 -164 152 -164c125 0 196 119 257 257l219 492h-123c-94 0 -142 -63 -142 -132c0 -39 16 -82 45 -110c-85 7 -144 56 -144 121c0 79 86 128 218 128h160l227 -481
c30 -63 69 -131 132 -131v-6h-352v6c72 0 88 56 56 128l-33 70h-213l-37 -85c-67 -150 -128 -276 -311 -276zM594 214h205l-104 229z" />
    <glyph glyph-name="B.alt" horiz-adv-x="876" 
d="M219 0v6c70 0 85 22 85 98v507h-51c-94 0 -142 -63 -142 -132c0 -39 16 -82 45 -110c-85 7 -144 56 -144 121c0 79 86 128 218 128h320c183 0 263 -55 263 -149c0 -88 -70 -144 -242 -147v-3c189 -3 262 -61 262 -155s-74 -164 -261 -164h-353zM453 7h84
c99 0 139 80 139 160c0 78 -39 149 -146 149h-77v-309zM453 323h57c103 0 145 60 145 145c0 67 -27 143 -124 143h-78v-288z" />
    <glyph glyph-name="C.alt" horiz-adv-x="690" 
d="M396 -12c-222 0 -356 137 -356 318c0 193 153 324 357 324c172 0 259 -92 259 -165c0 -42 -29 -83 -76 -83c-43 0 -77 35 -77 79c0 39 26 70 61 77c-25 45 -75 86 -155 86c-153 0 -209 -156 -209 -321c0 -147 45 -309 205 -309c80 0 133 40 160 83c-34 8 -58 39 -58 77
c0 45 33 79 76 79c47 0 76 -40 76 -84c0 -71 -84 -161 -263 -161z" />
    <glyph glyph-name="D.alt" horiz-adv-x="959" 
d="M219 0v6c70 0 85 22 85 98v507h-51c-94 0 -142 -63 -142 -132c0 -39 16 -82 45 -110c-85 7 -144 56 -144 121c0 79 86 128 218 128h324c226 0 363 -119 363 -309s-137 -309 -363 -309h-335zM453 7h82c165 0 222 149 222 302s-57 302 -221 302h-83v-604z" />
    <glyph glyph-name="E.alt" horiz-adv-x="831" 
d="M219 0v6c70 0 85 22 85 98v507h-51c-94 0 -142 -63 -142 -132c0 -39 16 -82 45 -110c-85 7 -144 56 -144 121c0 79 86 128 218 128h528l14 -202l-4 -1c-26 115 -91 196 -243 196h-72v-299h27c114 0 164 61 182 145h5v-296h-5c-18 84 -68 144 -182 144h-27v-298h79
c161 0 216 106 246 210l5 -1l-19 -216h-545z" />
    <glyph glyph-name="F.alt" horiz-adv-x="793" 
d="M219 0v6c70 0 85 22 85 98v507h-51c-94 0 -142 -63 -142 -132c0 -39 16 -82 45 -110c-85 7 -144 56 -144 121c0 79 86 128 218 128h524l15 -206l-5 -1c-26 116 -97 200 -243 200h-68v-308h23c115 0 164 63 183 147h4v-300h-4c-19 83 -68 146 -183 146h-23v-184
c0 -87 30 -106 100 -106v-6h-334z" />
    <glyph glyph-name="G.alt" horiz-adv-x="781" 
d="M416 -12c-256 0 -376 141 -376 312c0 208 179 330 384 330c172 0 269 -86 269 -162c0 -38 -25 -83 -75 -83c-43 0 -77 35 -77 79c0 38 24 69 59 77c-28 43 -83 82 -167 82c-162 0 -233 -148 -233 -326c0 -153 54 -303 214 -303c48 0 93 14 134 35v157
c0 76 -18 104 -92 104v6h319v-6c-69 0 -84 -20 -84 -97v-259c0 -110 -118 -177 -241 -209l-2 4c91 48 100 110 100 180v91c-42 -8 -88 -12 -132 -12z" />
    <glyph glyph-name="H.alt" horiz-adv-x="1175" 
d="M290 -157c-186 0 -285 81 -285 185c0 119 131 178 258 168c-81 -22 -127 -78 -127 -172c0 -93 43 -173 155 -173c120 0 187 90 187 274v486h-52c-94 0 -142 -63 -142 -132c0 -39 16 -82 45 -110c-85 7 -144 56 -144 121c0 79 86 128 218 128h308v-6
c-70 0 -85 -22 -85 -98v-197h287v197c0 76 -15 98 -85 98v6h319v-6c-70 0 -85 -22 -85 -98v-410c0 -76 15 -98 85 -98v-6h-319v6c70 0 85 22 85 98v204h-287v-183c0 -182 -129 -282 -336 -282z" />
    <glyph glyph-name="I.alt" horiz-adv-x="566" 
d="M219 0v6c70 0 85 22 85 98v507h-51c-94 0 -142 -63 -142 -132c0 -39 16 -82 45 -110c-85 7 -144 56 -144 121c0 79 86 128 218 128h308v-6c-70 0 -85 -22 -85 -98v-410c0 -76 15 -98 85 -98v-6h-319z" />
    <glyph glyph-name="J.alt" horiz-adv-x="732" 
d="M290 -157c-186 0 -285 81 -285 185c0 119 131 178 258 168c-81 -22 -127 -78 -127 -172c0 -93 43 -173 155 -173c120 0 187 90 187 274v486h-52c-94 0 -142 -63 -142 -132c0 -39 16 -82 45 -110c-85 7 -144 56 -144 121c0 79 86 128 218 128h308v-6
c-70 0 -85 -22 -85 -98v-389c0 -182 -129 -282 -336 -282z" />
    <glyph glyph-name="K.alt" horiz-adv-x="895" 
d="M219 0v6c70 0 85 22 85 98v507h-51c-94 0 -142 -63 -142 -132c0 -39 16 -82 45 -110c-85 7 -144 56 -144 121c0 79 86 128 218 128h308v-6c-70 0 -85 -22 -85 -98v-257l168 167c59 59 93 109 93 143c0 27 -22 45 -77 45v6h283v-6c-56 0 -104 -24 -149 -59
c-42 -32 -87 -76 -140 -130l-22 -22l205 -299c63 -92 185 -295 328 -295c32 0 54 10 70 17l3 -5c-47 -23 -103 -41 -172 -41c-152 0 -252 88 -350 236l-188 283l-52 -52v-141c0 -76 15 -98 85 -98v-6h-319z" />
    <glyph glyph-name="L.alt" horiz-adv-x="600" 
d="M223 -82v7c62 0 80 15 80 97v589h-51c-94 0 -142 -63 -142 -132c0 -39 16 -82 45 -110c-85 7 -144 56 -144 121c0 79 86 128 218 128h323v-6c-70 0 -100 -20 -100 -106v-612c57 -16 138 -58 200 -97c91 -57 176 -126 275 -126c103 0 166 76 166 178c0 39 -9 77 -28 105
c102 -34 144 -102 144 -166c0 -86 -74 -159 -200 -159c-135 0 -237 84 -362 162c-109 68 -233 129 -376 129c-18 0 -33 -1 -48 -2z" />
    <glyph glyph-name="M.alt" horiz-adv-x="1322" 
d="M249 -157c-142 0 -246 71 -246 179c0 125 136 190 259 176c-80 -24 -128 -79 -128 -169c0 -93 52 -161 157 -161c122 0 231 97 243 278l31 465h-119c-94 0 -142 -63 -142 -132c0 -39 16 -82 45 -110c-86 7 -145 56 -145 121c0 79 86 128 218 128h268l201 -418l177 418
h211v-6c-76 0 -88 -47 -85 -124l18 -359c5 -84 21 -123 95 -123v-6h-327v6c72 0 88 40 84 116l-23 409l-220 -518h-4l-248 504l-25 -371c-12 -186 -112 -303 -295 -303z" />
    <glyph glyph-name="N.alt" horiz-adv-x="1116" 
d="M251 -157c-142 0 -247 71 -247 180c0 124 135 189 259 175c-80 -24 -128 -80 -128 -169c0 -93 54 -161 158 -161c123 0 237 100 237 281v462h-84c-94 0 -142 -63 -142 -132c0 -39 16 -82 45 -110c-85 7 -144 56 -144 121c0 79 86 128 218 128h205l355 -391v114
c0 212 -12 271 -127 271v6h265v-6c-115 0 -128 -59 -128 -271v-348l-5 -1l-448 493v-336c0 -186 -105 -306 -289 -306z" />
    <glyph glyph-name="O.alt" horiz-adv-x="771" 
d="M385 -12c-191 0 -345 126 -345 322c0 194 151 320 352 320c120 0 225 -44 225 -136c0 -84 -86 -122 -170 -122c-17 0 -34 1 -49 4c71 15 109 65 109 131c0 56 -26 115 -119 115c-148 0 -187 -154 -187 -312s39 -314 184 -314s185 156 185 302c0 38 -3 50 -5 75
c52 27 80 68 80 122c0 17 -4 28 -8 40c57 -55 93 -132 93 -225c0 -196 -154 -322 -345 -322z" />
    <glyph glyph-name="P.alt" horiz-adv-x="832" 
d="M219 0v6c70 0 85 22 85 98v507h-51c-94 0 -142 -63 -142 -132c0 -39 16 -82 45 -110c-85 7 -144 56 -144 121c0 79 86 128 218 128h317c194 0 266 -82 266 -181c0 -98 -72 -178 -266 -178h-53v7h21c108 0 139 90 139 171c0 82 -31 174 -139 174h-62v-507
c0 -76 15 -98 85 -98v-6h-319z" />
    <glyph glyph-name="Q.alt" horiz-adv-x="760" 
d="M834 -362c-122 0 -215 69 -299 142c-108 94 -178 178 -272 178c-61 0 -87 -36 -109 -36c-9 0 -16 6 -16 15c0 22 42 14 89 27c15 3 41 12 60 20c140 53 273 142 273 362c0 113 -37 276 -186 276c-142 0 -188 -150 -188 -263c0 -159 89 -247 197 -247c20 0 37 3 54 8
c-30 -25 -78 -41 -137 -41c-157 0 -269 112 -269 260c0 165 138 291 346 291c211 0 344 -130 344 -294c0 -210 -220 -305 -439 -364c34 7 73 12 111 12c100 0 157 -35 251 -119c113 -101 189 -173 284 -173c49 0 85 21 126 60l4 -3c-38 -44 -103 -111 -224 -111z" />
    <glyph glyph-name="R.alt" horiz-adv-x="913" 
d="M219 6c70 0 85 22 85 98v507h-51c-94 0 -142 -63 -142 -132c0 -39 16 -82 45 -110c-85 7 -144 56 -144 121c0 79 86 128 218 128h320c191 0 276 -64 276 -163c0 -130 -144 -152 -258 -157v-4h33c132 0 159 -30 221 -145c92 -171 154 -343 308 -343c22 0 35 4 53 8l1 -4
c-36 -15 -93 -29 -150 -29c-168 0 -250 120 -316 247c-19 38 -50 103 -84 175c-33 68 -42 90 -109 90h-72v-189c0 -76 15 -98 85 -98v-6h-319v6zM531 300c100 0 142 78 142 155c0 81 -40 156 -151 156h-69v-311h78z" />
    <glyph glyph-name="S.alt" horiz-adv-x="585" 
d="M288 -12c-149 0 -247 66 -247 142c0 43 32 81 77 81c43 0 76 -35 76 -78c0 -39 -27 -70 -62 -77c25 -31 74 -61 148 -61c96 0 142 51 142 113c0 172 -358 119 -358 343c0 113 93 179 235 179c136 0 225 -60 225 -135c0 -43 -29 -79 -74 -79c-43 0 -75 32 -75 75
c0 37 24 67 58 76c-23 29 -64 57 -128 57c-86 0 -126 -49 -126 -104c0 -165 359 -115 359 -344c0 -120 -97 -188 -250 -188z" />
    <glyph glyph-name="T.alt" horiz-adv-x="802" 
d="M233 0v6c70 0 100 19 100 106v498c-29 3 -55 6 -75 6c-108 0 -137 -64 -137 -120c0 -41 16 -78 53 -108c-79 10 -165 46 -165 123c0 80 94 115 207 115c126 0 299 -42 387 -42c109 0 138 64 138 119c0 40 -16 76 -53 109c79 -10 164 -47 164 -123
c0 -80 -92 -116 -206 -116c-50 0 -107 6 -164 15v-476c0 -87 30 -106 100 -106v-6h-349z" />
    <glyph glyph-name="U.alt" horiz-adv-x="892" 
d="M547 -12c-141 0 -258 63 -258 223v400h-37c-94 0 -142 -63 -142 -132c0 -39 16 -82 45 -110c-86 7 -145 56 -145 121c0 79 86 128 218 128h295v-6c-70 0 -85 -34 -85 -110v-324c0 -104 41 -174 149 -174c102 0 180 63 180 200v143c0 208 -14 265 -127 265v6h264v-6
c-114 0 -127 -59 -127 -265v-143c0 -143 -80 -216 -230 -216z" />
    <glyph glyph-name="V.alt" horiz-adv-x="648" 
d="M330 -5l-220 487c-28 61 -60 130 -131 130v6h351v-6c-77 -2 -85 -61 -57 -127l150 -348c70 115 160 278 160 411c0 108 -59 170 -194 149c28 52 72 89 131 89c68 0 120 -48 120 -148c0 -204 -216 -510 -301 -643h-9z" />
    <glyph glyph-name="W.alt" horiz-adv-x="978" 
d="M316 -5l-206 487c-22 51 -55 130 -130 130v6h328v-6c-71 0 -72 -52 -49 -112l128 -320l106 269l-12 33c-27 72 -69 130 -128 130v6h341v-6c-77 0 -82 -63 -59 -127l128 -348c66 117 141 279 141 407c0 119 -65 173 -197 153c29 52 72 89 132 89c67 0 122 -46 122 -151
c0 -203 -205 -525 -279 -640h-8l-175 439l-176 -439h-7z" />
    <glyph glyph-name="X.alt" horiz-adv-x="1108" 
d="M247 -117c-133 0 -238 71 -238 180c0 124 136 189 259 175c-85 -24 -128 -90 -128 -172c0 -92 53 -156 151 -156c144 0 255 146 321 237l88 116l-134 208c-46 71 -97 141 -166 141v6h361v-6c-78 0 -72 -60 -38 -112l83 -130l27 36c49 65 71 111 71 145
c0 38 -25 61 -74 61v6h291v-6c-53 0 -102 -25 -156 -72c-42 -37 -81 -83 -126 -142l-29 -35l142 -219c44 -68 102 -138 168 -138v-6h-360v6c66 0 76 48 36 111l-90 138l-85 -113c-101 -131 -197 -259 -374 -259z" />
    <glyph glyph-name="Y.alt" horiz-adv-x="623" 
d="M172 0v6c73 0 100 27 100 113v129l-159 257c-39 64 -79 107 -129 107v6h345v-6c-66 0 -80 -45 -42 -107l131 -218c90 107 149 190 149 277c0 92 -65 156 -195 133c29 52 73 89 132 89c67 0 120 -48 120 -140c0 -140 -120 -276 -203 -365v-162c0 -86 28 -113 100 -113v-6
h-349z" />
    <glyph glyph-name="Z.alt" horiz-adv-x="587" 
d="M16 -82l-1 2l382 690h-138c-119 0 -191 -106 -220 -209l-6 1l18 216h519l2 -2l-392 -703c98 -21 189 -69 265 -116c97 -59 179 -126 275 -126c103 0 166 76 166 178c0 39 -9 77 -28 105c102 -34 144 -102 144 -166c0 -86 -74 -159 -200 -159c-135 0 -237 85 -365 163
c-110 67 -230 128 -373 128c-19 0 -39 -1 -48 -2z" />
    <glyph glyph-name="d.alt" horiz-adv-x="562" 
d="M217 -11c-114 0 -181 102 -181 215c0 121 77 219 210 219c47 0 81 -13 103 -30v110c-266 24 -474 146 -474 283c0 86 84 151 196 175c-44 -44 -69 -95 -69 -169c0 -194 178 -262 347 -279v15c7 162 123 242 254 242c114 0 143 -61 143 -117c0 -92 -80 -148 -261 -155
v-415c0 -50 11 -77 65 -77v-6h-197v55c-29 -35 -72 -66 -136 -66zM279 26c31 0 53 16 70 36v291c-10 32 -37 61 -73 61c-72 0 -97 -120 -97 -204c0 -102 32 -184 100 -184zM485 507c185 6 251 66 251 146c0 67 -47 107 -115 107c-102 0 -136 -89 -136 -202v-51z" />
    <glyph glyph-name="d.alt1" horiz-adv-x="562" 
d="M217 -11c-114 0 -181 102 -181 215c0 121 77 219 210 219c47 0 81 -13 103 -30v144c0 37 7 70 19 96c-184 82 -391 236 -576 236c-118 0 -193 -63 -193 -162c0 -48 21 -112 82 -161c-124 9 -209 83 -209 175c0 95 87 179 248 179c231 0 460 -170 652 -257
c38 80 119 117 198 117c78 0 112 -36 112 -86c0 -56 -42 -91 -121 -91c-25 0 -50 3 -76 9v-509c0 -50 11 -77 65 -77v-6h-197v55c-29 -35 -72 -66 -136 -66zM279 26c31 0 53 16 70 36v291c-10 32 -37 61 -73 61c-72 0 -97 -120 -97 -204c0 -102 32 -184 100 -184zM485 601
c26 -7 52 -10 76 -10c76 0 111 38 111 83c0 42 -30 77 -86 77c-76 0 -98 -61 -101 -150z" />
    <glyph glyph-name="h.alt" horiz-adv-x="573" 
d="M12 0v6c54 0 65 27 65 77v419c0 21 2 41 6 58c-241 103 -464 339 -668 339c-116 0 -166 -78 -166 -163c0 -57 22 -115 72 -160c-120 26 -199 90 -199 179c0 87 76 175 226 175c252 0 493 -251 737 -359c25 127 118 189 238 189c117 0 158 -58 158 -118
c0 -83 -76 -131 -188 -131c-27 0 -53 3 -79 7v-175c38 38 94 80 161 80c66 0 122 -39 122 -135v-205c0 -50 11 -77 65 -77v-6h-259v6c45 0 58 27 58 77v219c0 52 -23 75 -60 75c-36 0 -65 -22 -87 -44v-250c0 -50 11 -77 65 -77v-6h-267zM214 527c26 -5 52 -8 79 -8
c108 0 178 48 178 123c0 65 -53 108 -128 108c-114 0 -129 -100 -129 -207v-16z" />
    <glyph glyph-name="h.alt1" horiz-adv-x="555" 
d="M12 0v6c54 0 65 27 65 77v483c0 50 -11 76 -65 76v6l202 20v-325c38 38 94 80 161 80c66 0 122 -39 122 -135v-370c27 4 52 7 80 7c111 0 187 -45 187 -129c0 -60 -40 -120 -159 -120c-123 0 -212 66 -237 189c-246 -108 -486 -359 -743 -359c-154 0 -227 90 -227 176
c0 88 76 153 194 178c-43 -41 -67 -97 -67 -157c0 -88 53 -163 171 -163c209 0 429 234 670 336c-4 17 -5 36 -5 56v370c0 52 -23 75 -60 75c-36 0 -65 -22 -87 -44v-250c0 -50 11 -77 65 -77v-6h-267zM497 -91v-14c0 -110 14 -209 128 -209c77 0 129 45 129 110
c0 75 -70 121 -176 121c-28 0 -54 -3 -81 -8z" />
    <glyph glyph-name="l.alt" horiz-adv-x="292" 
d="M13 0v6c54 0 65 27 65 77v421c0 20 1 39 5 56c-240 103 -464 339 -667 339c-117 0 -166 -78 -166 -163c0 -57 21 -115 71 -160c-119 26 -198 90 -198 179c0 87 75 175 225 175c253 0 494 -251 738 -359c25 127 117 189 238 189c117 0 157 -58 157 -118
c0 -83 -75 -131 -187 -131c-28 0 -53 3 -80 7v-435c0 -50 11 -77 65 -77v-6h-266zM214 527c26 -5 53 -8 80 -8c107 0 177 48 177 123c0 65 -53 108 -127 108c-114 0 -130 -100 -130 -207v-16z" />
    <glyph glyph-name="l.alt1" horiz-adv-x="292" 
d="M13 0v6c54 0 65 27 65 77v437c-28 -6 -57 -9 -85 -9c-111 0 -180 43 -180 125c0 61 48 124 167 124c121 0 206 -58 228 -187c244 110 486 357 736 357c150 0 225 -88 225 -175c0 -89 -79 -153 -198 -179c49 44 71 103 71 161c0 83 -47 162 -165 162
c-203 0 -427 -233 -667 -336c3 -17 4 -35 4 -54v-426c0 -50 11 -77 65 -77v-6h-266zM78 528v23c0 106 -5 199 -118 199c-76 0 -137 -48 -137 -114c0 -75 63 -117 170 -117c28 0 56 3 85 9z" />
    <glyph glyph-name="y.alt" horiz-adv-x="500" 
d="M5 -275c-74 0 -120 39 -120 95c0 69 69 97 123 97c52 0 108 -26 167 -63c23 39 47 88 73 142l-159 319c-24 49 -53 91 -98 91v6h287v-6c-59 0 -68 -33 -44 -86l81 -176l34 79c24 58 39 99 39 130c0 30 -15 53 -61 53v6h192v-6c-50 0 -79 -28 -103 -64
c-16 -25 -28 -53 -60 -124l-103 -228c-24 -53 -47 -101 -71 -140c148 -95 313 -258 484 -258c134 0 177 98 177 173c0 54 -21 106 -72 141c113 -14 199 -80 199 -171c0 -77 -61 -172 -230 -172c-230 0 -410 178 -563 278c-45 -72 -94 -116 -172 -116zM6 -267
c72 0 119 42 163 113c-57 38 -111 63 -161 63c-54 0 -113 -29 -113 -89c0 -51 42 -87 111 -87z" />
    <glyph glyph-name="Amacron" unicode="&#x100;" horiz-adv-x="671" 
d="M-40 0v6c106 0 145 107 190 209l177 408h7l230 -486c29 -63 68 -131 132 -131v-6h-353v6c73 0 88 56 56 128l-32 70h-211l-7 -18c-35 -95 -28 -180 86 -180v-6h-275zM161 214h201l-103 227zM185 700v37h289v-37h-289z" />
    <glyph glyph-name="amacron" unicode="&#x101;" horiz-adv-x="529" 
d="M178 -11c-85 0 -143 44 -143 116c0 83 77 116 171 116c38 0 79 -6 110 -15v103c0 60 -14 108 -81 108c-45 0 -72 -22 -89 -46c26 -11 42 -38 42 -65c0 -37 -30 -67 -68 -67c-43 0 -66 36 -66 70c0 63 76 114 188 114c99 0 211 -41 211 -156v-217c0 -23 12 -31 27 -31
c28 0 52 31 66 53l5 -3c-25 -40 -59 -79 -124 -79c-56 0 -91 29 -104 70c-27 -37 -70 -71 -145 -71zM240 17c29 0 54 17 76 46v135c-18 5 -39 10 -59 10c-54 0 -82 -33 -82 -97c0 -53 20 -94 65 -94zM106 500v37h290v-37h-290z" />
    <glyph glyph-name="Abreve" unicode="&#x102;" horiz-adv-x="671" 
d="M-40 0v6c106 0 145 107 190 209l177 408h7l230 -486c29 -63 68 -131 132 -131v-6h-353v6c73 0 88 56 56 128l-32 70h-211l-7 -18c-35 -95 -28 -180 86 -180v-6h-275zM161 214h201l-103 227zM331 676c-99 0 -126 108 -126 173h3c9 -39 40 -81 123 -81s113 42 122 81h3
c0 -65 -27 -173 -125 -173z" />
    <glyph glyph-name="abreve" unicode="&#x103;" horiz-adv-x="529" 
d="M178 -11c-85 0 -143 44 -143 116c0 83 77 116 171 116c38 0 79 -6 110 -15v103c0 60 -14 108 -81 108c-45 0 -72 -22 -89 -46c26 -11 42 -38 42 -65c0 -37 -30 -67 -68 -67c-43 0 -66 36 -66 70c0 63 76 114 188 114c99 0 211 -41 211 -156v-217c0 -23 12 -31 27 -31
c28 0 52 31 66 53l5 -3c-25 -40 -59 -79 -124 -79c-56 0 -91 29 -104 70c-27 -37 -70 -71 -145 -71zM240 17c29 0 54 17 76 46v135c-18 5 -39 10 -59 10c-54 0 -82 -33 -82 -97c0 -53 20 -94 65 -94zM251 476c-98 0 -125 108 -125 173h3c9 -39 40 -81 122 -81
c84 0 114 42 123 81h3c0 -65 -27 -173 -126 -173z" />
    <glyph glyph-name="Aogonek" unicode="&#x104;" horiz-adv-x="671" 
d="M515 -222c-72 0 -111 32 -111 82c0 82 108 113 178 140h-239v6c73 0 88 56 56 128l-32 70h-211l-7 -18c-35 -95 -28 -180 86 -180v-6h-275v6c106 0 145 107 190 209l177 408h7l230 -486c29 -63 68 -131 132 -131v-6h-98c-41 -21 -88 -51 -88 -120c0 -54 30 -81 79 -81
c21 0 39 5 51 9l2 -5c-33 -13 -84 -25 -127 -25zM161 214h201l-103 227z" />
    <glyph glyph-name="aogonek" unicode="&#x105;" horiz-adv-x="529" 
d="M178 -11c-85 0 -143 44 -143 116c0 83 77 116 171 116c38 0 79 -6 110 -15v103c0 60 -14 108 -81 108c-45 0 -72 -22 -89 -46c26 -11 42 -38 42 -65c0 -37 -30 -67 -68 -67c-43 0 -66 36 -66 70c0 63 76 114 188 114c99 0 211 -41 211 -156v-217c0 -23 12 -31 27 -31
c28 0 52 31 66 53l5 -3c-22 -34 -52 -72 -105 -76c-38 -21 -74 -51 -74 -113c0 -54 30 -81 79 -81c21 0 39 5 51 9l2 -5c-33 -13 -85 -25 -128 -25c-71 0 -111 32 -111 82c0 73 86 106 154 131c-52 3 -84 31 -96 69c-27 -37 -70 -71 -145 -71zM240 17c29 0 54 17 76 46v135
c-18 5 -39 10 -59 10c-54 0 -82 -33 -82 -97c0 -53 20 -94 65 -94z" />
    <glyph glyph-name="Cacute" unicode="&#x106;" horiz-adv-x="690" 
d="M406 -12c-239 0 -366 136 -366 317c0 196 148 325 359 325c85 0 155 -21 228 -2l18 -211h-6c-59 147 -135 207 -230 207c-155 0 -208 -157 -208 -314s51 -316 203 -316c117 0 197 96 249 222l5 -1l-34 -197c-52 -16 -140 -30 -218 -30zM315 674l-2 2
c53 77 91 138 117 160c26 23 57 23 76 1c18 -21 12 -52 -15 -74c-26 -21 -91 -47 -176 -89z" />
    <glyph glyph-name="cacute" unicode="&#x107;" horiz-adv-x="483" 
d="M256 -11c-144 0 -222 103 -222 217c0 136 110 217 236 217c114 0 179 -69 179 -132c0 -44 -33 -72 -71 -72c-40 0 -71 32 -71 71c0 36 24 65 58 71c-12 29 -36 56 -79 56c-84 0 -111 -105 -111 -197c0 -132 51 -208 136 -208c63 0 110 43 139 86l6 -4
c-31 -46 -91 -105 -200 -105zM181 474l-2 2c54 77 92 138 118 160c26 23 57 23 75 1c18 -21 12 -52 -14 -74c-27 -21 -91 -47 -177 -89z" />
    <glyph glyph-name="Ccircumflex" unicode="&#x108;" horiz-adv-x="690" 
d="M406 -12c-239 0 -366 136 -366 317c0 196 148 325 359 325c85 0 155 -21 228 -2l18 -211h-6c-59 147 -135 207 -230 207c-155 0 -208 -157 -208 -314s51 -316 203 -316c117 0 197 96 249 222l5 -1l-34 -197c-52 -16 -140 -30 -218 -30zM248 664l-2 2l112 151
c11 13 23 22 40 22s29 -9 39 -22l113 -151l-2 -2l-150 81z" />
    <glyph glyph-name="ccircumflex" unicode="&#x109;" horiz-adv-x="483" 
d="M256 -11c-144 0 -222 103 -222 217c0 136 110 217 236 217c114 0 179 -69 179 -132c0 -44 -33 -72 -71 -72c-40 0 -71 32 -71 71c0 36 24 65 58 71c-12 29 -36 56 -79 56c-84 0 -111 -105 -111 -197c0 -132 51 -208 136 -208c63 0 110 43 139 86l6 -4
c-31 -46 -91 -105 -200 -105zM102 464l-2 2l113 151c10 13 22 22 39 22s29 -9 40 -22l112 -151l-2 -2l-150 81z" />
    <glyph glyph-name="Cdotaccent" unicode="&#x10a;" horiz-adv-x="690" 
d="M406 -12c-239 0 -366 136 -366 317c0 196 148 325 359 325c85 0 155 -21 228 -2l18 -211h-6c-59 147 -135 207 -230 207c-155 0 -208 -157 -208 -314s51 -316 203 -316c117 0 197 96 249 222l5 -1l-34 -197c-52 -16 -140 -30 -218 -30zM396 691c-38 0 -68 31 -68 69
c0 37 30 68 68 68s69 -31 69 -68c0 -38 -31 -69 -69 -69z" />
    <glyph glyph-name="cdotaccent" unicode="&#x10b;" horiz-adv-x="483" 
d="M256 -11c-144 0 -222 103 -222 217c0 136 110 217 236 217c114 0 179 -69 179 -132c0 -44 -33 -72 -71 -72c-40 0 -71 32 -71 71c0 36 24 65 58 71c-12 29 -36 56 -79 56c-84 0 -111 -105 -111 -197c0 -132 51 -208 136 -208c63 0 110 43 139 86l6 -4
c-31 -46 -91 -105 -200 -105zM263 491c-38 0 -68 31 -68 69c0 37 30 68 68 68s69 -31 69 -68c0 -38 -31 -69 -69 -69z" />
    <glyph glyph-name="Ccaron" unicode="&#x10c;" horiz-adv-x="690" 
d="M406 -12c-239 0 -366 136 -366 317c0 196 148 325 359 325c85 0 155 -21 228 -2l18 -211h-6c-59 147 -135 207 -230 207c-155 0 -208 -157 -208 -314s51 -316 203 -316c117 0 197 96 249 222l5 -1l-34 -197c-52 -16 -140 -30 -218 -30zM404 665c-17 0 -29 9 -40 22
l-112 151l2 2l150 -81l150 81l2 -2l-113 -151c-10 -13 -22 -22 -39 -22z" />
    <glyph glyph-name="ccaron" unicode="&#x10d;" horiz-adv-x="483" 
d="M256 -11c-144 0 -222 103 -222 217c0 136 110 217 236 217c114 0 179 -69 179 -132c0 -44 -33 -72 -71 -72c-40 0 -71 32 -71 71c0 36 24 65 58 71c-12 29 -36 56 -79 56c-84 0 -111 -105 -111 -197c0 -132 51 -208 136 -208c63 0 110 43 139 86l6 -4
c-31 -46 -91 -105 -200 -105zM257 465c-17 0 -29 9 -40 22l-112 151l2 2l150 -81l150 81l2 -2l-113 -151c-10 -13 -22 -22 -39 -22z" />
    <glyph glyph-name="Dcaron" unicode="&#x10e;" horiz-adv-x="768" 
d="M28 0v6c70 0 85 22 85 98v410c0 76 -15 98 -85 98v6h335c226 0 363 -119 363 -309s-137 -309 -363 -309h-335zM262 7h82c165 0 222 149 222 302s-57 302 -221 302h-83v-604zM390 665c-17 0 -29 9 -40 22l-112 151l2 2l150 -81l150 81l2 -2l-113 -151
c-10 -13 -22 -22 -39 -22z" />
    <glyph glyph-name="dcaron" unicode="&#x10f;" horiz-adv-x="577" 
d="M557 441l-3 1c5 72 5 153 15 181c10 26 37 46 64 36c26 -9 37 -38 26 -68c-11 -29 -54 -83 -102 -150zM217 -11c-114 0 -181 102 -181 215c0 121 77 219 210 219c47 0 81 -13 103 -30v173c0 58 -26 76 -80 76v6l216 20v-585c0 -50 11 -77 65 -77v-6h-197v55
c-29 -35 -72 -66 -136 -66zM279 26c31 0 53 16 70 36v291c-10 32 -37 61 -73 61c-72 0 -97 -120 -97 -204c0 -102 32 -184 100 -184z" />
    <glyph glyph-name="Dcroat" unicode="&#x110;" horiz-adv-x="768" 
d="M28 0v6c70 0 85 22 85 98v202h-78v9h78v199c0 76 -15 98 -85 98v6h336c225 0 362 -119 362 -309s-137 -309 -362 -309h-336zM262 7h82c165 0 222 149 222 302s-57 302 -221 302h-83v-296h163v-9h-163v-299z" />
    <glyph glyph-name="dcroat" unicode="&#x111;" horiz-adv-x="562" 
d="M211 501v9h138v56c0 58 -26 76 -80 76v6l216 20v-158h68v-9h-68v-418c0 -50 11 -77 65 -77v-6h-197v55c-29 -35 -72 -66 -136 -66c-114 0 -181 102 -181 215c0 121 77 219 210 219c47 0 81 -13 103 -30v108h-138zM279 26c31 0 53 16 70 36v291c-10 32 -37 61 -73 61
c-72 0 -97 -120 -97 -204c0 -102 32 -184 100 -184z" />
    <glyph glyph-name="Emacron" unicode="&#x112;" horiz-adv-x="640" 
d="M28 0v6c70 0 85 22 85 98v410c0 76 -15 98 -85 98v6h539l14 -202l-4 -1c-26 115 -91 196 -243 196h-72v-299h27c114 0 164 61 182 145h5v-296h-5c-18 84 -68 144 -182 144h-27v-298h79c161 0 216 106 246 210l5 -1l-19 -216h-545zM181 700v37h289v-37h-289z" />
    <glyph glyph-name="emacron" unicode="&#x113;" horiz-adv-x="501" 
d="M263 -11c-150 0 -229 104 -229 217c0 123 93 217 228 217c118 0 202 -73 205 -196h-292c0 -132 50 -215 142 -215c69 0 116 47 143 86l6 -4c-33 -46 -90 -105 -203 -105zM259 417c-58 0 -81 -102 -83 -182h156c-1 47 -4 182 -73 182zM113 500v37h290v-37h-290z" />
    <glyph glyph-name="Ebreve" unicode="&#x114;" horiz-adv-x="640" 
d="M28 0v6c70 0 85 22 85 98v410c0 76 -15 98 -85 98v6h539l14 -202l-4 -1c-26 115 -91 196 -243 196h-72v-299h27c114 0 164 61 182 145h5v-296h-5c-18 84 -68 144 -182 144h-27v-298h79c161 0 216 106 246 210l5 -1l-19 -216h-545zM334 676c-99 0 -126 108 -126 173h3
c9 -39 40 -81 123 -81s113 42 122 81h3c0 -65 -27 -173 -125 -173z" />
    <glyph glyph-name="ebreve" unicode="&#x115;" horiz-adv-x="501" 
d="M263 -11c-150 0 -229 104 -229 217c0 123 93 217 228 217c118 0 202 -73 205 -196h-292c0 -132 50 -215 142 -215c69 0 116 47 143 86l6 -4c-33 -46 -90 -105 -203 -105zM259 417c-58 0 -81 -102 -83 -182h156c-1 47 -4 182 -73 182zM259 476c-99 0 -125 108 -125 173h2
c9 -39 40 -81 123 -81s113 42 122 81h3c0 -65 -27 -173 -125 -173z" />
    <glyph glyph-name="Edotaccent" unicode="&#x116;" horiz-adv-x="640" 
d="M28 0v6c70 0 85 22 85 98v410c0 76 -15 98 -85 98v6h539l14 -202l-4 -1c-26 115 -91 196 -243 196h-72v-299h27c114 0 164 61 182 145h5v-296h-5c-18 84 -68 144 -182 144h-27v-298h79c161 0 216 106 246 210l5 -1l-19 -216h-545zM333 691c-37 0 -68 31 -68 69
c0 37 31 68 68 68c38 0 69 -31 69 -68c0 -38 -31 -69 -69 -69z" />
    <glyph glyph-name="edotaccent" unicode="&#x117;" horiz-adv-x="501" 
d="M263 -11c-150 0 -229 104 -229 217c0 123 93 217 228 217c118 0 202 -73 205 -196h-292c0 -132 50 -215 142 -215c69 0 116 47 143 86l6 -4c-33 -46 -90 -105 -203 -105zM259 417c-58 0 -81 -102 -83 -182h156c-1 47 -4 182 -73 182zM258 491c-38 0 -69 31 -69 69
c0 37 31 68 69 68c37 0 68 -31 68 -68c0 -38 -31 -69 -68 -69z" />
    <glyph glyph-name="Eogonek" unicode="&#x118;" horiz-adv-x="640" 
d="M28 0v6c70 0 85 22 85 98v410c0 76 -15 98 -85 98v6h539l14 -202l-4 -1c-26 115 -91 196 -243 196h-72v-299h27c114 0 164 61 182 145h5v-296h-5c-18 84 -68 144 -182 144h-27v-298h79c161 0 216 106 246 210l5 -1l-19 -216h-54c-41 -21 -88 -51 -88 -120
c0 -54 30 -81 80 -81c21 0 39 5 51 9l2 -5c-33 -13 -85 -25 -128 -25c-71 0 -111 32 -111 82c0 82 109 113 178 140h-475z" />
    <glyph glyph-name="eogonek" unicode="&#x119;" horiz-adv-x="501" 
d="M296 -222c-71 0 -111 32 -111 82c0 75 93 101 165 144c-24 -9 -52 -15 -87 -15c-150 0 -229 104 -229 217c0 123 93 217 228 217c118 0 202 -73 205 -196h-292c0 -132 50 -215 142 -215c69 0 116 47 143 86l6 -4c-26 -36 -44 -53 -80 -74c-37 -23 -95 -61 -95 -139
c0 -55 30 -82 79 -82c21 0 39 5 51 9l2 -5c-33 -13 -84 -25 -127 -25zM259 417c-58 0 -81 -102 -83 -182h156c-1 47 -4 182 -73 182z" />
    <glyph glyph-name="Ecaron" unicode="&#x11a;" horiz-adv-x="640" 
d="M28 0v6c70 0 85 22 85 98v410c0 76 -15 98 -85 98v6h539l14 -202l-4 -1c-26 115 -91 196 -243 196h-72v-299h27c114 0 164 61 182 145h5v-296h-5c-18 84 -68 144 -182 144h-27v-298h79c161 0 216 106 246 210l5 -1l-19 -216h-545zM339 665c-17 0 -29 9 -39 22l-112 151
l2 2l149 -81l150 81l2 -2l-112 -151c-10 -13 -22 -22 -40 -22z" />
    <glyph glyph-name="ecaron" unicode="&#x11b;" horiz-adv-x="501" 
d="M263 -11c-150 0 -229 104 -229 217c0 123 93 217 228 217c118 0 202 -73 205 -196h-292c0 -132 50 -215 142 -215c69 0 116 47 143 86l6 -4c-33 -46 -90 -105 -203 -105zM259 417c-58 0 -81 -102 -83 -182h156c-1 47 -4 182 -73 182zM259 465c-17 0 -29 9 -40 22
l-112 151l2 2l150 -81l150 81l2 -2l-113 -151c-10 -13 -22 -22 -39 -22z" />
    <glyph glyph-name="Gcircumflex" unicode="&#x11c;" horiz-adv-x="780" 
d="M416 -12c-255 0 -376 140 -376 313c0 207 173 329 369 329c81 0 172 -21 245 -2l18 -203l-5 -1c-53 143 -152 199 -246 199c-156 0 -220 -154 -220 -324c0 -155 54 -305 213 -305c49 0 93 14 135 35v157c0 76 -18 104 -92 104v6h318v-6c-68 0 -83 -20 -83 -97v-162
c-68 -20 -172 -43 -276 -43zM261 664l-2 2l112 151c10 13 22 22 39 22c18 0 30 -9 40 -22l112 -151l-2 -2l-150 81z" />
    <glyph glyph-name="gcircumflex" unicode="&#x11d;" horiz-adv-x="534" 
d="M226 -174c-119 0 -211 27 -211 83c0 48 68 63 99 69c-36 11 -60 29 -60 66c0 51 44 78 89 95c-67 23 -107 72 -107 134c0 87 79 150 202 150c39 0 74 -7 103 -18c78 20 112 31 136 31c30 0 49 -17 49 -42s-18 -46 -44 -46c-37 0 -69 45 -131 53c57 -26 90 -72 90 -128
c0 -85 -78 -149 -203 -149c-33 0 -63 5 -89 13c-13 -6 -25 -17 -25 -30c0 -68 348 38 348 -143c0 -85 -76 -138 -246 -138zM238 417c-49 0 -67 -60 -67 -144c0 -83 18 -143 67 -143s67 60 67 143c0 84 -18 144 -67 144zM235 -169c133 0 158 51 158 80c0 75 -175 39 -272 65
c-23 -12 -37 -28 -37 -56c0 -51 36 -89 151 -89zM89 471l-2 2l112 151c10 14 22 23 39 23c18 0 30 -9 40 -23l112 -151l-2 -2l-150 82z" />
    <glyph glyph-name="Gbreve" unicode="&#x11e;" horiz-adv-x="780" 
d="M416 -12c-255 0 -376 140 -376 313c0 207 173 329 369 329c81 0 172 -21 245 -2l18 -203l-5 -1c-53 143 -152 199 -246 199c-156 0 -220 -154 -220 -324c0 -155 54 -305 213 -305c49 0 93 14 135 35v157c0 76 -18 104 -92 104v6h318v-6c-68 0 -83 -20 -83 -97v-162
c-68 -20 -172 -43 -276 -43zM424 676c-98 0 -125 108 -125 173h3c9 -39 40 -81 122 -81c84 0 114 42 123 81h2c0 -65 -26 -173 -125 -173z" />
    <glyph glyph-name="gbreve" unicode="&#x11f;" horiz-adv-x="484" 
d="M226 -174c-119 0 -211 27 -211 83c0 48 68 63 99 69c-36 11 -60 29 -60 66c0 51 44 78 89 95c-67 23 -107 72 -107 134c0 87 79 150 202 150c41 0 77 -7 108 -20c42 82 50 112 73 127c19 14 46 10 60 -11c15 -18 13 -42 -4 -58c-20 -19 -66 -36 -123 -61
c56 -26 89 -71 89 -127c0 -85 -78 -149 -203 -149c-33 0 -63 5 -89 13c-13 -6 -25 -17 -25 -30c0 -68 348 38 348 -143c0 -85 -76 -138 -246 -138zM238 417c-49 0 -67 -60 -67 -144c0 -83 18 -143 67 -143s67 60 67 143c0 84 -18 144 -67 144zM235 -169c133 0 158 51 158 80
c0 75 -175 39 -272 65c-23 -12 -37 -28 -37 -56c0 -51 36 -89 151 -89zM238 476c-99 0 -126 108 -126 173h3c9 -39 40 -81 123 -81s113 42 122 81h3c0 -65 -27 -173 -125 -173z" />
    <glyph glyph-name="Gdotaccent" unicode="&#x120;" horiz-adv-x="780" 
d="M416 -12c-255 0 -376 140 -376 313c0 207 173 329 369 329c81 0 172 -21 245 -2l18 -203l-5 -1c-53 143 -152 199 -246 199c-156 0 -220 -154 -220 -324c0 -155 54 -305 213 -305c49 0 93 14 135 35v157c0 76 -18 104 -92 104v6h318v-6c-68 0 -83 -20 -83 -97v-162
c-68 -20 -172 -43 -276 -43zM417 691c-37 0 -68 31 -68 69c0 37 31 68 68 68c38 0 69 -31 69 -68c0 -38 -31 -69 -69 -69z" />
    <glyph glyph-name="gdotaccent" unicode="&#x121;" horiz-adv-x="484" 
d="M226 -174c-119 0 -211 27 -211 83c0 48 68 63 99 69c-36 11 -60 29 -60 66c0 51 44 78 89 95c-67 23 -107 72 -107 134c0 87 79 150 202 150c41 0 77 -7 108 -20c42 82 50 112 73 127c19 14 46 10 60 -11c15 -18 13 -42 -4 -58c-20 -19 -66 -36 -123 -61
c56 -26 89 -71 89 -127c0 -85 -78 -149 -203 -149c-33 0 -63 5 -89 13c-13 -6 -25 -17 -25 -30c0 -68 348 38 348 -143c0 -85 -76 -138 -246 -138zM238 417c-49 0 -67 -60 -67 -144c0 -83 18 -143 67 -143s67 60 67 143c0 84 -18 144 -67 144zM235 -169c133 0 158 51 158 80
c0 75 -175 39 -272 65c-23 -12 -37 -28 -37 -56c0 -51 36 -89 151 -89zM237 491c-38 0 -69 31 -69 69c0 37 31 68 69 68c37 0 68 -31 68 -68c0 -38 -31 -69 -68 -69z" />
    <glyph glyph-name="uni0122" unicode="&#x122;" horiz-adv-x="780" 
d="M416 -12c-255 0 -376 140 -376 313c0 207 173 329 369 329c81 0 172 -21 245 -2l18 -203l-5 -1c-53 143 -152 199 -246 199c-156 0 -220 -154 -220 -324c0 -155 54 -305 213 -305c49 0 93 14 135 35v157c0 76 -18 104 -92 104v6h318v-6c-68 0 -83 -20 -83 -97v-162
c-68 -20 -172 -43 -276 -43zM342 -325l-3 4c54 20 105 71 109 130c-11 -8 -23 -12 -38 -12c-35 0 -63 28 -63 63s29 64 68 64c44 0 70 -35 70 -81c0 -63 -49 -135 -143 -168z" />
    <glyph glyph-name="uni0123" unicode="&#x123;" horiz-adv-x="484" 
d="M226 -174c-119 0 -211 27 -211 83c0 48 68 63 99 69c-36 11 -60 29 -60 66c0 51 44 78 89 95c-67 23 -107 72 -107 134c0 87 79 150 202 150c41 0 77 -7 108 -20c42 82 50 112 73 127c19 14 46 10 60 -11c15 -18 13 -42 -4 -58c-20 -19 -66 -36 -123 -61
c56 -26 89 -71 89 -127c0 -85 -78 -149 -203 -149c-33 0 -63 5 -89 13c-13 -6 -25 -17 -25 -30c0 -68 348 38 348 -143c0 -85 -76 -138 -246 -138zM238 417c-49 0 -67 -60 -67 -144c0 -83 18 -143 67 -143s67 60 67 143c0 84 -18 144 -67 144zM235 -169c133 0 158 51 158 80
c0 75 -175 39 -272 65c-23 -12 -37 -28 -37 -56c0 -51 36 -89 151 -89zM315 728l2 -4c-54 -20 -105 -71 -109 -130c11 8 24 12 38 12c35 0 64 -28 64 -62c0 -35 -29 -64 -69 -64c-43 0 -69 34 -69 80c0 63 49 136 143 168z" />
    <glyph glyph-name="Hcircumflex" unicode="&#x124;" horiz-adv-x="811" 
d="M28 0v6c70 0 85 22 85 98v410c0 76 -15 98 -85 98v6h319v-6c-70 0 -85 -22 -85 -98v-197h287v197c0 76 -15 98 -85 98v6h318v-6c-70 0 -85 -22 -85 -98v-410c0 -76 15 -98 85 -98v-6h-318v6c70 0 85 22 85 98v204h-287v-204c0 -76 15 -98 85 -98v-6h-319zM255 664l-2 2
l113 151c10 13 22 22 39 22s29 -9 40 -22l112 -151l-2 -2l-150 81z" />
    <glyph glyph-name="hcircumflex" unicode="&#x125;" horiz-adv-x="573" 
d="M12 0v6c54 0 65 27 65 77v483c0 50 -11 76 -65 76v6l202 20v-325c38 38 94 80 161 80c66 0 122 -39 122 -135v-205c0 -50 11 -77 65 -77v-6h-259v6c45 0 58 27 58 77v219c0 52 -23 75 -60 75c-36 0 -65 -22 -87 -44v-250c0 -50 11 -77 65 -77v-6h-267zM125 700l-2 2
l112 151c11 14 23 22 40 22s29 -8 39 -22l113 -151l-2 -2l-150 82z" />
    <glyph glyph-name="Hbar" unicode="&#x126;" horiz-adv-x="811" 
d="M41 450v9h72v55c0 76 -15 98 -85 98v6h319v-6c-70 0 -85 -22 -85 -98v-55h287v55c0 76 -15 98 -85 98v6h318v-6c-70 0 -85 -22 -85 -98v-55h73v-9h-73v-346c0 -76 15 -98 85 -98v-6h-318v6c70 0 85 22 85 98v204h-287v-204c0 -76 15 -98 85 -98v-6h-319v6
c70 0 85 22 85 98v346h-72zM262 317h287v133h-287v-133z" />
    <glyph glyph-name="hbar" unicode="&#x127;" horiz-adv-x="573" 
d="M9 501v9h68v56c0 50 -11 76 -65 76v6l202 20v-158h138v-9h-138v-158c38 38 94 80 161 80c66 0 122 -39 122 -135v-205c0 -50 11 -77 65 -77v-6h-259v6c45 0 58 27 58 77v219c0 52 -23 75 -60 75c-36 0 -65 -22 -87 -44v-250c0 -50 11 -77 65 -77v-6h-267v6
c54 0 65 27 65 77v418h-68z" />
    <glyph glyph-name="Itilde" unicode="&#x128;" horiz-adv-x="375" 
d="M28 0v6c70 0 85 22 85 98v410c0 76 -15 98 -85 98v6h319v-6c-70 0 -85 -22 -85 -98v-410c0 -76 15 -98 85 -98v-6h-319zM41 685c5 51 12 148 85 148c52 0 103 -50 157 -50c45 0 52 34 55 59h5c-6 -64 -18 -149 -86 -149c-51 0 -101 50 -156 50c-45 0 -52 -34 -55 -59z
" />
    <glyph glyph-name="itilde" unicode="&#x129;" horiz-adv-x="299" 
d="M20 0v6c54 0 65 27 65 77v237c0 50 -11 77 -65 77v6l201 20v-340c0 -50 11 -77 65 -77v-6h-266zM-4 485c5 51 13 148 85 148c52 0 103 -50 157 -50c45 0 52 34 55 59h5c-6 -64 -18 -149 -85 -149c-52 0 -102 50 -157 50c-45 0 -52 -34 -55 -59z" />
    <glyph glyph-name="Imacron" unicode="&#x12a;" horiz-adv-x="375" 
d="M28 0v6c70 0 85 22 85 98v410c0 76 -15 98 -85 98v6h319v-6c-70 0 -85 -22 -85 -98v-410c0 -76 15 -98 85 -98v-6h-319zM43 700v37h289v-37h-289z" />
    <glyph glyph-name="imacron" unicode="&#x12b;" horiz-adv-x="299" 
d="M20 0v6c54 0 65 27 65 77v237c0 50 -11 77 -65 77v6l201 20v-340c0 -50 11 -77 65 -77v-6h-266zM3 500v37h289v-37h-289z" />
    <glyph glyph-name="Ibreve" unicode="&#x12c;" horiz-adv-x="375" 
d="M28 0v6c70 0 85 22 85 98v410c0 76 -15 98 -85 98v6h319v-6c-70 0 -85 -22 -85 -98v-410c0 -76 15 -98 85 -98v-6h-319zM187 676c-98 0 -125 108 -125 173h3c9 -39 40 -81 122 -81c84 0 114 42 123 81h2c0 -65 -26 -173 -125 -173z" />
    <glyph glyph-name="ibreve" unicode="&#x12d;" horiz-adv-x="299" 
d="M20 0v6c54 0 65 27 65 77v237c0 50 -11 77 -65 77v6l201 20v-340c0 -50 11 -77 65 -77v-6h-266zM150 476c-99 0 -126 108 -126 173h3c9 -39 40 -81 123 -81s113 42 122 81h3c0 -65 -27 -173 -125 -173z" />
    <glyph glyph-name="Iogonek" unicode="&#x12e;" horiz-adv-x="375" 
d="M28 0v6c70 0 85 22 85 98v410c0 76 -15 98 -85 98v6h319v-6c-70 0 -85 -22 -85 -98v-410c0 -76 15 -98 85 -98v-6h-91c-41 -21 -88 -51 -88 -120c0 -54 30 -81 79 -81c21 0 39 5 51 9l2 -5c-33 -13 -84 -25 -127 -25c-72 0 -111 32 -111 82c0 82 108 113 178 140h-212z
" />
    <glyph glyph-name="iogonek" unicode="&#x12f;" horiz-adv-x="299" 
d="M20 0v6c54 0 65 27 65 77v237c0 50 -11 77 -65 77v6l201 20v-340c0 -50 11 -77 65 -77v-6h-65c-41 -21 -88 -51 -88 -120c0 -54 30 -81 80 -81c21 0 39 5 51 9l2 -5c-33 -13 -85 -25 -128 -25c-71 0 -111 32 -111 82c0 82 109 113 178 140h-185zM150 483
c-45 0 -81 32 -81 78c0 45 36 77 81 77s81 -32 81 -77c0 -46 -36 -78 -81 -78z" />
    <glyph glyph-name="Idotaccent" unicode="&#x130;" horiz-adv-x="375" 
d="M28 0v6c70 0 85 22 85 98v410c0 76 -15 98 -85 98v6h319v-6c-70 0 -85 -22 -85 -98v-410c0 -76 15 -98 85 -98v-6h-319zM186 691c-37 0 -68 31 -68 69c0 37 31 68 68 68c38 0 69 -31 69 -68c0 -38 -31 -69 -69 -69z" />
    <glyph glyph-name="Jcircumflex" unicode="&#x134;" horiz-adv-x="363" 
d="M9 -167l-2 3c91 48 100 110 100 180v498c0 76 -15 98 -85 98v6h319v-6c-70 0 -85 -22 -85 -98v-472c0 -110 -124 -177 -247 -209zM31 664l-2 2l112 151c11 13 23 22 40 22s29 -9 39 -22l113 -151l-2 -2l-150 81z" />
    <glyph glyph-name="jcircumflex" unicode="&#x135;" horiz-adv-x="286" 
d="M-1 -176l-3 4c85 46 87 101 87 167v324c0 52 -19 77 -73 77v7l209 20v-403c0 -110 -124 -167 -220 -196zM-4 464l-2 2l112 151c10 13 22 22 40 22c17 0 29 -9 39 -22l112 -151l-2 -2l-149 81z" />
    <glyph glyph-name="uni0136" unicode="&#x136;" horiz-adv-x="725" 
d="M28 0v6c70 0 85 22 85 98v410c0 76 -15 98 -85 98v6h319v-6c-70 0 -85 -22 -85 -98v-257l168 167c59 59 93 109 93 143c0 27 -22 45 -77 45v6h283v-6c-56 0 -104 -24 -149 -59c-42 -32 -86 -75 -140 -130l-22 -22l210 -308c43 -63 77 -87 115 -87v-6h-234l-195 297
l-52 -52v-141c0 -76 15 -98 85 -98v-6h-319zM321 -325l-2 4c54 20 105 71 109 130c-11 -8 -24 -12 -38 -12c-35 0 -64 28 -64 63s29 64 69 64c43 0 69 -35 69 -81c0 -63 -49 -135 -143 -168z" />
    <glyph glyph-name="uni0137" unicode="&#x137;" horiz-adv-x="552" 
d="M12 0v6c54 0 65 27 65 77v483c0 50 -11 76 -65 76v6l202 20v-489l87 86c42 41 66 75 66 101c0 25 -20 40 -67 40v6h238v-6c-50 0 -89 -17 -131 -50c-20 -15 -41 -33 -66 -58l-7 -7l147 -222c24 -37 52 -63 91 -63v-6h-201l-130 195l-27 -26v-86c0 -50 11 -77 65 -77v-6
h-267zM225 -325l-2 4c54 20 105 71 109 130c-11 -8 -24 -12 -38 -12c-35 0 -64 28 -64 63s30 64 69 64c43 0 70 -35 70 -81c0 -63 -50 -135 -144 -168z" />
    <glyph glyph-name="kgreenlandic" unicode="&#x138;" horiz-adv-x="559" 
d="M19 0v6c54 0 65 27 65 77v237c0 50 -11 77 -65 77v6l202 20v-244l87 86c42 41 66 75 66 101c0 25 -21 40 -68 40v6h239v-6c-51 0 -89 -17 -132 -50c-19 -15 -40 -33 -65 -58l-7 -7l147 -222c24 -37 52 -63 91 -63v-6h-201l-130 195l-27 -26v-86c0 -50 11 -77 65 -77v-6
h-267z" />
    <glyph glyph-name="Lacute" unicode="&#x139;" horiz-adv-x="603" 
d="M28 0v6c70 0 85 22 85 98v410c0 76 -15 98 -85 98v6h334v-6c-70 0 -100 -20 -100 -106v-499h62c150 0 223 98 249 213l4 -1l-15 -219h-534zM165 674l-2 2c54 77 91 138 117 160c26 23 58 23 76 1c18 -21 12 -52 -14 -74c-27 -21 -91 -47 -177 -89z" />
    <glyph glyph-name="lacute" unicode="&#x13a;" horiz-adv-x="292" 
d="M13 0v6c54 0 65 27 65 77v483c0 50 -11 76 -65 76v6l201 20v-585c0 -50 11 -77 65 -77v-6h-266zM53 700l-2 2c53 76 91 138 117 160c26 23 57 23 76 1c18 -22 12 -52 -15 -74c-26 -22 -91 -48 -176 -89z" />
    <glyph glyph-name="uni013B" unicode="&#x13b;" horiz-adv-x="603" 
d="M28 0v6c70 0 85 22 85 98v410c0 76 -15 98 -85 98v6h334v-6c-70 0 -100 -20 -100 -106v-499h62c150 0 223 98 249 213l4 -1l-15 -219h-534zM259 -325l-3 4c54 20 105 71 109 130c-11 -8 -23 -12 -38 -12c-35 0 -63 28 -63 63s29 64 68 64c44 0 70 -35 70 -81
c0 -63 -49 -135 -143 -168z" />
    <glyph glyph-name="uni013C" unicode="&#x13c;" horiz-adv-x="292" 
d="M13 0v6c54 0 65 27 65 77v483c0 50 -11 76 -65 76v6l201 20v-585c0 -50 11 -77 65 -77v-6h-266zM75 -325l-3 4c54 20 106 71 109 130c-10 -8 -23 -12 -38 -12c-35 0 -63 28 -63 63s29 64 69 64c43 0 69 -35 69 -81c0 -63 -49 -135 -143 -168z" />
    <glyph glyph-name="Lcaron" unicode="&#x13d;" horiz-adv-x="605" 
d="M441 407l-3 1c5 72 5 153 15 181c10 26 37 46 64 36c26 -9 37 -38 26 -68c-11 -29 -54 -83 -102 -150zM28 0v6c70 0 85 22 85 98v410c0 76 -15 98 -85 98v6h334v-6c-70 0 -100 -20 -100 -106v-499h62c150 0 223 98 249 213l4 -1l-15 -219h-534z" />
    <glyph glyph-name="lcaron" unicode="&#x13e;" horiz-adv-x="307" 
d="M286 441l-3 1c5 72 5 153 15 181c10 26 37 46 64 36c26 -9 37 -38 26 -68c-11 -29 -54 -83 -102 -150zM13 0v6c54 0 65 27 65 77v483c0 50 -11 76 -65 76v6l201 20v-585c0 -50 11 -77 65 -77v-6h-266z" />
    <glyph glyph-name="Ldot" unicode="&#x13f;" horiz-adv-x="603" 
d="M28 0v6c70 0 85 22 85 98v410c0 76 -15 98 -85 98v6h334v-6c-70 0 -100 -20 -100 -106v-499h62c150 0 223 98 249 213l4 -1l-15 -219h-534zM471 286c-37 0 -68 31 -68 69c0 37 31 68 68 68c38 0 69 -31 69 -68c0 -38 -31 -69 -69 -69z" />
    <glyph glyph-name="ldot" unicode="&#x140;" horiz-adv-x="398" 
d="M13 0v6c54 0 65 27 65 77v483c0 50 -11 76 -65 76v6l201 20v-585c0 -50 11 -77 65 -77v-6h-266zM345 233c-38 0 -68 31 -68 69s30 69 68 69s69 -31 69 -69s-31 -69 -69 -69z" />
    <glyph glyph-name="Nacute" unicode="&#x143;" horiz-adv-x="723" 
d="M10 0v6c115 0 127 59 127 271v181c0 102 -26 154 -120 154v6h218l355 -391v114c0 212 -12 271 -127 271v6h265v-6c-115 0 -128 -59 -128 -271v-348l-5 -1l-448 493v-208c0 -212 13 -271 128 -271v-6h-265zM319 674l-2 2c54 77 91 138 117 160c26 23 58 23 76 1
c18 -21 12 -52 -14 -74c-27 -21 -91 -47 -177 -89z" />
    <glyph glyph-name="nacute" unicode="&#x144;" horiz-adv-x="580" 
d="M19 0v6c54 0 65 27 65 77v237c0 50 -11 77 -65 77v6l198 20v-84c38 40 95 84 165 84c65 0 122 -39 122 -135v-205c0 -50 11 -77 65 -77v-6h-259v6c45 0 58 27 58 77v219c0 52 -23 75 -60 75c-36 0 -65 -22 -87 -44v-250c0 -50 12 -77 57 -77v-6h-259zM210 474l-2 2
c54 77 92 138 118 160c26 23 57 23 75 1c18 -21 12 -52 -14 -74c-27 -21 -91 -47 -177 -89z" />
    <glyph glyph-name="uni0145" unicode="&#x145;" horiz-adv-x="723" 
d="M10 0v6c115 0 127 59 127 271v181c0 102 -26 154 -120 154v6h218l355 -391v114c0 212 -12 271 -127 271v6h265v-6c-115 0 -128 -59 -128 -271v-348l-5 -1l-448 493v-208c0 -212 13 -271 128 -271v-6h-265zM303 -325l-2 4c54 20 105 71 109 130c-11 -8 -24 -12 -38 -12
c-35 0 -64 28 -64 63s30 64 69 64c43 0 70 -35 70 -81c0 -63 -50 -135 -144 -168z" />
    <glyph glyph-name="uni0146" unicode="&#x146;" horiz-adv-x="580" 
d="M19 0v6c54 0 65 27 65 77v237c0 50 -11 77 -65 77v6l198 20v-84c38 40 95 84 165 84c65 0 122 -39 122 -135v-205c0 -50 11 -77 65 -77v-6h-259v6c45 0 58 27 58 77v219c0 52 -23 75 -60 75c-36 0 -65 -22 -87 -44v-250c0 -50 12 -77 57 -77v-6h-259zM224 -325l-2 4
c54 20 105 71 109 130c-11 -8 -24 -12 -38 -12c-35 0 -64 28 -64 63s30 64 69 64c43 0 70 -35 70 -81c0 -63 -50 -135 -144 -168z" />
    <glyph glyph-name="Ncaron" unicode="&#x147;" horiz-adv-x="723" 
d="M10 0v6c115 0 127 59 127 271v181c0 102 -26 154 -120 154v6h218l355 -391v114c0 212 -12 271 -127 271v6h265v-6c-115 0 -128 -59 -128 -271v-348l-5 -1l-448 493v-208c0 -212 13 -271 128 -271v-6h-265zM385 665c-18 0 -30 9 -40 22l-112 151l2 2l150 -81l149 81l2 -2
l-112 -151c-10 -13 -22 -22 -39 -22z" />
    <glyph glyph-name="ncaron" unicode="&#x148;" horiz-adv-x="580" 
d="M19 0v6c54 0 65 27 65 77v237c0 50 -11 77 -65 77v6l198 20v-84c38 40 95 84 165 84c65 0 122 -39 122 -135v-205c0 -50 11 -77 65 -77v-6h-259v6c45 0 58 27 58 77v219c0 52 -23 75 -60 75c-36 0 -65 -22 -87 -44v-250c0 -50 12 -77 57 -77v-6h-259zM293 465
c-18 0 -30 9 -40 22l-112 151l2 2l150 -81l149 81l2 -2l-112 -151c-10 -13 -22 -22 -39 -22z" />
    <glyph glyph-name="Eng" unicode="&#x14a;" horiz-adv-x="723" 
d="M10 0v6c115 0 127 59 127 271v181c0 102 -26 154 -120 154v6h218l355 -391v114c0 212 -12 271 -127 271v6h265v-6c-115 0 -128 -59 -128 -271v-284c0 -119 -110 -193 -246 -224l-3 5c124 41 158 106 158 197v50l-362 400v-208c0 -212 13 -271 128 -271v-6h-265z" />
    <glyph glyph-name="eng" unicode="&#x14b;" horiz-adv-x="562" 
d="M19 0v6c54 0 65 27 65 77v237c0 50 -11 77 -65 77v6l198 20v-84c38 40 95 84 165 84c66 0 122 -39 122 -135v-268c0 -110 -124 -167 -220 -196l-3 4c85 46 87 101 87 167v307c0 52 -23 75 -60 75c-36 0 -65 -22 -87 -44v-250c0 -50 12 -77 57 -77v-6h-259z" />
    <glyph glyph-name="Omacron" unicode="&#x14c;" horiz-adv-x="769" 
d="M385 -12c-199 0 -345 134 -345 321s146 321 345 321c198 0 345 -134 345 -321s-147 -321 -345 -321zM385 -4c145 0 184 155 184 313s-39 313 -184 313c-146 0 -185 -157 -185 -313c0 -157 40 -313 185 -313zM240 700v37h289v-37h-289z" />
    <glyph glyph-name="omacron" unicode="&#x14d;" horiz-adv-x="548" 
d="M274 -11c-131 0 -240 82 -240 217c0 134 109 217 240 217c132 0 240 -83 240 -217c0 -135 -108 -217 -240 -217zM274 -4c70 0 95 79 95 210s-25 209 -95 209c-69 0 -95 -78 -95 -209s26 -210 95 -210zM130 500v37h289v-37h-289z" />
    <glyph glyph-name="Obreve" unicode="&#x14e;" horiz-adv-x="769" 
d="M385 -12c-199 0 -345 134 -345 321s146 321 345 321c198 0 345 -134 345 -321s-147 -321 -345 -321zM385 -4c145 0 184 155 184 313s-39 313 -184 313c-146 0 -185 -157 -185 -313c0 -157 40 -313 185 -313zM384 676c-98 0 -125 108 -125 173h3c9 -39 40 -81 122 -81
c84 0 114 42 123 81h3c0 -65 -27 -173 -126 -173z" />
    <glyph glyph-name="obreve" unicode="&#x14f;" horiz-adv-x="548" 
d="M274 -11c-131 0 -240 82 -240 217c0 134 109 217 240 217c132 0 240 -83 240 -217c0 -135 -108 -217 -240 -217zM274 -4c70 0 95 79 95 210s-25 209 -95 209c-69 0 -95 -78 -95 -209s26 -210 95 -210zM274 476c-98 0 -125 108 -125 173h3c9 -39 40 -81 122 -81
c84 0 114 42 123 81h2c0 -65 -26 -173 -125 -173z" />
    <glyph glyph-name="Ohungarumlaut" unicode="&#x150;" horiz-adv-x="769" 
d="M385 -12c-199 0 -345 134 -345 321s146 321 345 321c198 0 345 -134 345 -321s-147 -321 -345 -321zM385 -4c145 0 184 155 184 313s-39 313 -184 313c-146 0 -185 -157 -185 -313c0 -157 40 -313 185 -313zM263 672l-2 2c32 78 56 143 74 166c19 25 45 29 65 15
c19 -14 26 -40 5 -67c-19 -25 -73 -63 -142 -116zM432 672l-2 2c31 78 55 143 74 166c18 25 45 29 64 15c20 -14 26 -40 6 -67c-20 -25 -74 -63 -142 -116z" />
    <glyph glyph-name="ohungarumlaut" unicode="&#x151;" horiz-adv-x="548" 
d="M274 -11c-131 0 -240 82 -240 217c0 134 109 217 240 217c132 0 240 -83 240 -217c0 -135 -108 -217 -240 -217zM274 -4c70 0 95 79 95 210s-25 209 -95 209c-69 0 -95 -78 -95 -209s26 -210 95 -210zM149 472l-2 2c32 78 55 143 74 166c18 25 45 29 65 15
c19 -14 26 -40 5 -67c-19 -25 -74 -63 -142 -116zM317 472l-2 2c32 78 56 143 75 166c18 25 44 29 64 15s26 -40 5 -67c-19 -25 -73 -63 -142 -116z" />
    <glyph glyph-name="Racute" unicode="&#x154;" horiz-adv-x="716" 
d="M28 0v6c70 0 85 22 85 98v410c0 76 -15 98 -85 98v6h331c191 0 276 -64 276 -163c0 -130 -144 -152 -258 -157v-4c229 -2 201 -60 246 -201c20 -63 38 -87 98 -87v-6h-219c-15 25 -25 60 -38 110c-34 143 -34 183 -141 183h-61v-189c0 -76 15 -98 85 -98v-6h-319z
M262 300h75c106 0 145 76 145 155c0 81 -40 156 -151 156h-69v-311zM284 674l-2 2c53 77 91 138 117 160c26 23 57 23 76 1c18 -21 12 -52 -15 -74c-26 -21 -91 -47 -176 -89z" />
    <glyph glyph-name="racute" unicode="&#x155;" horiz-adv-x="437" 
d="M19 0v6c54 0 65 29 65 79v232c0 50 -11 79 -65 79v6l198 20v-136c21 70 68 137 134 137c52 0 78 -39 78 -76c0 -42 -33 -75 -73 -75c-41 0 -76 34 -73 81c-27 -12 -50 -39 -62 -71v-197c0 -55 18 -79 72 -79v-6h-274zM162 474l-2 2c53 77 91 138 117 160
c26 23 57 23 76 1c18 -21 12 -52 -15 -74c-26 -21 -91 -47 -176 -89z" />
    <glyph glyph-name="uni0156" unicode="&#x156;" horiz-adv-x="716" 
d="M28 0v6c70 0 85 22 85 98v410c0 76 -15 98 -85 98v6h331c191 0 276 -64 276 -163c0 -130 -144 -152 -258 -157v-4c229 -2 201 -60 246 -201c20 -63 38 -87 98 -87v-6h-219c-15 25 -25 60 -38 110c-34 143 -34 183 -141 183h-61v-189c0 -76 15 -98 85 -98v-6h-319z
M262 300h75c106 0 145 76 145 155c0 81 -40 156 -151 156h-69v-311zM308 -325l-2 4c54 20 105 71 109 130c-11 -8 -24 -12 -38 -12c-35 0 -64 28 -64 63s29 64 69 64c43 0 69 -35 69 -81c0 -63 -49 -135 -143 -168z" />
    <glyph glyph-name="uni0157" unicode="&#x157;" horiz-adv-x="437" 
d="M19 0v6c54 0 65 29 65 79v232c0 50 -11 79 -65 79v6l198 20v-136c21 70 68 137 134 137c52 0 78 -39 78 -76c0 -42 -33 -75 -73 -75c-41 0 -76 34 -73 81c-27 -12 -50 -39 -62 -71v-197c0 -55 18 -79 72 -79v-6h-274zM80 -325l-2 4c54 20 105 71 109 130
c-11 -8 -24 -12 -38 -12c-35 0 -64 28 -64 63s29 64 69 64c43 0 69 -35 69 -81c0 -63 -49 -135 -143 -168z" />
    <glyph glyph-name="Rcaron" unicode="&#x158;" horiz-adv-x="716" 
d="M28 0v6c70 0 85 22 85 98v410c0 76 -15 98 -85 98v6h331c191 0 276 -64 276 -163c0 -130 -144 -152 -258 -157v-4c229 -2 201 -60 246 -201c20 -63 38 -87 98 -87v-6h-219c-15 25 -25 60 -38 110c-34 143 -34 183 -141 183h-61v-189c0 -76 15 -98 85 -98v-6h-319z
M262 300h75c106 0 145 76 145 155c0 81 -40 156 -151 156h-69v-311zM354 665c-17 0 -29 9 -39 22l-112 151l2 2l149 -81l150 81l2 -2l-112 -151c-10 -13 -22 -22 -40 -22z" />
    <glyph glyph-name="rcaron" unicode="&#x159;" horiz-adv-x="437" 
d="M19 0v6c54 0 65 29 65 79v232c0 50 -11 79 -65 79v6l198 20v-136c21 70 68 137 134 137c52 0 78 -39 78 -76c0 -42 -33 -75 -73 -75c-41 0 -76 34 -73 81c-27 -12 -50 -39 -62 -71v-197c0 -55 18 -79 72 -79v-6h-274zM231 465c-18 0 -30 9 -40 22l-112 151l2 2l150 -81
l149 81l2 -2l-112 -151c-10 -13 -22 -22 -39 -22z" />
    <glyph glyph-name="Sacute" unicode="&#x15a;" horiz-adv-x="580" 
d="M281 -12c-72 0 -159 14 -218 26l-10 189l6 1c43 -112 94 -209 221 -209c93 0 137 51 137 112c0 175 -357 116 -357 347c0 109 79 176 231 176c82 0 133 -20 202 -4l11 -199l-5 -1c-40 99 -86 198 -203 198c-83 0 -121 -49 -121 -104c0 -165 359 -113 359 -346
c0 -118 -94 -186 -253 -186zM234 674l-2 2c54 77 92 138 118 160c26 23 57 23 75 1c18 -21 12 -52 -14 -74c-27 -21 -91 -47 -177 -89z" />
    <glyph glyph-name="sacute" unicode="&#x15b;" horiz-adv-x="435" 
d="M209 -11c-54 0 -120 11 -160 19l-5 130l5 1c33 -71 65 -144 156 -144c69 0 87 41 87 69c0 112 -245 68 -245 230c0 82 62 129 172 129c59 0 99 -14 150 -2l6 -140l-5 -1c-29 65 -68 137 -145 137c-55 0 -76 -36 -76 -66c0 -106 248 -65 248 -227
c0 -87 -73 -135 -188 -135zM140 474l-2 2c54 77 91 138 117 160c26 23 58 23 76 1c18 -21 12 -52 -14 -74c-27 -21 -91 -47 -177 -89z" />
    <glyph glyph-name="Scircumflex" unicode="&#x15c;" horiz-adv-x="580" 
d="M281 -12c-72 0 -159 14 -218 26l-10 189l6 1c43 -112 94 -209 221 -209c93 0 137 51 137 112c0 175 -357 116 -357 347c0 109 79 176 231 176c82 0 133 -20 202 -4l11 -199l-5 -1c-40 99 -86 198 -203 198c-83 0 -121 -49 -121 -104c0 -165 359 -113 359 -346
c0 -118 -94 -186 -253 -186zM147 664l-2 2l113 151c10 13 22 22 39 22s29 -9 40 -22l112 -151l-2 -2l-150 81z" />
    <glyph glyph-name="scircumflex" unicode="&#x15d;" horiz-adv-x="435" 
d="M209 -11c-54 0 -120 11 -160 19l-5 130l5 1c33 -71 65 -144 156 -144c69 0 87 41 87 69c0 112 -245 68 -245 230c0 82 62 129 172 129c59 0 99 -14 150 -2l6 -140l-5 -1c-29 65 -68 137 -145 137c-55 0 -76 -36 -76 -66c0 -106 248 -65 248 -227
c0 -87 -73 -135 -188 -135zM69 464l-2 2l112 151c10 13 22 22 39 22c18 0 30 -9 40 -22l112 -151l-2 -2l-150 81z" />
    <glyph glyph-name="Scedilla" unicode="&#x15e;" horiz-adv-x="580" 
d="M270 -226c-50 0 -92 13 -122 32l4 5c18 -12 50 -22 78 -22c53 0 81 34 81 76c0 38 -22 67 -65 67c-14 0 -27 -3 -37 -8l-3 3l61 61c-69 1 -149 14 -204 26l-10 189l6 1c43 -112 94 -209 221 -209c93 0 137 51 137 112c0 175 -357 116 -357 347c0 109 79 176 231 176
c82 0 133 -20 202 -4l11 -199l-5 -1c-40 99 -86 198 -203 198c-83 0 -121 -49 -121 -104c0 -165 359 -113 359 -346c0 -117 -91 -185 -256 -186l-51 -51c15 4 36 7 60 7c75 0 125 -29 125 -82c0 -66 -75 -88 -142 -88z" />
    <glyph glyph-name="scedilla" unicode="&#x15f;" horiz-adv-x="435" 
d="M190 -226c-50 0 -92 13 -122 32l4 5c18 -12 50 -22 78 -22c53 0 81 34 81 76c0 38 -22 67 -65 67c-14 0 -27 -3 -37 -8l-3 3l62 63c-50 1 -104 11 -139 18l-5 130l5 1c33 -71 65 -144 156 -144c69 0 87 41 87 69c0 112 -245 68 -245 230c0 82 62 129 172 129
c59 0 99 -14 150 -2l6 -140l-5 -1c-29 65 -68 137 -145 137c-55 0 -76 -36 -76 -66c0 -106 248 -65 248 -227c0 -87 -72 -137 -198 -135l-52 -52c15 4 36 7 60 7c75 0 125 -29 125 -82c0 -66 -75 -88 -142 -88z" />
    <glyph glyph-name="uni0162" unicode="&#x162;" horiz-adv-x="668" 
d="M159 0v6c70 0 100 19 100 106v499h-8c-138 0 -185 -103 -219 -215l-4 1l16 221h579l17 -221l-5 -1c-33 112 -80 215 -219 215h-8v-499c0 -87 30 -106 100 -106v-6h-188l-52 -53c15 4 36 7 60 7c75 0 125 -29 125 -82c0 -66 -75 -88 -142 -88c-51 0 -93 13 -122 32l4 5
c18 -12 50 -22 78 -22c53 0 81 34 81 76c0 38 -23 67 -65 67c-14 0 -27 -3 -38 -8l-2 3l62 63h-150z" />
    <glyph glyph-name="uni0163" unicode="&#x163;" horiz-adv-x="353" 
d="M185 -226c-51 0 -93 13 -122 32l3 5c19 -12 51 -22 79 -22c52 0 81 34 81 76c0 38 -23 67 -65 67c-15 0 -28 -3 -38 -8l-3 3l63 64c-62 7 -104 49 -104 129v279h-65v13h65v107l137 26v-133h123v-13h-123v-300c0 -50 17 -73 52 -73c40 0 70 30 92 57l5 -4
c-41 -50 -98 -96 -171 -89l-52 -53c15 4 35 7 60 7c75 0 124 -29 124 -82c0 -66 -75 -88 -141 -88z" />
    <glyph glyph-name="Tcaron" unicode="&#x164;" horiz-adv-x="668" 
d="M159 0v6c70 0 100 19 100 106v499h-8c-138 0 -185 -103 -219 -215l-4 1l16 221h579l17 -221l-5 -1c-33 112 -80 215 -219 215h-8v-499c0 -87 30 -106 100 -106v-6h-349zM334 665c-18 0 -30 9 -40 22l-112 151l2 2l150 -81l149 81l2 -2l-112 -151c-10 -13 -22 -22 -39 -22
z" />
    <glyph glyph-name="tcaron" unicode="&#x165;" horiz-adv-x="352" 
d="M285 469l-3 1c5 71 6 153 16 181c9 26 36 46 64 36c25 -10 36 -39 25 -68s-54 -83 -102 -150zM204 -11c-74 0 -125 43 -125 131v279h-65v13h65v107l137 26v-133h123v-13h-123v-300c0 -50 17 -73 52 -73c40 0 70 30 92 57l5 -4c-34 -41 -82 -90 -161 -90z" />
    <glyph glyph-name="Tbar" unicode="&#x166;" horiz-adv-x="668" 
d="M130 298v9h130v304h-9c-138 0 -185 -103 -218 -215l-5 1l17 221h578l17 -221l-5 -1c-33 112 -80 215 -218 215h-9v-304h131v-9h-131v-186c0 -87 30 -106 100 -106v-6h-348v6c70 0 100 19 100 106v186h-130z" />
    <glyph glyph-name="tbar" unicode="&#x167;" horiz-adv-x="353" 
d="M19 243v9h61v147h-66v13h66v107l136 26v-133h123v-13h-123v-147h113v-9h-113v-144c0 -50 17 -73 52 -73c40 0 70 30 92 57l5 -4c-33 -41 -82 -90 -161 -90c-73 0 -124 43 -124 131v123h-61z" />
    <glyph glyph-name="Utilde" unicode="&#x168;" horiz-adv-x="704" 
d="M358 -12c-140 0 -257 63 -257 223v291c0 76 -15 110 -85 110v6h319v-6c-70 0 -85 -34 -85 -110v-324c0 -104 41 -174 149 -174c102 0 180 63 180 200v143c0 208 -15 265 -128 265v6h265v-6c-115 0 -127 -59 -127 -265v-143c0 -143 -81 -216 -231 -216zM229 685
c5 51 12 148 85 148c52 0 103 -50 157 -50c45 0 52 34 55 59h5c-6 -64 -18 -149 -86 -149c-51 0 -101 50 -156 50c-45 0 -52 -34 -55 -59z" />
    <glyph glyph-name="utilde" unicode="&#x169;" horiz-adv-x="572" 
d="M197 -11c-65 0 -122 38 -122 134v194c0 50 -11 79 -65 79v6l201 20v-312c0 -52 23 -76 60 -76c35 0 64 22 87 45v238c0 50 -12 79 -57 79v6l194 20v-337c0 -50 11 -79 65 -79v-6h-198v73c-39 -41 -96 -84 -165 -84zM127 485c5 51 13 148 85 148c52 0 103 -50 157 -50
c45 0 52 34 55 59h5c-5 -64 -18 -149 -85 -149c-51 0 -102 50 -156 50c-45 0 -52 -34 -56 -59z" />
    <glyph glyph-name="Umacron" unicode="&#x16a;" horiz-adv-x="704" 
d="M358 -12c-140 0 -257 63 -257 223v291c0 76 -15 110 -85 110v6h319v-6c-70 0 -85 -34 -85 -110v-324c0 -104 41 -174 149 -174c102 0 180 63 180 200v143c0 208 -15 265 -128 265v6h265v-6c-115 0 -127 -59 -127 -265v-143c0 -143 -81 -216 -231 -216zM232 700v37h289
v-37h-289z" />
    <glyph glyph-name="umacron" unicode="&#x16b;" horiz-adv-x="572" 
d="M197 -11c-65 0 -122 38 -122 134v194c0 50 -11 79 -65 79v6l201 20v-312c0 -52 23 -76 60 -76c35 0 64 22 87 45v238c0 50 -12 79 -57 79v6l194 20v-337c0 -50 11 -79 65 -79v-6h-198v73c-39 -41 -96 -84 -165 -84zM127 500v37h289v-37h-289z" />
    <glyph glyph-name="Ubreve" unicode="&#x16c;" horiz-adv-x="704" 
d="M358 -12c-140 0 -257 63 -257 223v291c0 76 -15 110 -85 110v6h319v-6c-70 0 -85 -34 -85 -110v-324c0 -104 41 -174 149 -174c102 0 180 63 180 200v143c0 208 -15 265 -128 265v6h265v-6c-115 0 -127 -59 -127 -265v-143c0 -143 -81 -216 -231 -216zM377 676
c-99 0 -125 108 -125 173h2c9 -39 40 -81 123 -81s113 42 122 81h3c0 -65 -27 -173 -125 -173z" />
    <glyph glyph-name="ubreve" unicode="&#x16d;" horiz-adv-x="572" 
d="M197 -11c-65 0 -122 38 -122 134v194c0 50 -11 79 -65 79v6l201 20v-312c0 -52 23 -76 60 -76c35 0 64 22 87 45v238c0 50 -12 79 -57 79v6l194 20v-337c0 -50 11 -79 65 -79v-6h-198v73c-39 -41 -96 -84 -165 -84zM273 476c-98 0 -125 108 -125 173h3
c9 -39 40 -81 122 -81c84 0 114 42 123 81h2c0 -65 -26 -173 -125 -173z" />
    <glyph glyph-name="Uring" unicode="&#x16e;" horiz-adv-x="704" 
d="M358 -12c-140 0 -257 63 -257 223v291c0 76 -15 110 -85 110v6h319v-6c-70 0 -85 -34 -85 -110v-324c0 -104 41 -174 149 -174c102 0 180 63 180 200v143c0 208 -15 265 -128 265v6h265v-6c-115 0 -127 -59 -127 -265v-143c0 -143 -81 -216 -231 -216zM376 664
c-73 0 -123 41 -123 101c0 61 50 103 123 103s124 -42 124 -103c0 -60 -51 -101 -124 -101zM376 667c33 0 37 57 37 98c0 42 -4 99 -37 99s-37 -57 -37 -99c0 -41 4 -98 37 -98z" />
    <glyph glyph-name="uring" unicode="&#x16f;" horiz-adv-x="572" 
d="M197 -11c-65 0 -122 38 -122 134v194c0 50 -11 79 -65 79v6l201 20v-312c0 -52 23 -76 60 -76c35 0 64 22 87 45v238c0 50 -12 79 -57 79v6l194 20v-337c0 -50 11 -79 65 -79v-6h-198v73c-39 -41 -96 -84 -165 -84zM276 464c-73 0 -124 41 -124 101c0 61 51 103 124 103
s123 -42 123 -103c0 -60 -50 -101 -123 -101zM276 467c32 0 36 57 36 98c0 42 -4 99 -36 99c-33 0 -38 -57 -38 -99c0 -41 5 -98 38 -98z" />
    <glyph glyph-name="Uhungarumlaut" unicode="&#x170;" horiz-adv-x="704" 
d="M358 -12c-140 0 -257 63 -257 223v291c0 76 -15 110 -85 110v6h319v-6c-70 0 -85 -34 -85 -110v-324c0 -104 41 -174 149 -174c102 0 180 63 180 200v143c0 208 -15 265 -128 265v6h265v-6c-115 0 -127 -59 -127 -265v-143c0 -143 -81 -216 -231 -216zM246 672l-2 2
c32 78 56 143 74 166c19 25 45 29 65 15c19 -14 26 -40 5 -67c-19 -25 -73 -63 -142 -116zM415 672l-2 2c31 78 55 143 74 166c18 25 45 29 64 15c20 -14 26 -40 6 -67c-20 -25 -74 -63 -142 -116z" />
    <glyph glyph-name="uhungarumlaut" unicode="&#x171;" horiz-adv-x="572" 
d="M197 -11c-65 0 -122 38 -122 134v194c0 50 -11 79 -65 79v6l201 20v-312c0 -52 23 -76 60 -76c35 0 64 22 87 45v238c0 50 -12 79 -57 79v6l194 20v-337c0 -50 11 -79 65 -79v-6h-198v73c-39 -41 -96 -84 -165 -84zM142 472l-2 2c32 78 56 143 75 166c18 25 44 29 64 15
s26 -40 5 -67c-19 -25 -73 -63 -142 -116zM311 472l-2 2c32 78 55 143 74 166c18 25 45 29 65 15c19 -14 26 -40 5 -67c-19 -25 -74 -63 -142 -116z" />
    <glyph glyph-name="Uogonek" unicode="&#x172;" horiz-adv-x="704" 
d="M377 -222c-72 0 -111 32 -111 82c0 75 89 107 158 133c-20 -3 -43 -5 -65 -5c-141 0 -258 63 -258 223v291c0 76 -15 110 -85 110v6h319v-6c-70 0 -85 -34 -85 -110v-324c0 -104 41 -174 149 -174c102 0 180 63 180 200v143c0 209 -15 265 -128 265v6h265v-6
c-115 0 -127 -59 -127 -265v-143c0 -111 -48 -167 -119 -200c-39 -17 -98 -44 -98 -123c0 -55 30 -82 80 -82c21 0 39 5 51 9l2 -5c-34 -13 -85 -25 -128 -25z" />
    <glyph glyph-name="uogonek" unicode="&#x173;" horiz-adv-x="572" 
d="M422 -222c-72 0 -111 32 -111 82c0 82 109 113 178 140h-127v73c-39 -41 -96 -84 -165 -84c-65 0 -122 38 -122 134v194c0 50 -11 79 -65 79v6l201 20v-312c0 -52 23 -76 60 -76c35 0 64 22 87 45v238c0 50 -12 79 -57 79v6l194 20v-337c0 -50 11 -79 65 -79v-6h-55
c-41 -21 -88 -51 -88 -120c0 -54 30 -81 80 -81c21 0 39 5 51 9l2 -5c-34 -13 -85 -25 -128 -25z" />
    <glyph glyph-name="Wcircumflex" unicode="&#x174;" horiz-adv-x="988" 
d="M316 -5l-206 487c-22 51 -55 130 -130 130v6h328v-6c-71 0 -72 -52 -49 -112l128 -320l106 269l-12 33c-29 73 -67 130 -128 130v6h341v-6c-77 0 -82 -63 -59 -127l111 -299l72 193c23 62 34 111 34 146c0 54 -27 87 -87 87v6h260v-6c-61 0 -100 -33 -130 -83
c-24 -39 -44 -93 -68 -155l-147 -379h-6l-175 439l-176 -439h-7zM368 664l-2 2l113 151c10 13 22 22 39 22s29 -9 40 -22l112 -151l-2 -2l-150 81z" />
    <glyph glyph-name="wcircumflex" unicode="&#x175;" horiz-adv-x="755" 
d="M250 -5l-161 320c-24 48 -53 91 -98 91v6h274v-6c-55 0 -58 -33 -34 -86l82 -178l66 153l-10 23c-22 48 -41 88 -80 88v6h267v-6c-59 0 -66 -33 -45 -86l67 -170l32 81c22 53 37 97 37 127c0 28 -14 48 -57 48v6h184v-6c-43 0 -76 -21 -99 -56c-21 -31 -37 -74 -57 -124
l-98 -231h-5l-130 288l-130 -288h-5zM257 464l-2 2l113 151c10 13 22 22 39 22s29 -9 40 -22l112 -151l-2 -2l-150 81z" />
    <glyph glyph-name="Ycircumflex" unicode="&#x176;" horiz-adv-x="677" 
d="M172 0v6c73 0 100 27 100 113v129l-159 257c-39 64 -79 107 -129 107v6h345v-6c-66 0 -80 -45 -42 -107l126 -209h1l61 105c40 68 60 114 60 147c0 38 -23 64 -87 64v6h261v-6c-58 0 -96 -26 -130 -68c-25 -31 -52 -74 -96 -149l-62 -103v-173c0 -86 28 -113 100 -113v-6
h-349zM213 664l-2 2l112 151c10 13 22 22 40 22c17 0 29 -9 39 -22l112 -151l-2 -2l-149 81z" />
    <glyph glyph-name="ycircumflex" unicode="&#x177;" horiz-adv-x="500" 
d="M83 -174c-40 0 -54 19 -54 42c0 81 168 17 210 107l10 22l-159 318c-24 48 -52 91 -98 91v6h287v-6c-59 0 -68 -33 -43 -86l80 -176l34 79c25 58 40 100 40 129c0 32 -16 54 -61 54v6h191v-6c-45 0 -77 -24 -103 -64c-18 -28 -35 -70 -59 -124l-108 -239
c-25 -54 -77 -153 -167 -153zM121 464l-2 2l113 151c10 13 22 22 39 22s29 -9 40 -22l112 -151l-2 -2l-150 81z" />
    <glyph glyph-name="Zacute" unicode="&#x179;" horiz-adv-x="626" 
d="M29 0l-1 2l383 608h-138c-119 0 -191 -106 -220 -209l-6 1l18 216h519l2 -2l-386 -608h161c121 0 191 112 220 211h6l-19 -219h-539zM268 674l-2 2c53 77 91 138 117 160c26 23 57 23 76 1c18 -21 12 -52 -15 -74c-26 -21 -91 -47 -176 -89z" />
    <glyph glyph-name="zacute" unicode="&#x17a;" horiz-adv-x="471" 
d="M34 0l-2 3l250 402h-65c-87 0 -145 -88 -172 -166l-5 1l17 172h373l2 -3l-249 -402h73c93 0 146 96 175 164h5l-18 -171h-384zM178 474l-2 2c54 77 92 138 118 160c26 23 57 23 75 1c18 -21 12 -52 -14 -74c-27 -21 -91 -47 -177 -89z" />
    <glyph glyph-name="Zdotaccent" unicode="&#x17b;" horiz-adv-x="626" 
d="M29 0l-1 2l383 608h-138c-119 0 -191 -106 -220 -209l-6 1l18 216h519l2 -2l-386 -608h161c121 0 191 112 220 211h6l-19 -219h-539zM331 691c-38 0 -69 31 -69 69c0 37 31 68 69 68c37 0 68 -31 68 -68c0 -38 -31 -69 -68 -69z" />
    <glyph glyph-name="zdotaccent" unicode="&#x17c;" horiz-adv-x="471" 
d="M34 0l-2 3l250 402h-65c-87 0 -145 -88 -172 -166l-5 1l17 172h373l2 -3l-249 -402h73c93 0 146 96 175 164h5l-18 -171h-384zM249 491c-38 0 -69 31 -69 69c0 37 31 68 69 68c37 0 68 -31 68 -68c0 -38 -31 -69 -68 -69z" />
    <glyph glyph-name="Wgrave" unicode="&#x1e80;" horiz-adv-x="988" 
d="M316 -5l-206 487c-22 51 -55 130 -130 130v6h328v-6c-71 0 -72 -52 -49 -112l128 -320l106 269l-12 33c-29 73 -67 130 -128 130v6h341v-6c-77 0 -82 -63 -59 -127l111 -299l72 193c23 62 34 111 34 146c0 54 -27 87 -87 87v6h260v-6c-61 0 -100 -33 -130 -83
c-24 -39 -44 -93 -68 -155l-147 -379h-6l-175 439l-176 -439h-7zM589 674c-86 41 -150 68 -176 89c-27 22 -33 53 -15 74c19 22 50 22 76 -1c26 -22 63 -84 117 -160z" />
    <glyph glyph-name="wgrave" unicode="&#x1e81;" horiz-adv-x="755" 
d="M250 -5l-161 320c-24 48 -53 91 -98 91v6h274v-6c-55 0 -58 -33 -34 -86l82 -178l66 153l-10 23c-22 48 -41 88 -80 88v6h267v-6c-59 0 -66 -33 -45 -86l67 -170l32 81c22 53 37 97 37 127c0 28 -14 48 -57 48v6h184v-6c-43 0 -76 -21 -99 -56c-21 -31 -37 -74 -57 -124
l-98 -231h-5l-130 288l-130 -288h-5zM469 474c-85 41 -149 68 -176 89c-26 22 -32 53 -14 74c18 22 50 22 76 -1c26 -22 63 -84 116 -160z" />
    <glyph glyph-name="Wacute" unicode="&#x1e82;" horiz-adv-x="988" 
d="M316 -5l-206 487c-22 51 -55 130 -130 130v6h328v-6c-71 0 -72 -52 -49 -112l128 -320l106 269l-12 33c-29 73 -67 130 -128 130v6h341v-6c-77 0 -82 -63 -59 -127l111 -299l72 193c23 62 34 111 34 146c0 54 -27 87 -87 87v6h260v-6c-61 0 -100 -33 -130 -83
c-24 -39 -44 -93 -68 -155l-147 -379h-6l-175 439l-176 -439h-7zM451 674l-2 2c54 77 92 138 118 160c26 23 57 23 75 1c18 -21 12 -52 -14 -74c-27 -21 -91 -47 -177 -89z" />
    <glyph glyph-name="wacute" unicode="&#x1e83;" horiz-adv-x="755" 
d="M250 -5l-161 320c-24 48 -53 91 -98 91v6h274v-6c-55 0 -58 -33 -34 -86l82 -178l66 153l-10 23c-22 48 -41 88 -80 88v6h267v-6c-59 0 -66 -33 -45 -86l67 -170l32 81c22 53 37 97 37 127c0 28 -14 48 -57 48v6h184v-6c-43 0 -76 -21 -99 -56c-21 -31 -37 -74 -57 -124
l-98 -231h-5l-130 288l-130 -288h-5zM344 474l-2 2c54 77 92 138 118 160c26 23 57 23 75 1c18 -21 12 -52 -14 -74c-27 -21 -91 -47 -177 -89z" />
    <glyph glyph-name="Wdieresis" unicode="&#x1e84;" horiz-adv-x="988" 
d="M316 -5l-206 487c-22 51 -55 130 -130 130v6h328v-6c-71 0 -72 -52 -49 -112l128 -320l106 269l-12 33c-29 73 -67 130 -128 130v6h341v-6c-77 0 -82 -63 -59 -127l111 -299l72 193c23 62 34 111 34 146c0 54 -27 87 -87 87v6h260v-6c-61 0 -100 -33 -130 -83
c-24 -39 -44 -93 -68 -155l-147 -379h-6l-175 439l-176 -439h-7zM420 691c-35 0 -66 30 -66 67c0 35 28 65 65 65s66 -29 66 -66c0 -36 -29 -66 -65 -66zM605 691c-35 0 -66 30 -66 67c0 35 28 65 65 65s66 -29 66 -66c0 -36 -29 -66 -65 -66z" />
    <glyph glyph-name="wdieresis" unicode="&#x1e85;" horiz-adv-x="755" 
d="M250 -5l-161 320c-24 48 -53 91 -98 91v6h274v-6c-55 0 -58 -33 -34 -86l82 -178l66 153l-10 23c-22 48 -41 88 -80 88v6h267v-6c-59 0 -66 -33 -45 -86l67 -170l32 81c22 53 37 97 37 127c0 28 -14 48 -57 48v6h184v-6c-43 0 -76 -21 -99 -56c-21 -31 -37 -74 -57 -124
l-98 -231h-5l-130 288l-130 -288h-5zM299 491c-35 0 -66 30 -66 67c0 35 28 65 65 65s66 -29 66 -66c0 -36 -29 -66 -65 -66zM484 491c-35 0 -66 30 -66 67c0 35 28 65 65 65s66 -29 66 -66c0 -36 -29 -66 -65 -66z" />
    <glyph glyph-name="Ygrave" unicode="&#x1ef2;" horiz-adv-x="677" 
d="M172 0v6c73 0 100 27 100 113v129l-159 257c-39 64 -79 107 -129 107v6h345v-6c-66 0 -80 -45 -42 -107l126 -209h1l61 105c40 68 60 114 60 147c0 38 -23 64 -87 64v6h261v-6c-58 0 -96 -26 -130 -68c-25 -31 -52 -74 -96 -149l-62 -103v-173c0 -86 28 -113 100 -113v-6
h-349zM426 674c-86 41 -149 68 -176 89c-26 22 -32 53 -14 74c18 22 49 22 75 -1c26 -22 63 -84 117 -160z" />
    <glyph glyph-name="ygrave" unicode="&#x1ef3;" horiz-adv-x="500" 
d="M83 -174c-40 0 -54 19 -54 42c0 81 168 17 210 107l10 22l-159 318c-24 48 -52 91 -98 91v6h287v-6c-59 0 -68 -33 -43 -86l80 -176l34 79c25 58 40 100 40 129c0 32 -16 54 -61 54v6h191v-6c-45 0 -77 -24 -103 -64c-18 -28 -35 -70 -59 -124l-108 -239
c-25 -54 -77 -153 -167 -153zM342 474c-86 41 -149 68 -176 89c-26 22 -32 53 -14 74c18 22 49 22 75 -1c26 -22 63 -84 117 -160z" />
    <glyph glyph-name="AEacute" unicode="&#x1fc;" horiz-adv-x="1011" 
d="M-44 0v6c94 0 179 99 252 203l265 371c-12 24 -34 32 -74 32v6h539l14 -202l-4 -1c-26 115 -91 196 -243 196h-72v-299h27c114 0 164 61 182 145h5v-296h-5c-18 84 -68 144 -182 144h-27v-298h79c161 0 216 106 246 210l5 -1l-19 -216h-545v6c70 0 85 22 85 98v118h-254
l-13 -19c-85 -120 -82 -197 31 -197v-6h-292zM237 232h247v282c0 24 -1 43 -7 57zM599 674l-2 2c54 77 91 138 117 160c26 23 58 23 76 1c18 -21 12 -52 -14 -74c-27 -21 -91 -47 -177 -89z" />
    <glyph glyph-name="aeacute" unicode="&#x1fd;" horiz-adv-x="774" 
d="M182 -11c-91 0 -147 44 -147 116c0 83 76 116 171 116c38 0 79 -6 110 -15v103c0 60 -15 108 -81 108c-46 0 -72 -22 -89 -46c25 -11 42 -38 42 -65c0 -37 -30 -67 -69 -67c-42 0 -66 36 -66 70c0 63 77 114 189 114c57 0 113 -14 151 -49c37 31 85 49 143 49
c117 0 201 -73 205 -196h-292c-1 -132 49 -215 141 -215c69 0 116 47 144 86l5 -4c-32 -46 -89 -105 -203 -105c-85 0 -146 33 -181 83c-31 -39 -84 -83 -173 -83zM251 18c40 0 75 27 99 61c-22 34 -34 76 -34 119c-18 5 -39 10 -59 10c-54 0 -82 -35 -82 -92
c0 -58 27 -98 76 -98zM533 417c-59 0 -82 -102 -84 -182h157c0 47 -4 182 -73 182zM319 474l-2 2c53 77 91 138 117 160c26 23 57 23 76 1c18 -21 12 -52 -15 -74c-26 -21 -91 -47 -176 -89z" />
    <glyph glyph-name="Oslashacute" unicode="&#x1fe;" horiz-adv-x="770" 
d="M297 684l-2 2c53 77 91 138 117 160c26 23 57 23 76 1c18 -21 12 -52 -15 -74c-26 -21 -91 -47 -176 -89zM385 -12c-81 0 -154 22 -211 61l-61 -71l-8 7l60 70c-78 58 -125 147 -125 254c0 187 146 321 345 321c82 0 155 -23 212 -63l61 72l7 -7l-60 -71
c78 -57 125 -146 125 -252c0 -187 -147 -321 -345 -321zM385 -4c145 0 184 155 184 313c0 64 -7 127 -25 179l-314 -372c26 -71 74 -120 155 -120zM385 622c-146 0 -184 -157 -184 -313c0 -65 7 -128 25 -181l314 371c-26 73 -74 123 -155 123z" />
    <glyph glyph-name="oslashacute" unicode="&#x1ff;" horiz-adv-x="548" 
d="M196 474l-2 2c53 77 91 138 117 160c26 23 57 23 76 1c18 -21 12 -52 -15 -74c-26 -21 -91 -47 -176 -89zM274 -11c-59 0 -113 16 -155 46l-45 -49l-7 6l45 48c-48 38 -78 95 -78 166c0 134 109 217 240 217c58 0 112 -16 153 -46l47 50l6 -6l-46 -49
c49 -38 80 -95 80 -166c0 -135 -108 -217 -240 -217zM274 -4c70 0 95 79 95 210c0 33 -3 64 -8 90l-173 -189c12 -72 38 -111 86 -111zM274 415c-69 0 -95 -78 -95 -209c0 -34 2 -64 8 -89l172 189c-12 70 -37 109 -85 109z" />
    <glyph glyph-name="uni0218" unicode="&#x218;" horiz-adv-x="580" 
d="M281 -12c-72 0 -159 14 -218 26l-10 189l6 1c43 -112 94 -209 221 -209c93 0 137 51 137 112c0 175 -357 116 -357 347c0 109 79 176 231 176c82 0 133 -20 202 -4l11 -199l-5 -1c-40 99 -86 198 -203 198c-83 0 -121 -49 -121 -104c0 -165 359 -113 359 -346
c0 -118 -94 -186 -253 -186zM219 -325l-2 4c54 20 105 71 109 130c-11 -8 -24 -12 -38 -12c-35 0 -64 28 -64 63s29 64 69 64c43 0 69 -35 69 -81c0 -63 -49 -135 -143 -168z" />
    <glyph glyph-name="uni0219" unicode="&#x219;" horiz-adv-x="435" 
d="M209 -11c-54 0 -120 11 -160 19l-5 130l5 1c33 -71 65 -144 156 -144c69 0 87 41 87 69c0 112 -245 68 -245 230c0 82 62 129 172 129c59 0 99 -14 150 -2l6 -140l-5 -1c-29 65 -68 137 -145 137c-55 0 -76 -36 -76 -66c0 -106 248 -65 248 -227
c0 -87 -73 -135 -188 -135zM151 -325l-2 4c54 20 105 71 109 130c-11 -8 -24 -12 -38 -12c-35 0 -64 28 -64 63s30 64 69 64c43 0 70 -35 70 -81c0 -63 -50 -135 -144 -168z" />
    <glyph glyph-name="uni021A" unicode="&#x21a;" horiz-adv-x="668" 
d="M159 0v6c70 0 100 19 100 106v499h-8c-138 0 -185 -103 -219 -215l-4 1l16 221h579l17 -221l-5 -1c-33 112 -80 215 -219 215h-8v-499c0 -87 30 -106 100 -106v-6h-349zM268 -325l-3 4c54 20 106 71 109 130c-10 -8 -23 -12 -38 -12c-35 0 -63 28 -63 63s29 64 69 64
c43 0 69 -35 69 -81c0 -63 -49 -135 -143 -168z" />
    <glyph glyph-name="uni021B" unicode="&#x21b;" horiz-adv-x="353" 
d="M204 -11c-74 0 -125 43 -125 131v279h-65v13h65v107l137 26v-133h123v-13h-123v-300c0 -50 17 -73 52 -73c40 0 70 30 92 57l5 -4c-34 -41 -82 -90 -161 -90zM131 -325l-2 4c54 20 105 71 109 130c-11 -8 -24 -12 -38 -12c-35 0 -64 28 -64 63s30 64 69 64
c43 0 70 -35 70 -81c0 -63 -50 -135 -144 -168z" />
    <glyph glyph-name="A.sc" 
d="M-28 0v5c85 0 124 80 168 173l162 352h7l207 -408c31 -63 67 -117 120 -117v-5h-327v5c68 0 76 50 49 110l-26 58h-185l-4 -9c-41 -85 -20 -159 79 -159v-5h-250zM150 181h177l-88 194z" />
    <glyph glyph-name="B.sc" horiz-adv-x="639" 
d="M32 0v5c58 0 75 20 75 86v343c0 65 -17 85 -75 85v6h305c166 0 240 -47 240 -126c0 -74 -66 -123 -229 -125v-3c178 -3 248 -53 248 -132c0 -80 -70 -139 -239 -139h-325zM250 6h71c89 0 123 68 123 136c0 67 -33 126 -129 126h-65v-262zM250 275h47c90 0 128 50 128 124
c0 55 -22 119 -107 119h-68v-243z" />
    <glyph glyph-name="C.sc" horiz-adv-x="637" 
d="M376 -10c-218 0 -334 110 -334 268c0 171 138 277 328 277c76 0 139 -17 205 -1l16 -179h-4c-52 119 -119 174 -207 174c-134 0 -184 -130 -184 -266c0 -137 49 -268 180 -268c105 0 177 82 223 187l4 -1l-31 -166c-46 -13 -122 -25 -196 -25z" />
    <glyph glyph-name="D.sc" horiz-adv-x="711" 
d="M32 0v5c58 0 75 20 75 86v343c0 65 -17 85 -75 85v6h308c206 0 329 -101 329 -262c0 -162 -123 -263 -329 -263h-308zM250 6h71c148 0 194 125 194 257c0 130 -46 255 -193 255h-72v-512z" />
    <glyph glyph-name="E.sc" horiz-adv-x="593" 
d="M32 0v5c58 0 75 20 75 86v343c0 65 -17 85 -75 85v6h491l13 -171l-5 -1c-23 100 -90 165 -220 165h-61v-253h27c100 0 144 51 161 123h4v-250h-4c-17 71 -61 121 -161 121h-27v-253h67c138 0 196 86 223 177l4 -1l-17 -182h-495z" />
    <glyph glyph-name="F.sc" horiz-adv-x="561" 
d="M32 0v5c58 0 75 20 75 86v343c0 65 -17 85 -75 85v6h487l13 -177h-4c-23 99 -92 170 -216 170h-62v-260h24c99 0 143 54 160 125h4v-256h-4c-17 71 -61 125 -160 125h-24v-155c0 -74 32 -92 90 -92v-5h-308z" />
    <glyph glyph-name="G.sc" horiz-adv-x="720" 
d="M381 -10c-222 0 -340 111 -340 265c0 178 157 280 337 280c74 0 157 -17 223 -1l16 -172l-5 -1c-48 118 -134 168 -221 168c-140 0 -196 -129 -196 -275c0 -130 44 -259 186 -259c43 0 81 12 116 29v131c0 66 -20 90 -80 90v6h292v-6c-58 0 -74 -18 -74 -84v-137
c-65 -16 -165 -34 -254 -34z" />
    <glyph glyph-name="H.sc" horiz-adv-x="752" 
d="M32 0v5c58 0 75 20 75 86v343c0 65 -17 85 -75 85v6h293v-6c-58 0 -75 -20 -75 -85v-165h252v165c0 65 -18 85 -75 85v6h293v-6c-59 0 -75 -20 -75 -85v-343c0 -66 16 -86 75 -86v-5h-293v5c57 0 75 20 75 86v170h-252v-170c0 -66 17 -86 75 -86v-5h-293z" />
    <glyph glyph-name="I.sc" horiz-adv-x="357" 
d="M32 0v5c58 0 75 20 75 86v343c0 65 -17 85 -75 85v6h293v-6c-58 0 -75 -20 -75 -85v-343c0 -66 17 -86 75 -86v-5h-293z" />
    <glyph glyph-name="J.sc" horiz-adv-x="347" 
d="M15 -142l-2 3c85 42 89 94 89 153v420c0 65 -17 85 -74 85v6h293v-6c-58 0 -76 -20 -76 -85v-399c0 -93 -116 -150 -230 -177z" />
    <glyph glyph-name="K.sc" horiz-adv-x="668" 
d="M32 0v5c58 0 75 20 75 86v343c0 65 -17 85 -75 85v6h293v-6c-58 0 -75 -20 -75 -85v-218l145 136c58 54 89 99 89 129c0 22 -19 38 -68 38v6h254v-6c-47 0 -93 -19 -140 -54c-35 -25 -59 -49 -108 -98l-22 -22l182 -266c38 -55 64 -74 101 -74v-5h-220l-167 249
c-13 -12 -29 -27 -46 -43v-115c0 -66 17 -86 75 -86v-5h-293z" />
    <glyph glyph-name="L.sc" horiz-adv-x="562" 
d="M32 0v5c58 0 75 20 75 86v343c0 65 -17 85 -75 85v6h308v-6c-58 0 -90 -17 -90 -90v-423h52c133 0 203 84 227 183l4 -1l-14 -188h-487z" />
    <glyph glyph-name="M.sc" horiz-adv-x="849" 
d="M2 0v5c92 0 119 47 134 249l10 116c8 103 -8 149 -103 149v6h235l176 -344l154 344h195v-6c-64 0 -79 -34 -74 -108l17 -296c4 -80 20 -110 83 -110v-5h-298v5c64 0 80 31 75 103l-21 343l-197 -440h-4l-222 426l-17 -183c-17 -202 4 -248 97 -249v-5h-240z" />
    <glyph glyph-name="N.sc" horiz-adv-x="666" 
d="M15 0v5c101 0 114 50 114 240v136c0 93 -23 138 -106 138v6h200l317 -325v79c0 191 -13 240 -114 240v6h237v-6c-101 0 -113 -49 -113 -240v-284l-5 -1l-407 417v-166c0 -190 13 -240 114 -240v-5h-237z" />
    <glyph glyph-name="O.sc" horiz-adv-x="710" 
d="M355 -10c-180 0 -314 115 -314 273c0 157 134 272 314 272s314 -115 314 -272c0 -158 -134 -273 -314 -273zM355 -3c127 0 159 132 159 266c0 133 -32 265 -159 265s-159 -132 -159 -265c0 -134 32 -266 159 -266z" />
    <glyph glyph-name="P.sc" horiz-adv-x="600" 
d="M32 0v5c58 0 75 20 75 86v343c0 65 -17 85 -75 85v6h303c177 0 242 -69 242 -153c0 -85 -65 -151 -242 -151h-50v6h18c97 0 121 75 121 145s-24 146 -121 146h-53v-427c0 -66 17 -86 75 -86v-5h-293z" />
    <glyph glyph-name="Q.sc" horiz-adv-x="710" 
d="M179 -122l-4 3c55 53 97 102 168 109c-174 4 -302 118 -302 273c0 157 134 272 314 272s314 -115 314 -272c0 -152 -124 -264 -293 -272c97 -8 159 -87 254 -87c45 0 69 20 88 48l4 -3c-38 -56 -84 -119 -154 -119c-85 0 -187 94 -289 94c-47 0 -78 -23 -100 -46zM355 -3
c126 0 159 131 159 266c0 134 -33 265 -159 265c-127 0 -159 -132 -159 -265c0 -134 32 -266 159 -266z" />
    <glyph glyph-name="R.sc" horiz-adv-x="662" 
d="M32 0v5c58 0 75 20 75 86v343c0 65 -17 85 -75 85v6h309c176 0 246 -56 246 -140c0 -102 -116 -127 -232 -133v-3c210 -3 183 -56 220 -170c18 -53 31 -74 86 -74v-5h-206c-15 21 -22 50 -31 87c-28 119 -25 161 -120 161h-54v-157c0 -66 17 -86 75 -86v-5h-293zM250 254
h68c93 0 121 65 121 131c0 67 -28 133 -126 133h-63v-264z" />
    <glyph glyph-name="S.sc" horiz-adv-x="539" 
d="M262 -10c-64 0 -146 11 -200 22l-8 160l4 1c42 -95 93 -177 202 -177c82 0 117 46 117 93c0 140 -318 97 -318 291c0 101 84 155 213 155c71 0 120 -16 183 -3l10 -169h-4c-40 84 -83 166 -185 166c-73 0 -103 -42 -103 -83c0 -133 320 -96 320 -295
c0 -105 -90 -161 -231 -161z" />
    <glyph glyph-name="T.sc" horiz-adv-x="618" 
d="M148 0v5c58 0 90 18 90 92v421h-10c-111 0 -162 -81 -192 -180l-5 1l13 186h530l13 -186l-4 -1c-31 99 -82 180 -192 180h-10v-421c0 -74 31 -92 90 -92v-5h-323z" />
    <glyph glyph-name="U.sc" horiz-adv-x="651" 
d="M333 -10c-131 0 -237 53 -237 189v246c0 65 -17 94 -74 94v6h292v-6c-58 0 -75 -29 -75 -94v-271c0 -90 38 -151 133 -151c88 0 161 54 161 170v118c0 181 -11 228 -115 228v6h237v-6c-102 0 -114 -48 -114 -228v-118c0 -122 -72 -183 -208 -183z" />
    <glyph glyph-name="V.sc" horiz-adv-x="608" 
d="M306 -5l-200 414c-28 59 -55 110 -117 110v6h323v-6c-65 0 -74 -47 -48 -106l112 -255l54 126c38 92 48 133 48 163c0 44 -22 72 -78 72v6h234v-6c-54 0 -89 -23 -120 -71c-19 -31 -36 -75 -76 -168l-125 -285h-7z" />
    <glyph glyph-name="W.sc" horiz-adv-x="911" 
d="M292 -5l-185 414c-23 51 -52 110 -117 110v6h307v-6c-61 0 -62 -43 -41 -94l108 -257l90 214l-9 26c-25 69 -60 111 -111 111v6h315v-6c-65 0 -75 -47 -52 -106l94 -242l44 113c33 85 46 130 46 162c1 45 -24 73 -79 73v6h234v-6c-48 0 -85 -21 -113 -62
c-23 -33 -39 -79 -79 -177l-116 -285h-7l-161 376l-162 -376h-6z" />
    <glyph glyph-name="X.sc" horiz-adv-x="640" 
d="M-22 0v5c51 0 97 22 148 70c25 23 55 57 95 105l44 53l-118 167c-46 65 -85 119 -144 119v6h334v-6c-67 0 -72 -48 -40 -95l73 -105l33 39c43 54 61 87 61 113c0 31 -24 48 -69 48v6h254v-6c-49 0 -88 -17 -142 -64c-25 -23 -54 -53 -96 -102l-37 -42l131 -186
c43 -62 93 -120 149 -120v-5h-331v5c52 0 74 39 34 98l-87 123l-41 -51c-41 -50 -57 -85 -57 -111c0 -36 32 -59 82 -59v-5h-276z" />
    <glyph glyph-name="Y.sc" 
d="M158 0v5c57 0 90 21 90 94v112l-144 215c-38 56 -68 93 -114 93v6h318v-6c-60 0 -67 -42 -37 -89l112 -180h3l51 89c34 60 49 99 49 126c0 37 -27 54 -75 54v6h228v-6c-43 0 -75 -18 -107 -53c-30 -34 -55 -79 -86 -130l-55 -90v-147c0 -73 33 -94 90 -94v-5h-323z" />
    <glyph glyph-name="Z.sc" horiz-adv-x="582" 
d="M31 0l-1 2l340 516h-101c-113 0 -189 -86 -216 -175h-5l16 182h474l2 -1l-342 -518h121c114 0 186 91 216 179h6l-18 -185h-492z" />
    <glyph glyph-name="exclam.sc" horiz-adv-x="260" 
d="M127 167c-17 155 -77 228 -77 290c0 48 34 78 79 78s80 -29 80 -78c0 -62 -59 -135 -76 -290h-6zM131 -8c-41 0 -75 31 -75 69c0 37 34 68 75 68s74 -31 74 -68c0 -38 -33 -69 -74 -69z" />
    <glyph glyph-name="exclamdown.sc" horiz-adv-x="260" 
d="M131 -8c-45 0 -80 29 -80 78c0 62 60 135 77 290h5c17 -155 77 -228 77 -290c0 -48 -34 -78 -79 -78zM129 535c41 0 75 -31 75 -69c0 -37 -34 -68 -75 -68s-74 31 -74 68c0 38 33 69 74 69z" />
    <glyph glyph-name="question.sc" horiz-adv-x="499" 
d="M223 170l-5 83c63 17 110 59 110 140c0 73 -34 135 -113 135c-52 0 -87 -26 -104 -56c32 -6 58 -33 58 -67c0 -38 -31 -68 -71 -68c-42 0 -69 33 -69 71c0 61 76 127 217 127c142 0 223 -66 223 -144c0 -108 -175 -127 -236 -142l-4 -79h-6zM230 -8c-41 0 -75 31 -75 69
c0 37 34 68 75 68c40 0 74 -31 74 -68c0 -38 -34 -69 -74 -69z" />
    <glyph glyph-name="questiondown.sc" horiz-adv-x="499" 
d="M253 -8c-142 0 -223 66 -223 144c0 108 175 127 236 142l4 79h6l5 -83c-63 -17 -110 -59 -110 -140c0 -73 34 -135 113 -135c52 0 87 26 104 56c-32 6 -58 33 -58 67c0 38 31 68 71 68c42 0 69 -33 69 -71c0 -61 -76 -127 -217 -127zM269 535c41 0 75 -31 75 -69
c0 -37 -34 -68 -75 -68c-40 0 -74 31 -74 68c0 38 34 69 74 69z" />
    <glyph glyph-name="bracketleft.sc" horiz-adv-x="335" 
d="M67 -143v731h241v-6h-83c-24 0 -43 -9 -43 -37v-646c0 -28 19 -36 43 -36h83v-6h-241z" />
    <glyph glyph-name="bracketright.sc" horiz-adv-x="335" 
d="M27 -143v6h83c23 0 42 8 42 36v646c0 28 -19 37 -42 37h-83v6h240v-731h-240z" />
    <glyph glyph-name="braceleft.sc" horiz-adv-x="367" 
d="M337 -148c-129 0 -206 15 -206 97c0 42 18 85 18 142c0 94 -50 128 -139 128v7c89 0 139 34 139 128c0 57 -18 100 -18 142c0 82 77 97 206 97v-5c-85 -1 -103 -27 -103 -76c0 -69 37 -141 37 -190c0 -73 -82 -87 -212 -97v-6c130 -10 212 -23 212 -96
c0 -49 -37 -121 -37 -191c0 -48 18 -74 103 -75v-5z" />
    <glyph glyph-name="braceright.sc" horiz-adv-x="367" 
d="M30 -148v5c85 1 103 27 103 75c0 70 -37 142 -37 191c0 73 82 86 212 96v6c-130 10 -212 24 -212 97c0 49 37 121 37 190c0 49 -18 75 -103 76v5c129 0 206 -15 206 -97c0 -42 -18 -85 -18 -142c0 -94 50 -128 139 -128v-7c-89 0 -139 -34 -139 -128
c0 -57 18 -100 18 -142c0 -82 -77 -97 -206 -97z" />
    <glyph glyph-name="parenleft.sc" horiz-adv-x="342" 
d="M322 -155c-88 52 -281 157 -281 378c0 220 193 326 281 377l3 -4c-69 -50 -158 -164 -158 -373c0 -210 89 -325 158 -374z" />
    <glyph glyph-name="parenright.sc" horiz-adv-x="342" 
d="M20 -155l-3 4c69 49 157 164 157 374c0 209 -88 323 -157 373l3 4c87 -51 281 -157 281 -377c0 -221 -194 -326 -281 -378z" />
    <glyph glyph-name="dollar.sc" horiz-adv-x="526" 
d="M258 -89v79c-132 1 -215 56 -215 121c0 34 25 66 68 66c41 0 70 -28 70 -65c0 -33 -23 -60 -53 -67c18 -23 55 -48 130 -48v213c-96 36 -202 65 -202 175c0 93 73 149 202 150v57h9v-57c118 0 198 -53 198 -117c0 -36 -26 -66 -69 -66c-41 0 -71 28 -71 66
c0 31 20 57 50 64c-18 23 -48 47 -108 47v-193c95 -36 215 -67 215 -186c0 -96 -76 -159 -215 -160v-79h-9zM377 95c0 60 -48 87 -110 112v-210c82 5 110 53 110 98zM159 441c0 -54 43 -78 99 -101v188c-71 -4 -99 -45 -99 -87z" />
    <glyph glyph-name="Euro.sc" horiz-adv-x="626" 
d="M358 -10c-145 0 -246 86 -267 216h-59v7h58c-2 15 -3 29 -3 45c0 21 2 41 6 61h-61v8h62c29 127 138 208 279 208c138 0 204 -77 204 -139c0 -39 -28 -73 -70 -73c-41 0 -73 30 -73 69c0 36 27 63 61 69c-14 35 -43 68 -103 68c-102 0 -149 -97 -163 -202h168v-8h-169
c-2 -16 -3 -38 -3 -57c0 -14 1 -29 2 -49h170v-7h-169c11 -94 49 -204 164 -204c82 0 146 56 186 146l6 -3c-42 -93 -102 -155 -226 -155z" />
    <glyph glyph-name="yen.sc" horiz-adv-x="690" 
d="M193 0v5c59 0 89 21 89 96v67h-144v8h144v35l-48 72h-96v8h91l-94 141c-35 53 -68 88 -110 88v5h306v-5c-56 0 -69 -38 -37 -90l111 -177h2l49 85c35 59 51 100 52 129c1 32 -19 53 -76 53v5h231v-5c-54 0 -91 -25 -125 -67c-21 -26 -41 -60 -75 -118l-26 -44h113v-8
h-118l-19 -35v-72h137v-8h-137v-67c0 -75 29 -96 89 -96v-5h-309z" />
    <glyph glyph-name="sterling.sc" horiz-adv-x="579" 
d="M132 -6c-48 0 -76 25 -76 62c0 42 40 69 110 69c12 0 29 -1 47 -4c-14 52 -58 100 -91 152h-87v7h82c-18 30 -31 63 -31 99c0 100 100 156 227 156c144 0 215 -71 215 -133c0 -39 -28 -72 -70 -72c-39 0 -71 31 -71 69c0 34 25 61 58 67c-16 33 -47 61 -104 61
c-85 0 -113 -62 -113 -149c0 -28 4 -63 7 -98h145v-7h-145c5 -37 9 -74 9 -105c0 -16 -1 -33 -3 -50c54 -6 115 -17 157 -17c79 0 119 33 122 114h5c5 -84 5 -225 -111 -225c-83 0 -108 73 -177 109c-12 -57 -41 -105 -105 -105zM130 0c57 0 92 50 85 109c-16 5 -35 8 -57 8
c-57 0 -95 -22 -95 -61c0 -31 22 -56 67 -56z" />
    <glyph glyph-name="ampersand.sc" horiz-adv-x="727" 
d="M267 -10c-134 0 -229 52 -229 133c0 73 78 105 172 133l-22 20c-49 44 -76 85 -76 130c0 84 92 129 210 129c125 0 189 -48 189 -106c0 -79 -117 -97 -174 -115l181 -168c12 28 19 55 22 73c5 34 0 60 -89 60v6h211v-6c-84 0 -91 -19 -112 -75c-19 -46 -18 -44 -26 -62
l91 -83c45 -40 66 -53 105 -53v-6h-231l-44 42c-41 -32 -97 -52 -178 -52zM316 3c51 0 92 18 123 43l-224 207c-23 -20 -43 -58 -43 -111c0 -85 56 -139 144 -139zM324 530c-52 0 -79 -36 -79 -83c0 -38 17 -64 65 -107l25 -23c37 24 68 63 68 121c0 47 -21 92 -79 92z" />
    <glyph glyph-name="Agrave.sc" 
d="M-28 0v5c85 0 124 80 168 173l162 352h7l207 -408c31 -63 67 -117 120 -117v-5h-327v5c68 0 76 50 49 110l-26 58h-185l-4 -9c-41 -85 -20 -159 79 -159v-5h-250zM150 181h177l-88 194zM397 574c-86 41 -150 68 -176 89c-27 22 -33 53 -15 74c19 22 50 22 76 -1
c26 -22 63 -84 117 -160z" />
    <glyph glyph-name="Aacute.sc" 
d="M-28 0v5c85 0 124 80 168 173l162 352h7l207 -408c31 -63 67 -117 120 -117v-5h-327v5c68 0 76 50 49 110l-26 58h-185l-4 -9c-41 -85 -20 -159 79 -159v-5h-250zM150 181h177l-88 194zM222 574l-2 2c53 77 91 138 117 160c26 23 57 23 76 1c18 -21 12 -52 -15 -74
c-26 -21 -91 -47 -176 -89z" />
    <glyph glyph-name="Acircumflex.sc" 
d="M-28 0v5c85 0 124 80 168 173l162 352h7l207 -408c31 -63 67 -117 120 -117v-5h-327v5c68 0 76 50 49 110l-26 58h-185l-4 -9c-41 -85 -20 -159 79 -159v-5h-250zM150 181h177l-88 194zM156 564l-2 2l112 151c11 13 23 22 40 22s29 -9 39 -22l113 -151l-2 -2l-150 81z
" />
    <glyph glyph-name="Adieresis.sc" 
d="M-28 0v5c85 0 124 80 168 173l162 352h7l207 -408c31 -63 67 -117 120 -117v-5h-327v5c68 0 76 50 49 110l-26 58h-185l-4 -9c-41 -85 -20 -159 79 -159v-5h-250zM150 181h177l-88 194zM214 591c-35 0 -66 30 -66 67c0 35 28 65 65 65s66 -29 66 -66
c0 -36 -29 -66 -65 -66zM399 591c-35 0 -66 30 -66 67c0 35 28 65 65 65s66 -29 66 -66c0 -36 -29 -66 -65 -66z" />
    <glyph glyph-name="Atilde.sc" 
d="M-28 0v5c85 0 124 80 168 173l162 352h7l207 -408c31 -63 67 -117 120 -117v-5h-327v5c68 0 76 50 49 110l-26 58h-185l-4 -9c-41 -85 -20 -159 79 -159v-5h-250zM150 181h177l-88 194zM156 585c5 51 12 148 84 148c52 0 104 -50 157 -50c45 0 52 34 56 59h5
c-6 -64 -19 -149 -86 -149c-51 0 -102 50 -156 50c-45 0 -52 -34 -55 -59z" />
    <glyph glyph-name="Aring.sc" 
d="M-28 0v5c85 0 124 80 168 173l162 352h7l207 -408c31 -63 67 -117 120 -117v-5h-327v5c68 0 76 50 49 110l-26 58h-185l-4 -9c-41 -85 -20 -159 79 -159v-5h-250zM150 181h177l-88 194zM306 564c-73 0 -124 41 -124 101c0 61 51 103 124 103s123 -42 123 -103
c0 -60 -50 -101 -123 -101zM306 567c32 0 36 57 36 98c0 42 -4 99 -36 99c-33 0 -38 -57 -38 -99c0 -41 5 -98 38 -98z" />
    <glyph glyph-name="AE.sc" horiz-adv-x="933" 
d="M-29 0v5c86 0 159 87 224 173l240 314c-11 20 -30 27 -63 27v6h491l13 -171l-4 -1c-23 100 -91 165 -220 165h-62v-253h27c100 0 144 51 161 123h4v-250h-4c-17 71 -61 121 -161 121h-27v-253h67c138 0 196 86 224 177l4 -1l-17 -182h-496v5c58 0 75 20 75 86v100h-232
l-13 -19c-59 -76 -75 -167 29 -167v-5h-260zM222 199h225v235c0 22 -3 39 -9 51z" />
    <glyph glyph-name="Ccedilla.sc" horiz-adv-x="637" 
d="M328 -226c-51 0 -93 13 -122 32l4 5c18 -12 50 -22 78 -22c53 0 81 34 81 76c0 38 -23 67 -65 67c-14 0 -27 -3 -38 -8l-3 3l66 65c-188 15 -287 120 -287 266c0 171 138 277 328 277c76 0 139 -17 205 -1l16 -179h-4c-52 119 -119 174 -207 174
c-134 0 -184 -130 -184 -266c0 -137 49 -268 180 -268c105 0 177 82 223 187l4 -1l-31 -166c-70 -19 -153 -29 -233 -24l-54 -54c15 4 36 7 60 7c75 0 124 -29 124 -82c0 -66 -75 -88 -141 -88z" />
    <glyph glyph-name="Egrave.sc" horiz-adv-x="593" 
d="M32 0v5c58 0 75 20 75 86v343c0 65 -17 85 -75 85v6h491l13 -171l-5 -1c-23 100 -90 165 -220 165h-61v-253h27c100 0 144 51 161 123h4v-250h-4c-17 71 -61 121 -161 121h-27v-253h67c138 0 196 86 223 177l4 -1l-17 -182h-495zM395 574c-86 41 -149 68 -176 89
c-26 22 -32 53 -14 74c18 22 49 22 75 -1c26 -22 63 -84 117 -160z" />
    <glyph glyph-name="Eacute.sc" horiz-adv-x="593" 
d="M32 0v5c58 0 75 20 75 86v343c0 65 -17 85 -75 85v6h491l13 -171l-5 -1c-23 100 -90 165 -220 165h-61v-253h27c100 0 144 51 161 123h4v-250h-4c-17 71 -61 121 -161 121h-27v-253h67c138 0 196 86 223 177l4 -1l-17 -182h-495zM219 574l-2 2c53 77 91 138 117 160
c26 23 57 23 76 1c18 -21 12 -52 -15 -74c-26 -21 -91 -47 -176 -89z" />
    <glyph glyph-name="Ecircumflex.sc" horiz-adv-x="593" 
d="M32 0v5c58 0 75 20 75 86v343c0 65 -17 85 -75 85v6h491l13 -171l-5 -1c-23 100 -90 165 -220 165h-61v-253h27c100 0 144 51 161 123h4v-250h-4c-17 71 -61 121 -161 121h-27v-253h67c138 0 196 86 223 177l4 -1l-17 -182h-495zM156 564l-2 2l112 151c11 13 23 22 40 22
s29 -9 39 -22l113 -151l-2 -2l-150 81z" />
    <glyph glyph-name="Edieresis.sc" horiz-adv-x="593" 
d="M32 0v5c58 0 75 20 75 86v343c0 65 -17 85 -75 85v6h491l13 -171l-5 -1c-23 100 -90 165 -220 165h-61v-253h27c100 0 144 51 161 123h4v-250h-4c-17 71 -61 121 -161 121h-27v-253h67c138 0 196 86 223 177l4 -1l-17 -182h-495zM220 591c-36 0 -66 30 -66 67
c0 35 28 65 65 65c36 0 66 -29 66 -66c0 -36 -30 -66 -65 -66zM404 591c-35 0 -65 30 -65 67c0 35 28 65 65 65c36 0 66 -29 66 -66c0 -36 -30 -66 -66 -66z" />
    <glyph glyph-name="Eth.sc" horiz-adv-x="712" 
d="M33 0v5c58 0 75 20 75 86v168h-71v9h71v166c0 65 -17 85 -75 85v6h308c206 0 329 -101 329 -262c0 -162 -123 -263 -329 -263h-308zM251 6h71c147 0 194 125 194 257c0 130 -47 255 -193 255h-72v-250h143v-9h-143v-253z" />
    <glyph glyph-name="Igrave.sc" horiz-adv-x="357" 
d="M32 0v5c58 0 75 20 75 86v343c0 65 -17 85 -75 85v6h293v-6c-58 0 -75 -20 -75 -85v-343c0 -66 17 -86 75 -86v-5h-293zM267 574c-86 41 -149 68 -176 89c-26 22 -32 53 -14 74c18 22 49 22 75 -1c26 -22 63 -84 117 -160z" />
    <glyph glyph-name="Iacute.sc" horiz-adv-x="357" 
d="M32 0v5c58 0 75 20 75 86v343c0 65 -17 85 -75 85v6h293v-6c-58 0 -75 -20 -75 -85v-343c0 -66 17 -86 75 -86v-5h-293zM84 574l-2 2c54 77 92 138 118 160c26 23 57 23 75 1c18 -21 12 -52 -14 -74c-27 -21 -91 -47 -177 -89z" />
    <glyph glyph-name="Icircumflex.sc" horiz-adv-x="357" 
d="M32 0v5c58 0 75 20 75 86v343c0 65 -17 85 -75 85v6h293v-6c-58 0 -75 -20 -75 -85v-343c0 -66 17 -86 75 -86v-5h-293zM29 564l-2 2l112 151c10 13 22 22 39 22c18 0 30 -9 40 -22l112 -151l-2 -2l-150 81z" />
    <glyph glyph-name="Idieresis.sc" horiz-adv-x="357" 
d="M32 0v5c58 0 75 20 75 86v343c0 65 -17 85 -75 85v6h293v-6c-58 0 -75 -20 -75 -85v-343c0 -66 17 -86 75 -86v-5h-293zM87 591c-36 0 -66 30 -66 67c0 35 28 65 65 65c36 0 66 -29 66 -66c0 -36 -30 -66 -65 -66zM272 591c-36 0 -66 30 -66 67c0 35 28 65 65 65
c36 0 66 -29 66 -66c0 -36 -30 -66 -65 -66z" />
    <glyph glyph-name="Lslash.sc" horiz-adv-x="563" 
d="M30 212l-2 8l80 27v187c0 65 -17 85 -75 85v6h308v-6c-58 0 -90 -17 -90 -90v-137l124 40l3 -8l-127 -41v-277h52c133 0 203 84 227 183l4 -1l-14 -188h-487v5c58 0 75 20 75 86v147z" />
    <glyph glyph-name="Ntilde.sc" horiz-adv-x="666" 
d="M15 0v5c101 0 114 50 114 240v136c0 93 -23 138 -106 138v6h200l317 -325v79c0 191 -13 240 -114 240v6h237v-6c-101 0 -113 -49 -113 -240v-284l-5 -1l-407 417v-166c0 -190 13 -240 114 -240v-5h-237zM198 585c5 51 13 148 85 148c52 0 103 -50 157 -50
c45 0 52 34 55 59h5c-5 -64 -18 -149 -85 -149c-51 0 -102 50 -156 50c-45 0 -52 -34 -56 -59z" />
    <glyph glyph-name="Ograve.sc" horiz-adv-x="710" 
d="M355 -10c-180 0 -314 115 -314 273c0 157 134 272 314 272s314 -115 314 -272c0 -158 -134 -273 -314 -273zM355 -3c127 0 159 132 159 266c0 133 -32 265 -159 265s-159 -132 -159 -265c0 -134 32 -266 159 -266zM436 574c-86 41 -149 68 -176 89c-26 22 -32 53 -14 74
c18 22 49 22 75 -1c26 -22 63 -84 117 -160z" />
    <glyph glyph-name="Oacute.sc" horiz-adv-x="710" 
d="M355 -10c-180 0 -314 115 -314 273c0 157 134 272 314 272s314 -115 314 -272c0 -158 -134 -273 -314 -273zM355 -3c127 0 159 132 159 266c0 133 -32 265 -159 265s-159 -132 -159 -265c0 -134 32 -266 159 -266zM268 574l-2 2c53 77 91 138 117 160c26 23 57 23 76 1
c18 -21 12 -52 -15 -74c-26 -21 -91 -47 -176 -89z" />
    <glyph glyph-name="Ocircumflex.sc" horiz-adv-x="710" 
d="M355 -10c-180 0 -314 115 -314 273c0 157 134 272 314 272s314 -115 314 -272c0 -158 -134 -273 -314 -273zM355 -3c127 0 159 132 159 266c0 133 -32 265 -159 265s-159 -132 -159 -265c0 -134 32 -266 159 -266zM205 564l-2 2l112 151c10 13 22 22 40 22
c17 0 29 -9 39 -22l112 -151l-2 -2l-149 81z" />
    <glyph glyph-name="Odieresis.sc" horiz-adv-x="710" 
d="M355 -10c-180 0 -314 115 -314 273c0 157 134 272 314 272s314 -115 314 -272c0 -158 -134 -273 -314 -273zM355 -3c127 0 159 132 159 266c0 133 -32 265 -159 265s-159 -132 -159 -265c0 -134 32 -266 159 -266zM263 591c-35 0 -66 30 -66 67c0 35 28 65 65 65
c36 0 66 -29 66 -66c0 -36 -30 -66 -65 -66zM448 591c-36 0 -66 30 -66 67c0 35 28 65 65 65c36 0 66 -29 66 -66c0 -36 -30 -66 -65 -66z" />
    <glyph glyph-name="Otilde.sc" horiz-adv-x="710" 
d="M355 -10c-180 0 -314 115 -314 273c0 157 134 272 314 272s314 -115 314 -272c0 -158 -134 -273 -314 -273zM355 -3c127 0 159 132 159 266c0 133 -32 265 -159 265s-159 -132 -159 -265c0 -134 32 -266 159 -266zM201 585c5 51 13 148 85 148c52 0 103 -50 157 -50
c45 0 52 34 55 59h5c-5 -64 -18 -149 -85 -149c-51 0 -102 50 -156 50c-45 0 -52 -34 -56 -59z" />
    <glyph glyph-name="Oslash.sc" horiz-adv-x="710" 
d="M355 -10c-73 0 -139 18 -191 52l-54 -61l-7 7l53 59c-71 49 -115 125 -115 216c0 157 134 272 314 272c73 0 138 -19 190 -52l55 61l7 -6l-54 -60c71 -49 116 -125 116 -215c0 -158 -134 -273 -314 -273zM355 528c-127 0 -159 -132 -159 -265c0 -53 5 -106 20 -149
l274 307c-22 62 -63 107 -135 107zM355 -3c127 0 159 132 159 266c0 52 -6 104 -21 148l-274 -307c22 -63 63 -107 136 -107z" />
    <glyph glyph-name="OE.sc" horiz-adv-x="970" 
d="M355 -10c-180 0 -314 115 -314 273c0 157 134 272 314 272c38 0 92 -10 131 -10h413l13 -171l-5 -1c-23 100 -90 165 -220 165h-61v-253h27c100 0 144 51 161 123h4v-250h-4c-17 71 -61 121 -161 121h-27v-253h67c138 0 196 86 223 177l4 -1l-17 -182h-417
c-39 0 -93 -10 -131 -10zM355 -3c87 0 128 37 128 102v327c0 65 -41 102 -128 102c-127 0 -159 -132 -159 -265c0 -134 32 -266 159 -266z" />
    <glyph glyph-name="Scaron.sc" horiz-adv-x="539" 
d="M262 -10c-64 0 -146 11 -200 22l-8 160l4 1c42 -95 93 -177 202 -177c82 0 117 46 117 93c0 140 -318 97 -318 291c0 101 84 155 213 155c71 0 120 -16 183 -3l10 -169h-4c-40 84 -83 166 -185 166c-73 0 -103 -42 -103 -83c0 -133 320 -96 320 -295
c0 -105 -90 -161 -231 -161zM275 565c-17 0 -29 9 -39 22l-113 151l2 2l150 -81l150 81l2 -2l-112 -151c-11 -13 -23 -22 -40 -22z" />
    <glyph glyph-name="Uacute.sc" horiz-adv-x="651" 
d="M333 -10c-131 0 -237 53 -237 189v246c0 65 -17 94 -74 94v6h292v-6c-58 0 -75 -29 -75 -94v-271c0 -90 38 -151 133 -151c88 0 161 54 161 170v118c0 181 -11 228 -115 228v6h237v-6c-102 0 -114 -48 -114 -228v-118c0 -122 -72 -183 -208 -183zM269 574l-2 2
c53 77 91 138 117 160c26 23 57 23 76 1c18 -21 12 -52 -15 -74c-26 -21 -91 -47 -176 -89z" />
    <glyph glyph-name="Ugrave.sc" horiz-adv-x="651" 
d="M333 -10c-131 0 -237 53 -237 189v246c0 65 -17 94 -74 94v6h292v-6c-58 0 -75 -29 -75 -94v-271c0 -90 38 -151 133 -151c88 0 161 54 161 170v118c0 181 -11 228 -115 228v6h237v-6c-102 0 -114 -48 -114 -228v-118c0 -122 -72 -183 -208 -183zM423 574
c-85 41 -149 68 -176 89c-26 22 -32 53 -14 74c18 22 50 22 76 -1c26 -22 63 -84 116 -160z" />
    <glyph glyph-name="Ucircumflex.sc" horiz-adv-x="651" 
d="M333 -10c-131 0 -237 53 -237 189v246c0 65 -17 94 -74 94v6h292v-6c-58 0 -75 -29 -75 -94v-271c0 -90 38 -151 133 -151c88 0 161 54 161 170v118c0 181 -11 228 -115 228v6h237v-6c-102 0 -114 -48 -114 -228v-118c0 -122 -72 -183 -208 -183zM194 564l-2 2l113 151
c10 13 22 22 39 22s29 -9 40 -22l112 -151l-2 -2l-150 81z" />
    <glyph glyph-name="Udieresis.sc" horiz-adv-x="651" 
d="M333 -10c-131 0 -237 53 -237 189v246c0 65 -17 94 -74 94v6h292v-6c-58 0 -75 -29 -75 -94v-271c0 -90 38 -151 133 -151c88 0 161 54 161 170v118c0 181 -11 228 -115 228v6h237v-6c-102 0 -114 -48 -114 -228v-118c0 -122 -72 -183 -208 -183zM256 591
c-35 0 -66 30 -66 67c0 35 28 65 65 65s66 -29 66 -66c0 -36 -29 -66 -65 -66zM441 591c-35 0 -66 30 -66 67c0 35 28 65 65 65s66 -29 66 -66c0 -36 -29 -66 -65 -66z" />
    <glyph glyph-name="Yacute.sc" 
d="M158 0v5c57 0 90 21 90 94v112l-144 215c-38 56 -68 93 -114 93v6h318v-6c-60 0 -67 -42 -37 -89l112 -180h3l51 89c34 60 49 99 49 126c0 37 -27 54 -75 54v6h228v-6c-43 0 -75 -18 -107 -53c-30 -34 -55 -79 -86 -130l-55 -90v-147c0 -73 33 -94 90 -94v-5h-323z
M257 574l-2 2c54 77 92 138 118 160c26 23 57 23 75 1c18 -21 12 -52 -14 -74c-27 -21 -91 -47 -177 -89z" />
    <glyph glyph-name="Ydieresis.sc" 
d="M158 0v5c57 0 90 21 90 94v112l-144 215c-38 56 -68 93 -114 93v6h318v-6c-60 0 -67 -42 -37 -89l112 -180h3l51 89c34 60 49 99 49 126c0 37 -27 54 -75 54v6h228v-6c-43 0 -75 -18 -107 -53c-30 -34 -55 -79 -86 -130l-55 -90v-147c0 -73 33 -94 90 -94v-5h-323z
M243 591c-36 0 -66 30 -66 67c0 35 28 65 65 65c36 0 66 -29 66 -66c0 -36 -30 -66 -65 -66zM427 591c-35 0 -65 30 -65 67c0 35 28 65 65 65c36 0 66 -29 66 -66c0 -36 -30 -66 -66 -66z" />
    <glyph glyph-name="Zcaron.sc" horiz-adv-x="582" 
d="M31 0l-1 2l340 516h-101c-113 0 -189 -86 -216 -175h-5l16 182h474l2 -1l-342 -518h121c114 0 186 91 216 179h6l-18 -185h-492zM298 565c-18 0 -30 9 -40 22l-112 151l2 2l150 -81l149 81l2 -2l-112 -151c-10 -13 -22 -22 -39 -22z" />
    <glyph glyph-name="Thorn.sc" horiz-adv-x="604" 
d="M32 0v5c58 0 75 20 75 86v343c0 65 -17 85 -75 85v6h293v-6c-58 0 -75 -20 -75 -85v-14h85c177 0 242 -69 242 -153c0 -85 -65 -151 -242 -151h-50v6h18c97 0 121 75 121 145s-24 146 -121 146h-53v-322c0 -66 17 -86 75 -86v-5h-293z" />
    <glyph glyph-name="zero.sc" horiz-adv-x="577" 
d="M288 -10c-152 0 -243 113 -243 273c0 158 91 272 243 272c153 0 243 -114 243 -272c0 -160 -90 -273 -243 -273zM288 -4c83 0 96 146 96 267c0 120 -13 266 -96 266c-82 0 -95 -146 -95 -266c0 -121 13 -267 95 -267z" />
    <glyph glyph-name="one.sc" horiz-adv-x="384" 
d="M44 0v5c66 0 98 17 98 89v323c0 29 -8 44 -40 44h-63v4c81 8 158 23 236 61l4 -2v-435c0 -72 31 -84 89 -84v-5h-324z" />
    <glyph glyph-name="two.sc" horiz-adv-x="541" 
d="M61 0c-13 59 -4 97 34 138c75 88 236 137 236 279c0 63 -31 109 -101 109c-62 0 -95 -35 -109 -66c34 -5 60 -32 60 -67c0 -39 -30 -68 -70 -68c-44 0 -71 35 -71 72c0 61 76 138 222 138c117 0 216 -49 216 -142c0 -152 -262 -136 -380 -261c-15 -17 -23 -31 -29 -47
c18 39 61 63 132 63c75 0 131 -30 193 -30c52 0 86 21 86 71c0 12 -2 22 -5 33h7c6 -23 11 -53 11 -84c0 -71 -24 -147 -107 -147c-107 0 -149 130 -245 130c-52 0 -77 -37 -77 -83c0 -13 3 -29 6 -38h-9z" />
    <glyph glyph-name="three.sc" horiz-adv-x="544" 
d="M261 -10c-135 0 -219 53 -219 116c0 37 27 71 70 71c40 0 71 -31 71 -68c0 -33 -23 -60 -55 -67c15 -23 43 -44 93 -44c89 0 131 60 131 138c0 86 -50 128 -140 130c-47 0 -56 -10 -68 -10c-8 0 -16 5 -16 13c0 7 7 13 16 13c10 0 23 -9 62 -9c99 0 129 65 129 130
c0 75 -39 123 -109 123c-47 0 -73 -22 -89 -44c34 -7 56 -35 56 -66c0 -37 -30 -66 -72 -66c-41 0 -68 30 -68 68c0 64 80 117 213 117c126 0 217 -48 217 -132c0 -89 -104 -131 -232 -131h-7v-4h7c134 0 249 -38 249 -135c0 -96 -112 -143 -239 -143z" />
    <glyph glyph-name="four.sc" horiz-adv-x="558" 
d="M204 0v5c66 0 99 17 99 89v43h-281l-2 4l80 72c49 42 94 115 94 189c0 65 -34 107 -73 132c109 4 236 -30 236 -108c0 -86 -149 -137 -245 -215l-78 -67h269v82l132 113h4v-195c59 1 63 11 75 11c11 0 17 -8 17 -14c0 -8 -8 -13 -17 -13c-10 0 -19 8 -75 8v-47
c0 -72 32 -84 89 -84v-5h-324z" />
    <glyph glyph-name="five.sc" horiz-adv-x="528" 
d="M244 -10c-128 0 -211 53 -211 117c0 38 29 70 72 70c42 0 70 -31 70 -67c0 -34 -23 -60 -54 -67c15 -26 41 -45 85 -45c89 0 132 79 132 159c0 81 -43 142 -131 142c-46 0 -90 -17 -114 -30c-5 -18 -7 -29 -21 -29c-8 0 -13 4 -13 11c0 11 11 18 27 24l24 249
c98 -4 300 -24 348 33c8 -20 14 -41 14 -61c0 -70 -60 -95 -127 -95c-72 0 -140 30 -232 79l-20 -204c42 21 94 36 160 36c122 0 233 -53 233 -159c0 -105 -108 -163 -242 -163z" />
    <glyph glyph-name="six.sc" horiz-adv-x="569" 
d="M296 -10c-186 0 -251 131 -251 261c0 161 99 284 272 284c114 0 187 -53 187 -116c0 -38 -25 -70 -68 -70c-42 0 -72 30 -72 68c0 30 20 55 48 63c-13 25 -35 49 -79 49c-113 0 -157 -158 -150 -303c16 62 67 108 154 108c107 0 187 -70 187 -167
c0 -101 -86 -177 -228 -177zM290 -5c78 0 99 96 99 170c0 86 -26 153 -90 153c-50 0 -118 -42 -117 -160c0 -87 37 -163 108 -163z" />
    <glyph glyph-name="seven.sc" horiz-adv-x="469" 
d="M142 0c15 137 106 239 210 359c34 37 61 58 81 92l-2 1c-28 -37 -54 -70 -115 -70c-49 0 -118 22 -181 22c-57 0 -84 -21 -88 -92h-7v213h8l5 -141h2c8 78 21 149 95 149c89 0 142 -105 219 -105c56 0 77 55 77 78c0 8 -1 13 -2 18h9c1 -4 1 -11 1 -17
c0 -57 -42 -100 -76 -162c-49 -90 -87 -198 -94 -345h-142z" />
    <glyph glyph-name="eight.sc" horiz-adv-x="589" 
d="M295 -10c-187 0 -249 73 -249 145c0 68 52 131 208 140c-128 9 -193 57 -193 127c0 78 79 133 234 133c154 0 233 -55 233 -133c0 -70 -64 -118 -193 -127c157 -9 209 -72 209 -140c0 -72 -62 -145 -249 -145zM295 -4c61 0 101 49 101 138c0 90 -40 139 -101 139
c-62 0 -102 -49 -102 -139c0 -89 40 -138 102 -138zM295 529c-59 0 -86 -50 -86 -125c0 -77 27 -126 86 -126s85 49 85 126c0 75 -26 125 -85 125z" />
    <glyph glyph-name="nine.sc" horiz-adv-x="570" 
d="M252 -10c-116 0 -188 53 -188 116c0 37 26 69 69 69c42 0 71 -29 71 -66c0 -32 -21 -56 -49 -64c14 -27 37 -48 83 -48c136 0 153 197 148 304c-16 -60 -66 -103 -153 -103c-105 0 -187 63 -187 162c0 100 85 175 226 175c184 0 253 -130 253 -262
c0 -154 -94 -283 -273 -283zM281 529c-79 0 -101 -93 -101 -162c0 -108 47 -150 99 -150c50 0 106 40 106 153c0 87 -34 159 -104 159z" />
    <glyph glyph-name="Amacron.sc" 
d="M-28 0v5c85 0 124 80 168 173l162 352h7l207 -408c31 -63 67 -117 120 -117v-5h-327v5c68 0 76 50 49 110l-26 58h-185l-4 -9c-41 -85 -20 -159 79 -159v-5h-250zM150 181h177l-88 194zM159 600v37h289v-37h-289z" />
    <glyph glyph-name="Abreve.sc" 
d="M-28 0v5c85 0 124 80 168 173l162 352h7l207 -408c31 -63 67 -117 120 -117v-5h-327v5c68 0 76 50 49 110l-26 58h-185l-4 -9c-41 -85 -20 -159 79 -159v-5h-250zM150 181h177l-88 194zM304 576c-98 0 -125 108 -125 173h3c9 -39 40 -81 122 -81c84 0 114 42 123 81h3
c0 -65 -27 -173 -126 -173z" />
    <glyph glyph-name="Aogonek.sc" 
d="M464 -222c-71 0 -111 32 -111 82c0 82 109 113 178 140h-222v5c68 0 76 50 49 110l-26 58h-185l-4 -9c-41 -85 -20 -159 79 -159v-5h-250v5c85 0 124 80 168 173l162 352h7l207 -408c31 -63 67 -117 120 -117v-5h-89c-41 -21 -88 -51 -88 -120c0 -54 30 -81 80 -81
c21 0 39 5 51 9l2 -5c-33 -13 -85 -25 -128 -25zM150 181h177l-88 194z" />
    <glyph glyph-name="Cacute.sc" horiz-adv-x="637" 
d="M376 -10c-218 0 -334 110 -334 268c0 171 138 277 328 277c76 0 139 -17 205 -1l16 -179h-4c-52 119 -119 174 -207 174c-134 0 -184 -130 -184 -266c0 -137 49 -268 180 -268c105 0 177 82 223 187l4 -1l-31 -166c-46 -13 -122 -25 -196 -25zM279 574l-2 2
c54 77 92 138 118 160c26 23 57 23 75 1c18 -21 12 -52 -14 -74c-27 -21 -91 -47 -177 -89z" />
    <glyph glyph-name="Ccircumflex.sc" horiz-adv-x="637" 
d="M376 -10c-218 0 -334 110 -334 268c0 171 138 277 328 277c76 0 139 -17 205 -1l16 -179h-4c-52 119 -119 174 -207 174c-134 0 -184 -130 -184 -266c0 -137 49 -268 180 -268c105 0 177 82 223 187l4 -1l-31 -166c-46 -13 -122 -25 -196 -25zM217 564l-2 2l112 151
c10 13 22 22 39 22c18 0 30 -9 40 -22l112 -151l-2 -2l-150 81z" />
    <glyph glyph-name="Cdotaccent.sc" horiz-adv-x="637" 
d="M376 -10c-218 0 -334 110 -334 268c0 171 138 277 328 277c76 0 139 -17 205 -1l16 -179h-4c-52 119 -119 174 -207 174c-134 0 -184 -130 -184 -266c0 -137 49 -268 180 -268c105 0 177 82 223 187l4 -1l-31 -166c-46 -13 -122 -25 -196 -25zM364 591
c-38 0 -69 31 -69 69c0 37 31 68 69 68c37 0 68 -31 68 -68c0 -38 -31 -69 -68 -69z" />
    <glyph glyph-name="Ccaron.sc" horiz-adv-x="637" 
d="M376 -10c-218 0 -334 110 -334 268c0 171 138 277 328 277c76 0 139 -17 205 -1l16 -179h-4c-52 119 -119 174 -207 174c-134 0 -184 -130 -184 -266c0 -137 49 -268 180 -268c105 0 177 82 223 187l4 -1l-31 -166c-46 -13 -122 -25 -196 -25zM372 565
c-17 0 -29 9 -39 22l-112 151l2 2l149 -81l150 81l2 -2l-112 -151c-10 -13 -22 -22 -40 -22z" />
    <glyph glyph-name="Dcaron.sc" horiz-adv-x="711" 
d="M32 0v5c58 0 75 20 75 86v343c0 65 -17 85 -75 85v6h308c206 0 329 -101 329 -262c0 -162 -123 -263 -329 -263h-308zM250 6h71c148 0 194 125 194 257c0 130 -46 255 -193 255h-72v-512zM362 565c-18 0 -30 9 -40 22l-112 151l2 2l150 -81l149 81l2 -2l-112 -151
c-10 -13 -22 -22 -39 -22z" />
    <glyph glyph-name="Dcroat.sc" horiz-adv-x="712" 
d="M33 0v5c58 0 75 20 75 86v168h-71v9h71v166c0 65 -17 85 -75 85v6h308c206 0 329 -101 329 -262c0 -162 -123 -263 -329 -263h-308zM251 6h71c147 0 194 125 194 257c0 130 -47 255 -193 255h-72v-250h143v-9h-143v-253z" />
    <glyph glyph-name="Emacron.sc" horiz-adv-x="593" 
d="M32 0v5c58 0 75 20 75 86v343c0 65 -17 85 -75 85v6h491l13 -171l-5 -1c-23 100 -90 165 -220 165h-61v-253h27c100 0 144 51 161 123h4v-250h-4c-17 71 -61 121 -161 121h-27v-253h67c138 0 196 86 223 177l4 -1l-17 -182h-495zM157 600v37h289v-37h-289z" />
    <glyph glyph-name="Ebreve.sc" horiz-adv-x="593" 
d="M32 0v5c58 0 75 20 75 86v343c0 65 -17 85 -75 85v6h491l13 -171l-5 -1c-23 100 -90 165 -220 165h-61v-253h27c100 0 144 51 161 123h4v-250h-4c-17 71 -61 121 -161 121h-27v-253h67c138 0 196 86 223 177l4 -1l-17 -182h-495zM311 576c-99 0 -125 108 -125 173h2
c9 -39 40 -81 123 -81s113 42 122 81h3c0 -65 -27 -173 -125 -173z" />
    <glyph glyph-name="Edotaccent.sc" horiz-adv-x="593" 
d="M32 0v5c58 0 75 20 75 86v343c0 65 -17 85 -75 85v6h491l13 -171l-5 -1c-23 100 -90 165 -220 165h-61v-253h27c100 0 144 51 161 123h4v-250h-4c-17 71 -61 121 -161 121h-27v-253h67c138 0 196 86 223 177l4 -1l-17 -182h-495zM309 591c-38 0 -69 31 -69 69
c0 37 31 68 69 68c37 0 68 -31 68 -68c0 -38 -31 -69 -68 -69z" />
    <glyph glyph-name="Eogonek.sc" horiz-adv-x="593" 
d="M32 0v5c58 0 75 20 75 86v343c0 65 -17 85 -75 85v6h491l13 -171l-5 -1c-23 100 -90 165 -220 165h-61v-253h27c100 0 144 51 161 123h4v-250h-4c-17 71 -61 121 -161 121h-27v-253h67c138 0 196 86 223 177l4 -1l-17 -182h-47c-41 -21 -88 -51 -88 -120
c0 -54 30 -81 79 -81c21 0 39 5 51 9l2 -5c-33 -13 -84 -25 -127 -25c-72 0 -111 32 -111 82c0 82 108 113 178 140h-432z" />
    <glyph glyph-name="Ecaron.sc" horiz-adv-x="593" 
d="M32 0v5c58 0 75 20 75 86v343c0 65 -17 85 -75 85v6h491l13 -171l-5 -1c-23 100 -90 165 -220 165h-61v-253h27c100 0 144 51 161 123h4v-250h-4c-17 71 -61 121 -161 121h-27v-253h67c138 0 196 86 223 177l4 -1l-17 -182h-495zM315 565c-17 0 -29 9 -40 22l-112 151
l2 2l150 -81l150 81l2 -2l-113 -151c-10 -13 -22 -22 -39 -22z" />
    <glyph glyph-name="Gcircumflex.sc" horiz-adv-x="720" 
d="M381 -10c-222 0 -340 111 -340 265c0 178 157 280 337 280c74 0 157 -17 223 -1l16 -172l-5 -1c-48 118 -134 168 -221 168c-140 0 -196 -129 -196 -275c0 -130 44 -259 186 -259c43 0 81 12 116 29v131c0 66 -20 90 -80 90v6h292v-6c-58 0 -74 -18 -74 -84v-137
c-65 -16 -165 -34 -254 -34zM227 564l-2 2l112 151c10 13 22 22 40 22c17 0 29 -9 39 -22l112 -151l-2 -2l-149 81z" />
    <glyph glyph-name="Gbreve.sc" horiz-adv-x="720" 
d="M381 -10c-222 0 -340 111 -340 265c0 178 157 280 337 280c74 0 157 -17 223 -1l16 -172l-5 -1c-48 118 -134 168 -221 168c-140 0 -196 -129 -196 -275c0 -130 44 -259 186 -259c43 0 81 12 116 29v131c0 66 -20 90 -80 90v6h292v-6c-58 0 -74 -18 -74 -84v-137
c-65 -16 -165 -34 -254 -34zM389 576c-98 0 -125 108 -125 173h3c9 -39 40 -81 122 -81c84 0 114 42 123 81h3c0 -65 -27 -173 -126 -173z" />
    <glyph glyph-name="Gdotaccent.sc" horiz-adv-x="720" 
d="M381 -10c-222 0 -340 111 -340 265c0 178 157 280 337 280c74 0 157 -17 223 -1l16 -172l-5 -1c-48 118 -134 168 -221 168c-140 0 -196 -129 -196 -275c0 -130 44 -259 186 -259c43 0 81 12 116 29v131c0 66 -20 90 -80 90v6h292v-6c-58 0 -74 -18 -74 -84v-137
c-65 -16 -165 -34 -254 -34zM381 591c-37 0 -68 31 -68 69c0 37 31 68 68 68c38 0 69 -31 69 -68c0 -38 -31 -69 -69 -69z" />
    <glyph glyph-name="uni0122.sc" horiz-adv-x="720" 
d="M381 -10c-222 0 -340 111 -340 265c0 178 157 280 337 280c74 0 157 -17 223 -1l16 -172l-5 -1c-48 118 -134 168 -221 168c-140 0 -196 -129 -196 -275c0 -130 44 -259 186 -259c43 0 81 12 116 29v131c0 66 -20 90 -80 90v6h292v-6c-58 0 -74 -18 -74 -84v-137
c-65 -16 -165 -34 -254 -34zM309 -307l-3 5c53 19 103 68 106 126c-10 -8 -22 -12 -36 -12c-34 0 -62 28 -62 61c0 34 28 62 66 62c43 0 68 -33 68 -78c0 -61 -47 -132 -139 -164z" />
    <glyph glyph-name="Hcircumflex.sc" horiz-adv-x="752" 
d="M32 0v5c58 0 75 20 75 86v343c0 65 -17 85 -75 85v6h293v-6c-58 0 -75 -20 -75 -85v-165h252v165c0 65 -18 85 -75 85v6h293v-6c-59 0 -75 -20 -75 -85v-343c0 -66 16 -86 75 -86v-5h-293v5c57 0 75 20 75 86v170h-252v-170c0 -66 17 -86 75 -86v-5h-293zM226 564l-2 2
l112 151c10 13 22 22 40 22c17 0 29 -9 39 -22l112 -151l-2 -2l-149 81z" />
    <glyph glyph-name="Hbar.sc" horiz-adv-x="752" 
d="M43 377v9h64v48c0 65 -17 85 -75 85v6h293v-6c-58 0 -75 -20 -75 -85v-48h252v48c0 65 -18 85 -75 85v6h293v-6c-59 0 -75 -20 -75 -85v-48h64v-9h-64v-286c0 -66 16 -86 75 -86v-5h-293v5c57 0 75 20 75 86v170h-252v-170c0 -66 17 -86 75 -86v-5h-293v5
c58 0 75 20 75 86v286h-64zM250 269h252v108h-252v-108z" />
    <glyph glyph-name="Itilde.sc" horiz-adv-x="357" 
d="M32 0v5c58 0 75 20 75 86v343c0 65 -17 85 -75 85v6h293v-6c-58 0 -75 -20 -75 -85v-343c0 -66 17 -86 75 -86v-5h-293zM33 585c5 51 13 148 85 148c52 0 103 -50 157 -50c45 0 52 34 55 59h5c-5 -64 -18 -149 -85 -149c-51 0 -102 50 -156 50c-45 0 -52 -34 -56 -59z
" />
    <glyph glyph-name="Imacron.sc" horiz-adv-x="357" 
d="M32 0v5c58 0 75 20 75 86v343c0 65 -17 85 -75 85v6h293v-6c-58 0 -75 -20 -75 -85v-343c0 -66 17 -86 75 -86v-5h-293zM34 600v37h289v-37h-289z" />
    <glyph glyph-name="Ibreve.sc" horiz-adv-x="357" 
d="M32 0v5c58 0 75 20 75 86v343c0 65 -17 85 -75 85v6h293v-6c-58 0 -75 -20 -75 -85v-343c0 -66 17 -86 75 -86v-5h-293zM178 576c-98 0 -125 108 -125 173h3c9 -39 40 -81 122 -81c84 0 114 42 123 81h3c0 -65 -27 -173 -126 -173z" />
    <glyph glyph-name="Iogonek.sc" horiz-adv-x="357" 
d="M32 0v5c58 0 75 20 75 86v343c0 65 -17 85 -75 85v6h293v-6c-58 0 -75 -20 -75 -85v-343c0 -66 17 -86 75 -86v-5h-75c-41 -21 -87 -51 -87 -120c0 -54 30 -81 79 -81c21 0 39 5 51 9l2 -5c-33 -13 -85 -25 -128 -25c-71 0 -111 32 -111 82c0 82 109 113 179 140h-203z
" />
    <glyph glyph-name="Idotaccent.sc" horiz-adv-x="357" 
d="M32 0v5c58 0 75 20 75 86v343c0 65 -17 85 -75 85v6h293v-6c-58 0 -75 -20 -75 -85v-343c0 -66 17 -86 75 -86v-5h-293zM178 591c-37 0 -68 31 -68 69c0 37 31 68 68 68c38 0 69 -31 69 -68c0 -38 -31 -69 -69 -69z" />
    <glyph glyph-name="Jcircumflex.sc" horiz-adv-x="347" 
d="M15 -142l-2 3c85 42 89 94 89 153v420c0 65 -17 85 -74 85v6h293v-6c-58 0 -76 -20 -76 -85v-399c0 -93 -116 -150 -230 -177zM23 564l-2 2l112 151c11 13 23 22 40 22s29 -9 39 -22l113 -151l-2 -2l-150 81z" />
    <glyph glyph-name="uni0136.sc" horiz-adv-x="668" 
d="M32 0v5c58 0 75 20 75 86v343c0 65 -17 85 -75 85v6h293v-6c-58 0 -75 -20 -75 -85v-218l145 136c58 54 89 99 89 129c0 22 -19 38 -68 38v6h254v-6c-47 0 -93 -19 -140 -54c-35 -25 -59 -49 -108 -98l-22 -22l182 -266c38 -55 64 -74 101 -74v-5h-220l-167 249
c-13 -12 -29 -27 -46 -43v-115c0 -66 17 -86 75 -86v-5h-293zM294 -307l-2 5c52 19 102 68 106 126c-10 -8 -23 -12 -37 -12c-34 0 -62 28 -62 61c0 34 29 62 67 62c42 0 68 -33 68 -78c0 -61 -48 -132 -140 -164z" />
    <glyph glyph-name="Lacute.sc" horiz-adv-x="562" 
d="M32 0v5c58 0 75 20 75 86v343c0 65 -17 85 -75 85v6h308v-6c-58 0 -90 -17 -90 -90v-423h52c133 0 203 84 227 183l4 -1l-14 -188h-487zM149 574l-2 2c54 77 92 138 118 160c26 23 57 23 75 1c18 -21 12 -52 -14 -74c-27 -21 -91 -47 -177 -89z" />
    <glyph glyph-name="uni013B.sc" horiz-adv-x="562" 
d="M32 0v5c58 0 75 20 75 86v343c0 65 -17 85 -75 85v6h308v-6c-58 0 -90 -17 -90 -90v-423h52c133 0 203 84 227 183l4 -1l-14 -188h-487zM236 -307l-3 5c53 19 102 68 106 126c-10 -8 -23 -12 -36 -12c-35 0 -62 28 -62 61c0 34 28 62 66 62c43 0 68 -33 68 -78
c0 -61 -48 -132 -139 -164z" />
    <glyph glyph-name="Lcaron.sc" horiz-adv-x="564" 
d="M404 319l-3 1c4 65 5 149 15 176c9 26 36 46 63 36c25 -9 36 -38 25 -67s-53 -80 -100 -146zM32 0v5c58 0 75 20 75 86v343c0 65 -17 85 -75 85v6h308v-6c-58 0 -90 -17 -90 -90v-423h52c133 0 203 84 227 183l4 -1l-14 -188h-487z" />
    <glyph glyph-name="Ldot.sc" horiz-adv-x="563" 
d="M32 0v5c58 0 75 20 75 86v343c0 65 -17 85 -75 85v6h308v-6c-58 0 -90 -17 -90 -90v-423h52c133 0 203 84 227 183l4 -1l-14 -188h-487zM426 226c-37 0 -68 31 -68 69c0 37 31 68 68 68c38 0 69 -31 69 -68c0 -38 -31 -69 -69 -69z" />
    <glyph glyph-name="Nacute.sc" horiz-adv-x="666" 
d="M15 0v5c101 0 114 50 114 240v136c0 93 -23 138 -106 138v6h200l317 -325v79c0 191 -13 240 -114 240v6h237v-6c-101 0 -113 -49 -113 -240v-284l-5 -1l-407 417v-166c0 -190 13 -240 114 -240v-5h-237zM282 574l-2 2c54 77 92 138 118 160c26 23 57 23 75 1
c18 -21 12 -52 -14 -74c-27 -21 -91 -47 -177 -89z" />
    <glyph glyph-name="uni0145.sc" horiz-adv-x="666" 
d="M15 0v5c101 0 114 50 114 240v136c0 93 -23 138 -106 138v6h200l317 -325v79c0 191 -13 240 -114 240v6h237v-6c-101 0 -113 -49 -113 -240v-284l-5 -1l-407 417v-166c0 -190 13 -240 114 -240v-5h-237zM275 -307l-3 5c53 19 102 68 106 126c-10 -8 -23 -12 -36 -12
c-35 0 -62 28 -62 61c0 34 28 62 66 62c43 0 68 -33 68 -78c0 -61 -48 -132 -139 -164z" />
    <glyph glyph-name="Ncaron.sc" horiz-adv-x="666" 
d="M15 0v5c101 0 114 50 114 240v136c0 93 -23 138 -106 138v6h200l317 -325v79c0 191 -13 240 -114 240v6h237v-6c-101 0 -113 -49 -113 -240v-284l-5 -1l-407 417v-166c0 -190 13 -240 114 -240v-5h-237zM354 565c-18 0 -30 9 -40 22l-112 151l2 2l150 -81l149 81l2 -2
l-112 -151c-10 -13 -22 -22 -39 -22z" />
    <glyph glyph-name="Eng.sc" horiz-adv-x="665" 
d="M15 0v5c101 0 114 50 114 240v136c0 93 -23 138 -106 138v6h200l317 -325v79c0 191 -13 240 -114 240v6h237v-6c-101 0 -113 -49 -113 -240v-220c0 -107 -104 -175 -230 -201l-2 4c115 33 145 92 145 175v39l-325 335v-166c0 -190 13 -240 114 -240v-5h-237z" />
    <glyph glyph-name="Omacron.sc" horiz-adv-x="710" 
d="M355 -10c-180 0 -314 115 -314 273c0 157 134 272 314 272s314 -115 314 -272c0 -158 -134 -273 -314 -273zM355 -3c127 0 159 132 159 266c0 133 -32 265 -159 265s-159 -132 -159 -265c0 -134 32 -266 159 -266zM210 600v37h289v-37h-289z" />
    <glyph glyph-name="Obreve.sc" horiz-adv-x="710" 
d="M355 -10c-180 0 -314 115 -314 273c0 157 134 272 314 272s314 -115 314 -272c0 -158 -134 -273 -314 -273zM355 -3c127 0 159 132 159 266c0 133 -32 265 -159 265s-159 -132 -159 -265c0 -134 32 -266 159 -266zM355 576c-99 0 -126 108 -126 173h3
c9 -39 40 -81 123 -81s113 42 122 81h3c0 -65 -27 -173 -125 -173z" />
    <glyph glyph-name="Ohungarumlaut.sc" horiz-adv-x="710" 
d="M355 -10c-180 0 -314 115 -314 273c0 157 134 272 314 272s314 -115 314 -272c0 -158 -134 -273 -314 -273zM355 -3c127 0 159 132 159 266c0 133 -32 265 -159 265s-159 -132 -159 -265c0 -134 32 -266 159 -266zM229 572l-2 2c32 78 55 143 74 166c18 25 45 29 64 15
c20 -14 26 -40 6 -67c-19 -25 -74 -63 -142 -116zM397 572l-2 2c32 78 56 143 74 166c19 25 45 29 65 15c19 -14 26 -40 5 -67c-19 -25 -74 -63 -142 -116z" />
    <glyph glyph-name="Racute.sc" horiz-adv-x="662" 
d="M32 0v5c58 0 75 20 75 86v343c0 65 -17 85 -75 85v6h309c176 0 246 -56 246 -140c0 -102 -116 -127 -232 -133v-3c210 -3 183 -56 220 -170c18 -53 31 -74 86 -74v-5h-206c-15 21 -22 50 -31 87c-28 119 -25 161 -120 161h-54v-157c0 -66 17 -86 75 -86v-5h-293zM250 254
h68c93 0 121 65 121 131c0 67 -28 133 -126 133h-63v-264zM260 574l-2 2c54 77 92 138 118 160c26 23 57 23 75 1c18 -21 12 -52 -14 -74c-27 -21 -91 -47 -177 -89z" />
    <glyph glyph-name="uni0156.sc" horiz-adv-x="662" 
d="M32 0v5c58 0 75 20 75 86v343c0 65 -17 85 -75 85v6h309c176 0 246 -56 246 -140c0 -102 -116 -127 -232 -133v-3c210 -3 183 -56 220 -170c18 -53 31 -74 86 -74v-5h-206c-15 21 -22 50 -31 87c-28 119 -25 161 -120 161h-54v-157c0 -66 17 -86 75 -86v-5h-293zM250 254
h68c93 0 121 65 121 131c0 67 -28 133 -126 133h-63v-264zM287 -307l-2 5c52 19 102 68 106 126c-10 -8 -23 -12 -37 -12c-34 0 -62 28 -62 61c0 34 29 62 67 62c42 0 68 -33 68 -78c0 -61 -48 -132 -140 -164z" />
    <glyph glyph-name="Rcaron.sc" horiz-adv-x="662" 
d="M32 0v5c58 0 75 20 75 86v343c0 65 -17 85 -75 85v6h309c176 0 246 -56 246 -140c0 -102 -116 -127 -232 -133v-3c210 -3 183 -56 220 -170c18 -53 31 -74 86 -74v-5h-206c-15 21 -22 50 -31 87c-28 119 -25 161 -120 161h-54v-157c0 -66 17 -86 75 -86v-5h-293zM250 254
h68c93 0 121 65 121 131c0 67 -28 133 -126 133h-63v-264zM334 565c-17 0 -29 9 -39 22l-113 151l2 2l150 -81l150 81l2 -2l-112 -151c-11 -13 -23 -22 -40 -22z" />
    <glyph glyph-name="Sacute.sc" horiz-adv-x="539" 
d="M262 -10c-64 0 -146 11 -200 22l-8 160l4 1c42 -95 93 -177 202 -177c82 0 117 46 117 93c0 140 -318 97 -318 291c0 101 84 155 213 155c71 0 120 -16 183 -3l10 -169h-4c-40 84 -83 166 -185 166c-73 0 -103 -42 -103 -83c0 -133 320 -96 320 -295
c0 -105 -90 -161 -231 -161zM206 574l-2 2c54 77 92 138 118 160c26 23 57 23 75 1c18 -21 12 -52 -14 -74c-27 -21 -91 -47 -177 -89z" />
    <glyph glyph-name="Scircumflex.sc" horiz-adv-x="539" 
d="M262 -10c-64 0 -146 11 -200 22l-8 160l4 1c42 -95 93 -177 202 -177c82 0 117 46 117 93c0 140 -318 97 -318 291c0 101 84 155 213 155c71 0 120 -16 183 -3l10 -169h-4c-40 84 -83 166 -185 166c-73 0 -103 -42 -103 -83c0 -133 320 -96 320 -295
c0 -105 -90 -161 -231 -161zM126 564l-2 2l113 151c10 13 22 22 39 22s29 -9 40 -22l112 -151l-2 -2l-150 81z" />
    <glyph glyph-name="Scedilla.sc" horiz-adv-x="539" 
d="M250 -226c-51 0 -93 13 -122 32l3 5c19 -12 51 -22 79 -22c52 0 81 34 81 76c0 38 -23 67 -65 67c-15 0 -28 -3 -38 -8l-3 3l63 63c-62 2 -136 12 -186 22l-8 160l4 1c42 -95 93 -177 202 -177c82 0 117 46 117 93c0 140 -318 97 -318 291c0 101 84 155 213 155
c71 0 120 -16 183 -3l10 -169h-4c-40 84 -83 166 -185 166c-73 0 -103 -42 -103 -83c0 -133 320 -96 320 -295c0 -105 -90 -161 -234 -161l-52 -53c15 4 35 7 60 7c75 0 124 -29 124 -82c0 -66 -75 -88 -141 -88z" />
    <glyph glyph-name="uni0162.sc" horiz-adv-x="618" 
d="M148 0v5c58 0 90 18 90 92v421h-10c-111 0 -162 -81 -192 -180l-5 1l13 186h530l13 -186l-4 -1c-31 99 -82 180 -192 180h-10v-421c0 -74 31 -92 90 -92v-5h-168l-61 -60c15 4 36 7 60 7c75 0 124 -29 124 -82c0 -66 -75 -88 -141 -88c-51 0 -93 13 -122 32l4 5
c18 -12 50 -22 78 -22c53 0 81 34 81 76c0 38 -23 67 -65 67c-14 0 -27 -3 -38 -8l-3 3l71 70h-143z" />
    <glyph glyph-name="Tcaron.sc" horiz-adv-x="618" 
d="M148 0v5c58 0 90 18 90 92v421h-10c-111 0 -162 -81 -192 -180l-5 1l13 186h530l13 -186l-4 -1c-31 99 -82 180 -192 180h-10v-421c0 -74 31 -92 90 -92v-5h-323zM308 565c-17 0 -29 9 -39 22l-112 151l2 2l149 -81l150 81l2 -2l-112 -151c-10 -13 -22 -22 -40 -22z" />
    <glyph glyph-name="Tbar.sc" horiz-adv-x="619" 
d="M125 254v9h113v255h-10c-110 0 -162 -81 -192 -180l-5 1l13 186h530l14 -186l-5 -1c-31 99 -82 180 -192 180h-10v-255h113v-9h-113v-157c0 -74 32 -92 90 -92v-5h-323v5c58 0 90 18 90 92v157h-113z" />
    <glyph glyph-name="Utilde.sc" horiz-adv-x="651" 
d="M333 -10c-131 0 -237 53 -237 189v246c0 65 -17 94 -74 94v6h292v-6c-58 0 -75 -29 -75 -94v-271c0 -90 38 -151 133 -151c88 0 161 54 161 170v118c0 181 -11 228 -115 228v6h237v-6c-102 0 -114 -48 -114 -228v-118c0 -122 -72 -183 -208 -183zM203 585
c5 51 13 148 85 148c52 0 103 -50 157 -50c45 0 52 34 55 59h5c-6 -64 -18 -149 -85 -149c-52 0 -102 50 -157 50c-45 0 -52 -34 -55 -59z" />
    <glyph glyph-name="Umacron.sc" horiz-adv-x="651" 
d="M333 -10c-131 0 -237 53 -237 189v246c0 65 -17 94 -74 94v6h292v-6c-58 0 -75 -29 -75 -94v-271c0 -90 38 -151 133 -151c88 0 161 54 161 170v118c0 181 -11 228 -115 228v6h237v-6c-102 0 -114 -48 -114 -228v-118c0 -122 -72 -183 -208 -183zM204 600v37h290v-37
h-290z" />
    </font>
</defs>
</svg>
