<?xml version="1.0" standalone="no"?>
<!DOCTYPE svg PUBLIC "-//W3C//DTD SVG 1.1//EN" "http://www.w3.org/Graphics/SVG/1.1/DTD/svg11.dtd" >
<svg xmlns="http://www.w3.org/2000/svg" xmlns:xlink="http://www.w3.org/1999/xlink" version="1.1">
<metadata>
Created by FontForge 20160407 at Fri Oct 28 03:36:05 2016
 By Jimmy Wärting
Spacing/Kerning by Igino Marini: www.ikern.com
</metadata>
<defs>
<font id="MajestiBanner-Medium" horiz-adv-x="557" >
  <font-face 
    font-family="Majesti Banner Medium"
    font-weight="500"
    font-stretch="normal"
    units-per-em="1000"
    panose-1="2 0 0 0 0 0 0 0 0 0"
    ascent="750"
    descent="-250"
    x-height="408"
    cap-height="618"
    bbox="-887 -494 1286 961"
    underline-thickness="50"
    underline-position="-100"
    unicode-range="U+0020-FB06"
  />
<missing-glyph horiz-adv-x="275" 
 />
    <glyph glyph-name="fi" unicode="fi" horiz-adv-x="609" 
d="M20 0v6c54 0 80 16 80 71v319h-85v12h85v55c0 120 91 196 223 196c116 0 183 -59 183 -114c0 -38 -27 -68 -64 -68c-36 0 -64 30 -64 66c0 29 18 54 44 63c-18 26 -52 47 -96 47c-75 0 -112 -58 -112 -133v-112h193l118 10v-343c0 -50 16 -69 70 -69v-6h-254v6
c54 0 70 19 70 69v252c0 47 -14 69 -61 69h-136v-319c0 -62 34 -71 88 -71v-6h-282z" />
    <glyph glyph-name="f_j" unicode="fj" horiz-adv-x="596" 
d="M20 0v6c54 0 80 16 80 71v319h-85v12h85v55c0 120 91 196 223 196c116 0 183 -59 183 -114c0 -38 -27 -68 -64 -68c-36 0 -64 30 -64 66c0 29 18 54 44 63c-18 26 -52 47 -96 47c-75 0 -112 -58 -112 -133v-112h193l118 10v-403c0 -105 -101 -161 -198 -191l-3 3
c85 48 87 100 87 167v333c0 47 -14 69 -61 69h-136v-319c0 -62 34 -71 88 -71v-6h-282z" />
    <glyph glyph-name="fl" unicode="fl" horiz-adv-x="609" 
d="M20 0v6c54 0 80 16 80 71v319h-85v12h85v62c0 120 88 189 212 189c64 0 111 -18 142 -43l67 52h4v-593c0 -50 16 -69 70 -69v-6h-254v6c54 0 70 19 70 69v408c-26 9 -43 33 -43 62s18 53 43 61c-16 26 -49 47 -91 47c-73 0 -106 -58 -106 -133v-112h113v-12h-113v-319
c0 -62 34 -71 88 -71v-6h-282z" />
    <glyph glyph-name="f_y" unicode="fy" horiz-adv-x="794" 
d="M20 0v6c54 0 80 16 80 71v319h-85v12h85v73c0 120 85 178 182 178c100 0 148 -60 148 -110c0 -38 -28 -63 -60 -63c-34 0 -60 28 -60 62c0 30 19 54 46 61c-10 25 -30 44 -63 44c-53 0 -79 -50 -79 -120v-125h355v-7c-68 0 -77 -32 -53 -86l85 -196l36 85
c31 77 46 120 46 147c0 30 -16 50 -64 50v7h193v-7c-44 0 -78 -20 -102 -60c-17 -26 -35 -71 -66 -142l-102 -232c-23 -52 -72 -141 -152 -141c-35 0 -49 16 -49 39c0 74 156 22 197 112l8 18l-149 312c-26 58 -45 89 -106 89h-77v-319c0 -62 34 -71 88 -71v-6h-282z" />
    <glyph glyph-name=".notdef" horiz-adv-x="275" 
 />
    <glyph glyph-name="A" unicode="A" horiz-adv-x="666" 
d="M-36 0v6c110 0 145 111 185 203l177 413h6l220 -483c30 -66 68 -133 135 -133v-6h-329v6c71 0 94 48 60 126l-34 76h-224l-8 -21c-34 -89 -45 -181 74 -181v-6h-262zM165 218h215l-110 250z" />
    <glyph glyph-name="B" unicode="B" horiz-adv-x="661" 
d="M29 0v6c78 0 90 23 90 94v417c0 71 -12 94 -90 94v7h313c182 0 253 -59 253 -151c0 -86 -63 -139 -220 -145v-3c174 -5 241 -63 241 -155c0 -95 -69 -164 -252 -164h-335zM244 7h95c101 0 145 77 145 159c0 83 -45 149 -153 149h-87v-308zM244 323h72
c106 0 148 61 148 143c0 70 -32 144 -134 144h-86v-287z" />
    <glyph glyph-name="C" unicode="C" horiz-adv-x="679" 
d="M396 -12c-224 0 -353 136 -353 318c0 193 145 324 350 324c82 0 150 -21 222 -2l17 -203l-5 -1c-57 138 -128 199 -230 199c-159 0 -219 -152 -219 -315c0 -160 57 -314 213 -314c120 0 198 91 249 211h5l-33 -187c-53 -16 -144 -30 -216 -30z" />
    <glyph glyph-name="D" unicode="D" horiz-adv-x="750" 
d="M29 0v6c78 0 90 23 90 94v417c0 71 -12 94 -90 94v7h321c219 0 356 -121 356 -309s-136 -309 -356 -309h-321zM244 7h93c169 0 234 142 234 302c0 159 -65 301 -234 301h-93v-603z" />
    <glyph glyph-name="E" unicode="E" horiz-adv-x="630" 
d="M29 0v6c78 0 90 23 90 94v417c0 71 -12 94 -90 94v7h526l14 -193l-5 -1c-26 116 -82 186 -248 186h-72v-298h23c124 0 171 45 189 138h5v-283h-5c-18 92 -65 137 -189 137h-23v-297h81c175 0 221 95 250 200l5 -1l-19 -206h-532z" />
    <glyph glyph-name="F" unicode="F" horiz-adv-x="593" 
d="M29 0v6c78 0 90 23 90 94v417c0 71 -12 94 -90 94v7h524l13 -200l-5 -1c-26 116 -86 193 -247 193h-70v-306h21c123 0 171 50 188 143h5v-293h-5c-17 92 -65 142 -188 142h-21v-191c0 -77 22 -99 100 -99v-6h-315z" />
    <glyph glyph-name="G" unicode="G" horiz-adv-x="769" 
d="M413 -12c-256 0 -370 148 -370 315c0 201 164 327 360 327c79 0 165 -21 237 -2l17 -198l-5 -1c-52 135 -142 194 -243 194c-161 0 -231 -150 -231 -322c0 -158 61 -306 227 -306c58 0 106 17 149 40v151c0 71 -15 100 -97 100v7h305v-7c-76 0 -87 -21 -87 -92v-163
c-67 -21 -164 -43 -262 -43z" />
    <glyph glyph-name="H" unicode="H" horiz-adv-x="793" 
d="M29 0v6c78 0 90 23 90 94v417c0 71 -12 94 -90 94v7h305v-7c-78 0 -90 -23 -90 -94v-199h305v199c0 71 -12 94 -90 94v7h305v-7c-78 0 -90 -23 -90 -94v-417c0 -71 12 -94 90 -94v-6h-305v6c78 0 90 23 90 94v209h-305v-209c0 -71 12 -94 90 -94v-6h-305z" />
    <glyph glyph-name="I" unicode="I" horiz-adv-x="363" 
d="M29 0v6c78 0 90 23 90 94v417c0 71 -12 94 -90 94v7h305v-7c-78 0 -90 -23 -90 -94v-417c0 -71 12 -94 90 -94v-6h-305z" />
    <glyph glyph-name="J" unicode="J" horiz-adv-x="350" 
d="M14 -167l-3 4c87 45 102 107 102 177v503c0 71 -12 94 -90 94v7h304v-7c-78 0 -90 -23 -90 -94v-481c0 -107 -109 -172 -223 -203z" />
    <glyph glyph-name="K" unicode="K" horiz-adv-x="708" 
d="M29 0v6c78 0 90 23 90 94v417c0 71 -12 94 -90 94v7h305v-7c-78 0 -90 -23 -90 -94v-259l176 177c58 58 88 102 88 133c0 26 -21 43 -78 43v7h280v-7c-58 0 -106 -24 -148 -55c-37 -28 -79 -69 -133 -123l-37 -39l210 -301c46 -66 83 -87 123 -87v-6h-211l-210 307
l-60 -61v-146c0 -71 12 -94 90 -94v-6h-305z" />
    <glyph glyph-name="L" unicode="L" horiz-adv-x="592" 
d="M29 0v6c78 0 90 23 90 94v417c0 71 -12 94 -90 94v7h315v-7c-78 0 -100 -21 -100 -99v-505h64c164 0 225 90 251 206l5 -1l-14 -212h-521z" />
    <glyph glyph-name="M" unicode="M" horiz-adv-x="907" 
d="M0 0v6c109 0 134 43 150 327l8 117c7 108 -18 161 -120 161v7h230l213 -444l184 444h198v-7c-82 0 -93 -45 -89 -115l18 -377c4 -79 21 -113 97 -113v-6h-309v6c76 0 91 39 87 108l-22 430l-220 -526h-6l-247 503l-13 -188c-17 -283 -6 -327 101 -327v-6h-260z" />
    <glyph glyph-name="N" unicode="N" horiz-adv-x="724" 
d="M15 0v6c118 0 125 58 125 319v135c0 101 -23 151 -120 151v7h202l364 -425v99c0 261 -7 319 -125 319v7h260v-7c-118 0 -125 -58 -125 -319v-297l-5 -2l-441 512v-180c0 -261 7 -319 125 -319v-6h-260z" />
    <glyph glyph-name="O" unicode="O" horiz-adv-x="757" 
d="M378 -12c-195 0 -336 137 -336 321c0 183 141 321 336 321c196 0 336 -138 336 -321c0 -184 -141 -321 -336 -321zM378 -4c154 0 201 154 201 313s-46 312 -201 312s-200 -154 -200 -312s46 -313 200 -313z" />
    <glyph glyph-name="P" unicode="P" horiz-adv-x="619" 
d="M29 0v6c78 0 90 23 90 94v417c0 71 -12 94 -90 94v7h307c189 0 261 -78 261 -178c0 -101 -72 -177 -261 -177h-45v7h23c110 0 150 83 150 170c0 86 -40 170 -150 170h-70v-510c0 -71 12 -94 90 -94v-6h-305z" />
    <glyph glyph-name="Q" unicode="Q" horiz-adv-x="757" 
d="M211 -134l-6 4c43 49 84 109 161 118c-189 6 -324 141 -324 321c0 183 141 321 336 321c196 0 336 -138 336 -321c0 -176 -129 -309 -310 -320c105 -10 173 -108 267 -108c51 0 82 32 99 59l6 -3c-31 -54 -79 -127 -161 -127c-103 0 -196 114 -297 114
c-53 0 -88 -34 -107 -58zM378 -4c154 0 201 154 201 313s-46 312 -201 312s-200 -154 -200 -312s46 -313 200 -313z" />
    <glyph glyph-name="R" unicode="R" horiz-adv-x="695" 
d="M29 0v6c78 0 90 23 90 94v417c0 71 -12 94 -90 94v7h309c182 0 274 -59 274 -162c0 -127 -140 -152 -250 -156v-4c214 -3 191 -69 235 -203c21 -64 39 -87 98 -87v-6h-195c-11 22 -22 52 -36 105c-36 137 -36 190 -151 190h-69v-195c0 -71 12 -94 90 -94v-6h-305z
M244 302h79c111 0 160 71 160 155c0 85 -49 153 -164 153h-75v-308z" />
    <glyph glyph-name="S" unicode="S" horiz-adv-x="568" 
d="M275 -12c-73 0 -153 14 -209 26l-11 188l6 1c38 -99 78 -208 216 -208c99 0 144 55 144 119c0 180 -358 116 -358 344c0 101 71 172 220 172c80 0 129 -20 196 -5l12 -194l-5 -1c-34 85 -76 193 -200 193c-86 0 -127 -52 -127 -110c0 -171 360 -113 360 -344
c0 -109 -81 -181 -244 -181z" />
    <glyph glyph-name="T" unicode="T" horiz-adv-x="652" 
d="M164 0v6c78 0 100 22 100 99v505h-8c-153 0 -190 -99 -221 -210l-6 1l18 217h558l18 -217l-6 -1c-31 111 -68 210 -221 210h-8v-505c0 -77 22 -99 100 -99v-6h-324z" />
    <glyph glyph-name="U" unicode="U" horiz-adv-x="698" 
d="M354 -12c-130 0 -247 58 -247 221v300c0 71 -12 102 -90 102v7h305v-7c-78 0 -90 -31 -90 -102v-322c0 -111 42 -184 155 -184c108 0 182 68 182 200v101c0 254 -10 307 -124 307v7h258v-7c-116 0 -124 -58 -124 -307v-101c0 -141 -80 -215 -225 -215z" />
    <glyph glyph-name="V" unicode="V" horiz-adv-x="652" 
d="M326 -5l-212 485c-29 67 -59 131 -133 131v7h327v-7c-79 -1 -91 -51 -60 -125l139 -335l91 229c28 71 42 122 42 155c0 46 -27 76 -87 76v7h252v-7c-57 0 -93 -26 -123 -74c-21 -34 -44 -87 -75 -162l-154 -380h-7z" />
    <glyph glyph-name="W" unicode="W" horiz-adv-x="975" 
d="M316 -5l-202 485c-25 60 -57 131 -133 131v7h312v-7c-75 0 -83 -45 -55 -115l137 -344l114 292l-13 36c-29 75 -66 131 -130 131v7h318v-7c-79 0 -87 -52 -61 -125l118 -328l83 223c26 71 37 122 37 154c0 47 -25 76 -86 76v7h253v-7c-56 0 -96 -27 -124 -72
c-23 -37 -43 -91 -71 -163l-145 -381h-7l-166 433l-172 -433h-7z" />
    <glyph glyph-name="X" unicode="X" horiz-adv-x="689" 
d="M-26 0v6c62 0 110 31 155 72c41 39 86 95 130 157l35 47l-115 179c-47 74 -99 150 -173 150v7h333v-7c-84 0 -72 -62 -36 -118l85 -133l26 35c52 73 79 122 79 159c0 34 -23 57 -74 57v7h286v-7c-61 0 -109 -28 -154 -68c-41 -38 -86 -92 -132 -155l-26 -36l129 -201
c47 -72 105 -145 175 -145v-6h-332v6c77 0 74 54 33 117l-99 152l-32 -45c-51 -74 -78 -123 -78 -160c0 -39 27 -64 81 -64v-6h-296z" />
    <glyph glyph-name="Y" unicode="Y" horiz-adv-x="667" 
d="M178 0v6c83 0 100 37 100 114v131l-149 244c-40 64 -82 116 -140 116v7h324v-7c-72 0 -85 -42 -45 -110l125 -209h2l52 88c52 89 76 138 76 172c0 33 -20 59 -85 59v7h261v-7c-61 0 -100 -25 -133 -65c-24 -28 -52 -74 -112 -171l-52 -87v-168c0 -77 17 -114 100 -114v-6
h-324z" />
    <glyph glyph-name="Z" unicode="Z" horiz-adv-x="611" 
d="M31 0l-1 2l390 608h-167c-110 0 -170 -98 -199 -198h-5l15 206h501l2 -2l-391 -608h189c115 0 171 109 200 204l5 -1l-19 -211h-520z" />
    <glyph glyph-name="a" unicode="a" horiz-adv-x="512" 
d="M177 -11c-83 0 -139 44 -139 114c0 80 75 115 166 115c39 0 81 -7 112 -17v101c0 64 -18 111 -86 111c-49 0 -76 -24 -93 -50c24 -9 40 -33 40 -58c0 -34 -26 -60 -61 -60c-38 0 -60 32 -60 64c0 59 73 110 179 110c93 0 195 -40 195 -149v-220c0 -27 13 -35 28 -35
c31 0 56 38 67 58l6 -4c-23 -39 -55 -78 -116 -78c-51 0 -85 27 -95 68c-26 -36 -69 -70 -143 -70zM227 13c36 0 66 23 89 53v127c-21 6 -46 13 -71 13c-56 0 -89 -32 -89 -99c0 -57 25 -94 71 -94z" />
    <glyph glyph-name="b" unicode="b" horiz-adv-x="539" 
d="M282 -11c-54 0 -90 14 -119 35l-89 -35l-3 2v582c0 50 -16 69 -70 69v6l184 20v-315c28 33 72 66 137 66c115 0 179 -102 179 -211c0 -124 -82 -219 -219 -219zM264 -4c86 0 116 108 116 204c0 102 -32 187 -109 187c-37 0 -65 -20 -86 -45v-288c9 -26 32 -58 79 -58z
" />
    <glyph glyph-name="c" unicode="c" horiz-adv-x="469" 
d="M248 -11c-134 0 -211 97 -211 212c0 136 107 218 225 218c106 0 170 -65 170 -126c0 -40 -27 -68 -63 -68s-63 29 -63 64c0 32 22 58 53 63c-11 29 -37 60 -84 60c-84 0 -118 -100 -118 -200c0 -127 50 -202 135 -202c65 0 114 44 141 94l6 -3
c-28 -51 -85 -112 -191 -112z" />
    <glyph glyph-name="d" unicode="d" horiz-adv-x="549" 
d="M219 -11c-111 0 -181 99 -181 213c0 123 82 217 208 217c48 0 84 -15 107 -36v190c0 56 -26 69 -80 69v6l194 20v-593c0 -50 16 -69 70 -69v-6h-182v57c-29 -36 -73 -68 -136 -68zM270 20c37 0 64 21 83 46v271c-7 38 -38 73 -84 73c-75 0 -110 -108 -110 -202
c0 -99 33 -188 111 -188z" />
    <glyph glyph-name="e" unicode="e" horiz-adv-x="487" 
d="M254 -11c-142 0 -217 103 -217 216c0 126 93 214 217 214c109 0 194 -67 197 -192h-294c-3 -133 46 -217 140 -217c72 0 121 51 147 94l6 -4c-30 -48 -86 -111 -196 -111zM253 412c-62 0 -92 -91 -96 -176h177c0 52 -7 176 -81 176z" />
    <glyph glyph-name="f" unicode="f" horiz-adv-x="340" 
d="M20 0v6c54 0 80 16 80 71v319h-85v12h85v73c0 120 85 178 182 178c100 0 148 -60 148 -110c0 -38 -28 -63 -60 -63c-34 0 -60 28 -60 62c0 30 19 54 46 61c-10 25 -30 44 -63 44c-53 0 -79 -50 -79 -120v-125h113v-12h-113v-319c0 -62 34 -71 88 -71v-6h-282z" />
    <glyph glyph-name="g" unicode="g" horiz-adv-x="468" 
d="M219 -174c-115 0 -205 28 -205 86c0 53 73 71 110 76c-38 10 -65 27 -65 63c0 46 44 72 84 86c-66 23 -105 72 -105 134c0 85 76 148 192 148c39 0 73 -8 102 -20c41 77 51 112 76 122c18 10 42 2 52 -17c9 -16 6 -35 -8 -49c-19 -18 -64 -35 -114 -59
c52 -26 83 -71 83 -125c0 -85 -74 -148 -191 -148c-30 0 -57 4 -81 12c-14 -6 -26 -17 -26 -30c0 -68 331 27 331 -144c0 -83 -77 -135 -235 -135zM230 413c-56 0 -76 -62 -76 -142s20 -142 76 -142s76 62 76 142s-20 142 -76 142zM227 -168c126 0 158 52 158 85
c0 74 -157 48 -251 70c-32 -11 -55 -32 -55 -66c0 -52 41 -89 148 -89z" />
    <glyph glyph-name="h" unicode="h" 
d="M13 0v6c54 0 70 19 70 69v498c0 50 -16 69 -70 69v6l184 20v-333c35 36 91 84 161 84c63 0 119 -38 119 -132v-212c0 -50 16 -69 70 -69v-6h-249v6c48 0 65 19 65 69v221c0 54 -24 82 -66 82c-43 0 -76 -28 -100 -53v-250c0 -50 16 -69 70 -69v-6h-254z" />
    <glyph glyph-name="i" unicode="i" horiz-adv-x="289" 
d="M144 489c-40 0 -71 28 -71 68s31 67 71 67c39 0 70 -27 70 -67s-31 -68 -70 -68zM21 0v6c54 0 70 19 70 69v248c0 50 -16 69 -70 69v6l184 20v-343c0 -50 16 -69 70 -69v-6h-254z" />
    <glyph glyph-name="j" unicode="j" horiz-adv-x="272" 
d="M3 -176l-3 3c85 48 87 100 87 167v329c0 51 -21 69 -75 69v6l189 20v-403c0 -105 -101 -161 -198 -191zM139 489c-39 0 -71 28 -71 68s32 67 71 67c40 0 71 -27 71 -67s-31 -68 -71 -68z" />
    <glyph glyph-name="k" unicode="k" horiz-adv-x="534" 
d="M13 0v6c54 0 70 19 70 69v498c0 50 -16 69 -70 69v6l184 20v-492l94 94c40 39 61 69 61 93s-21 38 -66 38v7h233v-7c-49 0 -85 -15 -122 -43c-22 -16 -47 -37 -78 -69l-10 -10l141 -210c27 -40 57 -63 99 -63v-6h-183l-136 199l-33 -33v-91c0 -50 16 -69 70 -69v-6h-254z
" />
    <glyph glyph-name="l" unicode="l" horiz-adv-x="282" 
d="M14 0v6c54 0 70 19 70 69v498c0 50 -16 69 -70 69v6l184 20v-593c0 -50 16 -69 70 -69v-6h-254z" />
    <glyph glyph-name="m" unicode="m" horiz-adv-x="819" 
d="M20 0v6c54 0 70 19 70 69v248c0 50 -16 69 -70 69v6l179 20v-83c36 38 89 84 157 84c50 0 95 -26 109 -86c35 37 89 86 159 86c63 0 115 -38 115 -132v-212c0 -50 16 -69 70 -69v-6h-247v6c48 0 65 19 65 69v221c0 54 -22 82 -64 82c-41 0 -73 -28 -96 -53
c2 -12 3 -24 3 -38v-212c0 -50 15 -69 67 -69v-6h-243v6c48 0 65 19 65 69v221c0 54 -23 82 -64 82c-40 0 -70 -26 -93 -50v-253c0 -50 17 -69 65 -69v-6h-247z" />
    <glyph glyph-name="n" unicode="n" horiz-adv-x="564" 
d="M20 0v6c54 0 70 19 70 69v248c0 50 -16 69 -70 69v6l182 20v-85c35 37 92 86 163 86c64 0 119 -38 119 -132v-212c0 -50 16 -69 70 -69v-6h-249v6c48 0 65 19 65 69v221c0 54 -24 82 -66 82c-43 0 -75 -28 -100 -53v-250c0 -50 17 -69 65 -69v-6h-249z" />
    <glyph glyph-name="o" unicode="o" horiz-adv-x="531" 
d="M265 -11c-119 0 -228 78 -228 215s109 215 228 215s228 -78 228 -215s-109 -215 -228 -215zM265 -3c76 0 106 81 106 207c0 125 -30 207 -106 207s-105 -82 -105 -207c0 -126 29 -207 105 -207z" />
    <glyph glyph-name="p" unicode="p" horiz-adv-x="550" 
d="M13 -163v6c54 0 70 21 70 71v407c0 50 -16 71 -70 71v6l181 20v-68c29 36 73 69 136 69c111 0 181 -101 181 -215c0 -120 -77 -215 -206 -215c-51 0 -87 14 -108 35v-114c0 -50 22 -67 75 -67v-6h-259zM280 387c-38 0 -65 -21 -83 -46v-254c0 -54 37 -90 84 -90
c75 0 109 105 109 201c0 103 -32 189 -110 189z" />
    <glyph glyph-name="q" unicode="q" horiz-adv-x="538" 
d="M278 -163v6c54 0 75 18 75 71v139c-28 -33 -72 -64 -136 -64c-115 0 -179 102 -179 210c0 125 85 220 218 220c57 0 95 -17 122 -38l85 36h4v-503c0 -50 16 -71 70 -71v-6h-259zM275 411c-86 0 -116 -108 -116 -204c0 -101 32 -186 109 -186c36 0 64 18 85 43v292
c-10 25 -34 55 -78 55z" />
    <glyph glyph-name="r" unicode="r" horiz-adv-x="415" 
d="M20 0v6c54 0 70 21 70 71v244c0 50 -16 71 -70 71v6l182 20v-130c23 67 71 131 133 131c46 0 69 -34 69 -68c0 -37 -29 -66 -64 -66c-38 0 -69 32 -64 73c-33 -12 -58 -44 -72 -77v-204c0 -53 21 -71 75 -71v-6h-259z" />
    <glyph glyph-name="s" unicode="s" horiz-adv-x="425" 
d="M206 -11c-53 0 -115 10 -154 18l-6 128l5 1c29 -66 61 -141 153 -141c68 0 91 41 91 74c0 112 -245 69 -245 227c0 75 56 123 163 123c58 0 96 -14 144 -3l7 -134l-5 -1c-24 56 -63 132 -142 132c-56 0 -80 -36 -80 -70c0 -108 247 -69 247 -226
c0 -80 -64 -128 -178 -128z" />
    <glyph glyph-name="t" unicode="t" horiz-adv-x="340" 
d="M202 -10c-69 0 -117 41 -117 122v284h-71v12h71v106l114 21v-127h124v-12h-124v-299c0 -49 17 -77 55 -77c39 0 69 30 90 57l5 -4c-31 -39 -75 -83 -147 -83z" />
    <glyph glyph-name="u" unicode="u" 
d="M199 -11c-64 0 -119 38 -119 132v200c0 50 -16 71 -70 71v6l184 20v-306c0 -55 24 -82 66 -82s74 27 100 52v239c0 50 -17 71 -65 71v6l179 20v-341c0 -50 16 -71 70 -71v-6h-182v74c-36 -37 -93 -85 -163 -85z" />
    <glyph glyph-name="v" unicode="v" horiz-adv-x="488" 
d="M242 -7l-150 314c-27 58 -54 94 -106 94v7h277v-7c-68 0 -76 -32 -52 -86l85 -194l38 92c30 70 43 111 43 139c0 29 -16 49 -64 49v7h192v-7c-43 0 -75 -19 -100 -57c-17 -27 -35 -70 -64 -136l-93 -215h-6z" />
    <glyph glyph-name="w" unicode="w" horiz-adv-x="740" 
d="M245 -7l-150 314c-27 58 -54 94 -106 94v7h265v-7c-61 0 -66 -32 -42 -86l86 -196l73 177l-8 17c-23 53 -42 88 -85 88v7h257v-7c-67 0 -75 -32 -53 -86l73 -189l36 93c26 67 40 109 40 135c0 28 -15 47 -62 47v7h188v-7c-41 0 -77 -17 -100 -54
c-18 -29 -34 -72 -58 -132l-91 -222h-6l-125 289l-126 -289h-6z" />
    <glyph glyph-name="x" unicode="x" horiz-adv-x="500" 
d="M-11 0v6c39 0 75 16 111 49c26 24 53 58 84 100l22 31l-72 116c-38 60 -71 99 -128 99v7h264v-7c-51 0 -57 -33 -32 -73l53 -84l18 24c34 47 47 75 47 95c0 26 -20 38 -60 38v7h200v-7c-39 0 -72 -14 -105 -47c-23 -22 -47 -54 -78 -93l-17 -23l83 -131
c39 -61 74 -101 130 -101v-6h-269v6c55 0 58 37 32 77l-61 97l-22 -32c-37 -51 -49 -80 -48 -101c0 -27 19 -41 61 -41v-6h-213z" />
    <glyph glyph-name="y" unicode="y" horiz-adv-x="493" 
d="M89 -174c-35 0 -49 16 -49 39c0 74 156 22 197 112l8 18l-149 312c-26 58 -54 94 -105 94v7h277v-7c-68 0 -77 -32 -53 -86l85 -196l36 85c31 77 46 120 46 147c0 30 -16 50 -64 50v7h193v-7c-44 0 -78 -20 -102 -60c-17 -26 -35 -71 -66 -142l-102 -232
c-23 -52 -72 -141 -152 -141z" />
    <glyph glyph-name="z" unicode="z" horiz-adv-x="457" 
d="M37 0l-3 3l253 398h-86c-82 0 -132 -86 -153 -157h-6l16 164h354l3 -4l-252 -396h93c88 0 135 92 158 154l6 -1l-17 -161h-366z" />
    <glyph glyph-name="period" unicode="." horiz-adv-x="238" 
d="M119 -8c-38 0 -68 30 -68 68s30 68 68 68s68 -30 68 -68s-30 -68 -68 -68z" />
    <glyph glyph-name="ellipsis" unicode="&#x2026;" horiz-adv-x="798" 
d="M119 -8c-38 0 -68 30 -68 68s30 68 68 68s68 -30 68 -68s-30 -68 -68 -68zM399 -8c-38 0 -68 30 -68 68s30 68 68 68s68 -30 68 -68s-30 -68 -68 -68zM679 -8c-38 0 -68 30 -68 68s30 68 68 68s68 -30 68 -68s-30 -68 -68 -68z" />
    <glyph glyph-name="comma" unicode="," horiz-adv-x="244" 
d="M39 -133l-3 5c62 22 115 78 117 140c-10 -8 -23 -12 -38 -12c-35 0 -64 29 -64 64s29 64 69 64c45 0 71 -36 71 -83c0 -66 -49 -142 -152 -178z" />
    <glyph glyph-name="quotesinglbase" unicode="&#x201a;" horiz-adv-x="244" 
d="M39 -133l-3 5c62 22 115 78 117 140c-10 -8 -23 -12 -38 -12c-35 0 -64 29 -64 64s29 64 69 64c45 0 71 -36 71 -83c0 -66 -49 -142 -152 -178z" />
    <glyph glyph-name="quotedblbase" unicode="&#x201e;" horiz-adv-x="446" 
d="M39 -133l-3 5c62 22 115 78 117 140c-10 -8 -23 -12 -38 -12c-35 0 -64 29 -64 64s29 64 69 64c45 0 71 -36 71 -83c0 -66 -49 -142 -152 -178zM241 -133l-3 5c62 22 115 78 117 140c-10 -8 -23 -12 -38 -12c-35 0 -64 29 -64 64s29 64 69 64c45 0 71 -36 71 -83
c0 -66 -49 -142 -152 -178z" />
    <glyph glyph-name="periodcentered" unicode="&#xb7;" horiz-adv-x="243" 
d="M122 171c-38 0 -69 30 -69 68s31 68 69 68s68 -30 68 -68s-30 -68 -68 -68z" />
    <glyph glyph-name="quotesingle" unicode="'" horiz-adv-x="197" 
d="M94 372c-18 102 -54 158 -54 200c0 32 22 58 58 58s58 -24 58 -58c0 -42 -36 -98 -54 -200h-8z" />
    <glyph glyph-name="quotedbl" unicode="&#x22;" horiz-adv-x="371" 
d="M94 372c-18 102 -54 158 -54 200c0 32 22 58 58 58s58 -24 58 -58c0 -42 -36 -98 -54 -200h-8zM268 372c-18 102 -54 158 -54 200c0 32 22 58 58 58s58 -24 58 -58c0 -42 -36 -98 -54 -200h-8z" />
    <glyph glyph-name="quoteleft" unicode="&#x2018;" horiz-adv-x="232" 
d="M193 667l3 -5c-62 -22 -116 -78 -118 -140c11 8 24 12 38 12c36 0 65 -29 65 -64s-30 -64 -70 -64c-44 0 -71 36 -71 83c0 66 50 142 153 178z" />
    <glyph glyph-name="quoteright" unicode="&#x2019;" horiz-adv-x="238" 
d="M52 405l-3 5c62 22 116 78 118 140c-11 -8 -24 -12 -38 -12c-36 0 -65 29 -65 64s30 64 70 64c44 0 71 -36 71 -83c0 -66 -50 -142 -153 -178z" />
    <glyph glyph-name="quotedblleft" unicode="&#x201c;" horiz-adv-x="434" 
d="M193 667l3 -5c-62 -22 -116 -78 -118 -140c11 8 24 12 38 12c36 0 65 -29 65 -64s-30 -64 -70 -64c-44 0 -71 36 -71 83c0 66 50 142 153 178zM395 667l3 -5c-62 -22 -116 -78 -118 -140c11 8 24 12 38 12c36 0 65 -29 65 -64s-30 -64 -70 -64c-44 0 -71 36 -71 83
c0 66 50 142 153 178z" />
    <glyph glyph-name="quotedblright" unicode="&#x201d;" horiz-adv-x="440" 
d="M52 405l-3 5c62 22 116 78 118 140c-11 -8 -24 -12 -38 -12c-36 0 -65 29 -65 64s30 64 70 64c44 0 71 -36 71 -83c0 -66 -50 -142 -153 -178zM254 405l-3 5c62 22 116 78 118 140c-11 -8 -24 -12 -38 -12c-36 0 -65 29 -65 64s30 64 70 64c44 0 71 -36 71 -83
c0 -66 -50 -142 -153 -178z" />
    <glyph glyph-name="asterisk" unicode="*" horiz-adv-x="417" 
d="M61 549c12 20 35 26 54 15c21 -12 35 -50 84 -93l-2 -4c-61 21 -102 14 -122 26c-19 11 -27 32 -14 56zM61 378c-12 21 -6 44 14 55c20 12 60 5 122 26l2 -4c-48 -42 -63 -81 -84 -93c-18 -10 -41 -7 -54 16zM209 293c-27 0 -41 18 -41 39c0 24 26 56 38 119h5
c13 -64 38 -95 38 -119c0 -22 -16 -39 -40 -39zM356 378c-13 -23 -36 -26 -54 -16c-21 12 -36 51 -84 93l2 4c62 -21 102 -14 123 -26c19 -11 25 -34 13 -55zM356 549c13 -24 4 -45 -14 -56c-20 -12 -61 -5 -122 -26l-2 4c49 43 63 81 84 93c19 11 42 5 54 -15zM209 634
c24 0 40 -17 40 -40s-25 -55 -38 -118h-5c-12 63 -38 94 -38 118c0 21 14 40 41 40z" />
    <glyph glyph-name="underscore" unicode="_" horiz-adv-x="516" 
d="M0 -58v9h516v-9h-516z" />
    <glyph glyph-name="uni00AD" unicode="&#xad;" horiz-adv-x="361" 
d="M51 220v25h259v-25h-259z" />
    <glyph glyph-name="hyphen" unicode="-" horiz-adv-x="383" 
d="M59 216v36h264v-36h-264z" />
    <glyph glyph-name="endash" unicode="&#x2013;" horiz-adv-x="577" 
d="M59 216v36h458v-36h-458z" />
    <glyph glyph-name="emdash" unicode="&#x2014;" horiz-adv-x="873" 
d="M59 216v36h754v-36h-754z" />
    <glyph glyph-name="colon" unicode=":" horiz-adv-x="249" 
d="M125 -8c-38 0 -69 30 -69 68s31 68 69 68s68 -30 68 -68s-30 -68 -68 -68zM125 273c-38 0 -69 31 -69 69s31 68 69 68s68 -30 68 -68s-30 -69 -68 -69z" />
    <glyph glyph-name="semicolon" unicode=";" horiz-adv-x="263" 
d="M132 273c-38 0 -69 31 -69 69s31 68 69 68s68 -30 68 -68s-30 -69 -68 -69zM51 -133l-3 5c62 22 115 78 117 140c-10 -8 -23 -12 -38 -12c-35 0 -64 29 -64 64s29 64 69 64c45 0 71 -36 71 -83c0 -66 -49 -142 -152 -178z" />
    <glyph glyph-name="exclam" unicode="!" horiz-adv-x="242" 
d="M117 190c-14 220 -67 302 -67 364c0 46 30 76 70 76c39 0 71 -29 71 -76c0 -62 -52 -144 -66 -364h-8zM121 -8c-38 0 -68 30 -68 68s30 68 68 68s68 -30 68 -68s-30 -68 -68 -68z" />
    <glyph glyph-name="exclamdown" unicode="&#xa1;" horiz-adv-x="230" 
d="M115 -228c-39 0 -71 28 -71 75c0 62 53 145 67 365h8c14 -220 66 -303 66 -365c0 -46 -30 -75 -70 -75zM114 410c38 0 69 -31 69 -69s-31 -68 -69 -68s-68 30 -68 68s30 69 68 69z" />
    <glyph glyph-name="question" unicode="?" horiz-adv-x="517" 
d="M234 190l-4 102c91 24 130 84 130 169c0 87 -38 161 -130 161c-61 0 -100 -32 -120 -67c32 -6 57 -34 57 -69c0 -39 -30 -70 -68 -70s-67 31 -67 72c0 71 89 142 221 142c133 0 230 -71 230 -170c0 -111 -138 -149 -239 -172l-4 -98h-6zM239 -8c-38 0 -68 30 -68 68
s30 68 68 68s68 -30 68 -68s-30 -68 -68 -68z" />
    <glyph glyph-name="questiondown" unicode="&#xbf;" horiz-adv-x="508" 
d="M259 -228c-133 0 -230 71 -230 170c0 110 139 148 239 172l4 98h6l4 -103c-90 -24 -129 -83 -129 -168c0 -87 38 -162 130 -162c61 0 100 32 120 68c-33 5 -57 34 -57 69c0 39 30 70 67 70c38 0 67 -32 67 -73c0 -71 -89 -141 -221 -141zM273 410c38 0 69 -31 69 -69
s-31 -68 -69 -68s-68 30 -68 68s30 69 68 69z" />
    <glyph glyph-name="bracketleft" unicode="[" horiz-adv-x="306" 
d="M66 -168v860h238v-7h-94c-26 0 -47 -10 -47 -43v-761c0 -33 21 -43 47 -43h94v-6h-238z" />
    <glyph glyph-name="bracketright" unicode="]" horiz-adv-x="306" 
d="M1 -168v6h94c26 0 47 10 47 43v761c0 33 -21 43 -47 43h-94v7h239v-860h-239z" />
    <glyph glyph-name="braceleft" unicode="{" horiz-adv-x="339" 
d="M328 -174c-144 0 -201 37 -201 112c0 50 20 96 20 165c0 115 -54 155 -157 155v7c103 0 157 41 157 155c0 70 -20 115 -20 165c0 76 57 113 201 113v-6c-101 -1 -123 -31 -123 -85c0 -80 49 -168 49 -231c0 -84 -87 -105 -211 -112v-5c124 -11 211 -28 211 -112
c0 -63 -49 -151 -49 -231c0 -54 22 -83 123 -85v-5z" />
    <glyph glyph-name="braceright" unicode="}" horiz-adv-x="339" 
d="M10 -169c101 2 123 31 123 85c0 80 -49 168 -49 231c0 84 87 101 211 112v5c-124 7 -211 28 -211 112c0 63 49 151 49 231c0 54 -22 84 -123 85v6c145 0 201 -37 201 -113c0 -50 -20 -95 -20 -165c0 -114 55 -155 157 -155v-7c-102 0 -157 -40 -157 -155
c0 -69 20 -115 20 -165c0 -75 -56 -112 -201 -112v5z" />
    <glyph glyph-name="parenleft" unicode="(" horiz-adv-x="329" 
d="M332 -182c-98 73 -297 197 -297 444s199 371 297 444l3 -5c-78 -58 -189 -197 -189 -439s111 -382 189 -440z" />
    <glyph glyph-name="parenright" unicode=")" horiz-adv-x="329" 
d="M-3 -182l-3 4c78 58 188 198 188 440s-110 381 -188 439l3 5c98 -73 297 -197 297 -444s-199 -371 -297 -444z" />
    <glyph glyph-name="slash" unicode="/" horiz-adv-x="441" 
d="M32 -166l-8 4l383 859l9 -4z" />
    <glyph glyph-name="backslash" unicode="\" horiz-adv-x="441" 
d="M408 -166l-384 859l9 4l383 -859z" />
    <glyph glyph-name="bar" unicode="|" horiz-adv-x="141" 
d="M66 -168v860h9v-860h-9z" />
    <glyph glyph-name="brokenbar" unicode="&#xa6;" horiz-adv-x="149" 
d="M70 -168v400h9v-400h-9zM70 342v350h9v-350h-9z" />
    <glyph glyph-name="dollar" unicode="$" horiz-adv-x="547" 
d="M268 -105v93c-141 2 -229 70 -229 142c0 39 28 71 68 71c39 0 68 -30 68 -69c0 -34 -24 -62 -55 -69c17 -30 61 -68 148 -68v266c-102 40 -212 75 -212 197c0 104 80 170 212 172v66h10v-66c128 -2 207 -64 207 -134c0 -43 -29 -72 -68 -72s-68 30 -68 69
c0 33 22 61 52 68c-17 29 -51 62 -123 62v-242c100 -39 227 -77 227 -210c0 -103 -76 -182 -227 -183v-93h-10zM413 120c0 77 -64 108 -135 137v-261c95 5 135 64 135 124zM146 511c0 -68 55 -99 122 -126v237c-83 -4 -122 -54 -122 -111z" />
    <glyph glyph-name="Euro" unicode="&#x20ac;" horiz-adv-x="659" 
d="M380 -12c-146 0 -257 96 -280 254h-66v9h65c-1 17 -2 34 -2 52c0 25 1 49 6 72h-69v9h70c30 150 143 246 290 246c143 0 213 -90 213 -158c0 -45 -31 -76 -69 -76s-68 32 -68 71c0 37 26 67 61 71c-15 42 -47 84 -119 84c-115 0 -173 -106 -189 -238h211v-9h-212
c-2 -23 -3 -45 -3 -67c0 -18 1 -37 2 -57h213v-9h-212c12 -122 62 -241 185 -241c93 0 158 66 199 160l7 -3c-48 -107 -114 -170 -233 -170z" />
    <glyph glyph-name="cent" unicode="&#xa2;" horiz-adv-x="486" 
d="M259 13v94c-139 0 -215 97 -215 212c0 132 101 214 216 218v83h9v-83c107 0 170 -66 170 -126c0 -40 -27 -68 -63 -68s-63 29 -63 64c0 32 22 58 53 63c-11 29 -37 60 -84 60c-84 0 -118 -100 -118 -200c0 -127 50 -202 135 -202c65 0 114 44 141 94l6 -3
c-28 -49 -81 -107 -178 -112v-94h-9z" />
    <glyph glyph-name="yen" unicode="&#xa5;" horiz-adv-x="735" 
d="M206 0v6c83 0 100 37 100 114v77h-165v9h165v48l-44 75h-121v9h116l-93 157c-39 66 -77 116 -136 116v7h310v-7c-68 0 -85 -40 -45 -110l118 -209h2l63 110c42 73 60 119 60 150c0 33 -20 59 -86 59v7h256v-7c-62 0 -99 -27 -133 -71c-22 -28 -41 -63 -89 -143l-35 -59
h134v-9h-140l-25 -44v-79h165v-9h-165v-77c0 -77 17 -114 100 -114v-6h-312z" />
    <glyph glyph-name="sterling" unicode="&#xa3;" horiz-adv-x="606" 
d="M132 -7c-51 0 -79 29 -79 68c0 46 41 75 109 75c15 0 34 -2 53 -5c-10 63 -53 125 -85 190h-85v9h80c-18 39 -31 78 -31 120c0 112 100 180 232 180c141 0 218 -77 218 -146c0 -44 -30 -75 -68 -75c-37 0 -68 32 -68 71c0 36 26 65 60 69c-18 37 -52 72 -118 72
c-98 0 -133 -76 -133 -169c0 -39 9 -80 18 -122h185v-9h-183c10 -44 21 -90 21 -135c0 -20 -2 -42 -6 -62c59 -11 124 -26 171 -26c83 0 122 42 124 124h6c3 -93 -6 -233 -120 -233c-85 0 -117 75 -186 114c-15 -60 -49 -110 -115 -110zM130 0c58 0 93 52 87 117
c-17 7 -37 10 -60 10c-63 0 -95 -27 -95 -66c0 -32 22 -61 68 -61z" />
    <glyph glyph-name="plus" unicode="+" horiz-adv-x="523" 
d="M257 22v218h-218v10h218v218h9v-218h218v-10h-218v-218h-9z" />
    <glyph glyph-name="plusminus" unicode="&#xb1;" horiz-adv-x="570" 
d="M280 102v218h-217v10h217v218h10v-218h217v-10h-217v-218h-10zM63 0v9h445v-9h-445z" />
    <glyph glyph-name="minus" unicode="&#x2212;" horiz-adv-x="573" 
d="M64 241v9h445v-9h-445z" />
    <glyph glyph-name="multiply" unicode="&#xd7;" horiz-adv-x="463" 
d="M53 59l-7 6l179 179l-179 179l7 6l179 -178l178 178l7 -6l-179 -179l179 -179l-7 -6l-178 179z" />
    <glyph glyph-name="divide" unicode="&#xf7;" horiz-adv-x="580" 
d="M290 363c-26 0 -47 22 -47 47c0 26 21 47 47 47s47 -21 47 -47c0 -25 -21 -47 -47 -47zM290 34c-26 0 -47 22 -47 47c0 26 21 46 47 46s47 -20 47 -46c0 -25 -21 -47 -47 -47zM67 240v10h445v-10h-445z" />
    <glyph glyph-name="equal" unicode="=" horiz-adv-x="574" 
d="M64 347v10h445v-10h-445zM64 134v9h445v-9h-445z" />
    <glyph glyph-name="notequal" unicode="&#x2260;" horiz-adv-x="574" 
d="M125 -2l-8 5l95 161h-151v9h157l121 204h-278v10h284l99 167l8 -5l-96 -162h150v-10h-156l-121 -204h277v-9h-283z" />
    <glyph glyph-name="less" unicode="&#x3c;" horiz-adv-x="470" 
d="M418 45l-388 196v7l388 197v-11l-376 -189l376 -190v-10z" />
    <glyph glyph-name="greater" unicode="&#x3e;" horiz-adv-x="470" 
d="M52 45v10l376 190l-376 189v11l388 -197v-7z" />
    <glyph glyph-name="mu" unicode="&#xb5;" horiz-adv-x="580" 
d="M139 -195c-74 0 -74 133 -74 204v393l114 13v-303c0 -55 24 -82 66 -82s74 27 100 52v320l114 13v-344c0 -36 13 -57 43 -57c19 0 32 8 46 17l2 -6c-32 -22 -67 -35 -108 -35c-66 0 -95 32 -95 84c-36 -37 -93 -85 -163 -85c-51 0 -96 23 -112 79v-42
c0 -95 105 -131 105 -186c0 -18 -11 -35 -38 -35z" />
    <glyph glyph-name="at" unicode="@" horiz-adv-x="805" 
d="M331 52c-75 0 -112 55 -112 131c0 116 87 216 210 216c45 0 75 -14 92 -37l89 32l4 -4l-51 -223c-3 -11 -6 -29 -6 -45c0 -30 11 -55 47 -55c72 0 137 75 137 195c0 168 -130 309 -307 309c-191 0 -345 -164 -345 -370c0 -173 111 -317 286 -317c78 0 160 26 222 74l4 -5
c-66 -53 -146 -80 -227 -80c-183 0 -330 138 -330 330c0 219 192 383 389 383c188 0 322 -149 322 -325c0 -118 -61 -207 -166 -207c-65 0 -106 23 -117 70c-36 -39 -84 -72 -141 -72zM382 82c33 0 62 22 89 51c-1 5 -2 10 -2 15c0 12 2 28 5 40l35 153
c-10 24 -26 48 -60 48c-82 0 -132 -128 -132 -213c0 -55 21 -94 65 -94z" />
    <glyph glyph-name="ampersand" unicode="&#x26;" horiz-adv-x="754" 
d="M283 -12c-137 0 -237 60 -237 159c0 89 81 128 175 162l-20 19c-41 40 -80 91 -80 151c0 93 92 151 213 151c123 0 190 -57 190 -128c0 -94 -118 -118 -190 -143l209 -200c17 38 24 76 26 99c3 47 -10 70 -96 70v7h224v-7c-93 0 -98 -30 -118 -92
c-10 -34 -19 -61 -29 -84l86 -83c49 -48 71 -62 116 -62v-7h-210l-60 58c-45 -43 -110 -70 -199 -70zM323 2c66 0 116 26 153 61l-249 240c-34 -25 -62 -69 -62 -139c0 -84 44 -162 158 -162zM334 623c-62 0 -99 -44 -99 -105c0 -43 18 -79 72 -131l23 -24
c52 30 97 73 97 150c0 59 -26 110 -93 110z" />
    <glyph glyph-name="section" unicode="&#xa7;" horiz-adv-x="470" 
d="M228 -71c-109 0 -176 53 -176 106c0 31 25 54 54 54c31 0 55 -25 55 -55c0 -26 -17 -48 -41 -54c16 -23 46 -46 101 -46c76 0 106 42 106 82c0 118 -272 91 -272 239c0 58 43 91 111 125c-50 24 -91 56 -91 118c0 78 66 132 169 132c102 0 159 -52 159 -104
c0 -34 -25 -54 -54 -54c-30 0 -53 24 -53 54c0 27 17 49 42 54c-13 21 -39 45 -89 45c-64 0 -99 -38 -99 -81c0 -120 270 -92 270 -244c0 -55 -37 -87 -109 -123c50 -24 91 -56 91 -117c0 -76 -63 -131 -174 -131zM304 180c21 14 46 33 46 70c0 74 -98 91 -177 126
c-22 -12 -48 -33 -48 -71c0 -72 99 -88 179 -125z" />
    <glyph glyph-name="paragraph" unicode="&#xb6;" horiz-adv-x="491" 
d="M246 -59v341c-139 0 -215 76 -215 166c0 96 86 170 210 170h211v-8h-59v-669h-9v669h-128v-669h-10z" />
    <glyph glyph-name="numbersign" unicode="#" horiz-adv-x="533" 
d="M85 0l40 181h-91v9h93l53 239h-99v10h102l40 179h11l-40 -179h209l40 179h11l-40 -179h86v-10h-89l-53 -239h95v-9h-97l-40 -181h-11l40 181h-209l-40 -181h-11zM138 190h209l53 239h-209z" />
    <glyph glyph-name="guilsinglleft" unicode="&#x2039;" horiz-adv-x="352" 
d="M314 23l-289 199v3l289 200l3 -5l-214 -196l214 -197z" />
    <glyph glyph-name="guilsinglright" unicode="&#x203a;" horiz-adv-x="352" 
d="M38 23l-3 4l213 197l-213 196l3 5l289 -200v-3z" />
    <glyph glyph-name="guillemotleft" unicode="&#xab;" horiz-adv-x="585" 
d="M314 23l-289 199v3l289 200l3 -5l-214 -196l214 -197zM547 23l-289 199v3l289 200l3 -5l-213 -196l213 -197z" />
    <glyph glyph-name="guillemotright" unicode="&#xbb;" horiz-adv-x="585" 
d="M38 23l-3 4l213 197l-213 196l3 5l289 -200v-3zM271 23l-3 4l214 197l-214 196l3 5l289 -200v-3z" />
    <glyph glyph-name="dieresis" unicode="&#xa8;" horiz-adv-x="475" 
d="M149 491c-33 0 -61 27 -61 61c0 33 26 61 60 61c33 0 61 -27 61 -61s-28 -61 -60 -61zM326 491c-33 0 -60 27 -60 61c0 33 26 61 60 61c33 0 61 -27 61 -61s-28 -61 -61 -61z" />
    <glyph glyph-name="grave" unicode="`" horiz-adv-x="328" 
d="M266 472c-81 43 -146 73 -170 94c-25 21 -28 48 -12 67c17 19 45 20 69 -1s62 -84 115 -158z" />
    <glyph glyph-name="tilde" unicode="&#x2dc;" horiz-adv-x="405" 
d="M58 486c5 54 15 141 82 141c52 0 104 -54 158 -54c43 0 50 33 53 61l5 -1c-5 -62 -19 -140 -82 -140c-51 0 -103 54 -157 54c-43 0 -50 -34 -54 -61h-5z" />
    <glyph glyph-name="circumflex" unicode="&#x2c6;" horiz-adv-x="442" 
d="M76 466l-2 2l112 144c9 13 20 20 36 20c15 0 26 -7 36 -20l111 -144l-2 -2l-145 80z" />
    <glyph glyph-name="acute" unicode="&#xb4;" horiz-adv-x="328" 
d="M69 473l-2 2c52 73 91 136 115 157s52 20 69 1c16 -19 13 -46 -12 -67c-24 -21 -90 -51 -170 -93z" />
    <glyph glyph-name="ring" unicode="&#x2da;" horiz-adv-x="329" 
d="M164 464c-66 0 -114 40 -114 98c0 59 48 99 114 99s115 -40 115 -99c0 -58 -49 -98 -115 -98zM164 468c36 0 40 54 40 94s-4 94 -40 94s-40 -54 -40 -94s4 -94 40 -94z" />
    <glyph glyph-name="cedilla" unicode="&#xb8;" horiz-adv-x="327" 
d="M151 -219c-48 0 -89 13 -116 32l3 5c19 -12 50 -22 78 -22c49 0 79 30 79 71c0 36 -22 64 -63 64c-15 0 -28 -4 -38 -8l-2 2l65 70l9 -2l-53 -57c13 4 32 7 55 7c67 0 114 -27 114 -78c0 -62 -70 -84 -131 -84z" />
    <glyph glyph-name="caron" unicode="&#x2c7;" horiz-adv-x="433" 
d="M222 465c-16 0 -27 7 -36 20l-112 144l2 2l146 -80l145 80l2 -2l-111 -144c-10 -13 -21 -20 -36 -20z" />
    <glyph glyph-name="ogonek" unicode="&#x2db;" horiz-adv-x="343" 
d="M170 -216c-64 0 -105 28 -105 80c0 86 121 115 183 145l3 -5c-43 -22 -94 -51 -94 -121c0 -54 29 -78 78 -78c21 0 38 4 50 8l2 -5c-31 -13 -77 -24 -117 -24z" />
    <glyph glyph-name="breve" unicode="&#x2d8;" horiz-adv-x="353" 
d="M178 476c-96 0 -119 101 -119 164h2c9 -39 37 -83 117 -83c81 0 108 44 117 83h3c0 -63 -24 -164 -120 -164z" />
    <glyph glyph-name="hungarumlaut" unicode="&#x2dd;" horiz-adv-x="461" 
d="M79 471l-2 1c34 74 59 138 77 160c17 23 42 26 60 13c17 -13 23 -36 3 -61c-18 -23 -73 -62 -138 -113zM241 471l-2 1c34 74 59 138 77 160c17 23 42 26 60 13c17 -13 23 -36 3 -61c-18 -23 -73 -62 -138 -113z" />
    <glyph glyph-name="dotaccent" unicode="&#x2d9;" horiz-adv-x="292" 
d="M151 491c-36 0 -64 29 -64 64s28 64 64 64c35 0 64 -29 64 -64s-29 -64 -64 -64z" />
    <glyph glyph-name="macron" unicode="&#xaf;" horiz-adv-x="424" 
d="M73 500v34h278v-34h-278z" />
    <glyph glyph-name="agrave" unicode="&#xe0;" horiz-adv-x="512" 
d="M177 -11c-83 0 -139 44 -139 114c0 80 75 115 166 115c39 0 81 -7 112 -17v101c0 64 -18 111 -86 111c-49 0 -76 -24 -93 -50c24 -9 40 -33 40 -58c0 -34 -26 -60 -61 -60c-38 0 -60 32 -60 64c0 59 73 110 179 110c93 0 195 -40 195 -149v-220c0 -27 13 -35 28 -35
c31 0 56 38 67 58l6 -4c-23 -39 -55 -78 -116 -78c-51 0 -85 27 -95 68c-26 -36 -69 -70 -143 -70zM227 13c36 0 66 23 89 53v127c-21 6 -46 13 -71 13c-56 0 -89 -32 -89 -99c0 -57 25 -94 71 -94zM328 472c-81 43 -146 73 -170 94c-25 21 -28 48 -12 67c17 19 45 20 69 -1
s62 -84 115 -158z" />
    <glyph glyph-name="aacute" unicode="&#xe1;" horiz-adv-x="512" 
d="M177 -11c-83 0 -139 44 -139 114c0 80 75 115 166 115c39 0 81 -7 112 -17v101c0 64 -18 111 -86 111c-49 0 -76 -24 -93 -50c24 -9 40 -33 40 -58c0 -34 -26 -60 -61 -60c-38 0 -60 32 -60 64c0 59 73 110 179 110c93 0 195 -40 195 -149v-220c0 -27 13 -35 28 -35
c31 0 56 38 67 58l6 -4c-23 -39 -55 -78 -116 -78c-51 0 -85 27 -95 68c-26 -36 -69 -70 -143 -70zM227 13c36 0 66 23 89 53v127c-21 6 -46 13 -71 13c-56 0 -89 -32 -89 -99c0 -57 25 -94 71 -94zM165 473l-2 2c53 73 91 136 115 157s53 20 69 1s13 -46 -11 -67
c-25 -21 -90 -51 -171 -93z" />
    <glyph glyph-name="acircumflex" unicode="&#xe2;" horiz-adv-x="512" 
d="M177 -11c-83 0 -139 44 -139 114c0 80 75 115 166 115c39 0 81 -7 112 -17v101c0 64 -18 111 -86 111c-49 0 -76 -24 -93 -50c24 -9 40 -33 40 -58c0 -34 -26 -60 -61 -60c-38 0 -60 32 -60 64c0 59 73 110 179 110c93 0 195 -40 195 -149v-220c0 -27 13 -35 28 -35
c31 0 56 38 67 58l6 -4c-23 -39 -55 -78 -116 -78c-51 0 -85 27 -95 68c-26 -36 -69 -70 -143 -70zM227 13c36 0 66 23 89 53v127c-21 6 -46 13 -71 13c-56 0 -89 -32 -89 -99c0 -57 25 -94 71 -94zM99 466l-2 2l111 144c10 13 21 20 36 20c16 0 27 -7 36 -20l112 -144
l-2 -2l-146 80z" />
    <glyph glyph-name="adieresis" unicode="&#xe4;" horiz-adv-x="512" 
d="M177 -11c-83 0 -139 44 -139 114c0 80 75 115 166 115c39 0 81 -7 112 -17v101c0 64 -18 111 -86 111c-49 0 -76 -24 -93 -50c24 -9 40 -33 40 -58c0 -34 -26 -60 -61 -60c-38 0 -60 32 -60 64c0 59 73 110 179 110c93 0 195 -40 195 -149v-220c0 -27 13 -35 28 -35
c31 0 56 38 67 58l6 -4c-23 -39 -55 -78 -116 -78c-51 0 -85 27 -95 68c-26 -36 -69 -70 -143 -70zM227 13c36 0 66 23 89 53v127c-21 6 -46 13 -71 13c-56 0 -89 -32 -89 -99c0 -57 25 -94 71 -94zM155 491c-33 0 -61 27 -61 61c0 33 26 61 60 61c33 0 61 -27 61 -61
s-28 -61 -60 -61zM332 491c-33 0 -60 27 -60 61c0 33 26 61 60 61c33 0 61 -27 61 -61s-28 -61 -61 -61z" />
    <glyph glyph-name="atilde" unicode="&#xe3;" horiz-adv-x="512" 
d="M177 -11c-83 0 -139 44 -139 114c0 80 75 115 166 115c39 0 81 -7 112 -17v101c0 64 -18 111 -86 111c-49 0 -76 -24 -93 -50c24 -9 40 -33 40 -58c0 -34 -26 -60 -61 -60c-38 0 -60 32 -60 64c0 59 73 110 179 110c93 0 195 -40 195 -149v-220c0 -27 13 -35 28 -35
c31 0 56 38 67 58l6 -4c-23 -39 -55 -78 -116 -78c-51 0 -85 27 -95 68c-26 -36 -69 -70 -143 -70zM227 13c36 0 66 23 89 53v127c-21 6 -46 13 -71 13c-56 0 -89 -32 -89 -99c0 -57 25 -94 71 -94zM95 486c5 54 15 141 81 141c52 0 105 -54 158 -54c43 0 50 33 54 61l5 -1
c-6 -62 -20 -140 -82 -140c-52 0 -104 54 -158 54c-43 0 -50 -34 -53 -61h-5z" />
    <glyph glyph-name="aring" unicode="&#xe5;" horiz-adv-x="512" 
d="M177 -11c-83 0 -139 44 -139 114c0 80 75 115 166 115c39 0 81 -7 112 -17v101c0 64 -18 111 -86 111c-49 0 -76 -24 -93 -50c24 -9 40 -33 40 -58c0 -34 -26 -60 -61 -60c-38 0 -60 32 -60 64c0 59 73 110 179 110c93 0 195 -40 195 -149v-220c0 -27 13 -35 28 -35
c31 0 56 38 67 58l6 -4c-23 -39 -55 -78 -116 -78c-51 0 -85 27 -95 68c-26 -36 -69 -70 -143 -70zM227 13c36 0 66 23 89 53v127c-21 6 -46 13 -71 13c-56 0 -89 -32 -89 -99c0 -57 25 -94 71 -94zM240 464c-66 0 -114 40 -114 98c0 59 48 99 114 99s115 -40 115 -99
c0 -58 -49 -98 -115 -98zM240 468c36 0 40 54 40 94s-4 94 -40 94s-40 -54 -40 -94s4 -94 40 -94z" />
    <glyph glyph-name="ae" unicode="&#xe6;" horiz-adv-x="758" 
d="M179 -11c-87 0 -142 44 -142 114c0 80 75 115 166 115c40 0 81 -7 112 -17v101c0 64 -17 111 -86 111c-48 0 -76 -24 -92 -50c24 -9 40 -33 40 -58c0 -34 -27 -60 -61 -60c-38 0 -60 32 -60 64c0 59 72 110 178 110c59 0 115 -17 148 -57c36 36 86 57 144 57
c107 0 193 -67 196 -192h-294c-3 -133 46 -217 140 -217c72 0 121 51 147 94l6 -4c-30 -48 -85 -111 -197 -111c-83 0 -142 34 -175 88c-29 -39 -80 -88 -170 -88zM234 13c49 0 86 37 110 72c-19 32 -28 69 -29 108c-21 6 -46 13 -70 13c-56 0 -90 -33 -90 -96
c0 -60 30 -97 79 -97zM524 412c-62 0 -92 -91 -96 -176h179c0 52 -9 176 -83 176z" />
    <glyph glyph-name="ccedilla" unicode="&#xe7;" horiz-adv-x="469" 
d="M223 -219c-48 0 -89 13 -116 32l3 5c19 -12 50 -22 78 -22c49 0 79 30 79 71c0 36 -22 64 -63 64c-15 0 -28 -4 -38 -8l-2 2l59 65c-118 11 -186 103 -186 211c0 136 107 218 225 218c106 0 170 -65 170 -126c0 -40 -27 -68 -63 -68s-63 29 -63 64c0 32 22 58 53 63
c-11 29 -37 60 -84 60c-84 0 -118 -100 -118 -200c0 -127 50 -202 135 -202c65 0 114 44 141 94l6 -3c-40 -66 -107 -116 -205 -111l-49 -54c13 4 32 7 55 7c67 0 114 -27 114 -78c0 -62 -70 -84 -131 -84z" />
    <glyph glyph-name="egrave" unicode="&#xe8;" horiz-adv-x="487" 
d="M254 -11c-142 0 -217 103 -217 216c0 126 93 214 217 214c109 0 194 -67 197 -192h-294c-3 -133 46 -217 140 -217c72 0 121 51 147 94l6 -4c-30 -48 -86 -111 -196 -111zM253 412c-62 0 -92 -91 -96 -176h177c0 52 -7 176 -81 176zM335 472c-81 43 -146 73 -170 94
c-25 21 -28 48 -12 67c17 19 45 20 69 -1s62 -84 115 -158z" />
    <glyph glyph-name="eacute" unicode="&#xe9;" horiz-adv-x="487" 
d="M254 -11c-142 0 -217 103 -217 216c0 126 93 214 217 214c109 0 194 -67 197 -192h-294c-3 -133 46 -217 140 -217c72 0 121 51 147 94l6 -4c-30 -48 -86 -111 -196 -111zM253 412c-62 0 -92 -91 -96 -176h177c0 52 -7 176 -81 176zM169 473l-2 2c53 73 91 136 115 157
s53 20 69 1s13 -46 -11 -67c-25 -21 -90 -51 -171 -93z" />
    <glyph glyph-name="ecircumflex" unicode="&#xea;" horiz-adv-x="487" 
d="M254 -11c-142 0 -217 103 -217 216c0 126 93 214 217 214c109 0 194 -67 197 -192h-294c-3 -133 46 -217 140 -217c72 0 121 51 147 94l6 -4c-30 -48 -86 -111 -196 -111zM253 412c-62 0 -92 -91 -96 -176h177c0 52 -7 176 -81 176zM105 466l-2 2l112 144
c9 13 20 20 36 20c15 0 26 -7 36 -20l111 -144l-2 -2l-145 80z" />
    <glyph glyph-name="edieresis" unicode="&#xeb;" horiz-adv-x="487" 
d="M254 -11c-142 0 -217 103 -217 216c0 126 93 214 217 214c109 0 194 -67 197 -192h-294c-3 -133 46 -217 140 -217c72 0 121 51 147 94l6 -4c-30 -48 -86 -111 -196 -111zM253 412c-62 0 -92 -91 -96 -176h177c0 52 -7 176 -81 176zM164 491c-33 0 -61 27 -61 61
c0 33 26 61 60 61c33 0 61 -27 61 -61s-28 -61 -60 -61zM341 491c-33 0 -60 27 -60 61c0 33 26 61 60 61c33 0 61 -27 61 -61s-28 -61 -61 -61z" />
    <glyph glyph-name="eth" unicode="&#xf0;" horiz-adv-x="539" 
d="M262 -12c-144 0 -224 87 -224 205c0 131 99 205 221 205c39 0 71 -9 97 -21c-18 64 -48 125 -96 178l-151 -83l-5 7l150 82c-33 36 -75 68 -125 95l3 6c46 -25 97 -54 145 -89l114 63l4 -8l-110 -60c113 -82 212 -192 212 -339c0 -119 -64 -241 -235 -241zM262 -4
c91 0 113 122 113 222c0 51 -5 101 -17 147c-19 12 -43 20 -70 20c-95 0 -130 -88 -130 -199c0 -87 20 -190 104 -190z" />
    <glyph glyph-name="igrave" unicode="&#xec;" horiz-adv-x="289" 
d="M21 0v6c54 0 70 19 70 69v248c0 50 -16 69 -70 69v6l184 20v-343c0 -50 16 -69 70 -69v-6h-254zM224 472c-81 43 -146 73 -170 94c-25 21 -28 48 -12 67c17 19 45 20 69 -1s62 -84 115 -158z" />
    <glyph glyph-name="iacute" unicode="&#xed;" horiz-adv-x="289" 
d="M21 0v6c54 0 70 19 70 69v248c0 50 -16 69 -70 69v6l184 20v-343c0 -50 16 -69 70 -69v-6h-254zM52 473l-2 2c53 73 91 136 115 157s53 20 69 1s13 -46 -11 -67c-25 -21 -90 -51 -171 -93z" />
    <glyph glyph-name="icircumflex" unicode="&#xee;" horiz-adv-x="290" 
d="M22 0v6c54 0 70 19 70 69v248c0 50 -16 69 -70 69v6l184 20v-343c0 -50 16 -69 70 -69v-6h-254zM-5 466l-2 2l111 144c10 13 21 20 36 20c16 0 27 -7 36 -20l112 -144l-2 -2l-146 80z" />
    <glyph glyph-name="idieresis" unicode="&#xef;" horiz-adv-x="289" 
d="M21 0v6c54 0 70 19 70 69v248c0 50 -16 69 -70 69v6l184 20v-343c0 -50 16 -69 70 -69v-6h-254zM51 491c-33 0 -61 27 -61 61c0 33 26 61 60 61c33 0 61 -27 61 -61s-28 -61 -60 -61zM228 491c-33 0 -60 27 -60 61c0 33 26 61 60 61c33 0 61 -27 61 -61s-28 -61 -61 -61z
" />
    <glyph glyph-name="dotlessi" unicode="&#x131;" horiz-adv-x="289" 
d="M21 0v6c54 0 70 19 70 69v248c0 50 -16 69 -70 69v6l184 20v-343c0 -50 16 -69 70 -69v-6h-254z" />
    <glyph glyph-name="lslash" unicode="&#x142;" horiz-adv-x="289" 
d="M12 254l-4 8l80 37v274c0 50 -16 69 -70 69v6l184 20v-319l78 36l4 -8l-82 -38v-264c0 -50 16 -69 70 -69v-6h-254v6c54 0 70 19 70 69v214z" />
    <glyph glyph-name="ntilde" unicode="&#xf1;" horiz-adv-x="564" 
d="M20 0v6c54 0 70 19 70 69v248c0 50 -16 69 -70 69v6l182 20v-85c35 37 92 86 163 86c64 0 119 -38 119 -132v-212c0 -50 16 -69 70 -69v-6h-249v6c48 0 65 19 65 69v221c0 54 -24 82 -66 82c-43 0 -75 -28 -100 -53v-250c0 -50 17 -69 65 -69v-6h-249zM139 486
c5 54 15 141 82 141c52 0 104 -54 158 -54c43 0 50 33 53 61l5 -1c-5 -62 -19 -140 -82 -140c-51 0 -103 54 -157 54c-43 0 -50 -34 -54 -61h-5z" />
    <glyph glyph-name="ograve" unicode="&#xf2;" horiz-adv-x="531" 
d="M265 -11c-119 0 -228 78 -228 215s109 215 228 215s228 -78 228 -215s-109 -215 -228 -215zM265 -3c76 0 106 81 106 207c0 125 -30 207 -106 207s-105 -82 -105 -207c0 -126 29 -207 105 -207zM346 472c-80 43 -145 73 -170 94c-24 21 -27 48 -11 67s45 20 69 -1
s62 -84 114 -158z" />
    <glyph glyph-name="oacute" unicode="&#xf3;" horiz-adv-x="531" 
d="M265 -11c-119 0 -228 78 -228 215s109 215 228 215s228 -78 228 -215s-109 -215 -228 -215zM265 -3c76 0 106 81 106 207c0 125 -30 207 -106 207s-105 -82 -105 -207c0 -126 29 -207 105 -207zM187 473l-2 2c52 73 91 136 115 157s52 20 69 1c16 -19 13 -46 -12 -67
c-24 -21 -90 -51 -170 -93z" />
    <glyph glyph-name="ocircumflex" unicode="&#xf4;" horiz-adv-x="531" 
d="M265 -11c-119 0 -228 78 -228 215s109 215 228 215s228 -78 228 -215s-109 -215 -228 -215zM265 -3c76 0 106 81 106 207c0 125 -30 207 -106 207s-105 -82 -105 -207c0 -126 29 -207 105 -207zM120 466l-2 2l112 144c9 13 20 20 36 20c15 0 26 -7 36 -20l111 -144l-2 -2
l-145 80z" />
    <glyph glyph-name="odieresis" unicode="&#xf6;" horiz-adv-x="531" 
d="M265 -11c-119 0 -228 78 -228 215s109 215 228 215s228 -78 228 -215s-109 -215 -228 -215zM265 -3c76 0 106 81 106 207c0 125 -30 207 -106 207s-105 -82 -105 -207c0 -126 29 -207 105 -207zM177 491c-33 0 -61 27 -61 61c0 33 26 61 60 61s61 -27 61 -61
s-27 -61 -60 -61zM355 491c-33 0 -61 27 -61 61c0 33 26 61 60 61s61 -27 61 -61s-27 -61 -60 -61z" />
    <glyph glyph-name="otilde" unicode="&#xf5;" horiz-adv-x="531" 
d="M265 -11c-119 0 -228 78 -228 215s109 215 228 215s228 -78 228 -215s-109 -215 -228 -215zM265 -3c76 0 106 81 106 207c0 125 -30 207 -106 207s-105 -82 -105 -207c0 -126 29 -207 105 -207zM116 486c5 54 15 141 82 141c52 0 104 -54 158 -54c43 0 50 33 53 61l5 -1
c-5 -62 -19 -140 -82 -140c-51 0 -103 54 -157 54c-43 0 -50 -34 -54 -61h-5z" />
    <glyph glyph-name="oslash" unicode="&#xf8;" horiz-adv-x="531" 
d="M265 -11c-53 0 -104 15 -144 44l-46 -52l-6 5l45 52c-47 37 -77 93 -77 166c0 137 109 215 228 215c53 0 104 -16 144 -45l46 53l6 -5l-46 -53c47 -36 78 -93 78 -165c0 -137 -109 -215 -228 -215zM265 -3c76 0 106 81 106 207c0 39 -4 75 -13 103l-183 -215
c14 -61 43 -95 90 -95zM265 411c-76 0 -105 -82 -105 -207c0 -40 3 -75 12 -103l183 215c-15 61 -43 95 -90 95z" />
    <glyph glyph-name="oe" unicode="&#x153;" horiz-adv-x="822" 
d="M266 -11c-122 0 -229 78 -229 215s107 215 229 215c66 0 127 -25 166 -72c36 45 92 72 158 72c107 0 193 -67 195 -192h-294c-2 -133 47 -217 140 -217c73 0 122 51 147 94l6 -4c-29 -48 -85 -111 -196 -111c-71 0 -124 25 -158 68c-40 -45 -100 -68 -164 -68zM266 -3
c76 0 106 81 106 207c0 125 -30 207 -106 207s-106 -82 -106 -207c0 -126 30 -207 106 -207zM587 412c-62 0 -91 -91 -95 -176h179c-1 52 -10 176 -84 176z" />
    <glyph glyph-name="scaron" unicode="&#x161;" horiz-adv-x="425" 
d="M206 -11c-53 0 -115 10 -154 18l-6 128l5 1c29 -66 61 -141 153 -141c68 0 91 41 91 74c0 112 -245 69 -245 227c0 75 56 123 163 123c58 0 96 -14 144 -3l7 -134l-5 -1c-24 56 -63 132 -142 132c-56 0 -80 -36 -80 -70c0 -108 247 -69 247 -226
c0 -80 -64 -128 -178 -128zM213 465c-15 0 -26 7 -36 20l-111 144l2 2l145 -80l146 80l2 -2l-112 -144c-9 -13 -20 -20 -36 -20z" />
    <glyph glyph-name="ugrave" unicode="&#xf9;" 
d="M199 -11c-64 0 -119 38 -119 132v200c0 50 -16 71 -70 71v6l184 20v-306c0 -55 24 -82 66 -82s74 27 100 52v239c0 50 -17 71 -65 71v6l179 20v-341c0 -50 16 -71 70 -71v-6h-182v74c-36 -37 -93 -85 -163 -85zM337 472c-80 43 -145 73 -170 94c-24 21 -27 48 -11 67
s45 20 69 -1s62 -84 114 -158z" />
    <glyph glyph-name="uacute" unicode="&#xfa;" 
d="M199 -11c-64 0 -119 38 -119 132v200c0 50 -16 71 -70 71v6l184 20v-306c0 -55 24 -82 66 -82s74 27 100 52v239c0 50 -17 71 -65 71v6l179 20v-341c0 -50 16 -71 70 -71v-6h-182v74c-36 -37 -93 -85 -163 -85zM196 473l-2 2c52 73 91 136 115 157s52 20 69 1
c16 -19 13 -46 -12 -67c-24 -21 -90 -51 -170 -93z" />
    <glyph glyph-name="ucircumflex" unicode="&#xfb;" 
d="M199 -11c-64 0 -119 38 -119 132v200c0 50 -16 71 -70 71v6l184 20v-306c0 -55 24 -82 66 -82s74 27 100 52v239c0 50 -17 71 -65 71v6l179 20v-341c0 -50 16 -71 70 -71v-6h-182v74c-36 -37 -93 -85 -163 -85zM123 466l-2 2l112 144c9 13 20 20 36 20c15 0 26 -7 36 -20
l111 -144l-2 -2l-145 80z" />
    <glyph glyph-name="udieresis" unicode="&#xfc;" 
d="M199 -11c-64 0 -119 38 -119 132v200c0 50 -16 71 -70 71v6l184 20v-306c0 -55 24 -82 66 -82s74 27 100 52v239c0 50 -17 71 -65 71v6l179 20v-341c0 -50 16 -71 70 -71v-6h-182v74c-36 -37 -93 -85 -163 -85zM181 491c-33 0 -61 27 -61 61c0 33 26 61 60 61
c33 0 61 -27 61 -61s-28 -61 -60 -61zM358 491c-33 0 -60 27 -60 61c0 33 26 61 60 61c33 0 61 -27 61 -61s-28 -61 -61 -61z" />
    <glyph glyph-name="yacute" unicode="&#xfd;" horiz-adv-x="493" 
d="M89 -174c-35 0 -49 16 -49 39c0 74 156 22 197 112l8 18l-149 312c-26 58 -54 94 -105 94v7h277v-7c-68 0 -77 -32 -53 -86l85 -196l36 85c31 77 46 120 46 147c0 30 -16 50 -64 50v7h193v-7c-44 0 -78 -20 -102 -60c-17 -26 -35 -71 -66 -142l-102 -232
c-23 -52 -72 -141 -152 -141zM197 473l-2 2c53 73 91 136 115 157s53 20 69 1s13 -46 -11 -67c-25 -21 -90 -51 -171 -93z" />
    <glyph glyph-name="ydieresis" unicode="&#xff;" horiz-adv-x="493" 
d="M89 -174c-35 0 -49 16 -49 39c0 74 156 22 197 112l8 18l-149 312c-26 58 -54 94 -105 94v7h277v-7c-68 0 -77 -32 -53 -86l85 -196l36 85c31 77 46 120 46 147c0 30 -16 50 -64 50v7h193v-7c-44 0 -78 -20 -102 -60c-17 -26 -35 -71 -66 -142l-102 -232
c-23 -52 -72 -141 -152 -141zM181 491c-33 0 -61 27 -61 61c0 33 26 61 60 61c33 0 61 -27 61 -61s-28 -61 -60 -61zM358 491c-33 0 -60 27 -60 61c0 33 26 61 60 61c33 0 61 -27 61 -61s-28 -61 -61 -61z" />
    <glyph glyph-name="zcaron" unicode="&#x17e;" horiz-adv-x="457" 
d="M37 0l-3 3l253 398h-86c-82 0 -132 -86 -153 -157h-6l16 164h354l3 -4l-252 -396h93c88 0 135 92 158 154l6 -1l-17 -161h-366zM237 465c-16 0 -27 7 -36 20l-112 144l2 2l146 -80l145 80l2 -2l-111 -144c-10 -13 -21 -20 -36 -20z" />
    <glyph glyph-name="thorn" unicode="&#xfe;" horiz-adv-x="532" 
d="M287 -11c-50 0 -87 14 -108 35v-114c0 -50 22 -67 75 -67v-6h-259v6c54 0 70 21 70 71v659c0 50 -16 69 -70 69v6l184 20v-315c29 35 72 66 134 66c111 0 181 -101 181 -215c0 -120 -77 -215 -207 -215zM263 -3c76 0 110 105 110 201c0 103 -33 189 -110 189
c-39 0 -65 -21 -84 -46v-270c6 -38 38 -74 84 -74z" />
    <glyph glyph-name="germandbls" unicode="&#xdf;" horiz-adv-x="622" 
d="M20 0v6c54 0 80 16 80 71v319h-85v12h85v68c0 120 90 183 205 183c146 0 202 -111 219 -203c-63 -11 -157 -17 -157 -84c0 -102 231 -107 231 -256c0 -71 -54 -127 -176 -127c-46 0 -102 8 -143 18l-6 128l5 1c23 -52 53 -141 146 -141c68 0 84 47 84 76
c0 106 -224 115 -224 250c0 69 59 101 139 121c-7 73 -24 211 -122 211c-58 0 -87 -49 -87 -120v-533h-194z" />
    <glyph glyph-name="Agrave" unicode="&#xc0;" horiz-adv-x="666" 
d="M-36 0v6c110 0 145 111 185 203l177 413h6l220 -483c30 -66 68 -133 135 -133v-6h-329v6c71 0 94 48 60 126l-34 76h-224l-8 -21c-34 -89 -45 -181 74 -181v-6h-262zM165 218h215l-110 250zM418 672c-81 43 -146 73 -170 94c-25 21 -28 48 -12 67c17 19 45 20 69 -1
s62 -84 115 -158z" />
    <glyph glyph-name="Aacute" unicode="&#xc1;" horiz-adv-x="666" 
d="M-36 0v6c110 0 145 111 185 203l177 413h6l220 -483c30 -66 68 -133 135 -133v-6h-329v6c71 0 94 48 60 126l-34 76h-224l-8 -21c-34 -89 -45 -181 74 -181v-6h-262zM165 218h215l-110 250zM251 673l-2 2c52 73 91 136 115 157s52 20 69 1c16 -19 13 -46 -12 -67
c-24 -21 -90 -51 -170 -93z" />
    <glyph glyph-name="Acircumflex" unicode="&#xc2;" horiz-adv-x="666" 
d="M-36 0v6c110 0 145 111 185 203l177 413h6l220 -483c30 -66 68 -133 135 -133v-6h-329v6c71 0 94 48 60 126l-34 76h-224l-8 -21c-34 -89 -45 -181 74 -181v-6h-262zM165 218h215l-110 250zM183 666l-2 2l112 144c9 13 20 20 36 20c15 0 26 -7 36 -20l111 -144l-2 -2
l-145 80z" />
    <glyph glyph-name="Adieresis" unicode="&#xc4;" horiz-adv-x="666" 
d="M-36 0v6c110 0 145 111 185 203l177 413h6l220 -483c30 -66 68 -133 135 -133v-6h-329v6c71 0 94 48 60 126l-34 76h-224l-8 -21c-34 -89 -45 -181 74 -181v-6h-262zM165 218h215l-110 250zM239 691c-33 0 -61 27 -61 61c0 33 26 61 60 61c33 0 61 -27 61 -61
s-28 -61 -60 -61zM416 691c-33 0 -60 27 -60 61c0 33 26 61 60 61c33 0 61 -27 61 -61s-28 -61 -61 -61z" />
    <glyph glyph-name="Atilde" unicode="&#xc3;" horiz-adv-x="666" 
d="M-36 0v6c110 0 145 111 185 203l177 413h6l220 -483c30 -66 68 -133 135 -133v-6h-329v6c71 0 94 48 60 126l-34 76h-224l-8 -21c-34 -89 -45 -181 74 -181v-6h-262zM165 218h215l-110 250zM179 686c5 54 15 141 81 141c52 0 105 -54 158 -54c43 0 50 33 54 61l5 -1
c-6 -62 -20 -140 -82 -140c-52 0 -104 54 -158 54c-43 0 -50 -34 -53 -61h-5z" />
    <glyph glyph-name="Aring" unicode="&#xc5;" horiz-adv-x="666" 
d="M-36 0v6c110 0 145 111 185 203l177 413h6l220 -483c30 -66 68 -133 135 -133v-6h-329v6c71 0 94 48 60 126l-34 76h-224l-8 -21c-34 -89 -45 -181 74 -181v-6h-262zM165 218h215l-110 250zM328 664c-66 0 -115 40 -115 98c0 59 49 99 115 99s114 -40 114 -99
c0 -58 -48 -98 -114 -98zM328 668c35 0 39 54 39 94s-4 94 -39 94c-36 0 -41 -54 -41 -94s5 -94 41 -94z" />
    <glyph glyph-name="AE" unicode="&#xc6;" horiz-adv-x="996" 
d="M-41 0v6c102 0 179 106 245 199l266 381c-12 18 -35 25 -75 25v7h526l14 -193l-5 -1c-26 116 -82 186 -248 186h-72v-298h23c124 0 171 45 189 138h5v-283h-5c-18 92 -65 137 -189 137h-23v-297h81c175 0 221 95 250 200l5 -1l-19 -206h-532v6c78 0 90 23 90 94v121h-258
l-15 -23c-74 -105 -92 -192 24 -192v-6h-277zM233 230h252v287c0 27 -1 47 -10 61z" />
    <glyph glyph-name="Ccedilla" unicode="&#xc7;" horiz-adv-x="679" 
d="M357 -219c-47 0 -88 13 -116 32l4 5c18 -12 49 -22 77 -22c50 0 79 30 79 71c0 36 -21 64 -63 64c-14 0 -27 -4 -37 -8l-3 2l60 65c-200 13 -315 144 -315 316c0 193 145 324 350 324c82 0 150 -21 222 -2l17 -203l-5 -1c-57 138 -128 199 -230 199
c-159 0 -219 -152 -219 -315c0 -160 57 -314 213 -314c120 0 198 91 249 211h5l-33 -187c-76 -23 -160 -33 -244 -29l-49 -53c13 4 33 7 55 7c67 0 114 -27 114 -78c0 -62 -70 -84 -131 -84z" />
    <glyph glyph-name="Egrave" unicode="&#xc8;" horiz-adv-x="630" 
d="M29 0v6c78 0 90 23 90 94v417c0 71 -12 94 -90 94v7h526l14 -193l-5 -1c-26 116 -82 186 -248 186h-72v-298h23c124 0 171 45 189 138h5v-283h-5c-18 92 -65 137 -189 137h-23v-297h81c175 0 221 95 250 200l5 -1l-19 -206h-532zM404 672c-80 43 -145 73 -170 94
c-24 21 -27 48 -11 67s45 20 69 -1s62 -84 114 -158z" />
    <glyph glyph-name="Eacute" unicode="&#xc9;" horiz-adv-x="630" 
d="M29 0v6c78 0 90 23 90 94v417c0 71 -12 94 -90 94v7h526l14 -193l-5 -1c-26 116 -82 186 -248 186h-72v-298h23c124 0 171 45 189 138h5v-283h-5c-18 92 -65 137 -189 137h-23v-297h81c175 0 221 95 250 200l5 -1l-19 -206h-532zM255 673l-2 2c53 73 91 136 115 157
s53 20 69 1s13 -46 -11 -67c-25 -21 -90 -51 -171 -93z" />
    <glyph glyph-name="Ecircumflex" unicode="&#xca;" horiz-adv-x="630" 
d="M29 0v6c78 0 90 23 90 94v417c0 71 -12 94 -90 94v7h526l14 -193l-5 -1c-26 116 -82 186 -248 186h-72v-298h23c124 0 171 45 189 138h5v-283h-5c-18 92 -65 137 -189 137h-23v-297h81c175 0 221 95 250 200l5 -1l-19 -206h-532zM178 666l-2 2l112 144c9 13 20 20 36 20
c15 0 26 -7 36 -20l111 -144l-2 -2l-145 80z" />
    <glyph glyph-name="Edieresis" unicode="&#xcb;" horiz-adv-x="630" 
d="M29 0v6c78 0 90 23 90 94v417c0 71 -12 94 -90 94v7h526l14 -193l-5 -1c-26 116 -82 186 -248 186h-72v-298h23c124 0 171 45 189 138h5v-283h-5c-18 92 -65 137 -189 137h-23v-297h81c175 0 221 95 250 200l5 -1l-19 -206h-532zM242 691c-33 0 -61 27 -61 61
c0 33 26 61 60 61s61 -27 61 -61s-27 -61 -60 -61zM420 691c-33 0 -61 27 -61 61c0 33 26 61 60 61s61 -27 61 -61s-27 -61 -60 -61z" />
    <glyph glyph-name="Eth" unicode="&#xd0;" horiz-adv-x="751" 
d="M30 0v6c78 0 90 23 90 94v206h-78v9h78v202c0 71 -12 94 -90 94v7h320c220 0 357 -121 357 -309s-137 -309 -357 -309h-320zM244 7h93c170 0 235 142 235 302c0 159 -65 301 -234 301h-94v-295h173v-9h-173v-299z" />
    <glyph glyph-name="Igrave" unicode="&#xcc;" horiz-adv-x="363" 
d="M29 0v6c78 0 90 23 90 94v417c0 71 -12 94 -90 94v7h305v-7c-78 0 -90 -23 -90 -94v-417c0 -71 12 -94 90 -94v-6h-305zM266 672c-80 43 -145 73 -170 94c-24 21 -27 48 -11 67s45 20 69 -1s62 -84 114 -158z" />
    <glyph glyph-name="Iacute" unicode="&#xcd;" horiz-adv-x="363" 
d="M29 0v6c78 0 90 23 90 94v417c0 71 -12 94 -90 94v7h305v-7c-78 0 -90 -23 -90 -94v-417c0 -71 12 -94 90 -94v-6h-305zM93 673l-2 2c53 73 91 136 115 157s53 20 69 1s13 -46 -11 -67c-25 -21 -90 -51 -171 -93z" />
    <glyph glyph-name="Icircumflex" unicode="&#xce;" horiz-adv-x="363" 
d="M29 0v6c78 0 90 23 90 94v417c0 71 -12 94 -90 94v7h305v-7c-78 0 -90 -23 -90 -94v-417c0 -71 12 -94 90 -94v-6h-305zM36 666l-2 2l111 144c10 13 21 20 36 20c16 0 27 -7 36 -20l112 -144l-2 -2l-146 80z" />
    <glyph glyph-name="Idieresis" unicode="&#xcf;" horiz-adv-x="363" 
d="M29 0v6c78 0 90 23 90 94v417c0 71 -12 94 -90 94v7h305v-7c-78 0 -90 -23 -90 -94v-417c0 -71 12 -94 90 -94v-6h-305zM93 691c-33 0 -61 27 -61 61c0 33 26 61 60 61s61 -27 61 -61s-27 -61 -60 -61zM271 691c-33 0 -61 27 -61 61c0 33 26 61 60 61s61 -27 61 -61
s-27 -61 -60 -61z" />
    <glyph glyph-name="Lslash" unicode="&#x141;" horiz-adv-x="593" 
d="M30 252l-3 9l93 34v222c0 71 -12 94 -90 94v7h315v-7c-78 0 -100 -21 -100 -99v-173l147 54l3 -9l-150 -55v-322h64c164 0 225 90 251 206l5 -1l-14 -212h-521v6c78 0 90 23 90 94v185z" />
    <glyph glyph-name="Ntilde" unicode="&#xd1;" horiz-adv-x="724" 
d="M15 0v6c118 0 125 58 125 319v135c0 101 -23 151 -120 151v7h202l364 -425v99c0 261 -7 319 -125 319v7h260v-7c-118 0 -125 -58 -125 -319v-297l-5 -2l-441 512v-180c0 -261 7 -319 125 -319v-6h-260zM227 686c5 54 15 141 82 141c52 0 104 -54 158 -54
c43 0 50 33 53 61l5 -1c-5 -62 -19 -140 -82 -140c-51 0 -103 54 -157 54c-43 0 -50 -34 -54 -61h-5z" />
    <glyph glyph-name="Ograve" unicode="&#xd2;" horiz-adv-x="757" 
d="M378 -12c-195 0 -336 137 -336 321c0 183 141 321 336 321c196 0 336 -138 336 -321c0 -184 -141 -321 -336 -321zM378 -4c154 0 201 154 201 313s-46 312 -201 312s-200 -154 -200 -312s46 -313 200 -313zM459 682c-81 43 -146 73 -170 94c-25 21 -28 48 -12 67
c17 19 45 20 69 -1s62 -84 115 -158z" />
    <glyph glyph-name="Oacute" unicode="&#xd3;" horiz-adv-x="757" 
d="M378 -12c-195 0 -336 137 -336 321c0 183 141 321 336 321c196 0 336 -138 336 -321c0 -184 -141 -321 -336 -321zM378 -4c154 0 201 154 201 313s-46 312 -201 312s-200 -154 -200 -312s46 -313 200 -313zM292 683l-2 2c52 73 91 136 115 157s52 20 69 1
c16 -19 13 -46 -12 -67c-24 -21 -90 -51 -170 -93z" />
    <glyph glyph-name="Ocircumflex" unicode="&#xd4;" horiz-adv-x="757" 
d="M378 -12c-195 0 -336 137 -336 321c0 183 141 321 336 321c196 0 336 -138 336 -321c0 -184 -141 -321 -336 -321zM378 -4c154 0 201 154 201 313s-46 312 -201 312s-200 -154 -200 -312s46 -313 200 -313zM232 676l-2 2l112 144c9 13 20 20 36 20c15 0 26 -7 36 -20
l111 -144l-2 -2l-145 80z" />
    <glyph glyph-name="Odieresis" unicode="&#xd6;" horiz-adv-x="757" 
d="M378 -12c-195 0 -336 137 -336 321c0 183 141 321 336 321c196 0 336 -138 336 -321c0 -184 -141 -321 -336 -321zM378 -4c154 0 201 154 201 313s-46 312 -201 312s-200 -154 -200 -312s46 -313 200 -313zM290 701c-33 0 -61 27 -61 61c0 33 26 61 60 61
c33 0 61 -27 61 -61s-28 -61 -60 -61zM467 701c-33 0 -60 27 -60 61c0 33 26 61 60 61c33 0 61 -27 61 -61s-28 -61 -61 -61z" />
    <glyph glyph-name="Otilde" unicode="&#xd5;" horiz-adv-x="757" 
d="M378 -12c-195 0 -336 137 -336 321c0 183 141 321 336 321c196 0 336 -138 336 -321c0 -184 -141 -321 -336 -321zM378 -4c154 0 201 154 201 313s-46 312 -201 312s-200 -154 -200 -312s46 -313 200 -313zM224 696c5 54 15 141 82 141c52 0 104 -54 158 -54
c43 0 50 33 53 61l5 -1c-5 -62 -19 -140 -82 -140c-51 0 -103 54 -157 54c-43 0 -50 -34 -54 -61h-5z" />
    <glyph glyph-name="Oslash" unicode="&#xd8;" horiz-adv-x="757" 
d="M379 -12c-82 0 -154 24 -210 65l-64 -75l-7 6l63 75c-74 58 -118 146 -118 250c0 183 140 321 336 321c81 0 154 -25 209 -66l64 75l8 -7l-63 -74c73 -58 118 -147 118 -249c0 -184 -141 -321 -336 -321zM379 -4c154 0 200 154 200 313c0 68 -9 135 -33 189l-331 -390
c30 -67 81 -112 164 -112zM379 621c-155 0 -201 -154 -201 -312c0 -69 10 -136 33 -191l331 391c-30 67 -81 112 -163 112z" />
    <glyph glyph-name="OE" unicode="&#x152;" horiz-adv-x="1039" 
d="M378 -12c-195 0 -335 132 -335 321c0 188 140 321 335 321c33 0 122 -12 158 -12h428l14 -193l-5 -1c-26 116 -82 186 -248 186h-72v-298h23c124 0 171 45 189 138h5v-283h-5c-18 92 -65 137 -189 137h-23v-297h81c175 0 221 95 250 200l5 -1l-19 -206h-433
c-32 0 -124 -12 -159 -12zM378 -4c97 0 150 35 150 114v397c0 78 -55 114 -150 114c-155 0 -200 -154 -200 -312s45 -313 200 -313z" />
    <glyph glyph-name="Scaron" unicode="&#x160;" horiz-adv-x="568" 
d="M275 -12c-73 0 -153 14 -209 26l-11 188l6 1c38 -99 78 -208 216 -208c99 0 144 55 144 119c0 180 -358 116 -358 344c0 101 71 172 220 172c80 0 129 -20 196 -5l12 -194l-5 -1c-34 85 -76 193 -200 193c-86 0 -127 -52 -127 -110c0 -171 360 -113 360 -344
c0 -109 -81 -181 -244 -181zM292 675c-16 0 -27 7 -36 20l-112 144l2 2l146 -80l145 80l2 -2l-111 -144c-10 -13 -21 -20 -36 -20z" />
    <glyph glyph-name="Uacute" unicode="&#xda;" horiz-adv-x="698" 
d="M354 -12c-130 0 -247 58 -247 221v300c0 71 -12 102 -90 102v7h305v-7c-78 0 -90 -31 -90 -102v-322c0 -111 42 -184 155 -184c108 0 182 68 182 200v101c0 254 -10 307 -124 307v7h258v-7c-116 0 -124 -58 -124 -307v-101c0 -141 -80 -215 -225 -215zM300 673l-2 2
c53 73 91 136 115 157s53 20 69 1s13 -46 -11 -67c-25 -21 -90 -51 -171 -93z" />
    <glyph glyph-name="Ugrave" unicode="&#xd9;" horiz-adv-x="698" 
d="M354 -12c-130 0 -247 58 -247 221v300c0 71 -12 102 -90 102v7h305v-7c-78 0 -90 -31 -90 -102v-322c0 -111 42 -184 155 -184c108 0 182 68 182 200v101c0 254 -10 307 -124 307v7h258v-7c-116 0 -124 -58 -124 -307v-101c0 -141 -80 -215 -225 -215zM442 672
c-81 43 -146 73 -170 94c-25 21 -28 48 -12 67c17 19 45 20 69 -1s62 -84 115 -158z" />
    <glyph glyph-name="Ucircumflex" unicode="&#xdb;" horiz-adv-x="698" 
d="M354 -12c-130 0 -247 58 -247 221v300c0 71 -12 102 -90 102v7h305v-7c-78 0 -90 -31 -90 -102v-322c0 -111 42 -184 155 -184c108 0 182 68 182 200v101c0 254 -10 307 -124 307v7h258v-7c-116 0 -124 -58 -124 -307v-101c0 -141 -80 -215 -225 -215zM222 666l-2 2
l111 144c10 13 21 20 36 20c16 0 27 -7 36 -20l112 -144l-2 -2l-146 80z" />
    <glyph glyph-name="Udieresis" unicode="&#xdc;" horiz-adv-x="698" 
d="M354 -12c-130 0 -247 58 -247 221v300c0 71 -12 102 -90 102v7h305v-7c-78 0 -90 -31 -90 -102v-322c0 -111 42 -184 155 -184c108 0 182 68 182 200v101c0 254 -10 307 -124 307v7h258v-7c-116 0 -124 -58 -124 -307v-101c0 -141 -80 -215 -225 -215zM282 691
c-33 0 -61 27 -61 61c0 33 26 61 60 61c33 0 61 -27 61 -61s-28 -61 -60 -61zM459 691c-33 0 -60 27 -60 61c0 33 26 61 60 61c33 0 61 -27 61 -61s-28 -61 -61 -61z" />
    <glyph glyph-name="Yacute" unicode="&#xdd;" horiz-adv-x="667" 
d="M178 0v6c83 0 100 37 100 114v131l-149 244c-40 64 -82 116 -140 116v7h324v-7c-72 0 -85 -42 -45 -110l125 -209h2l52 88c52 89 76 138 76 172c0 33 -20 59 -85 59v7h261v-7c-61 0 -100 -25 -133 -65c-24 -28 -52 -74 -112 -171l-52 -87v-168c0 -77 17 -114 100 -114v-6
h-324zM282 673l-2 2c53 73 91 136 115 157s53 20 69 1s13 -46 -11 -67c-25 -21 -90 -51 -171 -93z" />
    <glyph glyph-name="Ydieresis" unicode="&#x178;" horiz-adv-x="667" 
d="M178 0v6c83 0 100 37 100 114v131l-149 244c-40 64 -82 116 -140 116v7h324v-7c-72 0 -85 -42 -45 -110l125 -209h2l52 88c52 89 76 138 76 172c0 33 -20 59 -85 59v7h261v-7c-61 0 -100 -25 -133 -65c-24 -28 -52 -74 -112 -171l-52 -87v-168c0 -77 17 -114 100 -114v-6
h-324zM268 691c-33 0 -61 27 -61 61c0 33 26 61 60 61s61 -27 61 -61s-27 -61 -60 -61zM446 691c-33 0 -61 27 -61 61c0 33 26 61 60 61s61 -27 61 -61s-27 -61 -60 -61z" />
    <glyph glyph-name="Zcaron" unicode="&#x17d;" horiz-adv-x="611" 
d="M31 0l-1 2l390 608h-167c-110 0 -170 -98 -199 -198h-5l15 206h501l2 -2l-391 -608h189c115 0 171 109 200 204l5 -1l-19 -211h-520zM316 665c-16 0 -27 7 -36 20l-112 144l2 2l146 -80l145 80l2 -2l-111 -144c-10 -13 -21 -20 -36 -20z" />
    <glyph glyph-name="Thorn" unicode="&#xde;" horiz-adv-x="623" 
d="M29 0v6c78 0 90 23 90 94v417c0 71 -12 94 -90 94v7h305v-7c-78 0 -90 -23 -90 -94v-24h92c189 0 261 -78 261 -178c0 -101 -72 -177 -261 -177h-45v7h23c110 0 150 83 150 170c0 86 -40 170 -150 170h-70v-385c0 -71 12 -94 90 -94v-6h-305z" />
    <glyph glyph-name="bullet" unicode="&#x2022;" horiz-adv-x="354" 
d="M177 144c-55 0 -99 44 -99 99c0 54 44 99 99 99c54 0 99 -45 99 -99c0 -55 -45 -99 -99 -99z" />
    <glyph glyph-name="asciitilde" unicode="~" horiz-adv-x="470" 
d="M69 182l-5 1c17 80 37 143 101 143c62 0 115 -61 172 -61c44 0 60 34 68 65l5 -2c-16 -73 -35 -142 -101 -142c-62 0 -115 61 -172 61c-45 0 -61 -38 -68 -65z" />
    <glyph glyph-name="degree" unicode="&#xb0;" horiz-adv-x="369" 
d="M184 388c-67 0 -145 39 -145 126c0 88 78 127 145 127c68 0 146 -39 146 -127c0 -87 -78 -126 -146 -126zM184 393c58 0 65 76 65 121c0 46 -7 121 -65 121c-57 0 -64 -75 -64 -121c0 -45 7 -121 64 -121z" />
    <glyph glyph-name="asciicircum" unicode="^" horiz-adv-x="473" 
d="M46 337l-4 3l191 295h7l190 -295l-4 -3l-190 183z" />
    <glyph glyph-name="dagger" unicode="&#x2020;" horiz-adv-x="513" 
d="M256 -173c-36 0 -54 24 -54 71c0 84 49 216 51 508c-147 -1 -149 -26 -158 -83c-1 -8 -4 -9 -6 -9c-17 0 -42 53 -42 93c0 31 16 49 41 49c40 0 92 -43 165 -44c-2 73 -46 146 -46 192c0 35 20 55 49 55s50 -20 50 -55c0 -46 -45 -119 -46 -192c71 1 123 44 165 44
c24 0 40 -18 40 -49c0 -40 -25 -93 -41 -93c-3 0 -6 1 -7 9c-9 57 -10 82 -157 83c1 -291 50 -423 50 -509c0 -44 -17 -70 -54 -70z" />
    <glyph glyph-name="daggerdbl" unicode="&#x2021;" horiz-adv-x="513" 
d="M256 -182c-29 0 -49 20 -49 55c0 45 44 119 46 191c-73 -1 -125 -43 -165 -43c-25 0 -41 17 -41 49c0 39 25 92 42 92c2 0 5 -1 6 -9c9 -57 11 -82 158 -82c-3 62 -35 116 -35 167s32 105 35 168c-147 -1 -149 -26 -158 -83c-1 -8 -4 -9 -6 -9c-17 0 -42 53 -42 93
c0 31 16 49 41 49c40 0 92 -43 165 -44c-2 73 -46 146 -46 192c0 35 20 55 49 55s50 -20 50 -55c0 -46 -45 -119 -46 -192c71 1 123 44 165 44c24 0 40 -18 40 -49c0 -40 -25 -93 -41 -93c-3 0 -6 1 -7 9c-9 57 -10 82 -157 83c2 -62 40 -115 40 -168
c0 -52 -38 -106 -40 -167c147 0 148 25 157 82c1 8 4 9 7 9c16 0 41 -53 41 -92c0 -32 -16 -49 -40 -49c-42 0 -94 42 -165 43c1 -72 46 -146 46 -191c0 -35 -21 -55 -50 -55z" />
    <glyph glyph-name="copyright" unicode="&#xa9;" horiz-adv-x="733" 
d="M366 -12c-177 0 -321 144 -321 321s144 321 321 321c178 0 321 -144 321 -321s-143 -321 -321 -321zM366 -3c172 0 312 140 312 312s-140 312 -312 312c-171 0 -311 -140 -311 -312s140 -312 311 -312zM389 129c-143 0 -215 76 -215 178c0 111 87 182 210 182
c50 0 91 -11 133 -1l10 -120h-3c-35 85 -80 117 -133 117c-87 0 -115 -88 -115 -175s27 -177 113 -177c66 0 113 55 143 127l3 -1l-20 -113c-29 -9 -79 -17 -126 -17z" />
    <glyph glyph-name="uni2117" unicode="&#x2117;" horiz-adv-x="733" 
d="M205 132v3c42 0 51 14 51 55v237c0 42 -9 55 -51 55v4h195c112 0 158 -45 158 -103c0 -57 -42 -101 -158 -101h-31v4h13c64 0 82 49 82 97s-18 98 -82 98h-37v-291c0 -41 9 -55 50 -55v-3h-190zM366 -12c-177 0 -321 144 -321 321s144 321 321 321
c178 0 321 -144 321 -321s-143 -321 -321 -321zM366 -3c172 0 312 140 312 312s-140 312 -312 312c-171 0 -311 -140 -311 -312s140 -312 311 -312z" />
    <glyph glyph-name="registered" unicode="&#xae;" horiz-adv-x="407" 
d="M203 339c-86 0 -156 70 -156 156s70 156 156 156c87 0 156 -70 156 -156s-69 -156 -156 -156zM203 347c82 0 148 66 148 148s-66 148 -148 148c-81 0 -148 -66 -148 -148s67 -148 148 -148zM124 418v2c17 0 21 4 21 23v103c0 19 -4 23 -21 23v3h84c47 0 69 -16 69 -41
c0 -32 -37 -37 -65 -38v-1c57 0 50 -15 61 -51c5 -16 10 -21 25 -21v-2h-56c-3 6 -5 15 -9 28c-8 36 -9 45 -35 45h-16v-48c0 -19 5 -23 22 -23v-2h-80zM182 494h19c27 0 37 18 37 37c0 20 -10 38 -38 38h-18v-75z" />
    <glyph glyph-name="trademark" unicode="&#x2122;" horiz-adv-x="837" 
d="M111 333c33 0 46 8 46 49v232h-4c-64 0 -85 -47 -100 -99h-3l8 103h268l8 -103h-3c-16 52 -36 99 -102 99h-3v-232c0 -41 13 -49 47 -49v-3h-162v3zM357 333c49 0 62 23 70 132l5 72c3 51 -7 77 -56 77v4h119l93 -195l82 195h99v-4c-35 0 -41 -21 -39 -56l7 -168
c2 -40 11 -57 45 -57v-3h-152v3c34 0 41 19 40 53l-11 191l-102 -241h-2l-115 234l-8 -104c-8 -110 0 -133 49 -133v-3h-124v3z" />
    <glyph glyph-name="fraction" unicode="&#x2044;" horiz-adv-x="160" 
d="M-136 -9l-7 4l438 632l7 -4z" />
    <glyph glyph-name="onehalf" unicode="&#xbd;" horiz-adv-x="833" 
d="M499 0c-9 40 -4 68 20 98c51 67 172 100 172 205c0 46 -24 82 -75 82c-43 0 -68 -26 -78 -50c24 -3 42 -22 42 -46c0 -27 -21 -47 -48 -47c-29 0 -47 24 -47 50c0 44 53 99 153 99c80 0 147 -37 147 -103c0 -108 -181 -102 -262 -192c-10 -12 -15 -22 -19 -35
c13 27 41 43 88 43c51 0 91 -24 136 -24c37 0 58 16 58 52c0 8 -1 15 -3 24h5c4 -16 7 -38 7 -58c0 -50 -17 -104 -72 -104c-74 0 -102 93 -168 93c-36 0 -54 -27 -54 -60c0 -9 2 -21 4 -27h-6zM43 235v4c47 0 68 13 68 64v238c0 20 -5 32 -28 32h-45v3c56 5 107 16 158 43
l3 -1v-319c0 -51 20 -60 63 -60v-4h-219zM183 -9l-7 4l438 632l7 -4z" />
    <glyph glyph-name="onequarter" unicode="&#xbc;" horiz-adv-x="816" 
d="M48 235v4c47 0 68 13 68 64v238c0 20 -5 32 -28 32h-45v3c56 5 107 16 158 43l3 -1v-319c0 -51 20 -60 63 -60v-4h-219zM188 -9l-7 4l438 632l7 -4zM564 0v4c48 0 69 13 69 64v32h-196l-2 3l60 57c32 29 65 83 65 137c0 46 -23 76 -50 93c76 2 155 -24 155 -76
c0 -59 -97 -99 -162 -155l-58 -53h188v63l84 76h3v-139c41 0 44 7 53 7c7 0 12 -5 12 -10s-7 -9 -12 -9c-8 0 -14 6 -53 6v-36c0 -51 20 -60 64 -60v-4h-220z" />
    <glyph glyph-name="threequarters" unicode="&#xbe;" horiz-adv-x="873" 
d="M193 228c-91 0 -151 39 -151 84c0 26 19 49 47 49c27 0 48 -21 48 -47c0 -23 -16 -43 -38 -47c10 -17 30 -34 69 -34c65 0 95 46 95 101c0 63 -36 94 -100 95c-32 1 -40 -6 -47 -6s-12 3 -12 9c0 4 4 10 11 10c8 0 19 -8 46 -8c64 0 90 48 90 97c0 53 -28 89 -79 89
c-35 0 -55 -17 -66 -35c22 -4 37 -23 37 -46c0 -26 -20 -46 -47 -46s-46 21 -46 47c0 47 58 86 146 86c85 0 150 -35 150 -97c0 -63 -69 -96 -157 -96h-4v-2h4c89 0 169 -28 169 -98c0 -71 -79 -105 -165 -105zM245 -9l-7 4l438 632l7 -4zM621 0v4c48 0 69 13 69 64v32h-196
l-2 3l60 57c32 29 65 83 65 137c0 46 -23 76 -50 93c76 2 155 -24 155 -76c0 -59 -97 -99 -162 -155l-58 -53h188v63l84 76h3v-139c41 0 44 7 53 7c7 0 12 -5 12 -10s-7 -9 -12 -9c-8 0 -14 6 -53 6v-36c0 -51 20 -60 64 -60v-4h-220z" />
    <glyph glyph-name="onesuperior" unicode="&#xb9;" horiz-adv-x="246" 
d="M21 335v4c47 0 68 13 68 64v238c0 20 -5 32 -28 32h-45v3c56 5 107 16 158 43l3 -1v-319c0 -51 20 -60 63 -60v-4h-219z" />
    <glyph glyph-name="twosuperior" unicode="&#xb2;" horiz-adv-x="373" 
d="M43 335c-10 40 -5 68 20 98c51 67 171 100 171 205c0 46 -23 82 -74 82c-43 0 -68 -26 -79 -50c24 -3 42 -22 42 -46c0 -27 -21 -47 -47 -47c-30 0 -48 24 -48 50c0 44 54 99 153 99c80 0 147 -37 147 -103c0 -108 -181 -102 -261 -192c-10 -12 -15 -22 -19 -35
c12 27 40 43 87 43c51 0 91 -24 136 -24c38 0 58 16 58 52c0 8 -1 15 -3 24h5c5 -16 7 -38 7 -58c0 -50 -16 -104 -72 -104c-74 0 -101 93 -167 93c-36 0 -54 -27 -54 -60c0 -9 1 -21 4 -27h-6z" />
    <glyph glyph-name="threesuperior" unicode="&#xb3;" horiz-adv-x="375" 
d="M179 328c-91 0 -151 39 -151 84c0 26 19 49 47 49c27 0 48 -21 48 -47c0 -23 -16 -43 -38 -47c10 -17 30 -34 69 -34c65 0 95 46 95 101c0 63 -36 94 -100 95c-32 1 -40 -6 -47 -6s-12 3 -12 9c0 4 4 10 11 10c8 0 19 -8 46 -8c64 0 90 48 90 97c0 53 -28 89 -79 89
c-35 0 -55 -17 -66 -35c22 -4 37 -23 37 -46c0 -26 -20 -46 -47 -46s-46 21 -46 47c0 47 58 86 146 86c85 0 150 -35 150 -97c0 -63 -69 -96 -157 -96h-4v-2h4c89 0 169 -28 169 -98c0 -71 -79 -105 -165 -105z" />
    <glyph glyph-name="ordmasculine" unicode="&#xba;" horiz-adv-x="507" 
d="M253 281c-99 0 -188 66 -188 176c0 112 89 177 188 177c100 0 189 -65 189 -177c0 -110 -89 -176 -189 -176zM253 288c60 0 84 66 84 169c0 104 -24 171 -84 171s-83 -67 -83 -171c0 -103 23 -169 83 -169zM65 212v9h377v-9h-377z" />
    <glyph glyph-name="ordfeminine" unicode="&#xaa;" horiz-adv-x="514" 
d="M184 281c-68 0 -114 37 -114 93c0 67 61 94 136 94c32 0 66 -6 91 -13v83c0 52 -15 91 -70 91c-40 0 -63 -21 -76 -41c19 -7 32 -27 32 -48c0 -28 -21 -49 -49 -49c-32 0 -49 27 -49 53c0 48 59 90 146 90c76 0 158 -33 158 -122v-181c0 -22 12 -28 23 -28
c26 0 47 31 56 47l4 -3c-18 -33 -45 -64 -94 -64c-41 0 -69 22 -78 56c-21 -30 -56 -58 -116 -58zM224 301c30 0 55 19 73 43v104c-17 6 -38 10 -58 10c-46 0 -74 -25 -74 -80c0 -47 21 -77 59 -77zM58 212v9h396v-9h-396z" />
    <glyph glyph-name="percent" unicode="%" horiz-adv-x="725" 
d="M192 300c-82 0 -159 60 -159 164s77 164 159 164c55 0 108 -27 137 -76c22 -7 45 -11 67 -11c47 0 109 16 161 40c13 24 13 53 32 53c9 0 16 -7 16 -18c0 -20 -23 -33 -40 -40l-424 -585l-8 6l416 572c-46 -21 -100 -36 -151 -36c-20 0 -42 2 -64 9c11 -23 17 -49 17 -78
c0 -104 -76 -164 -159 -164zM531 -10c-82 0 -159 60 -159 164s77 164 159 164c83 0 159 -60 159 -164s-76 -164 -159 -164zM531 -4c55 0 70 71 70 158c0 86 -15 157 -70 157c-54 0 -69 -71 -69 -157c0 -87 15 -158 69 -158zM192 306c55 0 70 71 70 158c0 50 -5 95 -20 123
c-10 9 -21 19 -31 29c-5 3 -12 5 -19 5c-54 0 -69 -71 -69 -157c0 -87 15 -158 69 -158z" />
    <glyph glyph-name="perthousand" unicode="&#x2030;" horiz-adv-x="1090" 
d="M192 300c-82 0 -159 60 -159 164s77 164 159 164c55 0 108 -27 137 -76c22 -7 45 -11 67 -11c47 0 109 16 161 40c13 24 13 53 32 53c9 0 16 -7 16 -18c0 -20 -23 -33 -40 -40l-424 -585l-8 6l416 572c-46 -21 -100 -36 -151 -36c-20 0 -42 2 -64 9c11 -23 17 -49 17 -78
c0 -104 -76 -164 -159 -164zM898 -10c-82 0 -159 60 -159 164s77 164 159 164c83 0 159 -60 159 -164s-76 -164 -159 -164zM531 -10c-82 0 -159 60 -159 164s77 164 159 164c83 0 159 -60 159 -164s-76 -164 -159 -164zM898 -4c55 0 70 71 70 158c0 86 -15 157 -70 157
c-54 0 -69 -71 -69 -157c0 -87 15 -158 69 -158zM531 -4c55 0 70 71 70 158c0 86 -15 157 -70 157c-54 0 -69 -71 -69 -157c0 -87 15 -158 69 -158zM192 306c55 0 70 71 70 158c0 50 -5 95 -20 123c-10 9 -21 19 -31 29c-5 3 -12 5 -19 5c-54 0 -69 -71 -69 -157
c0 -87 15 -158 69 -158z" />
    <glyph glyph-name="uni2116" unicode="&#x2116;" horiz-adv-x="1144" 
d="M905 171c-94 0 -182 61 -182 170s88 171 182 171s182 -62 182 -171s-88 -170 -182 -170zM138 -122c-64 0 -108 58 -108 134c25 -24 54 -41 99 -41c86 0 124 56 124 170v319c0 101 -23 151 -120 151v7h197l309 -425v301c0 137 35 248 125 248c63 0 108 -56 108 -131
c-25 21 -54 38 -99 38c-86 0 -124 -57 -124 -170v-484l-6 -2l-380 512v-379c0 -137 -36 -248 -125 -248zM905 177c53 0 74 60 74 164c0 105 -21 164 -74 164c-52 0 -74 -59 -74 -164c0 -104 22 -164 74 -164zM718 36v9h375v-9h-375zM718 106v9h375v-9h-375z" />
    <glyph glyph-name="c_k" horiz-adv-x="980" 
d="M248 -11c-134 0 -211 97 -211 212c0 136 107 218 225 218c19 0 36 -2 52 -6c-25 26 -37 46 -37 72c0 69 94 99 190 129c115 36 146 43 173 64l3 -2v-500l94 94c40 39 61 69 61 93s-20 38 -65 38v7h232v-7c-51 0 -85 -17 -121 -43c-22 -16 -47 -37 -79 -69l-10 -10
l141 -210c27 -40 57 -63 99 -63v-6h-182l-136 199l-34 -33v-91c0 -50 16 -69 70 -69v-6h-254v6c54 0 70 19 70 69v550c-18 -7 -38 -12 -58 -19c-93 -29 -185 -57 -185 -121c0 -28 16 -49 44 -77c65 -20 102 -69 102 -115c0 -40 -27 -68 -63 -68s-63 29 -63 64
c0 32 22 58 53 63c-11 29 -37 60 -84 60c-84 0 -118 -100 -118 -200c0 -127 50 -202 135 -202c65 0 114 44 141 94l6 -3c-28 -51 -85 -112 -191 -112z" />
    <glyph glyph-name="c_t" horiz-adv-x="790" 
d="M248 -11c-134 0 -211 97 -211 212c0 136 107 218 225 218c29 0 55 -5 78 -14c-30 30 -47 70 -47 116c0 98 79 178 180 178c95 0 175 -71 175 -168v-123h125v-12h-125v-299c0 -49 18 -77 56 -77c39 0 68 30 90 57l5 -4c-32 -39 -75 -83 -147 -83c-70 0 -118 41 -118 122
v284h-52v8c94 0 157 25 157 126c0 93 -79 161 -166 161c-94 0 -171 -80 -171 -169c0 -52 26 -98 65 -130c41 -25 65 -63 65 -99c0 -40 -27 -68 -63 -68s-63 29 -63 64c0 32 22 58 53 63c-11 29 -37 60 -84 60c-84 0 -118 -100 -118 -200c0 -127 50 -202 135 -202
c65 0 114 44 141 94l6 -3c-28 -51 -85 -112 -191 -112z" />
    <glyph glyph-name="r_k" horiz-adv-x="922" 
d="M20 0v6c54 0 70 21 70 71v244c0 50 -16 71 -70 71v6l182 20v-130c17 52 50 101 92 121c-25 26 -40 50 -40 80c0 68 76 100 155 125c73 24 139 38 173 64l3 -2v-500l94 94c40 39 61 69 61 93s-20 38 -65 38v7h232v-7c-51 0 -85 -17 -121 -43c-22 -16 -46 -36 -79 -69
l-10 -10l141 -210c27 -40 57 -63 99 -63v-6h-182l-136 199l-34 -33v-91c0 -50 16 -69 70 -69v-6h-254v6c54 0 70 19 70 69v550c-20 -7 -41 -14 -58 -19c-84 -26 -150 -57 -150 -118c0 -29 14 -48 40 -75c10 4 20 6 32 6c46 0 69 -34 69 -68c0 -37 -29 -66 -64 -66
c-38 0 -69 32 -64 73c-33 -12 -58 -44 -72 -77v-204c0 -53 21 -71 75 -71v-6h-259z" />
    <glyph glyph-name="s_t" unicode="&#xfb06;" horiz-adv-x="743" 
d="M206 -11c-53 0 -115 10 -154 18l-6 128l5 1c29 -66 61 -141 153 -141c68 0 91 41 91 74c0 112 -245 69 -245 227c0 75 56 123 163 123c27 0 51 -4 72 -6c-25 29 -39 66 -39 108c0 98 79 178 180 178c95 0 175 -71 175 -168v-123h125v-12h-125v-299c0 -49 18 -77 56 -77
c39 0 68 30 90 57l5 -4c-32 -39 -75 -83 -147 -83c-70 0 -118 41 -118 122v284h-52v8c94 0 157 25 157 126c0 93 -79 161 -166 161c-94 0 -171 -80 -171 -169c0 -42 17 -80 44 -110c19 -1 37 0 58 4l7 -134l-5 -1c-24 56 -63 132 -142 132c-56 0 -80 -36 -80 -70
c0 -108 247 -69 247 -226c0 -80 -64 -128 -178 -128z" />
    <glyph glyph-name="t_t" horiz-adv-x="663" 
d="M202 -10c-69 0 -117 41 -117 122v284h-71v12h71v106l114 21v-127h208v106l114 21v-127h125v-12h-125v-299c0 -49 18 -77 56 -77c39 0 68 30 90 57l5 -4c-32 -39 -75 -83 -147 -83c-70 0 -118 41 -118 122v284h-208v-299c0 -49 17 -77 55 -77c39 0 69 30 90 57l5 -4
c-31 -39 -75 -83 -147 -83z" />
    <glyph glyph-name="F_i" horiz-adv-x="1018" 
d="M254 0v6c78 0 90 23 90 94v493c-25 3 -48 6 -67 6c-132 0 -164 -57 -164 -118c0 -40 14 -79 58 -111c-78 10 -158 47 -158 122c0 83 94 116 227 116c170 0 333 -56 454 -56c127 0 159 63 159 120c0 38 -14 75 -58 108c78 -10 158 -47 158 -122c0 -82 -92 -115 -220 -115
c-92 0 -180 17 -264 32v-271h21c123 0 171 50 188 143h5v-293h-5c-17 92 -65 142 -188 142h-21v-191c0 -77 22 -99 100 -99v-6h-315zM750 0v6c54 0 70 19 70 69v248c0 50 -16 69 -70 69v6l184 20v-343c0 -50 16 -69 70 -69v-6h-254z" />
    <glyph glyph-name="T_h" horiz-adv-x="1195" 
d="M243 6c78 0 100 22 100 99v505c-29 4 -57 7 -77 7c-125 0 -154 -61 -154 -119c0 -40 14 -78 58 -110c-78 9 -158 46 -158 122c0 82 95 115 221 115c141 0 305 -42 409 -42c127 0 155 62 155 117c0 43 -17 79 -58 112c78 -10 158 -47 158 -122c0 -41 -23 -68 -62 -87v-268
c35 36 91 84 161 84c63 0 119 -38 119 -132v-212c0 -50 16 -69 70 -69v-6h-249v6c48 0 65 19 65 69v221c0 54 -24 82 -66 82c-43 0 -76 -28 -100 -53v-250c0 -50 16 -69 70 -69v-6h-254v6c54 0 70 19 70 69v504c-16 -4 -39 -5 -54 -5c-63 0 -130 9 -199 19v-488
c0 -77 22 -99 100 -99v-6h-325v6z" />
    <glyph glyph-name="C_o" horiz-adv-x="1122" 
d="M706 36v9h374v-9h-374zM893 171c-95 0 -182 61 -182 170s87 171 182 171c94 0 182 -62 182 -171s-88 -170 -182 -170zM893 177c52 0 74 60 74 164c0 105 -22 164 -74 164c-53 0 -74 -59 -74 -164c0 -104 21 -164 74 -164zM706 106v9h374v-9h-374zM396 -12
c-224 0 -353 136 -353 318c0 193 145 324 350 324c82 0 150 -21 222 -2l17 -203l-5 -1c-57 138 -128 199 -230 199c-159 0 -219 -152 -219 -315c0 -160 57 -314 213 -314c120 0 198 91 249 211h5l-33 -187c-53 -16 -144 -30 -216 -30z" />
    <glyph glyph-name="zero" unicode="0" horiz-adv-x="608" 
d="M304 -12c-162 0 -255 140 -255 321s93 321 255 321s255 -140 255 -321s-93 -321 -255 -321zM304 -5c96 0 125 163 125 314s-29 314 -125 314s-125 -163 -125 -314s29 -314 125 -314z" />
    <glyph glyph-name="one" unicode="1" horiz-adv-x="385" 
d="M42 0v6c78 0 106 23 106 99v393c0 31 -7 50 -44 50h-72v6c86 6 160 24 231 65l4 -1v-518c0 -76 27 -94 100 -94v-6h-325z" />
    <glyph glyph-name="two" unicode="2" horiz-adv-x="562" 
d="M65 0c-15 61 -8 108 27 154c79 115 274 162 274 334c0 71 -33 133 -119 133c-71 0 -109 -42 -127 -83c36 -3 63 -33 63 -70c0 -40 -30 -71 -69 -71c-43 0 -69 37 -69 76c0 69 80 157 229 157c122 0 221 -60 221 -163c0 -176 -290 -172 -400 -322c-12 -17 -20 -36 -25 -55
c16 44 57 71 125 71c81 0 142 -45 214 -45c60 0 88 30 88 82c0 13 -1 26 -4 40h7c6 -24 10 -55 10 -88c0 -76 -26 -159 -108 -159c-109 0 -149 147 -251 147c-55 0 -83 -43 -83 -96c0 -14 2 -30 6 -42h-9z" />
    <glyph glyph-name="three" unicode="3" horiz-adv-x="568" 
d="M270 -12c-137 0 -226 64 -226 135c0 40 28 74 67 74c38 0 69 -31 69 -71c0 -35 -25 -64 -57 -70c16 -29 51 -60 117 -60c105 0 150 75 150 164c0 103 -60 152 -157 154c-53 -1 -63 -11 -74 -11c-9 0 -19 6 -19 15c0 8 7 16 19 16s17 -13 73 -11c95 2 138 73 138 156
c0 80 -41 142 -125 142c-58 0 -92 -30 -110 -60c32 -6 56 -35 56 -69c0 -39 -29 -70 -68 -70s-67 30 -67 72c0 73 87 136 219 136c123 0 225 -53 225 -154c0 -98 -97 -153 -230 -155h-6v-4h6c129 0 250 -44 250 -158c0 -115 -121 -171 -250 -171z" />
    <glyph glyph-name="four" unicode="4" horiz-adv-x="566" 
d="M213 0v6c78 0 106 23 106 99v57h-301l-2 6l97 101c45 43 100 130 100 219c0 69 -33 116 -75 140c117 3 221 -41 221 -117c0 -88 -135 -155 -232 -246l-97 -94h289v108l114 110h5v-218c63 1 68 12 81 12c12 0 19 -8 19 -16c0 -9 -10 -15 -19 -15c-11 0 -22 9 -81 10v-62
c0 -76 27 -94 100 -94v-6h-325z" />
    <glyph glyph-name="five" unicode="5" horiz-adv-x="554" 
d="M256 -12c-133 0 -219 63 -219 135c0 42 29 74 69 74s67 -31 67 -70c0 -36 -25 -65 -57 -70c16 -30 47 -61 111 -61c113 0 154 96 154 185c0 105 -57 169 -153 169c-51 0 -99 -18 -127 -32c-3 -19 -8 -35 -24 -35c-9 0 -14 5 -14 14c0 13 15 21 31 27l28 294
c111 -5 311 -22 354 35c9 -22 16 -45 16 -67c0 -69 -54 -92 -115 -92c-76 0 -170 35 -251 75l-25 -243c46 21 96 38 164 38c139 0 246 -69 246 -185c0 -119 -113 -191 -255 -191z" />
    <glyph glyph-name="six" unicode="6" horiz-adv-x="598" 
d="M310 -12c-196 0 -261 164 -261 309c0 183 104 333 283 333c118 0 193 -65 193 -134c0 -42 -28 -74 -68 -74c-39 0 -68 30 -68 69c0 34 23 62 54 68c-13 33 -39 64 -97 64c-148 0 -181 -205 -173 -361c16 77 80 129 173 129c121 0 204 -87 204 -197
c0 -115 -92 -206 -240 -206zM305 -6c87 0 124 101 124 200c0 97 -32 179 -115 179c-68 0 -141 -56 -140 -185c1 -94 44 -194 131 -194z" />
    <glyph glyph-name="seven" unicode="7" horiz-adv-x="487" 
d="M154 0c17 166 119 292 235 451c22 26 46 50 63 81l-2 2c-23 -34 -48 -66 -107 -66s-133 32 -202 32s-91 -36 -94 -106h-8v224h8l4 -151h2c8 86 25 159 100 159c96 0 146 -120 231 -120c59 0 81 60 81 92c0 9 -1 13 -2 20h9c1 -5 2 -12 2 -19c-1 -57 -36 -106 -65 -161
c-76 -147 -114 -260 -124 -438h-131z" />
    <glyph glyph-name="eight" unicode="8" horiz-adv-x="608" 
d="M304 -12c-178 0 -255 80 -255 171c0 83 65 154 215 165c-129 10 -198 68 -198 149c0 93 88 157 238 157s238 -64 238 -157c0 -81 -69 -139 -198 -149c149 -11 215 -82 215 -165c0 -91 -78 -171 -255 -171zM304 -5c89 0 126 71 126 162s-37 164 -126 164
c-90 0 -126 -73 -126 -164s36 -162 126 -162zM304 623c-80 0 -110 -67 -110 -148s30 -148 110 -148c79 0 110 67 110 148s-31 148 -110 148z" />
    <glyph glyph-name="nine" unicode="9" horiz-adv-x="598" 
d="M263 -12c-121 0 -195 64 -195 133c0 43 27 75 67 75c39 0 69 -31 69 -70c0 -34 -24 -62 -55 -68c16 -33 45 -63 104 -63c164 0 178 241 172 366c-17 -76 -77 -129 -173 -129c-119 0 -203 81 -203 193c0 117 94 205 239 205c195 0 261 -160 261 -307
c0 -179 -97 -335 -286 -335zM295 623c-87 0 -125 -98 -125 -195c0 -111 45 -176 119 -176c67 0 134 54 134 178c0 94 -39 193 -128 193z" />
    <glyph glyph-name="zero.op" horiz-adv-x="599" 
d="M299 -12c-147 0 -249 110 -249 259s102 260 249 260s249 -111 249 -260s-102 -259 -249 -259zM299 -5c88 0 122 115 122 252c0 138 -34 253 -122 253s-121 -115 -121 -253c0 -137 33 -252 121 -252z" />
    <glyph glyph-name="one.op" horiz-adv-x="400" 
d="M56 0v6c78 0 106 23 106 99v270c0 31 -8 51 -45 51h-71v5c86 7 160 24 230 66l5 -2v-395c0 -76 27 -94 100 -94v-6h-325z" />
    <glyph glyph-name="two.op" horiz-adv-x="551" 
d="M72 0c-13 46 -9 93 22 133c69 96 261 112 261 256c0 64 -38 110 -110 110c-64 0 -100 -36 -119 -72c33 -4 59 -31 59 -66c0 -38 -29 -66 -66 -66c-41 0 -66 34 -66 70c0 64 79 142 221 142c113 0 208 -50 208 -138c0 -152 -280 -117 -380 -241c-8 -10 -14 -21 -17 -34
c19 32 57 50 110 50c78 1 137 -42 204 -42c58 0 84 29 84 76c0 11 -1 23 -4 35h8c5 -21 9 -48 9 -76c0 -70 -25 -145 -103 -145c-104 0 -143 131 -241 131c-46 0 -71 -30 -76 -70c-2 -14 -1 -34 5 -53h-9z" />
    <glyph glyph-name="three.op" horiz-adv-x="569" 
d="M270 -135c-137 0 -226 64 -226 135c0 40 28 74 67 74c38 0 69 -31 69 -71c0 -35 -25 -64 -57 -70c16 -29 51 -60 117 -60c105 0 150 75 150 164c0 103 -60 152 -157 154c-53 -1 -63 -11 -74 -11c-9 0 -19 6 -19 15c0 8 7 16 19 16s17 -13 73 -11c95 2 138 73 138 156
c0 80 -41 142 -125 142c-58 0 -92 -30 -110 -60c32 -6 56 -35 56 -69c0 -39 -29 -70 -68 -70s-67 30 -67 72c0 73 87 136 219 136c123 0 225 -53 225 -154c0 -98 -97 -153 -230 -155h-6v-4h6c129 0 250 -44 250 -158c0 -115 -121 -171 -250 -171z" />
    <glyph glyph-name="four.op" horiz-adv-x="559" 
d="M217 -124v7c78 0 106 22 106 98v58h-302l-2 5l98 101c44 43 99 130 99 219c0 70 -32 116 -74 141c117 2 221 -42 221 -118c0 -88 -136 -154 -233 -245l-96 -95h289v108l114 111h5v-219c63 1 68 12 81 12c12 0 19 -8 19 -16c0 -9 -10 -15 -19 -15c-11 0 -22 10 -81 10v-61
c0 -76 27 -94 100 -94v-7h-325z" />
    <glyph glyph-name="five.op" horiz-adv-x="556" 
d="M256 -135c-133 0 -219 64 -219 136c0 42 29 74 69 74s67 -32 67 -70c0 -37 -25 -66 -57 -71c16 -29 47 -60 111 -60c113 0 154 96 154 184c0 106 -57 170 -153 170c-51 0 -99 -19 -127 -33c-3 -19 -8 -34 -24 -34c-9 0 -14 5 -14 14c0 12 15 21 31 27l28 293
c111 -4 311 -21 354 36c9 -23 16 -46 16 -68c0 -69 -54 -91 -115 -91c-76 0 -170 34 -251 74l-25 -242c46 21 96 37 164 37c139 0 246 -69 246 -184c0 -119 -113 -192 -255 -192z" />
    <glyph glyph-name="six.op" horiz-adv-x="598" 
d="M310 -12c-196 0 -261 164 -261 309c0 183 104 333 283 333c118 0 193 -65 193 -134c0 -42 -28 -74 -68 -74c-39 0 -68 30 -68 69c0 34 23 62 54 68c-13 33 -39 64 -97 64c-148 0 -181 -205 -173 -361c16 77 80 129 173 129c121 0 204 -87 204 -197
c0 -115 -92 -206 -240 -206zM305 -6c87 0 124 101 124 200c0 97 -32 179 -115 179c-68 0 -141 -56 -140 -185c1 -94 44 -194 131 -194z" />
    <glyph glyph-name="seven.op" horiz-adv-x="502" 
d="M159 -124c17 167 119 292 236 451c22 26 46 51 62 82l-2 1c-22 -34 -47 -65 -106 -65s-133 31 -202 31c-70 0 -92 -36 -94 -105h-9v223h9l4 -151h1c9 86 25 160 100 160c96 0 146 -120 232 -120c58 0 80 60 80 91c0 9 0 14 -1 20h9c1 -5 1 -11 1 -18
c0 -58 -36 -106 -64 -162c-76 -146 -114 -259 -125 -438h-131z" />
    <glyph glyph-name="eight.op" horiz-adv-x="608" 
d="M304 -12c-178 0 -255 80 -255 171c0 83 65 154 215 165c-129 10 -198 68 -198 149c0 93 88 157 238 157s238 -64 238 -157c0 -81 -69 -139 -198 -149c149 -11 215 -82 215 -165c0 -91 -78 -171 -255 -171zM304 -5c89 0 126 71 126 162s-37 164 -126 164
c-90 0 -126 -73 -126 -164s36 -162 126 -162zM304 623c-80 0 -110 -67 -110 -148s30 -148 110 -148c79 0 110 67 110 148s-31 148 -110 148z" />
    <glyph glyph-name="nine.op" horiz-adv-x="598" 
d="M263 -135c-121 0 -195 64 -195 133c0 43 27 75 67 75c39 0 69 -31 69 -70c0 -34 -24 -62 -55 -68c16 -33 45 -63 104 -63c164 0 178 241 172 366c-17 -76 -77 -129 -173 -129c-119 0 -203 81 -203 193c0 117 94 205 239 205c195 0 261 -160 261 -307
c0 -179 -97 -335 -286 -335zM295 500c-87 0 -125 -98 -125 -195c0 -111 45 -176 119 -176c67 0 134 54 134 178c0 94 -39 193 -128 193z" />
    <glyph glyph-name="A.alt" horiz-adv-x="1097" 
d="M243 -157c-137 0 -240 71 -240 178c0 121 132 191 254 177c-85 -22 -134 -85 -134 -172c0 -95 57 -165 157 -165c123 0 197 108 261 258l210 491h-130c-94 0 -142 -61 -142 -130c0 -39 16 -83 50 -111c-84 7 -143 55 -143 121c0 79 86 128 218 128h161l218 -479
c30 -66 67 -133 135 -133v-6h-329v6c71 0 94 48 59 126l-34 76h-223l-38 -90c-64 -152 -131 -275 -310 -275zM595 218h215l-110 250z" />
    <glyph glyph-name="B.alt" horiz-adv-x="847" 
d="M215 0v6c78 0 90 23 90 94v510h-56c-94 0 -142 -61 -142 -130c0 -39 16 -83 50 -111c-84 7 -143 55 -143 121c0 79 86 128 218 128h296c182 0 253 -59 253 -151c0 -86 -63 -139 -220 -145v-3c174 -5 241 -63 241 -155c0 -95 -69 -164 -252 -164h-335zM430 7h95
c101 0 145 77 145 159c0 83 -45 149 -153 149h-87v-308zM430 323h72c106 0 148 61 148 143c0 70 -32 144 -134 144h-86v-287z" />
    <glyph glyph-name="C.alt" horiz-adv-x="679" 
d="M386 -12c-207 0 -344 136 -344 319c0 191 150 323 348 323c166 0 253 -93 253 -163c0 -38 -26 -75 -68 -75c-39 0 -69 31 -69 71c0 35 24 65 57 70c-26 44 -77 90 -165 90c-159 0 -220 -151 -220 -319c0 -154 51 -310 216 -310c87 0 142 44 170 86c-32 7 -55 35 -55 70
c0 39 30 70 69 70c43 0 69 -37 69 -75c0 -70 -94 -157 -261 -157z" />
    <glyph glyph-name="D.alt" horiz-adv-x="936" 
d="M215 0v6c78 0 90 23 90 94v510h-56c-94 0 -142 -61 -142 -130c0 -39 16 -83 50 -111c-84 7 -143 55 -143 121c0 79 86 128 218 128h304c219 0 356 -121 356 -309s-136 -309 -356 -309h-321zM430 7h93c169 0 234 142 234 302c0 159 -65 301 -234 301h-93v-603z" />
    <glyph glyph-name="E.alt" horiz-adv-x="816" 
d="M215 0v6c78 0 90 23 90 94v510h-56c-94 0 -142 -61 -142 -130c0 -39 16 -83 50 -111c-84 7 -143 55 -143 121c0 79 86 128 218 128h509l14 -193l-5 -1c-26 116 -82 186 -248 186h-72v-298h23c124 0 171 45 189 138h5v-283h-5c-18 92 -65 137 -189 137h-23v-297h81
c175 0 221 95 250 200l5 -1l-19 -206h-532z" />
    <glyph glyph-name="F.alt" horiz-adv-x="779" 
d="M215 0v6c78 0 90 23 90 94v510h-56c-94 0 -142 -61 -142 -130c0 -39 16 -83 50 -111c-84 7 -143 55 -143 121c0 79 86 128 218 128h507l13 -200l-5 -1c-26 116 -86 193 -247 193h-70v-306h21c123 0 171 50 188 143h5v-293h-5c-17 92 -65 142 -188 142h-21v-191
c0 -77 22 -99 100 -99v-6h-315z" />
    <glyph glyph-name="G.alt" horiz-adv-x="771" 
d="M412 -12c-256 0 -370 149 -370 314c0 202 172 328 374 328c169 0 263 -88 263 -160c0 -36 -24 -76 -68 -76c-40 0 -70 31 -70 71c0 35 24 64 56 69c-27 44 -83 89 -175 89c-167 0 -244 -147 -244 -324c0 -156 61 -304 227 -304c57 0 105 17 149 40v151
c0 71 -15 100 -97 100v7h304v-7c-75 0 -86 -21 -86 -92v-261c0 -108 -106 -172 -220 -204l-3 4c87 45 102 107 102 177v92c-45 -8 -93 -14 -142 -14z" />
    <glyph glyph-name="H.alt" horiz-adv-x="1142" 
d="M280 -157c-178 0 -273 81 -273 182c0 117 127 180 251 170c-84 -21 -132 -78 -132 -173c0 -91 44 -171 157 -171c119 0 185 88 185 272v487h-56c-94 0 -142 -61 -142 -130c0 -39 16 -83 50 -111c-84 7 -143 55 -143 121c0 79 86 128 218 128h288v-7
c-78 0 -90 -23 -90 -94v-199h305v199c0 71 -12 94 -90 94v7h305v-7c-78 0 -90 -23 -90 -94v-417c0 -71 12 -94 90 -94v-6h-305v6c78 0 90 23 90 94v209h-305v-186c0 -174 -111 -280 -313 -280z" />
    <glyph glyph-name="I.alt" horiz-adv-x="549" 
d="M215 0v6c78 0 90 23 90 94v510h-56c-94 0 -142 -61 -142 -130c0 -39 16 -83 50 -111c-84 7 -143 55 -143 121c0 79 86 128 218 128h288v-7c-78 0 -90 -23 -90 -94v-417c0 -71 12 -94 90 -94v-6h-305z" />
    <glyph glyph-name="J.alt" horiz-adv-x="705" 
d="M280 -157c-178 0 -273 81 -273 182c0 117 127 180 251 170c-84 -21 -132 -78 -132 -173c0 -91 44 -171 157 -171c119 0 185 88 185 272v487h-56c-94 0 -142 -61 -142 -130c0 -39 16 -83 50 -111c-84 7 -143 55 -143 121c0 79 86 128 218 128h288v-7
c-78 0 -90 -23 -90 -94v-394c0 -174 -111 -280 -313 -280z" />
    <glyph glyph-name="K.alt" horiz-adv-x="869" 
d="M215 0v6c78 0 90 23 90 94v510h-56c-94 0 -142 -61 -142 -130c0 -39 16 -83 50 -111c-84 7 -143 55 -143 121c0 79 86 128 218 128h288v-7c-78 0 -90 -23 -90 -94v-259l176 177c58 58 88 102 88 133c0 26 -21 43 -78 43v7h280v-7c-59 0 -106 -24 -147 -55
c-40 -29 -80 -69 -134 -123l-38 -40l226 -319c60 -87 172 -269 314 -269c34 0 59 11 77 19l2 -5c-43 -22 -98 -42 -165 -42c-134 0 -230 76 -329 222l-212 308l-60 -61v-146c0 -71 12 -94 90 -94v-6h-305z" />
    <glyph glyph-name="L.alt" horiz-adv-x="581" 
d="M224 -82v7c62 0 80 15 80 97v588h-56c-94 0 -142 -61 -142 -130c0 -39 16 -83 50 -111c-84 7 -143 55 -143 121c0 79 86 128 218 128h298v-7c-78 0 -100 -21 -100 -99v-610c66 -15 158 -63 224 -104c93 -58 179 -130 280 -130c105 0 166 77 166 176c0 41 -11 83 -33 110
c100 -33 137 -101 137 -163c0 -88 -73 -162 -199 -162c-133 0 -228 82 -357 162c-110 69 -233 129 -375 129c-18 0 -33 -1 -48 -2z" />
    <glyph glyph-name="M.alt" horiz-adv-x="1304" 
d="M251 -157c-142 0 -246 71 -246 179c0 122 132 190 254 176c-82 -22 -134 -79 -134 -170c0 -95 59 -163 165 -163c117 0 231 85 243 270l31 475h-122c-94 0 -142 -61 -142 -130c0 -39 16 -83 50 -111c-83 7 -142 55 -142 121c0 79 86 128 218 128h239l213 -444l184 444
h198v-7c-82 0 -93 -45 -89 -115l18 -377c4 -79 21 -113 97 -113v-6h-309v6c76 0 91 39 87 108l-22 430l-220 -526h-6l-248 505l-24 -389c-12 -181 -116 -291 -293 -291z" />
    <glyph glyph-name="N.alt" horiz-adv-x="1115" 
d="M253 -157c-141 0 -247 71 -247 179c0 121 132 190 254 176c-82 -22 -134 -80 -134 -169c0 -96 61 -164 165 -164c119 0 241 90 241 275v470h-99c-94 0 -142 -61 -142 -130c0 -39 16 -83 50 -111c-83 7 -142 55 -142 121c0 79 86 128 218 128h197l364 -425v99
c0 261 -7 319 -125 319v7h260v-7c-118 0 -125 -58 -125 -319v-297l-6 -2l-440 512v-366c0 -181 -111 -296 -289 -296z" />
    <glyph glyph-name="O.alt" horiz-adv-x="758" 
d="M379 -12c-190 0 -336 132 -336 321c0 188 143 321 340 321c123 0 224 -48 224 -139c0 -85 -84 -121 -170 -121c-16 0 -31 1 -46 4c79 11 117 64 117 128c0 57 -26 119 -127 119c-157 0 -203 -152 -203 -311c0 -160 47 -314 201 -314c153 0 200 154 200 305
c0 36 -2 53 -5 78c42 27 64 65 64 113c0 12 -2 21 -5 31c51 -54 82 -128 82 -214c0 -189 -146 -321 -336 -321z" />
    <glyph glyph-name="P.alt" horiz-adv-x="805" 
d="M215 0v6c78 0 90 23 90 94v510h-56c-94 0 -142 -61 -142 -130c0 -39 16 -83 50 -111c-84 7 -143 55 -143 121c0 79 86 128 218 128h290c189 0 261 -78 261 -178c0 -101 -72 -177 -261 -177h-45v7h23c110 0 150 83 150 170c0 86 -40 170 -150 170h-70v-510
c0 -71 12 -94 90 -94v-6h-305z" />
    <glyph glyph-name="Q.alt" horiz-adv-x="747" 
d="M825 -360c-118 0 -208 72 -294 148c-96 85 -174 169 -265 169c-58 0 -83 -35 -106 -35c-10 0 -17 5 -17 15c0 22 42 14 88 26c13 4 40 13 63 22c144 56 276 153 276 362c0 119 -44 274 -201 274c-153 0 -205 -147 -205 -264c0 -165 102 -246 209 -246c21 0 39 3 57 9
c-28 -25 -79 -37 -128 -37c-149 0 -268 106 -268 259c0 163 135 288 337 288c203 0 335 -126 335 -293c0 -194 -186 -300 -423 -366c30 6 63 9 94 9c95 0 156 -38 250 -123c109 -97 184 -172 275 -172c51 0 88 24 127 65l4 -3c-35 -43 -95 -107 -208 -107z" />
    <glyph glyph-name="R.alt" horiz-adv-x="882" 
d="M215 6c78 0 90 23 90 94v510h-56c-94 0 -142 -61 -142 -130c0 -39 16 -83 50 -111c-84 7 -143 55 -143 121c0 79 86 128 218 128h292c182 0 274 -59 274 -162c0 -127 -140 -152 -250 -156v-3h24c128 0 151 -32 212 -145c94 -179 156 -345 306 -345c25 0 39 4 57 9l1 -4
c-31 -13 -84 -28 -140 -28c-142 0 -223 98 -300 246c-23 43 -49 99 -80 165c-35 73 -47 100 -121 100h-77v-195c0 -71 12 -94 90 -94v-6h-305v6zM510 302c109 0 159 72 159 155c0 85 -49 153 -164 153h-75v-308h80z" />
    <glyph glyph-name="S.alt" horiz-adv-x="572" 
d="M283 -12c-149 0 -242 70 -242 141c0 41 30 74 69 74c38 0 68 -31 68 -70c0 -35 -24 -64 -56 -70c23 -32 71 -68 153 -68c100 0 150 54 150 120c0 176 -358 120 -358 339c0 106 83 176 225 176c132 0 218 -62 218 -134c0 -42 -28 -72 -67 -72c-38 0 -67 30 -67 68
c0 34 21 61 52 69c-22 31 -63 62 -131 62c-89 0 -134 -52 -134 -111c0 -168 360 -116 360 -341c0 -111 -89 -183 -240 -183z" />
    <glyph glyph-name="T.alt" horiz-adv-x="800" 
d="M243 0v6c78 0 100 22 100 99v503c-35 4 -68 8 -92 8c-110 0 -139 -63 -139 -119c0 -42 17 -80 58 -109c-80 10 -158 47 -158 122c0 82 94 115 204 115c123 0 299 -42 390 -42c112 0 141 65 141 118c0 41 -17 78 -58 111c80 -10 158 -48 158 -122
c0 -81 -92 -117 -203 -117c-52 0 -115 7 -176 16v-484c0 -77 22 -99 100 -99v-6h-325z" />
    <glyph glyph-name="U.alt" horiz-adv-x="886" 
d="M541 -12c-129 0 -246 58 -246 221v401h-48c-94 0 -142 -61 -142 -130c0 -39 16 -83 50 -111c-83 7 -142 55 -142 121c0 79 86 128 218 128h278v-7c-78 0 -90 -31 -90 -102v-322c0 -111 43 -184 155 -184c109 0 183 68 183 200v101c0 254 -11 307 -125 307v7h259v-7
c-117 0 -124 -58 -124 -307v-101c0 -141 -81 -215 -226 -215z" />
    <glyph glyph-name="V.alt" horiz-adv-x="647" 
d="M326 -5l-212 485c-29 67 -59 131 -133 131v7h327v-7c-79 -1 -91 -51 -60 -125l155 -373c66 109 170 288 170 436c0 114 -62 174 -196 148c29 46 74 79 131 79c64 0 122 -42 122 -145c0 -204 -221 -518 -296 -636h-8z" />
    <glyph glyph-name="W.alt" horiz-adv-x="963" 
d="M316 -5l-202 485c-25 60 -57 131 -133 131v7h312v-7c-75 0 -83 -45 -55 -115l137 -344l114 292l-13 36c-28 77 -69 131 -130 131v7h318v-7c-79 0 -87 -52 -61 -125l133 -371c62 110 147 288 147 429c0 125 -67 178 -201 153c29 46 74 79 132 79c63 0 126 -40 126 -149
c0 -200 -204 -527 -271 -632h-8l-166 433l-172 -433h-7z" />
    <glyph glyph-name="X.alt" horiz-adv-x="1085" 
d="M249 -117c-134 0 -237 71 -237 179c0 122 132 190 254 176c-85 -22 -134 -85 -134 -172c0 -94 57 -159 158 -159c135 0 237 124 316 236l92 128l-123 190c-47 74 -99 150 -173 150v7h333v-7c-83 0 -73 -60 -36 -118l85 -133l26 35c53 74 79 123 79 159
c0 34 -23 57 -74 57v7h286v-7c-61 0 -107 -27 -154 -68c-42 -38 -85 -92 -132 -155l-26 -36l129 -201c47 -72 105 -145 175 -145v-6h-332v6c77 0 74 54 33 117l-91 140l-90 -126c-98 -134 -189 -254 -364 -254z" />
    <glyph glyph-name="Y.alt" horiz-adv-x="610" 
d="M178 0v6c83 0 100 37 100 114v131l-149 244c-40 64 -82 116 -140 116v7h324v-7c-72 0 -85 -42 -45 -110l130 -218c89 106 153 195 153 287c0 91 -64 155 -196 127c29 46 76 79 133 79c62 0 120 -41 120 -136c0 -140 -125 -271 -206 -362v-158c0 -77 17 -114 100 -114v-6
h-324z" />
    <glyph glyph-name="Z.alt" horiz-adv-x="569" 
d="M26 -82l-1 2l379 690h-167c-110 0 -170 -98 -199 -198h-5l15 206h501l2 -2l-385 -699c105 -16 208 -69 289 -119c97 -60 181 -130 280 -130c105 0 166 77 166 176c0 41 -11 83 -33 110c100 -33 137 -101 137 -163c0 -88 -73 -162 -199 -162c-133 0 -228 82 -359 163
c-110 68 -231 128 -373 128c-19 0 -37 -1 -48 -2z" />
    <glyph glyph-name="d.alt" horiz-adv-x="549" 
d="M219 -11c-111 0 -181 99 -181 213c0 123 82 217 208 217c48 0 84 -15 107 -36v118c-274 19 -489 143 -489 286c0 82 74 150 186 174c-47 -45 -74 -96 -74 -170c0 -201 202 -267 377 -280v22c4 155 108 237 235 237c107 0 140 -58 140 -116c0 -90 -79 -149 -261 -156v-423
c0 -50 16 -69 70 -69v-6h-182v57c-29 -36 -73 -68 -136 -68zM270 20c37 0 64 21 83 46v271c-7 38 -38 73 -84 73c-75 0 -110 -108 -110 -202c0 -99 33 -188 111 -188zM467 507c185 7 251 69 251 148c0 67 -48 105 -115 105c-98 0 -136 -80 -136 -192v-61z" />
    <glyph glyph-name="d.alt1" horiz-adv-x="549" 
d="M219 -11c-111 0 -181 99 -181 213c0 123 82 217 208 217c48 0 84 -15 107 -36v157c0 33 5 62 14 87c-189 80 -408 247 -600 247c-124 0 -196 -71 -196 -165c0 -55 28 -119 89 -163c-124 8 -201 83 -201 174c0 97 86 180 247 180c238 0 471 -180 665 -264
c32 85 105 124 182 124c76 0 111 -36 111 -86c0 -56 -43 -91 -120 -91c-25 0 -51 3 -77 10v-518c0 -50 16 -69 70 -69v-6h-182v57c-29 -36 -73 -68 -136 -68zM270 20c37 0 64 21 83 46v271c-7 38 -38 73 -84 73c-75 0 -110 -108 -110 -202c0 -99 33 -188 111 -188zM467 601
c26 -7 51 -10 75 -10c76 0 112 38 112 83c0 42 -30 77 -87 77c-74 0 -98 -59 -100 -150z" />
    <glyph glyph-name="h.alt" 
d="M13 0v6c54 0 70 19 70 69v435c0 14 1 29 3 42c-248 99 -481 350 -692 350c-114 0 -169 -73 -169 -163c0 -59 23 -117 79 -163c-117 25 -191 90 -191 177c0 90 77 177 224 177c255 0 501 -265 751 -368c20 131 102 198 221 198c113 0 155 -57 155 -119
c0 -81 -74 -130 -187 -130c-27 0 -54 3 -80 7v-183c35 36 91 84 161 84c63 0 119 -38 119 -132v-212c0 -50 16 -69 70 -69v-6h-249v6c48 0 65 19 65 69v221c0 54 -24 82 -66 82c-43 0 -76 -28 -100 -53v-250c0 -50 16 -69 70 -69v-6h-254zM197 527c26 -5 52 -8 79 -8
c108 0 178 48 178 123c0 65 -54 108 -128 108c-112 0 -129 -99 -129 -202v-21z" />
    <glyph glyph-name="h.alt1" horiz-adv-x="538" 
d="M13 0v6c54 0 70 19 70 69v498c0 50 -16 69 -70 69v6l184 20v-333c35 36 91 84 161 84c63 0 119 -38 119 -132v-369c26 4 53 7 81 7c109 0 186 -43 186 -126c0 -61 -41 -123 -158 -123c-125 0 -201 75 -218 197c-255 -103 -500 -367 -763 -367c-154 0 -227 90 -227 179
c0 83 67 152 181 175c-41 -38 -69 -92 -69 -156c0 -96 60 -165 178 -165c224 0 448 248 698 345c-2 12 -3 26 -3 40v372c0 54 -24 82 -66 82c-43 0 -76 -28 -100 -53v-250c0 -50 16 -69 70 -69v-6h-254zM477 -91v-16c0 -110 14 -207 126 -207c79 0 131 48 131 112
c0 76 -71 119 -175 119c-28 0 -55 -3 -82 -8z" />
    <glyph glyph-name="l.alt" horiz-adv-x="282" 
d="M14 0v6c54 0 70 19 70 69v437c0 14 1 28 3 40c-248 99 -481 350 -692 350c-114 0 -169 -73 -169 -163c0 -59 23 -117 79 -163c-117 25 -191 90 -191 177c0 90 77 177 224 177c255 0 501 -265 751 -368c20 131 102 198 221 198c113 0 155 -57 155 -119
c0 -81 -74 -130 -187 -130c-27 0 -54 3 -80 7v-443c0 -50 16 -69 70 -69v-6h-254zM198 527c26 -5 52 -8 79 -8c108 0 178 48 178 123c0 65 -54 108 -128 108c-112 0 -129 -99 -129 -202v-21z" />
    <glyph glyph-name="l.alt1" horiz-adv-x="282" 
d="M14 0v6c54 0 70 19 70 69v444c-28 -5 -57 -8 -85 -8c-111 0 -178 44 -178 125c0 62 47 124 163 124c119 0 193 -63 209 -196c251 105 496 366 750 366c147 0 225 -87 225 -177c0 -87 -74 -152 -191 -177c53 43 79 104 79 165c0 86 -50 161 -168 161
c-213 0 -444 -249 -693 -348c2 -11 3 -24 3 -38v-441c0 -50 16 -69 70 -69v-6h-254zM84 528v28c0 102 -7 194 -118 194c-76 0 -135 -48 -135 -114c0 -74 63 -117 168 -117c28 0 56 3 85 9z" />
    <glyph glyph-name="y.alt" horiz-adv-x="493" 
d="M7 -275c-74 0 -120 39 -120 95c0 69 69 97 123 97c51 0 106 -25 164 -61c22 38 44 85 69 138l-148 313c-27 58 -55 94 -106 94v7h277v-7c-68 0 -76 -32 -52 -86l85 -196l35 85c32 77 47 119 47 148c0 28 -16 49 -64 49v7h192v-7c-50 0 -79 -25 -102 -60
c-15 -23 -26 -52 -65 -142l-98 -221c-22 -48 -43 -90 -64 -126c150 -96 318 -264 495 -264c138 0 177 103 177 175c0 55 -22 108 -79 143c112 -13 191 -78 191 -166c0 -77 -61 -177 -230 -177c-226 0 -406 180 -558 280c-44 -74 -90 -118 -169 -118zM8 -267
c73 0 118 42 161 115c-57 36 -109 61 -159 61c-54 0 -113 -29 -113 -89c0 -51 42 -87 111 -87z" />
    <glyph glyph-name="Amacron" unicode="&#x100;" horiz-adv-x="666" 
d="M-36 0v6c110 0 145 111 185 203l177 413h6l220 -483c30 -66 68 -133 135 -133v-6h-329v6c71 0 94 48 60 126l-34 76h-224l-8 -21c-34 -89 -45 -181 74 -181v-6h-262zM165 218h215l-110 250zM188 700v34h279v-34h-279z" />
    <glyph glyph-name="amacron" unicode="&#x101;" horiz-adv-x="512" 
d="M177 -11c-83 0 -139 44 -139 114c0 80 75 115 166 115c39 0 81 -7 112 -17v101c0 64 -18 111 -86 111c-49 0 -76 -24 -93 -50c24 -9 40 -33 40 -58c0 -34 -26 -60 -61 -60c-38 0 -60 32 -60 64c0 59 73 110 179 110c93 0 195 -40 195 -149v-220c0 -27 13 -35 28 -35
c31 0 56 38 67 58l6 -4c-23 -39 -55 -78 -116 -78c-51 0 -85 27 -95 68c-26 -36 -69 -70 -143 -70zM227 13c36 0 66 23 89 53v127c-21 6 -46 13 -71 13c-56 0 -89 -32 -89 -99c0 -57 25 -94 71 -94zM103 500v34h278v-34h-278z" />
    <glyph glyph-name="Abreve" unicode="&#x102;" horiz-adv-x="666" 
d="M-36 0v6c110 0 145 111 185 203l177 413h6l220 -483c30 -66 68 -133 135 -133v-6h-329v6c71 0 94 48 60 126l-34 76h-224l-8 -21c-34 -89 -45 -181 74 -181v-6h-262zM165 218h215l-110 250zM328 676c-96 0 -119 101 -119 164h2c9 -39 37 -83 117 -83c81 0 108 44 117 83
h3c0 -63 -24 -164 -120 -164z" />
    <glyph glyph-name="abreve" unicode="&#x103;" horiz-adv-x="512" 
d="M177 -11c-83 0 -139 44 -139 114c0 80 75 115 166 115c39 0 81 -7 112 -17v101c0 64 -18 111 -86 111c-49 0 -76 -24 -93 -50c24 -9 40 -33 40 -58c0 -34 -26 -60 -61 -60c-38 0 -60 32 -60 64c0 59 73 110 179 110c93 0 195 -40 195 -149v-220c0 -27 13 -35 28 -35
c31 0 56 38 67 58l6 -4c-23 -39 -55 -78 -116 -78c-51 0 -85 27 -95 68c-26 -36 -69 -70 -143 -70zM227 13c36 0 66 23 89 53v127c-21 6 -46 13 -71 13c-56 0 -89 -32 -89 -99c0 -57 25 -94 71 -94zM242 476c-96 0 -120 101 -120 164h3c9 -39 37 -83 117 -83
c81 0 108 44 117 83h2c0 -63 -23 -164 -119 -164z" />
    <glyph glyph-name="Aogonek" unicode="&#x104;" horiz-adv-x="666" 
d="M518 -216c-64 0 -105 28 -105 80c0 78 97 108 162 136h-217v6c71 0 94 48 60 126l-34 76h-224l-8 -21c-34 -89 -45 -181 74 -181v-6h-262v6c110 0 145 111 185 203l177 413h6l220 -483c30 -66 68 -133 135 -133v-6h-97c-42 -22 -85 -52 -85 -117c0 -54 29 -78 78 -78
c21 0 38 4 50 8l2 -5c-31 -13 -77 -24 -117 -24zM165 218h215l-110 250z" />
    <glyph glyph-name="aogonek" unicode="&#x105;" horiz-adv-x="512" 
d="M177 -11c-83 0 -139 44 -139 114c0 80 75 115 166 115c39 0 81 -7 112 -17v101c0 64 -18 111 -86 111c-49 0 -76 -24 -93 -50c24 -9 40 -33 40 -58c0 -34 -26 -60 -61 -60c-38 0 -60 32 -60 64c0 59 73 110 179 110c93 0 195 -40 195 -149v-220c0 -27 13 -35 28 -35
c31 0 56 38 67 58l6 -4c-20 -34 -50 -75 -107 -76c-37 -22 -72 -52 -72 -110c0 -54 29 -78 78 -78c21 0 38 4 50 8l2 -5c-30 -13 -76 -24 -116 -24c-64 0 -105 28 -105 80c0 70 77 102 141 128c-44 4 -72 30 -82 67c-26 -36 -69 -70 -143 -70zM227 13c36 0 66 23 89 53v127
c-21 6 -46 13 -71 13c-56 0 -89 -32 -89 -99c0 -57 25 -94 71 -94z" />
    <glyph glyph-name="Cacute" unicode="&#x106;" horiz-adv-x="679" 
d="M396 -12c-224 0 -353 136 -353 318c0 193 145 324 350 324c82 0 150 -21 222 -2l17 -203l-5 -1c-57 138 -128 199 -230 199c-159 0 -219 -152 -219 -315c0 -160 57 -314 213 -314c120 0 198 91 249 211h5l-33 -187c-53 -16 -144 -30 -216 -30zM309 673l-2 2
c53 73 91 136 115 157s53 20 69 1s13 -46 -11 -67c-25 -21 -90 -51 -171 -93z" />
    <glyph glyph-name="cacute" unicode="&#x107;" horiz-adv-x="469" 
d="M248 -11c-134 0 -211 97 -211 212c0 136 107 218 225 218c106 0 170 -65 170 -126c0 -40 -27 -68 -63 -68s-63 29 -63 64c0 32 22 58 53 63c-11 29 -37 60 -84 60c-84 0 -118 -100 -118 -200c0 -127 50 -202 135 -202c65 0 114 44 141 94l6 -3
c-28 -51 -85 -112 -191 -112zM183 473l-2 2c52 73 91 136 115 157s52 20 69 1c16 -19 13 -46 -12 -67c-24 -21 -90 -51 -170 -93z" />
    <glyph glyph-name="Ccircumflex" unicode="&#x108;" horiz-adv-x="679" 
d="M396 -12c-224 0 -353 136 -353 318c0 193 145 324 350 324c82 0 150 -21 222 -2l17 -203l-5 -1c-57 138 -128 199 -230 199c-159 0 -219 -152 -219 -315c0 -160 57 -314 213 -314c120 0 198 91 249 211h5l-33 -187c-53 -16 -144 -30 -216 -30zM243 666l-2 2l112 144
c9 13 20 20 36 20c15 0 26 -7 36 -20l111 -144l-2 -2l-145 80z" />
    <glyph glyph-name="ccircumflex" unicode="&#x109;" horiz-adv-x="469" 
d="M248 -11c-134 0 -211 97 -211 212c0 136 107 218 225 218c106 0 170 -65 170 -126c0 -40 -27 -68 -63 -68s-63 29 -63 64c0 32 22 58 53 63c-11 29 -37 60 -84 60c-84 0 -118 -100 -118 -200c0 -127 50 -202 135 -202c65 0 114 44 141 94l6 -3
c-28 -51 -85 -112 -191 -112zM100 466l-2 2l111 144c10 13 21 20 36 20c16 0 27 -7 36 -20l112 -144l-2 -2l-146 80z" />
    <glyph glyph-name="Cdotaccent" unicode="&#x10a;" horiz-adv-x="679" 
d="M396 -12c-224 0 -353 136 -353 318c0 193 145 324 350 324c82 0 150 -21 222 -2l17 -203l-5 -1c-57 138 -128 199 -230 199c-159 0 -219 -152 -219 -315c0 -160 57 -314 213 -314c120 0 198 91 249 211h5l-33 -187c-53 -16 -144 -30 -216 -30zM390 691
c-35 0 -64 29 -64 64s29 64 64 64s64 -29 64 -64s-29 -64 -64 -64z" />
    <glyph glyph-name="cdotaccent" unicode="&#x10b;" horiz-adv-x="469" 
d="M248 -11c-134 0 -211 97 -211 212c0 136 107 218 225 218c106 0 170 -65 170 -126c0 -40 -27 -68 -63 -68s-63 29 -63 64c0 32 22 58 53 63c-11 29 -37 60 -84 60c-84 0 -118 -100 -118 -200c0 -127 50 -202 135 -202c65 0 114 44 141 94l6 -3
c-28 -51 -85 -112 -191 -112zM255 491c-35 0 -64 29 -64 64s29 64 64 64s64 -29 64 -64s-29 -64 -64 -64z" />
    <glyph glyph-name="Ccaron" unicode="&#x10c;" horiz-adv-x="679" 
d="M396 -12c-224 0 -353 136 -353 318c0 193 145 324 350 324c82 0 150 -21 222 -2l17 -203l-5 -1c-57 138 -128 199 -230 199c-159 0 -219 -152 -219 -315c0 -160 57 -314 213 -314c120 0 198 91 249 211h5l-33 -187c-53 -16 -144 -30 -216 -30zM395 665
c-16 0 -27 7 -36 20l-112 144l2 2l146 -80l145 80l2 -2l-111 -144c-10 -13 -21 -20 -36 -20z" />
    <glyph glyph-name="ccaron" unicode="&#x10d;" horiz-adv-x="469" 
d="M248 -11c-134 0 -211 97 -211 212c0 136 107 218 225 218c106 0 170 -65 170 -126c0 -40 -27 -68 -63 -68s-63 29 -63 64c0 32 22 58 53 63c-11 29 -37 60 -84 60c-84 0 -118 -100 -118 -200c0 -127 50 -202 135 -202c65 0 114 44 141 94l6 -3
c-28 -51 -85 -112 -191 -112zM250 465c-16 0 -27 7 -36 20l-112 144l2 2l146 -80l145 80l2 -2l-111 -144c-10 -13 -21 -20 -36 -20z" />
    <glyph glyph-name="Dcaron" unicode="&#x10e;" horiz-adv-x="750" 
d="M29 0v6c78 0 90 23 90 94v417c0 71 -12 94 -90 94v7h321c219 0 356 -121 356 -309s-136 -309 -356 -309h-321zM244 7h93c169 0 234 142 234 302c0 159 -65 301 -234 301h-93v-603zM381 665c-16 0 -27 7 -36 20l-112 144l2 2l146 -80l145 80l2 -2l-111 -144
c-10 -13 -21 -20 -36 -20z" />
    <glyph glyph-name="dcaron" unicode="&#x10f;" horiz-adv-x="564" 
d="M538 453l-3 1c5 74 6 147 15 173c8 25 34 42 59 33c24 -9 33 -36 23 -62c-9 -26 -51 -82 -94 -145zM219 -11c-111 0 -181 99 -181 213c0 123 82 217 208 217c48 0 84 -15 107 -36v190c0 56 -26 69 -80 69v6l194 20v-593c0 -50 16 -69 70 -69v-6h-182v57
c-29 -36 -73 -68 -136 -68zM270 20c37 0 64 21 83 46v271c-7 38 -38 73 -84 73c-75 0 -110 -108 -110 -202c0 -99 33 -188 111 -188z" />
    <glyph glyph-name="Dcroat" unicode="&#x110;" horiz-adv-x="751" 
d="M30 0v6c78 0 90 23 90 94v206h-78v9h78v202c0 71 -12 94 -90 94v7h320c220 0 357 -121 357 -309s-137 -309 -357 -309h-320zM244 7h93c170 0 235 142 235 302c0 159 -65 301 -234 301h-94v-295h173v-9h-173v-299z" />
    <glyph glyph-name="dcroat" unicode="&#x111;" horiz-adv-x="549" 
d="M205 500v9h148v64c0 56 -26 69 -80 69v6l194 20v-159h69v-9h-69v-425c0 -50 16 -69 70 -69v-6h-182v57c-29 -36 -73 -68 -136 -68c-111 0 -181 99 -181 213c0 123 82 217 208 217c48 0 84 -15 107 -36v117h-148zM270 20c37 0 64 21 83 46v271c-7 38 -38 73 -84 73
c-75 0 -110 -108 -110 -202c0 -99 33 -188 111 -188z" />
    <glyph glyph-name="Emacron" unicode="&#x112;" horiz-adv-x="630" 
d="M29 0v6c78 0 90 23 90 94v417c0 71 -12 94 -90 94v7h526l14 -193l-5 -1c-26 116 -82 186 -248 186h-72v-298h23c124 0 171 45 189 138h5v-283h-5c-18 92 -65 137 -189 137h-23v-297h81c175 0 221 95 250 200l5 -1l-19 -206h-532zM183 700v34h278v-34h-278z" />
    <glyph glyph-name="emacron" unicode="&#x113;" horiz-adv-x="487" 
d="M254 -11c-142 0 -217 103 -217 216c0 126 93 214 217 214c109 0 194 -67 197 -192h-294c-3 -133 46 -217 140 -217c72 0 121 51 147 94l6 -4c-30 -48 -86 -111 -196 -111zM253 412c-62 0 -92 -91 -96 -176h177c0 52 -7 176 -81 176zM112 500v34h278v-34h-278z" />
    <glyph glyph-name="Ebreve" unicode="&#x114;" horiz-adv-x="630" 
d="M29 0v6c78 0 90 23 90 94v417c0 71 -12 94 -90 94v7h526l14 -193l-5 -1c-26 116 -82 186 -248 186h-72v-298h23c124 0 171 45 189 138h5v-283h-5c-18 92 -65 137 -189 137h-23v-297h81c175 0 221 95 250 200l5 -1l-19 -206h-532zM326 676c-96 0 -119 101 -119 164h2
c9 -39 37 -83 117 -83c81 0 108 44 117 83h3c0 -63 -24 -164 -120 -164z" />
    <glyph glyph-name="ebreve" unicode="&#x115;" horiz-adv-x="487" 
d="M254 -11c-142 0 -217 103 -217 216c0 126 93 214 217 214c109 0 194 -67 197 -192h-294c-3 -133 46 -217 140 -217c72 0 121 51 147 94l6 -4c-30 -48 -86 -111 -196 -111zM253 412c-62 0 -92 -91 -96 -176h177c0 52 -7 176 -81 176zM253 476c-96 0 -120 101 -120 164h3
c9 -39 37 -83 117 -83c81 0 108 44 117 83h2c0 -63 -23 -164 -119 -164z" />
    <glyph glyph-name="Edotaccent" unicode="&#x116;" horiz-adv-x="630" 
d="M29 0v6c78 0 90 23 90 94v417c0 71 -12 94 -90 94v7h526l14 -193l-5 -1c-26 116 -82 186 -248 186h-72v-298h23c124 0 171 45 189 138h5v-283h-5c-18 92 -65 137 -189 137h-23v-297h81c175 0 221 95 250 200l5 -1l-19 -206h-532zM329 691c-36 0 -64 29 -64 64
s28 64 64 64c35 0 64 -29 64 -64s-29 -64 -64 -64z" />
    <glyph glyph-name="edotaccent" unicode="&#x117;" horiz-adv-x="487" 
d="M254 -11c-142 0 -217 103 -217 216c0 126 93 214 217 214c109 0 194 -67 197 -192h-294c-3 -133 46 -217 140 -217c72 0 121 51 147 94l6 -4c-30 -48 -86 -111 -196 -111zM253 412c-62 0 -92 -91 -96 -176h177c0 52 -7 176 -81 176zM252 491c-36 0 -64 29 -64 64
s28 64 64 64c35 0 64 -29 64 -64s-29 -64 -64 -64z" />
    <glyph glyph-name="Eogonek" unicode="&#x118;" horiz-adv-x="630" 
d="M29 0v6c78 0 90 23 90 94v417c0 71 -12 94 -90 94v7h526l14 -193l-5 -1c-26 116 -82 186 -248 186h-72v-298h23c124 0 171 45 189 138h5v-283h-5c-18 92 -65 137 -189 137h-23v-297h81c175 0 221 95 250 200l5 -1l-19 -206h-58c-42 -22 -85 -52 -85 -117
c0 -54 29 -78 78 -78c21 0 38 4 50 8l2 -5c-31 -13 -77 -24 -117 -24c-64 0 -105 28 -105 80c0 78 97 108 162 136h-459z" />
    <glyph glyph-name="eogonek" unicode="&#x119;" horiz-adv-x="487" 
d="M281 -216c-63 0 -105 28 -105 80c0 71 81 98 147 136c-20 -7 -42 -11 -69 -11c-142 0 -217 103 -217 216c0 126 93 214 217 214c109 0 194 -67 197 -192h-294c-3 -133 46 -217 140 -217c72 0 121 51 147 94l6 -4c-28 -45 -48 -63 -92 -87c-37 -21 -90 -54 -90 -129
c0 -55 28 -79 78 -79c21 0 38 4 50 8l2 -5c-31 -13 -77 -24 -117 -24zM253 412c-62 0 -92 -91 -96 -176h177c0 52 -7 176 -81 176z" />
    <glyph glyph-name="Ecaron" unicode="&#x11a;" horiz-adv-x="630" 
d="M29 0v6c78 0 90 23 90 94v417c0 71 -12 94 -90 94v7h526l14 -193l-5 -1c-26 116 -82 186 -248 186h-72v-298h23c124 0 171 45 189 138h5v-283h-5c-18 92 -65 137 -189 137h-23v-297h81c175 0 221 95 250 200l5 -1l-19 -206h-532zM334 665c-16 0 -27 7 -36 20l-112 144
l2 2l146 -80l145 80l2 -2l-111 -144c-10 -13 -21 -20 -36 -20z" />
    <glyph glyph-name="ecaron" unicode="&#x11b;" horiz-adv-x="487" 
d="M254 -11c-142 0 -217 103 -217 216c0 126 93 214 217 214c109 0 194 -67 197 -192h-294c-3 -133 46 -217 140 -217c72 0 121 51 147 94l6 -4c-30 -48 -86 -111 -196 -111zM253 412c-62 0 -92 -91 -96 -176h177c0 52 -7 176 -81 176zM252 465c-16 0 -27 7 -36 20l-112 144
l2 2l146 -80l145 80l2 -2l-111 -144c-10 -13 -21 -20 -36 -20z" />
    <glyph glyph-name="Gcircumflex" unicode="&#x11c;" horiz-adv-x="769" 
d="M413 -12c-256 0 -370 148 -370 315c0 201 164 327 360 327c79 0 165 -21 237 -2l17 -198l-5 -1c-52 135 -142 194 -243 194c-161 0 -231 -150 -231 -322c0 -158 61 -306 227 -306c58 0 106 17 149 40v151c0 71 -15 100 -97 100v7h305v-7c-76 0 -87 -21 -87 -92v-163
c-67 -21 -164 -43 -262 -43zM255 666l-2 2l112 144c9 13 20 20 36 20c15 0 26 -7 36 -20l111 -144l-2 -2l-145 80z" />
    <glyph glyph-name="gcircumflex" unicode="&#x11d;" horiz-adv-x="511" 
d="M219 -174c-115 0 -205 28 -205 86c0 53 73 71 110 76c-38 10 -65 27 -65 63c0 46 44 72 84 86c-66 23 -105 72 -105 134c0 85 76 148 192 148c35 0 67 -6 94 -17c69 16 106 27 130 27c28 0 45 -15 45 -38c0 -22 -17 -40 -41 -40c-36 0 -69 37 -123 46
c54 -25 86 -71 86 -126c0 -85 -74 -148 -191 -148c-30 0 -57 4 -81 12c-14 -6 -26 -17 -26 -30c0 -68 331 27 331 -144c0 -83 -77 -135 -235 -135zM230 413c-56 0 -76 -62 -76 -142s20 -142 76 -142s76 62 76 142s-20 142 -76 142zM227 -168c126 0 158 52 158 85
c0 74 -157 48 -251 70c-32 -11 -55 -32 -55 -66c0 -52 41 -89 148 -89zM84 471l-2 2l112 144c9 13 20 20 36 20c15 0 26 -7 36 -20l111 -144l-2 -2l-145 80z" />
    <glyph glyph-name="Gbreve" unicode="&#x11e;" horiz-adv-x="769" 
d="M413 -12c-256 0 -370 148 -370 315c0 201 164 327 360 327c79 0 165 -21 237 -2l17 -198l-5 -1c-52 135 -142 194 -243 194c-161 0 -231 -150 -231 -322c0 -158 61 -306 227 -306c58 0 106 17 149 40v151c0 71 -15 100 -97 100v7h305v-7c-76 0 -87 -21 -87 -92v-163
c-67 -21 -164 -43 -262 -43zM413 676c-96 0 -119 101 -119 164h2c9 -39 37 -83 117 -83c81 0 108 44 117 83h3c0 -63 -24 -164 -120 -164z" />
    <glyph glyph-name="gbreve" unicode="&#x11f;" horiz-adv-x="468" 
d="M219 -174c-115 0 -205 28 -205 86c0 53 73 71 110 76c-38 10 -65 27 -65 63c0 46 44 72 84 86c-66 23 -105 72 -105 134c0 85 76 148 192 148c39 0 73 -8 102 -20c41 77 51 112 76 122c18 10 42 2 52 -17c9 -16 6 -35 -8 -49c-19 -18 -64 -35 -114 -59
c52 -26 83 -71 83 -125c0 -85 -74 -148 -191 -148c-30 0 -57 4 -81 12c-14 -6 -26 -17 -26 -30c0 -68 331 27 331 -144c0 -83 -77 -135 -235 -135zM230 413c-56 0 -76 -62 -76 -142s20 -142 76 -142s76 62 76 142s-20 142 -76 142zM227 -168c126 0 158 52 158 85
c0 74 -157 48 -251 70c-32 -11 -55 -32 -55 -66c0 -52 41 -89 148 -89zM229 476c-96 0 -119 101 -119 164h2c9 -39 37 -83 117 -83c81 0 108 44 117 83h3c0 -63 -24 -164 -120 -164z" />
    <glyph glyph-name="Gdotaccent" unicode="&#x120;" horiz-adv-x="769" 
d="M413 -12c-256 0 -370 148 -370 315c0 201 164 327 360 327c79 0 165 -21 237 -2l17 -198l-5 -1c-52 135 -142 194 -243 194c-161 0 -231 -150 -231 -322c0 -158 61 -306 227 -306c58 0 106 17 149 40v151c0 71 -15 100 -97 100v7h305v-7c-76 0 -87 -21 -87 -92v-163
c-67 -21 -164 -43 -262 -43zM411 691c-36 0 -64 29 -64 64s28 64 64 64c35 0 64 -29 64 -64s-29 -64 -64 -64z" />
    <glyph glyph-name="gdotaccent" unicode="&#x121;" horiz-adv-x="468" 
d="M219 -174c-115 0 -205 28 -205 86c0 53 73 71 110 76c-38 10 -65 27 -65 63c0 46 44 72 84 86c-66 23 -105 72 -105 134c0 85 76 148 192 148c39 0 73 -8 102 -20c41 77 51 112 76 122c18 10 42 2 52 -17c9 -16 6 -35 -8 -49c-19 -18 -64 -35 -114 -59
c52 -26 83 -71 83 -125c0 -85 -74 -148 -191 -148c-30 0 -57 4 -81 12c-14 -6 -26 -17 -26 -30c0 -68 331 27 331 -144c0 -83 -77 -135 -235 -135zM230 413c-56 0 -76 -62 -76 -142s20 -142 76 -142s76 62 76 142s-20 142 -76 142zM227 -168c126 0 158 52 158 85
c0 74 -157 48 -251 70c-32 -11 -55 -32 -55 -66c0 -52 41 -89 148 -89zM229 491c-36 0 -64 29 -64 64s28 64 64 64c35 0 64 -29 64 -64s-29 -64 -64 -64z" />
    <glyph glyph-name="uni0122" unicode="&#x122;" horiz-adv-x="769" 
d="M413 -12c-256 0 -370 148 -370 315c0 201 164 327 360 327c79 0 165 -21 237 -2l17 -198l-5 -1c-52 135 -142 194 -243 194c-161 0 -231 -150 -231 -322c0 -158 61 -306 227 -306c58 0 106 17 149 40v151c0 71 -15 100 -97 100v7h305v-7c-76 0 -87 -21 -87 -92v-163
c-67 -21 -164 -43 -262 -43zM333 -319l-3 5c57 20 106 72 107 128c-9 -7 -21 -11 -34 -11c-32 0 -58 26 -58 57c0 32 27 58 63 58c40 0 64 -32 64 -75c0 -60 -45 -129 -139 -162z" />
    <glyph glyph-name="uni0123" unicode="&#x123;" horiz-adv-x="468" 
d="M219 -174c-115 0 -205 28 -205 86c0 53 73 71 110 76c-38 10 -65 27 -65 63c0 46 44 72 84 86c-66 23 -105 72 -105 134c0 85 76 148 192 148c39 0 73 -8 102 -20c41 77 51 112 76 122c18 10 42 2 52 -17c9 -16 6 -35 -8 -49c-19 -18 -64 -35 -114 -59
c52 -26 83 -71 83 -125c0 -85 -74 -148 -191 -148c-30 0 -57 4 -81 12c-14 -6 -26 -17 -26 -30c0 -68 331 27 331 -144c0 -83 -77 -135 -235 -135zM230 413c-56 0 -76 -62 -76 -142s20 -142 76 -142s76 62 76 142s-20 142 -76 142zM227 -168c126 0 158 52 158 85
c0 74 -157 48 -251 70c-32 -11 -55 -32 -55 -66c0 -52 41 -89 148 -89zM306 721l3 -5c-57 -21 -106 -72 -107 -128c9 7 21 11 34 11c32 0 58 -26 58 -58s-27 -58 -63 -58c-40 0 -64 33 -64 76c0 59 45 128 139 162z" />
    <glyph glyph-name="Hcircumflex" unicode="&#x124;" horiz-adv-x="793" 
d="M29 0v6c78 0 90 23 90 94v417c0 71 -12 94 -90 94v7h305v-7c-78 0 -90 -23 -90 -94v-199h305v199c0 71 -12 94 -90 94v7h305v-7c-78 0 -90 -23 -90 -94v-417c0 -71 12 -94 90 -94v-6h-305v6c78 0 90 23 90 94v209h-305v-209c0 -71 12 -94 90 -94v-6h-305zM251 666l-2 2
l111 144c10 13 21 20 36 20c16 0 27 -7 36 -20l112 -144l-2 -2l-146 80z" />
    <glyph glyph-name="hcircumflex" unicode="&#x125;" 
d="M13 0v6c54 0 70 19 70 69v498c0 50 -16 69 -70 69v6l184 20v-333c35 36 91 84 161 84c63 0 119 -38 119 -132v-212c0 -50 16 -69 70 -69v-6h-249v6c48 0 65 19 65 69v221c0 54 -24 82 -66 82c-43 0 -76 -28 -100 -53v-250c0 -50 16 -69 70 -69v-6h-254zM121 703l-2 2
l112 145c9 12 20 20 36 20c15 0 26 -8 36 -20l111 -145l-2 -2l-145 80z" />
    <glyph glyph-name="Hbar" unicode="&#x126;" horiz-adv-x="793" 
d="M44 452v9h75v56c0 71 -12 94 -90 94v7h305v-7c-78 0 -90 -23 -90 -94v-56h305v56c0 71 -12 94 -90 94v7h305v-7c-78 0 -90 -23 -90 -94v-56h75v-9h-75v-352c0 -71 12 -94 90 -94v-6h-305v6c78 0 90 23 90 94v209h-305v-209c0 -71 12 -94 90 -94v-6h-305v6
c78 0 90 23 90 94v352h-75zM244 318h305v134h-305v-134z" />
    <glyph glyph-name="hbar" unicode="&#x127;" 
d="M14 500v9h69v64c0 50 -16 69 -70 69v6l184 20v-159h147v-9h-147v-165c35 36 91 84 161 84c63 0 119 -38 119 -132v-212c0 -50 16 -69 70 -69v-6h-249v6c48 0 65 19 65 69v221c0 54 -24 82 -66 82c-43 0 -76 -28 -100 -53v-250c0 -50 16 -69 70 -69v-6h-254v6
c54 0 70 19 70 69v425h-69z" />
    <glyph glyph-name="Itilde" unicode="&#x128;" horiz-adv-x="363" 
d="M29 0v6c78 0 90 23 90 94v417c0 71 -12 94 -90 94v7h305v-7c-78 0 -90 -23 -90 -94v-417c0 -71 12 -94 90 -94v-6h-305zM36 686c5 54 15 141 81 141c52 0 105 -54 158 -54c43 0 50 33 54 61l5 -1c-6 -62 -20 -140 -82 -140c-52 0 -104 54 -158 54c-43 0 -50 -34 -53 -61
h-5z" />
    <glyph glyph-name="itilde" unicode="&#x129;" horiz-adv-x="289" 
d="M21 0v6c54 0 70 19 70 69v248c0 50 -16 69 -70 69v6l184 20v-343c0 -50 16 -69 70 -69v-6h-254zM-8 486c5 54 15 141 82 141c52 0 104 -54 158 -54c43 0 50 33 53 61l5 -1c-5 -62 -19 -140 -82 -140c-51 0 -103 54 -157 54c-43 0 -50 -34 -54 -61h-5z" />
    <glyph glyph-name="Imacron" unicode="&#x12a;" horiz-adv-x="363" 
d="M29 0v6c78 0 90 23 90 94v417c0 71 -12 94 -90 94v7h305v-7c-78 0 -90 -23 -90 -94v-417c0 -71 12 -94 90 -94v-6h-305zM42 700v34h279v-34h-279z" />
    <glyph glyph-name="imacron" unicode="&#x12b;" horiz-adv-x="289" 
d="M21 0v6c54 0 70 19 70 69v248c0 50 -16 69 -70 69v6l184 20v-343c0 -50 16 -69 70 -69v-6h-254zM3 500v34h278v-34h-278z" />
    <glyph glyph-name="Ibreve" unicode="&#x12c;" horiz-adv-x="363" 
d="M29 0v6c78 0 90 23 90 94v417c0 71 -12 94 -90 94v7h305v-7c-78 0 -90 -23 -90 -94v-417c0 -71 12 -94 90 -94v-6h-305zM181 676c-96 0 -119 101 -119 164h2c9 -39 37 -83 117 -83c81 0 108 44 117 83h3c0 -63 -24 -164 -120 -164z" />
    <glyph glyph-name="ibreve" unicode="&#x12d;" horiz-adv-x="289" 
d="M21 0v6c54 0 70 19 70 69v248c0 50 -16 69 -70 69v6l184 20v-343c0 -50 16 -69 70 -69v-6h-254zM144 476c-96 0 -119 101 -119 164h2c9 -39 37 -83 117 -83c81 0 108 44 117 83h3c0 -63 -24 -164 -120 -164z" />
    <glyph glyph-name="Iogonek" unicode="&#x12e;" horiz-adv-x="363" 
d="M29 0v6c78 0 90 23 90 94v417c0 71 -12 94 -90 94v7h305v-7c-78 0 -90 -23 -90 -94v-417c0 -71 12 -94 90 -94v-6h-90c-42 -22 -85 -52 -85 -117c0 -54 29 -78 78 -78c21 0 38 4 50 8l2 -5c-31 -13 -77 -24 -117 -24c-64 0 -105 28 -105 80c0 78 97 108 162 136h-200z
" />
    <glyph glyph-name="iogonek" unicode="&#x12f;" horiz-adv-x="290" 
d="M22 0v6c54 0 70 19 70 69v248c0 50 -16 69 -70 69v6l184 20v-343c0 -50 16 -69 70 -69v-6h-65c-42 -22 -85 -52 -85 -117c0 -54 29 -78 78 -78c21 0 38 4 50 8l2 -5c-31 -13 -77 -24 -117 -24c-64 0 -105 28 -105 80c0 78 97 108 162 136h-174zM144 489
c-39 0 -71 28 -71 68s32 67 71 67c40 0 71 -27 71 -67s-31 -68 -71 -68z" />
    <glyph glyph-name="Idotaccent" unicode="&#x130;" horiz-adv-x="363" 
d="M29 0v6c78 0 90 23 90 94v417c0 71 -12 94 -90 94v7h305v-7c-78 0 -90 -23 -90 -94v-417c0 -71 12 -94 90 -94v-6h-305zM181 691c-36 0 -64 29 -64 64s28 64 64 64c35 0 64 -29 64 -64s-29 -64 -64 -64z" />
    <glyph glyph-name="Jcircumflex" unicode="&#x134;" horiz-adv-x="350" 
d="M14 -167l-3 4c87 45 102 107 102 177v503c0 71 -12 94 -90 94v7h304v-7c-78 0 -90 -23 -90 -94v-481c0 -107 -109 -172 -223 -203zM29 666l-2 2l112 144c9 13 20 20 36 20c15 0 26 -7 36 -20l111 -144l-2 -2l-145 80z" />
    <glyph glyph-name="jcircumflex" unicode="&#x135;" horiz-adv-x="272" 
d="M3 -176l-3 3c85 48 87 100 87 167v329c0 51 -21 69 -75 69v6l189 20v-403c0 -105 -101 -161 -198 -191zM-8 466l-2 2l111 144c10 13 21 20 36 20c16 0 27 -7 36 -20l112 -144l-2 -2l-146 80z" />
    <glyph glyph-name="uni0136" unicode="&#x136;" horiz-adv-x="708" 
d="M29 0v6c78 0 90 23 90 94v417c0 71 -12 94 -90 94v7h305v-7c-78 0 -90 -23 -90 -94v-259l176 177c58 58 88 102 88 133c0 26 -21 43 -78 43v7h280v-7c-58 0 -106 -24 -148 -55c-37 -28 -79 -69 -133 -123l-37 -39l210 -301c46 -66 83 -87 123 -87v-6h-211l-210 307
l-60 -61v-146c0 -71 12 -94 90 -94v-6h-305zM314 -319l-3 5c57 20 106 72 107 128c-9 -7 -21 -11 -34 -11c-32 0 -58 26 -58 57c0 32 27 58 63 58c40 0 64 -32 64 -75c0 -60 -45 -129 -139 -162z" />
    <glyph glyph-name="uni0137" unicode="&#x137;" horiz-adv-x="534" 
d="M13 0v6c54 0 70 19 70 69v498c0 50 -16 69 -70 69v6l184 20v-492l94 94c40 39 61 69 61 93s-21 38 -66 38v7h233v-7c-49 0 -85 -15 -122 -43c-22 -16 -47 -37 -78 -69l-10 -10l141 -210c27 -40 57 -63 99 -63v-6h-183l-136 199l-33 -33v-91c0 -50 16 -69 70 -69v-6h-254z
M218 -319l-3 5c57 20 105 72 107 128c-10 -7 -21 -11 -34 -11c-32 0 -58 26 -58 57c0 32 26 58 62 58c41 0 64 -32 64 -75c0 -60 -44 -129 -138 -162z" />
    <glyph glyph-name="kgreenlandic" unicode="&#x138;" horiz-adv-x="541" 
d="M20 0v6c54 0 70 19 70 69v248c0 50 -16 69 -70 69v6l184 20v-242l94 94c40 39 61 69 61 93s-20 38 -65 38v7h232v-7c-48 0 -84 -15 -121 -43c-23 -16 -47 -37 -79 -69l-10 -10l141 -210c27 -40 57 -63 99 -63v-6h-182l-136 199l-34 -33v-91c0 -50 16 -69 70 -69v-6h-254z
" />
    <glyph glyph-name="Lacute" unicode="&#x139;" horiz-adv-x="592" 
d="M29 0v6c78 0 90 23 90 94v417c0 71 -12 94 -90 94v7h315v-7c-78 0 -100 -21 -100 -99v-505h64c164 0 225 90 251 206l5 -1l-14 -212h-521zM158 673l-2 2c52 73 91 136 115 157s52 20 69 1c16 -19 13 -46 -12 -67c-24 -21 -90 -51 -170 -93z" />
    <glyph glyph-name="lacute" unicode="&#x13a;" horiz-adv-x="282" 
d="M14 0v6c54 0 70 19 70 69v498c0 50 -16 69 -70 69v6l184 20v-593c0 -50 16 -69 70 -69v-6h-254zM52 703l-2 2c53 74 91 136 115 157c24 22 53 21 69 1c16 -18 13 -46 -11 -67c-25 -20 -90 -50 -171 -93z" />
    <glyph glyph-name="uni013B" unicode="&#x13b;" horiz-adv-x="592" 
d="M29 0v6c78 0 90 23 90 94v417c0 71 -12 94 -90 94v7h315v-7c-78 0 -100 -21 -100 -99v-505h64c164 0 225 90 251 206l5 -1l-14 -212h-521zM257 -319l-3 5c57 20 106 72 107 128c-9 -7 -21 -11 -34 -11c-32 0 -58 26 -58 57c0 32 27 58 63 58c40 0 64 -32 64 -75
c0 -60 -45 -129 -139 -162z" />
    <glyph glyph-name="uni013C" unicode="&#x13c;" horiz-adv-x="282" 
d="M14 0v6c54 0 70 19 70 69v498c0 50 -16 69 -70 69v6l184 20v-593c0 -50 16 -69 70 -69v-6h-254zM69 -319l-3 5c57 20 105 72 107 128c-10 -7 -21 -11 -34 -11c-32 0 -58 26 -58 57c0 32 26 58 62 58c41 0 64 -32 64 -75c0 -60 -44 -129 -138 -162z" />
    <glyph glyph-name="Lcaron" unicode="&#x13d;" horiz-adv-x="594" 
d="M431 418l-3 1c5 74 6 147 15 173c8 25 34 42 59 33c24 -9 33 -36 23 -62c-9 -26 -51 -82 -94 -145zM29 0v6c78 0 90 23 90 94v417c0 71 -12 94 -90 94v7h315v-7c-78 0 -100 -21 -100 -99v-505h64c164 0 225 90 251 206l5 -1l-14 -212h-521z" />
    <glyph glyph-name="lcaron" unicode="&#x13e;" horiz-adv-x="296" 
d="M269 453l-3 1c5 74 6 147 15 173c8 25 34 42 59 33c24 -9 33 -36 23 -62c-9 -26 -51 -82 -94 -145zM14 0v6c54 0 70 19 70 69v498c0 50 -16 69 -70 69v6l184 20v-593c0 -50 16 -69 70 -69v-6h-254z" />
    <glyph glyph-name="Ldot" unicode="&#x13f;" horiz-adv-x="592" 
d="M29 0v6c78 0 90 23 90 94v417c0 71 -12 94 -90 94v7h315v-7c-78 0 -100 -21 -100 -99v-505h64c164 0 225 90 251 206l5 -1l-14 -212h-521zM458 294c-36 0 -64 29 -64 64s28 64 64 64c35 0 64 -29 64 -64s-29 -64 -64 -64z" />
    <glyph glyph-name="ldot" unicode="&#x140;" horiz-adv-x="364" 
d="M14 0v6c54 0 70 19 70 69v498c0 50 -16 69 -70 69v6l184 20v-593c0 -50 16 -69 70 -69v-6h-254zM322 234c-35 0 -64 29 -64 64s29 64 64 64s64 -29 64 -64s-29 -64 -64 -64z" />
    <glyph glyph-name="Nacute" unicode="&#x143;" horiz-adv-x="724" 
d="M15 0v6c118 0 125 58 125 319v135c0 101 -23 151 -120 151v7h202l364 -425v99c0 261 -7 319 -125 319v7h260v-7c-118 0 -125 -58 -125 -319v-297l-5 -2l-441 512v-180c0 -261 7 -319 125 -319v-6h-260zM323 673l-2 2c52 73 91 136 115 157s52 20 69 1
c16 -19 13 -46 -12 -67c-24 -21 -90 -51 -170 -93z" />
    <glyph glyph-name="nacute" unicode="&#x144;" horiz-adv-x="564" 
d="M20 0v6c54 0 70 19 70 69v248c0 50 -16 69 -70 69v6l182 20v-85c35 37 92 86 163 86c64 0 119 -38 119 -132v-212c0 -50 16 -69 70 -69v-6h-249v6c48 0 65 19 65 69v221c0 54 -24 82 -66 82c-43 0 -75 -28 -100 -53v-250c0 -50 17 -69 65 -69v-6h-249zM209 473l-2 2
c52 73 91 136 115 157s52 20 69 1c16 -19 13 -46 -12 -67c-24 -21 -90 -51 -170 -93z" />
    <glyph glyph-name="uni0145" unicode="&#x145;" horiz-adv-x="724" 
d="M15 0v6c118 0 125 58 125 319v135c0 101 -23 151 -120 151v7h202l364 -425v99c0 261 -7 319 -125 319v7h260v-7c-118 0 -125 -58 -125 -319v-297l-5 -2l-441 512v-180c0 -261 7 -319 125 -319v-6h-260zM304 -319l-3 5c57 20 105 72 107 128c-10 -7 -21 -11 -34 -11
c-32 0 -58 26 -58 57c0 32 26 58 62 58c41 0 64 -32 64 -75c0 -60 -44 -129 -138 -162z" />
    <glyph glyph-name="uni0146" unicode="&#x146;" horiz-adv-x="564" 
d="M20 0v6c54 0 70 19 70 69v248c0 50 -16 69 -70 69v6l182 20v-85c35 37 92 86 163 86c64 0 119 -38 119 -132v-212c0 -50 16 -69 70 -69v-6h-249v6c48 0 65 19 65 69v221c0 54 -24 82 -66 82c-43 0 -75 -28 -100 -53v-250c0 -50 17 -69 65 -69v-6h-249zM218 -319l-3 5
c57 20 105 72 107 128c-10 -7 -21 -11 -34 -11c-32 0 -58 26 -58 57c0 32 26 58 62 58c41 0 64 -32 64 -75c0 -60 -44 -129 -138 -162z" />
    <glyph glyph-name="Ncaron" unicode="&#x147;" horiz-adv-x="724" 
d="M15 0v6c118 0 125 58 125 319v135c0 101 -23 151 -120 151v7h202l364 -425v99c0 261 -7 319 -125 319v7h260v-7c-118 0 -125 -58 -125 -319v-297l-5 -2l-441 512v-180c0 -261 7 -319 125 -319v-6h-260zM383 665c-15 0 -26 7 -36 20l-111 144l2 2l145 -80l146 80l2 -2
l-112 -144c-9 -13 -20 -20 -36 -20z" />
    <glyph glyph-name="ncaron" unicode="&#x148;" horiz-adv-x="564" 
d="M20 0v6c54 0 70 19 70 69v248c0 50 -16 69 -70 69v6l182 20v-85c35 37 92 86 163 86c64 0 119 -38 119 -132v-212c0 -50 16 -69 70 -69v-6h-249v6c48 0 65 19 65 69v221c0 54 -24 82 -66 82c-43 0 -75 -28 -100 -53v-250c0 -50 17 -69 65 -69v-6h-249zM286 465
c-15 0 -26 7 -36 20l-111 144l2 2l145 -80l146 80l2 -2l-112 -144c-9 -13 -20 -20 -36 -20z" />
    <glyph glyph-name="Eng" unicode="&#x14a;" horiz-adv-x="724" 
d="M15 0v6c118 0 125 58 125 319v135c0 101 -23 151 -120 151v7h202l364 -425v99c0 261 -7 319 -125 319v7h260v-7c-118 0 -125 -58 -125 -319v-246c0 -113 -101 -182 -223 -213l-3 5c112 42 147 104 147 188v50l-367 429v-180c0 -261 7 -319 125 -319v-6h-260z" />
    <glyph glyph-name="eng" unicode="&#x14b;" horiz-adv-x="546" 
d="M21 0v6c54 0 70 19 70 69v248c0 50 -16 69 -70 69v6l181 20v-85c36 37 93 86 164 86c63 0 119 -38 119 -132v-272c0 -105 -101 -161 -198 -191l-3 3c85 48 87 100 87 167v302c0 54 -24 82 -66 82c-43 0 -76 -28 -100 -53v-250c0 -50 17 -69 65 -69v-6h-249z" />
    <glyph glyph-name="Omacron" unicode="&#x14c;" horiz-adv-x="757" 
d="M378 -12c-195 0 -336 137 -336 321c0 183 141 321 336 321c196 0 336 -138 336 -321c0 -184 -141 -321 -336 -321zM378 -4c154 0 201 154 201 313s-46 312 -201 312s-200 -154 -200 -312s46 -313 200 -313zM239 700v34h278v-34h-278z" />
    <glyph glyph-name="omacron" unicode="&#x14d;" horiz-adv-x="531" 
d="M265 -11c-119 0 -228 78 -228 215s109 215 228 215s228 -78 228 -215s-109 -215 -228 -215zM265 -3c76 0 106 81 106 207c0 125 -30 207 -106 207s-105 -82 -105 -207c0 -126 29 -207 105 -207zM126 500v34h279v-34h-279z" />
    <glyph glyph-name="Obreve" unicode="&#x14e;" horiz-adv-x="757" 
d="M378 -12c-195 0 -336 137 -336 321c0 183 141 321 336 321c196 0 336 -138 336 -321c0 -184 -141 -321 -336 -321zM378 -4c154 0 201 154 201 313s-46 312 -201 312s-200 -154 -200 -312s46 -313 200 -313zM378 676c-96 0 -120 101 -120 164h3c9 -39 37 -83 117 -83
c81 0 108 44 117 83h2c0 -63 -23 -164 -119 -164z" />
    <glyph glyph-name="obreve" unicode="&#x14f;" horiz-adv-x="531" 
d="M265 -11c-119 0 -228 78 -228 215s109 215 228 215s228 -78 228 -215s-109 -215 -228 -215zM265 -3c76 0 106 81 106 207c0 125 -30 207 -106 207s-105 -82 -105 -207c0 -126 29 -207 105 -207zM265 476c-96 0 -119 101 -119 164h2c9 -39 37 -83 117 -83
c81 0 108 44 117 83h3c0 -63 -24 -164 -120 -164z" />
    <glyph glyph-name="Ohungarumlaut" unicode="&#x150;" horiz-adv-x="757" 
d="M378 -12c-195 0 -336 137 -336 321c0 183 141 321 336 321c196 0 336 -138 336 -321c0 -184 -141 -321 -336 -321zM378 -4c154 0 201 154 201 313s-46 312 -201 312s-200 -154 -200 -312s46 -313 200 -313zM262 671l-2 1c34 74 59 138 77 160c17 23 42 26 60 13
c17 -13 23 -36 3 -61c-18 -23 -73 -62 -138 -113zM424 671l-2 1c34 74 59 138 77 160c17 23 42 26 60 13c17 -13 23 -36 3 -61c-18 -23 -73 -62 -138 -113z" />
    <glyph glyph-name="ohungarumlaut" unicode="&#x151;" horiz-adv-x="531" 
d="M265 -11c-119 0 -228 78 -228 215s109 215 228 215s228 -78 228 -215s-109 -215 -228 -215zM265 -3c76 0 106 81 106 207c0 125 -30 207 -106 207s-105 -82 -105 -207c0 -126 29 -207 105 -207zM142 471l-2 1c34 74 59 138 76 160c18 23 43 26 60 13s23 -36 4 -61
c-18 -23 -73 -62 -138 -113zM304 471l-2 1c33 74 59 138 76 160c18 23 43 26 60 13s23 -36 4 -61c-19 -23 -74 -62 -138 -113z" />
    <glyph glyph-name="Racute" unicode="&#x154;" horiz-adv-x="695" 
d="M29 0v6c78 0 90 23 90 94v417c0 71 -12 94 -90 94v7h309c182 0 274 -59 274 -162c0 -127 -140 -152 -250 -156v-4c214 -3 191 -69 235 -203c21 -64 39 -87 98 -87v-6h-195c-11 22 -22 52 -36 105c-36 137 -36 190 -151 190h-69v-195c0 -71 12 -94 90 -94v-6h-305z
M244 302h79c111 0 160 71 160 155c0 85 -49 153 -164 153h-75v-308zM275 673l-2 2c53 73 91 136 115 157s53 20 69 1s13 -46 -11 -67c-25 -21 -90 -51 -171 -93z" />
    <glyph glyph-name="racute" unicode="&#x155;" horiz-adv-x="415" 
d="M20 0v6c54 0 70 21 70 71v244c0 50 -16 71 -70 71v6l182 20v-130c23 67 71 131 133 131c46 0 69 -34 69 -68c0 -37 -29 -66 -64 -66c-38 0 -69 32 -64 73c-33 -12 -58 -44 -72 -77v-204c0 -53 21 -71 75 -71v-6h-259zM155 473l-2 2c53 73 91 136 115 157s53 20 69 1
s13 -46 -11 -67c-25 -21 -90 -51 -171 -93z" />
    <glyph glyph-name="uni0156" unicode="&#x156;" horiz-adv-x="695" 
d="M29 0v6c78 0 90 23 90 94v417c0 71 -12 94 -90 94v7h309c182 0 274 -59 274 -162c0 -127 -140 -152 -250 -156v-4c214 -3 191 -69 235 -203c21 -64 39 -87 98 -87v-6h-195c-11 22 -22 52 -36 105c-36 137 -36 190 -151 190h-69v-195c0 -71 12 -94 90 -94v-6h-305z
M244 302h79c111 0 160 71 160 155c0 85 -49 153 -164 153h-75v-308zM299 -319l-3 5c57 20 106 72 107 128c-9 -7 -21 -11 -34 -11c-32 0 -58 26 -58 57c0 32 27 58 63 58c40 0 64 -32 64 -75c0 -60 -45 -129 -139 -162z" />
    <glyph glyph-name="uni0157" unicode="&#x157;" horiz-adv-x="415" 
d="M20 0v6c54 0 70 21 70 71v244c0 50 -16 71 -70 71v6l182 20v-130c23 67 71 131 133 131c46 0 69 -34 69 -68c0 -37 -29 -66 -64 -66c-38 0 -69 32 -64 73c-33 -12 -58 -44 -72 -77v-204c0 -53 21 -71 75 -71v-6h-259zM74 -319l-3 5c57 20 106 72 107 128
c-9 -7 -21 -11 -34 -11c-32 0 -58 26 -58 57c0 32 27 58 63 58c40 0 64 -32 64 -75c0 -60 -45 -129 -139 -162z" />
    <glyph glyph-name="Rcaron" unicode="&#x158;" horiz-adv-x="695" 
d="M29 0v6c78 0 90 23 90 94v417c0 71 -12 94 -90 94v7h309c182 0 274 -59 274 -162c0 -127 -140 -152 -250 -156v-4c214 -3 191 -69 235 -203c21 -64 39 -87 98 -87v-6h-195c-11 22 -22 52 -36 105c-36 137 -36 190 -151 190h-69v-195c0 -71 12 -94 90 -94v-6h-305z
M244 302h79c111 0 160 71 160 155c0 85 -49 153 -164 153h-75v-308zM343 665c-16 0 -27 7 -36 20l-112 144l2 2l146 -80l145 80l2 -2l-111 -144c-10 -13 -21 -20 -36 -20z" />
    <glyph glyph-name="rcaron" unicode="&#x159;" horiz-adv-x="415" 
d="M20 0v6c54 0 70 21 70 71v244c0 50 -16 71 -70 71v6l182 20v-130c23 67 71 131 133 131c46 0 69 -34 69 -68c0 -37 -29 -66 -64 -66c-38 0 -69 32 -64 73c-33 -12 -58 -44 -72 -77v-204c0 -53 21 -71 75 -71v-6h-259zM224 465c-15 0 -26 7 -36 20l-111 144l2 2l145 -80
l146 80l2 -2l-112 -144c-9 -13 -20 -20 -36 -20z" />
    <glyph glyph-name="Sacute" unicode="&#x15a;" horiz-adv-x="568" 
d="M275 -12c-73 0 -153 14 -209 26l-11 188l6 1c38 -99 78 -208 216 -208c99 0 144 55 144 119c0 180 -358 116 -358 344c0 101 71 172 220 172c80 0 129 -20 196 -5l12 -194l-5 -1c-34 85 -76 193 -200 193c-86 0 -127 -52 -127 -110c0 -171 360 -113 360 -344
c0 -109 -81 -181 -244 -181zM234 673l-2 2c53 73 91 136 115 157s53 20 69 1s13 -46 -11 -67c-25 -21 -90 -51 -171 -93z" />
    <glyph glyph-name="sacute" unicode="&#x15b;" horiz-adv-x="425" 
d="M206 -11c-53 0 -115 10 -154 18l-6 128l5 1c29 -66 61 -141 153 -141c68 0 91 41 91 74c0 112 -245 69 -245 227c0 75 56 123 163 123c58 0 96 -14 144 -3l7 -134l-5 -1c-24 56 -63 132 -142 132c-56 0 -80 -36 -80 -70c0 -108 247 -69 247 -226
c0 -80 -64 -128 -178 -128zM141 473l-2 2c52 73 91 136 115 157s52 20 69 1c16 -19 13 -46 -12 -67c-24 -21 -90 -51 -170 -93z" />
    <glyph glyph-name="Scircumflex" unicode="&#x15c;" horiz-adv-x="568" 
d="M275 -12c-73 0 -153 14 -209 26l-11 188l6 1c38 -99 78 -208 216 -208c99 0 144 55 144 119c0 180 -358 116 -358 344c0 101 71 172 220 172c80 0 129 -20 196 -5l12 -194l-5 -1c-34 85 -76 193 -200 193c-86 0 -127 -52 -127 -110c0 -171 360 -113 360 -344
c0 -109 -81 -181 -244 -181zM146 666l-2 2l111 144c10 13 21 20 36 20c16 0 27 -7 36 -20l112 -144l-2 -2l-146 80z" />
    <glyph glyph-name="scircumflex" unicode="&#x15d;" horiz-adv-x="425" 
d="M206 -11c-53 0 -115 10 -154 18l-6 128l5 1c29 -66 61 -141 153 -141c68 0 91 41 91 74c0 112 -245 69 -245 227c0 75 56 123 163 123c58 0 96 -14 144 -3l7 -134l-5 -1c-24 56 -63 132 -142 132c-56 0 -80 -36 -80 -70c0 -108 247 -69 247 -226
c0 -80 -64 -128 -178 -128zM69 466l-2 2l112 144c9 13 20 20 36 20c15 0 26 -7 36 -20l111 -144l-2 -2l-145 80z" />
    <glyph glyph-name="Scedilla" unicode="&#x15e;" horiz-adv-x="568" 
d="M267 -219c-48 0 -89 13 -116 32l3 5c19 -12 50 -22 78 -22c49 0 79 30 79 71c0 36 -22 64 -63 64c-15 0 -28 -4 -38 -8l-2 2l57 63c-71 1 -146 15 -199 26l-11 188l6 1c38 -99 78 -208 216 -208c99 0 144 55 144 119c0 180 -358 116 -358 344c0 101 71 172 220 172
c80 0 129 -20 196 -5l12 -194l-5 -1c-34 85 -76 193 -200 193c-86 0 -127 -52 -127 -110c0 -171 360 -113 360 -344c0 -109 -79 -180 -243 -181l-47 -52c13 4 32 7 55 7c67 0 114 -27 114 -78c0 -62 -70 -84 -131 -84z" />
    <glyph glyph-name="scedilla" unicode="&#x15f;" horiz-adv-x="425" 
d="M189 -219c-48 0 -89 13 -116 32l3 5c19 -12 50 -22 78 -22c49 0 79 30 79 71c0 36 -22 64 -63 64c-15 0 -28 -4 -38 -8l-2 2l59 64c-49 2 -102 11 -137 18l-6 128l5 1c29 -66 61 -141 153 -141c68 0 91 41 91 74c0 112 -245 69 -245 227c0 75 56 123 163 123
c58 0 96 -14 144 -3l7 -134l-5 -1c-24 56 -63 132 -142 132c-56 0 -80 -36 -80 -70c0 -108 247 -69 247 -226c0 -80 -64 -129 -185 -128l-48 -53c13 4 32 7 55 7c67 0 114 -27 114 -78c0 -62 -70 -84 -131 -84z" />
    <glyph glyph-name="uni0162" unicode="&#x162;" horiz-adv-x="652" 
d="M164 0v6c78 0 100 22 100 99v505h-8c-153 0 -190 -99 -221 -210l-6 1l18 217h558l18 -217l-6 -1c-31 111 -68 210 -221 210h-8v-505c0 -77 22 -99 100 -99v-6h-173l-49 -54c13 4 33 7 55 7c67 0 114 -27 114 -78c0 -62 -70 -84 -131 -84c-47 0 -88 13 -116 32l4 5
c18 -12 49 -22 77 -22c50 0 79 30 79 71c0 36 -21 64 -63 64c-14 0 -27 -4 -37 -8l-3 2l60 65h-141z" />
    <glyph glyph-name="uni0163" unicode="&#x163;" horiz-adv-x="340" 
d="M180 -219c-47 0 -88 13 -116 32l4 5c18 -12 49 -22 77 -22c50 0 79 30 79 71c0 36 -21 64 -63 64c-14 0 -27 -4 -37 -8l-3 2l61 66c-58 8 -97 47 -97 121v284h-71v12h71v106l114 21v-127h124v-12h-124v-299c0 -49 17 -77 55 -77c39 0 69 30 90 57l5 -4
c-37 -46 -87 -89 -157 -82l-50 -55c13 4 33 7 55 7c67 0 114 -27 114 -78c0 -62 -70 -84 -131 -84z" />
    <glyph glyph-name="Tcaron" unicode="&#x164;" horiz-adv-x="652" 
d="M164 0v6c78 0 100 22 100 99v505h-8c-153 0 -190 -99 -221 -210l-6 1l18 217h558l18 -217l-6 -1c-31 111 -68 210 -221 210h-8v-505c0 -77 22 -99 100 -99v-6h-324zM326 665c-15 0 -26 7 -36 20l-111 144l2 2l145 -80l146 80l2 -2l-112 -144c-9 -13 -20 -20 -36 -20z" />
    <glyph glyph-name="tcaron" unicode="&#x165;" horiz-adv-x="340" 
d="M270 471l-3 1c6 75 6 147 15 173c9 25 35 42 59 33c24 -8 34 -35 24 -62c-10 -26 -51 -82 -95 -145zM202 -10c-69 0 -117 41 -117 122v284h-71v12h71v106l114 21v-127h124v-12h-124v-299c0 -49 17 -77 55 -77c39 0 69 30 90 57l5 -4c-31 -39 -75 -83 -147 -83z" />
    <glyph glyph-name="Tbar" unicode="&#x166;" horiz-adv-x="653" 
d="M125 298v9h139v303h-7c-153 0 -191 -99 -222 -210l-5 1l17 217h559l17 -217l-5 -1c-31 111 -69 210 -222 210h-7v-303h140v-9h-140v-193c0 -77 22 -99 100 -99v-6h-325v6c78 0 100 22 100 99v193h-139z" />
    <glyph glyph-name="tbar" unicode="&#x167;" horiz-adv-x="341" 
d="M20 238v9h65v149h-70v12h70v106l114 21v-127h125v-12h-125v-149h116v-9h-116v-141c0 -49 18 -77 56 -77c39 0 68 30 90 57l5 -4c-32 -39 -75 -83 -147 -83c-70 0 -118 41 -118 122v126h-65z" />
    <glyph glyph-name="Utilde" unicode="&#x168;" horiz-adv-x="698" 
d="M354 -12c-130 0 -247 58 -247 221v300c0 71 -12 102 -90 102v7h305v-7c-78 0 -90 -31 -90 -102v-322c0 -111 42 -184 155 -184c108 0 182 68 182 200v101c0 254 -10 307 -124 307v7h258v-7c-116 0 -124 -58 -124 -307v-101c0 -141 -80 -215 -225 -215zM225 686
c5 54 15 141 81 141c52 0 105 -54 158 -54c43 0 50 33 54 61l5 -1c-6 -62 -20 -140 -82 -140c-52 0 -104 54 -158 54c-43 0 -50 -34 -53 -61h-5z" />
    <glyph glyph-name="utilde" unicode="&#x169;" 
d="M199 -11c-64 0 -119 38 -119 132v200c0 50 -16 71 -70 71v6l184 20v-306c0 -55 24 -82 66 -82s74 27 100 52v239c0 50 -17 71 -65 71v6l179 20v-341c0 -50 16 -71 70 -71v-6h-182v74c-36 -37 -93 -85 -163 -85zM122 486c5 54 15 141 81 141c52 0 105 -54 158 -54
c43 0 50 33 54 61l5 -1c-6 -62 -20 -140 -82 -140c-52 0 -104 54 -158 54c-43 0 -50 -34 -53 -61h-5z" />
    <glyph glyph-name="Umacron" unicode="&#x16a;" horiz-adv-x="698" 
d="M354 -12c-130 0 -247 58 -247 221v300c0 71 -12 102 -90 102v7h305v-7c-78 0 -90 -31 -90 -102v-322c0 -111 42 -184 155 -184c108 0 182 68 182 200v101c0 254 -10 307 -124 307v7h258v-7c-116 0 -124 -58 -124 -307v-101c0 -141 -80 -215 -225 -215zM232 700v34h279
v-34h-279z" />
    <glyph glyph-name="umacron" unicode="&#x16b;" 
d="M199 -11c-64 0 -119 38 -119 132v200c0 50 -16 71 -70 71v6l184 20v-306c0 -55 24 -82 66 -82s74 27 100 52v239c0 50 -17 71 -65 71v6l179 20v-341c0 -50 16 -71 70 -71v-6h-182v74c-36 -37 -93 -85 -163 -85zM125 500v34h279v-34h-279z" />
    <glyph glyph-name="Ubreve" unicode="&#x16c;" horiz-adv-x="698" 
d="M354 -12c-130 0 -247 58 -247 221v300c0 71 -12 102 -90 102v7h305v-7c-78 0 -90 -31 -90 -102v-322c0 -111 42 -184 155 -184c108 0 182 68 182 200v101c0 254 -10 307 -124 307v7h258v-7c-116 0 -124 -58 -124 -307v-101c0 -141 -80 -215 -225 -215zM371 676
c-96 0 -120 101 -120 164h3c9 -39 37 -83 117 -83c81 0 108 44 117 83h2c0 -63 -23 -164 -119 -164z" />
    <glyph glyph-name="ubreve" unicode="&#x16d;" 
d="M199 -11c-64 0 -119 38 -119 132v200c0 50 -16 71 -70 71v6l184 20v-306c0 -55 24 -82 66 -82s74 27 100 52v239c0 50 -17 71 -65 71v6l179 20v-341c0 -50 16 -71 70 -71v-6h-182v74c-36 -37 -93 -85 -163 -85zM267 476c-96 0 -119 101 -119 164h2c9 -39 37 -83 117 -83
c81 0 108 44 117 83h3c0 -63 -24 -164 -120 -164z" />
    <glyph glyph-name="Uring" unicode="&#x16e;" horiz-adv-x="698" 
d="M354 -12c-130 0 -247 58 -247 221v300c0 71 -12 102 -90 102v7h305v-7c-78 0 -90 -31 -90 -102v-322c0 -111 42 -184 155 -184c108 0 182 68 182 200v101c0 254 -10 307 -124 307v7h258v-7c-116 0 -124 -58 -124 -307v-101c0 -141 -80 -215 -225 -215zM371 664
c-66 0 -115 40 -115 98c0 59 49 99 115 99s114 -40 114 -99c0 -58 -48 -98 -114 -98zM371 668c35 0 39 54 39 94s-4 94 -39 94c-36 0 -41 -54 -41 -94s5 -94 41 -94z" />
    <glyph glyph-name="uring" unicode="&#x16f;" 
d="M199 -11c-64 0 -119 38 -119 132v200c0 50 -16 71 -70 71v6l184 20v-306c0 -55 24 -82 66 -82s74 27 100 52v239c0 50 -17 71 -65 71v6l179 20v-341c0 -50 16 -71 70 -71v-6h-182v74c-36 -37 -93 -85 -163 -85zM268 464c-66 0 -114 40 -114 98c0 59 48 99 114 99
s115 -40 115 -99c0 -58 -49 -98 -115 -98zM268 468c36 0 40 54 40 94s-4 94 -40 94s-40 -54 -40 -94s4 -94 40 -94z" />
    <glyph glyph-name="Uhungarumlaut" unicode="&#x170;" horiz-adv-x="698" 
d="M354 -12c-130 0 -247 58 -247 221v300c0 71 -12 102 -90 102v7h305v-7c-78 0 -90 -31 -90 -102v-322c0 -111 42 -184 155 -184c108 0 182 68 182 200v101c0 254 -10 307 -124 307v7h258v-7c-116 0 -124 -58 -124 -307v-101c0 -141 -80 -215 -225 -215zM248 671l-2 1
c34 74 59 138 77 160c17 23 42 26 60 13c17 -13 23 -36 3 -61c-18 -23 -73 -62 -138 -113zM410 671l-2 1c34 74 59 138 77 160c17 23 42 26 60 13c17 -13 23 -36 3 -61c-18 -23 -73 -62 -138 -113z" />
    <glyph glyph-name="uhungarumlaut" unicode="&#x171;" 
d="M199 -11c-64 0 -119 38 -119 132v200c0 50 -16 71 -70 71v6l184 20v-306c0 -55 24 -82 66 -82s74 27 100 52v239c0 50 -17 71 -65 71v6l179 20v-341c0 -50 16 -71 70 -71v-6h-182v74c-36 -37 -93 -85 -163 -85zM138 471l-2 1c34 74 59 138 76 160c18 23 43 26 60 13
s23 -36 4 -61c-18 -23 -73 -62 -138 -113zM300 471l-2 1c33 74 59 138 76 160c18 23 43 26 60 13s23 -36 4 -61c-19 -23 -74 -62 -138 -113z" />
    <glyph glyph-name="Uogonek" unicode="&#x172;" horiz-adv-x="698" 
d="M378 -216c-64 0 -105 28 -105 80c0 71 79 103 142 129c-19 -4 -40 -5 -61 -5c-130 0 -247 58 -247 221v300c0 71 -12 102 -90 102v7h305v-7c-78 0 -90 -31 -90 -102v-322c0 -111 42 -184 155 -184c108 0 182 68 182 200v101c0 256 -11 307 -124 307v7h258v-7
c-116 0 -124 -58 -124 -307v-101c0 -111 -49 -169 -122 -200c-34 -15 -93 -41 -93 -119c0 -55 29 -79 78 -79c21 0 38 4 50 8l2 -5c-30 -13 -76 -24 -116 -24z" />
    <glyph glyph-name="uogonek" unicode="&#x173;" 
d="M414 -216c-64 0 -105 28 -105 80c0 78 96 108 161 136h-108v74c-36 -37 -93 -85 -163 -85c-64 0 -119 38 -119 132v200c0 50 -16 71 -70 71v6l184 20v-306c0 -55 24 -82 66 -82s74 27 100 52v239c0 50 -17 71 -65 71v6l179 20v-341c0 -50 16 -71 70 -71v-6h-58
c-42 -22 -86 -52 -86 -117c0 -54 29 -78 78 -78c21 0 38 4 50 8l2 -5c-30 -13 -76 -24 -116 -24z" />
    <glyph glyph-name="Wcircumflex" unicode="&#x174;" horiz-adv-x="975" 
d="M316 -5l-202 485c-25 60 -57 131 -133 131v7h312v-7c-75 0 -83 -45 -55 -115l137 -344l114 292l-13 36c-29 75 -66 131 -130 131v7h318v-7c-79 0 -87 -52 -61 -125l118 -328l83 223c26 71 37 122 37 154c0 47 -25 76 -86 76v7h253v-7c-56 0 -96 -27 -124 -72
c-23 -37 -43 -91 -71 -163l-145 -381h-7l-166 433l-172 -433h-7zM361 666l-2 2l111 144c10 13 21 20 36 20c16 0 27 -7 36 -20l112 -144l-2 -2l-146 80z" />
    <glyph glyph-name="wcircumflex" unicode="&#x175;" horiz-adv-x="740" 
d="M245 -7l-150 314c-27 58 -54 94 -106 94v7h265v-7c-61 0 -66 -32 -42 -86l86 -196l73 177l-8 17c-23 53 -42 88 -85 88v7h257v-7c-67 0 -75 -32 -53 -86l73 -189l36 93c26 67 40 109 40 135c0 28 -15 47 -62 47v7h188v-7c-41 0 -77 -17 -100 -54
c-18 -29 -34 -72 -58 -132l-91 -222h-6l-125 289l-126 -289h-6zM248 466l-2 2l111 144c10 13 21 20 36 20c16 0 27 -7 36 -20l112 -144l-2 -2l-146 80z" />
    <glyph glyph-name="Ycircumflex" unicode="&#x176;" horiz-adv-x="667" 
d="M178 0v6c83 0 100 37 100 114v131l-149 244c-40 64 -82 116 -140 116v7h324v-7c-72 0 -85 -42 -45 -110l125 -209h2l52 88c52 89 76 138 76 172c0 33 -20 59 -85 59v7h261v-7c-61 0 -100 -25 -133 -65c-24 -28 -52 -74 -112 -171l-52 -87v-168c0 -77 17 -114 100 -114v-6
h-324zM209 666l-2 2l111 144c10 13 21 20 36 20c16 0 27 -7 36 -20l112 -144l-2 -2l-146 80z" />
    <glyph glyph-name="ycircumflex" unicode="&#x177;" horiz-adv-x="493" 
d="M89 -174c-35 0 -49 16 -49 39c0 74 156 22 197 112l8 18l-149 312c-26 58 -54 94 -105 94v7h277v-7c-68 0 -77 -32 -53 -86l85 -196l36 85c31 77 46 120 46 147c0 30 -16 50 -64 50v7h193v-7c-44 0 -78 -20 -102 -60c-17 -26 -35 -71 -66 -142l-102 -232
c-23 -52 -72 -141 -152 -141zM122 466l-2 2l111 144c10 13 21 20 36 20c16 0 27 -7 36 -20l112 -144l-2 -2l-146 80z" />
    <glyph glyph-name="Zacute" unicode="&#x179;" horiz-adv-x="611" 
d="M31 0l-1 2l390 608h-167c-110 0 -170 -98 -199 -198h-5l15 206h501l2 -2l-391 -608h189c115 0 171 109 200 204l5 -1l-19 -211h-520zM261 673l-2 2c53 73 91 136 115 157s53 20 69 1s13 -46 -11 -67c-25 -21 -90 -51 -171 -93z" />
    <glyph glyph-name="zacute" unicode="&#x17a;" horiz-adv-x="457" 
d="M37 0l-3 3l253 398h-86c-82 0 -132 -86 -153 -157h-6l16 164h354l3 -4l-252 -396h93c88 0 135 92 158 154l6 -1l-17 -161h-366zM176 473l-2 2c53 73 91 136 115 157s53 20 69 1s13 -46 -11 -67c-25 -21 -90 -51 -171 -93z" />
    <glyph glyph-name="Zdotaccent" unicode="&#x17b;" horiz-adv-x="611" 
d="M31 0l-1 2l390 608h-167c-110 0 -170 -98 -199 -198h-5l15 206h501l2 -2l-391 -608h189c115 0 171 109 200 204l5 -1l-19 -211h-520zM320 691c-36 0 -64 29 -64 64s28 64 64 64c35 0 64 -29 64 -64s-29 -64 -64 -64z" />
    <glyph glyph-name="zdotaccent" unicode="&#x17c;" horiz-adv-x="457" 
d="M37 0l-3 3l253 398h-86c-82 0 -132 -86 -153 -157h-6l16 164h354l3 -4l-252 -396h93c88 0 135 92 158 154l6 -1l-17 -161h-366zM239 491c-35 0 -64 29 -64 64s29 64 64 64s64 -29 64 -64s-29 -64 -64 -64z" />
    <glyph glyph-name="Wgrave" unicode="&#x1e80;" horiz-adv-x="975" 
d="M316 -5l-202 485c-25 60 -57 131 -133 131v7h312v-7c-75 0 -83 -45 -55 -115l137 -344l114 292l-13 36c-29 75 -66 131 -130 131v7h318v-7c-79 0 -87 -52 -61 -125l118 -328l83 223c26 71 37 122 37 154c0 47 -25 76 -86 76v7h253v-7c-56 0 -96 -27 -124 -72
c-23 -37 -43 -91 -71 -163l-145 -381h-7l-166 433l-172 -433h-7zM574 672c-80 43 -145 73 -170 94c-24 21 -27 48 -11 67s45 20 69 -1s62 -84 114 -158z" />
    <glyph glyph-name="wgrave" unicode="&#x1e81;" horiz-adv-x="740" 
d="M245 -7l-150 314c-27 58 -54 94 -106 94v7h265v-7c-61 0 -66 -32 -42 -86l86 -196l73 177l-8 17c-23 53 -42 88 -85 88v7h257v-7c-67 0 -75 -32 -53 -86l73 -189l36 93c26 67 40 109 40 135c0 28 -15 47 -62 47v7h188v-7c-41 0 -77 -17 -100 -54
c-18 -29 -34 -72 -58 -132l-91 -222h-6l-125 289l-126 -289h-6zM450 472c-81 43 -146 73 -170 94c-25 21 -28 48 -12 67c17 19 45 20 69 -1s62 -84 115 -158z" />
    <glyph glyph-name="Wacute" unicode="&#x1e82;" horiz-adv-x="975" 
d="M316 -5l-202 485c-25 60 -57 131 -133 131v7h312v-7c-75 0 -83 -45 -55 -115l137 -344l114 292l-13 36c-29 75 -66 131 -130 131v7h318v-7c-79 0 -87 -52 -61 -125l118 -328l83 223c26 71 37 122 37 154c0 47 -25 76 -86 76v7h253v-7c-56 0 -96 -27 -124 -72
c-23 -37 -43 -91 -71 -163l-145 -381h-7l-166 433l-172 -433h-7zM444 673l-2 2c52 73 91 136 115 157s52 20 69 1c16 -19 13 -46 -12 -67c-24 -21 -90 -51 -170 -93z" />
    <glyph glyph-name="wacute" unicode="&#x1e83;" horiz-adv-x="740" 
d="M245 -7l-150 314c-27 58 -54 94 -106 94v7h265v-7c-61 0 -66 -32 -42 -86l86 -196l73 177l-8 17c-23 53 -42 88 -85 88v7h257v-7c-67 0 -75 -32 -53 -86l73 -189l36 93c26 67 40 109 40 135c0 28 -15 47 -62 47v7h188v-7c-41 0 -77 -17 -100 -54
c-18 -29 -34 -72 -58 -132l-91 -222h-6l-125 289l-126 -289h-6zM333 473l-2 2c52 73 91 136 115 157s52 20 69 1c16 -19 13 -46 -12 -67c-24 -21 -90 -51 -170 -93z" />
    <glyph glyph-name="Wdieresis" unicode="&#x1e84;" horiz-adv-x="975" 
d="M316 -5l-202 485c-25 60 -57 131 -133 131v7h312v-7c-75 0 -83 -45 -55 -115l137 -344l114 292l-13 36c-29 75 -66 131 -130 131v7h318v-7c-79 0 -87 -52 -61 -125l118 -328l83 223c26 71 37 122 37 154c0 47 -25 76 -86 76v7h253v-7c-56 0 -96 -27 -124 -72
c-23 -37 -43 -91 -71 -163l-145 -381h-7l-166 433l-172 -433h-7zM417 691c-33 0 -61 27 -61 61c0 33 26 61 60 61c33 0 61 -27 61 -61s-28 -61 -60 -61zM594 691c-33 0 -60 27 -60 61c0 33 26 61 60 61c33 0 61 -27 61 -61s-28 -61 -61 -61z" />
    <glyph glyph-name="wdieresis" unicode="&#x1e85;" horiz-adv-x="740" 
d="M245 -7l-150 314c-27 58 -54 94 -106 94v7h265v-7c-61 0 -66 -32 -42 -86l86 -196l73 177l-8 17c-23 53 -42 88 -85 88v7h257v-7c-67 0 -75 -32 -53 -86l73 -189l36 93c26 67 40 109 40 135c0 28 -15 47 -62 47v7h188v-7c-41 0 -77 -17 -100 -54
c-18 -29 -34 -72 -58 -132l-91 -222h-6l-125 289l-126 -289h-6zM293 491c-33 0 -61 27 -61 61c0 33 26 61 60 61c33 0 61 -27 61 -61s-28 -61 -60 -61zM470 491c-33 0 -60 27 -60 61c0 33 26 61 60 61c33 0 61 -27 61 -61s-28 -61 -61 -61z" />
    <glyph glyph-name="Ygrave" unicode="&#x1ef2;" horiz-adv-x="667" 
d="M178 0v6c83 0 100 37 100 114v131l-149 244c-40 64 -82 116 -140 116v7h324v-7c-72 0 -85 -42 -45 -110l125 -209h2l52 88c52 89 76 138 76 172c0 33 -20 59 -85 59v7h261v-7c-61 0 -100 -25 -133 -65c-24 -28 -52 -74 -112 -171l-52 -87v-168c0 -77 17 -114 100 -114v-6
h-324zM411 672c-80 43 -145 73 -170 94c-24 21 -27 48 -11 67s45 20 69 -1s62 -84 114 -158z" />
    <glyph glyph-name="ygrave" unicode="&#x1ef3;" horiz-adv-x="493" 
d="M89 -174c-35 0 -49 16 -49 39c0 74 156 22 197 112l8 18l-149 312c-26 58 -54 94 -105 94v7h277v-7c-68 0 -77 -32 -53 -86l85 -196l36 85c31 77 46 120 46 147c0 30 -16 50 -64 50v7h193v-7c-44 0 -78 -20 -102 -60c-17 -26 -35 -71 -66 -142l-102 -232
c-23 -52 -72 -141 -152 -141zM330 472c-80 43 -145 73 -170 94c-24 21 -27 48 -11 67s45 20 69 -1s62 -84 114 -158z" />
    <glyph glyph-name="AEacute" unicode="&#x1fc;" horiz-adv-x="996" 
d="M-41 0v6c102 0 179 106 245 199l266 381c-12 18 -35 25 -75 25v7h526l14 -193l-5 -1c-26 116 -82 186 -248 186h-72v-298h23c124 0 171 45 189 138h5v-283h-5c-18 92 -65 137 -189 137h-23v-297h81c175 0 221 95 250 200l5 -1l-19 -206h-532v6c78 0 90 23 90 94v121h-258
l-15 -23c-74 -105 -92 -192 24 -192v-6h-277zM233 230h252v287c0 27 -1 47 -10 61zM596 673l-2 2c52 73 91 136 115 157s52 20 69 1c16 -19 13 -46 -12 -67c-24 -21 -90 -51 -170 -93z" />
    <glyph glyph-name="aeacute" unicode="&#x1fd;" horiz-adv-x="758" 
d="M179 -11c-87 0 -142 44 -142 114c0 80 75 115 166 115c40 0 81 -7 112 -17v101c0 64 -17 111 -86 111c-48 0 -76 -24 -92 -50c24 -9 40 -33 40 -58c0 -34 -27 -60 -61 -60c-38 0 -60 32 -60 64c0 59 72 110 178 110c59 0 115 -17 148 -57c36 36 86 57 144 57
c107 0 193 -67 196 -192h-294c-3 -133 46 -217 140 -217c72 0 121 51 147 94l6 -4c-30 -48 -85 -111 -197 -111c-83 0 -142 34 -175 88c-29 -39 -80 -88 -170 -88zM234 13c49 0 86 37 110 72c-19 32 -28 69 -29 108c-21 6 -46 13 -70 13c-56 0 -90 -33 -90 -96
c0 -60 30 -97 79 -97zM524 412c-62 0 -92 -91 -96 -176h179c0 52 -9 176 -83 176zM319 473l-2 2c53 73 91 136 115 157s53 20 69 1s13 -46 -11 -67c-25 -21 -90 -51 -171 -93z" />
    <glyph glyph-name="Oslashacute" unicode="&#x1fe;" horiz-adv-x="757" 
d="M292 683l-2 2c53 73 91 136 115 157s53 20 69 1s13 -46 -11 -67c-25 -21 -90 -51 -171 -93zM379 -12c-82 0 -154 24 -210 65l-64 -75l-7 6l63 75c-74 58 -118 146 -118 250c0 183 140 321 336 321c81 0 154 -25 209 -66l64 75l8 -7l-63 -74c73 -58 118 -147 118 -249
c0 -184 -141 -321 -336 -321zM379 -4c154 0 200 154 200 313c0 68 -9 135 -33 189l-331 -390c30 -67 81 -112 164 -112zM379 621c-155 0 -201 -154 -201 -312c0 -69 10 -136 33 -191l331 391c-30 67 -81 112 -163 112z" />
    <glyph glyph-name="oslashacute" unicode="&#x1ff;" horiz-adv-x="531" 
d="M186 473l-2 2c53 73 91 136 115 157s53 20 69 1s13 -46 -11 -67c-25 -21 -90 -51 -171 -93zM265 -11c-53 0 -104 15 -144 44l-46 -52l-6 5l45 52c-47 37 -77 93 -77 166c0 137 109 215 228 215c53 0 104 -16 144 -45l46 53l6 -5l-46 -53c47 -36 78 -93 78 -165
c0 -137 -109 -215 -228 -215zM265 -3c76 0 106 81 106 207c0 39 -4 75 -13 103l-183 -215c14 -61 43 -95 90 -95zM265 411c-76 0 -105 -82 -105 -207c0 -40 3 -75 12 -103l183 215c-15 61 -43 95 -90 95z" />
    <glyph glyph-name="uni0218" unicode="&#x218;" horiz-adv-x="568" 
d="M275 -12c-73 0 -153 14 -209 26l-11 188l6 1c38 -99 78 -208 216 -208c99 0 144 55 144 119c0 180 -358 116 -358 344c0 101 71 172 220 172c80 0 129 -20 196 -5l12 -194l-5 -1c-34 85 -76 193 -200 193c-86 0 -127 -52 -127 -110c0 -171 360 -113 360 -344
c0 -109 -81 -181 -244 -181zM218 -319l-3 5c57 20 106 72 107 128c-9 -7 -21 -11 -34 -11c-32 0 -58 26 -58 57c0 32 27 58 63 58c40 0 64 -32 64 -75c0 -60 -45 -129 -139 -162z" />
    <glyph glyph-name="uni0219" unicode="&#x219;" horiz-adv-x="425" 
d="M206 -11c-53 0 -115 10 -154 18l-6 128l5 1c29 -66 61 -141 153 -141c68 0 91 41 91 74c0 112 -245 69 -245 227c0 75 56 123 163 123c58 0 96 -14 144 -3l7 -134l-5 -1c-24 56 -63 132 -142 132c-56 0 -80 -36 -80 -70c0 -108 247 -69 247 -226
c0 -80 -64 -128 -178 -128zM147 -319l-3 5c57 20 105 72 107 128c-10 -7 -21 -11 -34 -11c-32 0 -58 26 -58 57c0 32 26 58 62 58c41 0 64 -32 64 -75c0 -60 -44 -129 -138 -162z" />
    <glyph glyph-name="uni021A" unicode="&#x21a;" horiz-adv-x="652" 
d="M164 0v6c78 0 100 22 100 99v505h-8c-153 0 -190 -99 -221 -210l-6 1l18 217h558l18 -217l-6 -1c-31 111 -68 210 -221 210h-8v-505c0 -77 22 -99 100 -99v-6h-324zM258 -319l-3 5c57 20 105 72 107 128c-10 -7 -21 -11 -34 -11c-32 0 -58 26 -58 57c0 32 26 58 62 58
c41 0 64 -32 64 -75c0 -60 -44 -129 -138 -162z" />
    <glyph glyph-name="uni021B" unicode="&#x21b;" horiz-adv-x="340" 
d="M202 -10c-69 0 -117 41 -117 122v284h-71v12h71v106l114 21v-127h124v-12h-124v-299c0 -49 17 -77 55 -77c39 0 69 30 90 57l5 -4c-31 -39 -75 -83 -147 -83zM126 -319l-3 5c57 20 105 72 107 128c-10 -7 -21 -11 -34 -11c-32 0 -58 26 -58 57c0 32 26 58 62 58
c41 0 64 -32 64 -75c0 -60 -44 -129 -138 -162z" />
    <glyph glyph-name="A.sc" horiz-adv-x="612" 
d="M-24 0v6c82 0 119 72 161 166l162 358h7l195 -402c35 -75 69 -122 124 -122v-6h-303v6c67 0 79 47 51 110l-26 59h-198l-6 -14c-40 -88 -26 -155 69 -155v-6h-236zM153 183h190l-95 214z" />
    <glyph glyph-name="B.sc" horiz-adv-x="616" 
d="M33 0v6c63 0 80 22 80 85v342c0 64 -17 86 -80 86v6h288c164 0 231 -50 231 -127c0 -73 -61 -120 -214 -124v-3c168 -4 233 -55 233 -133c0 -79 -64 -138 -230 -138h-308zM233 7h82c90 0 129 65 129 135c0 69 -39 126 -136 126h-75v-261zM233 275h60c94 0 132 51 132 122
c0 58 -26 121 -117 121h-75v-243z" />
    <glyph glyph-name="C.sc" horiz-adv-x="626" 
d="M368 -10c-202 0 -324 105 -324 267c0 174 140 278 322 278c73 0 132 -17 197 -1l16 -174l-5 -1c-49 113 -110 170 -202 170c-138 0 -198 -127 -198 -267c0 -141 60 -266 193 -266c106 0 174 79 220 180l4 -1l-31 -160c-46 -13 -124 -25 -192 -25z" />
    <glyph glyph-name="D.sc" horiz-adv-x="695" 
d="M33 0v6c63 0 80 22 80 85v342c0 64 -17 86 -80 86v6h296c200 0 321 -102 321 -262c0 -161 -121 -263 -321 -263h-296zM233 7h83c151 0 204 121 204 256c0 134 -53 255 -204 255h-83v-511z" />
    <glyph glyph-name="E.sc" horiz-adv-x="584" 
d="M33 0v6c63 0 80 22 80 85v342c0 64 -17 86 -80 86v6h479l12 -165l-5 -1c-23 101 -87 159 -228 159h-58v-253h24c109 0 149 43 166 118h4v-242h-4c-17 75 -57 117 -166 117h-24v-251h65c150 0 204 78 231 170l5 -1l-17 -176h-484z" />
    <glyph glyph-name="F.sc" horiz-adv-x="552" 
d="M33 0v6c63 0 80 22 80 85v342c0 64 -17 86 -80 86v6h476l13 -177l-6 -1c-23 101 -82 171 -219 171h-64v-259h22c109 0 149 48 165 123h5v-252h-5c-16 75 -56 122 -165 122h-22v-157c0 -69 27 -89 90 -89v-6h-290z" />
    <glyph glyph-name="G.sc" horiz-adv-x="710" 
d="M374 -10c-211 0 -330 107 -330 266c0 177 149 279 328 279c75 0 150 -18 215 -2l16 -169l-4 -1c-51 117 -126 166 -217 166c-147 0 -208 -128 -208 -274c0 -131 49 -259 200 -259c49 0 92 13 129 31v126c0 64 -21 90 -86 90v6h280v-6c-64 0 -78 -21 -78 -84v-136
c-68 -18 -165 -33 -245 -33z" />
    <glyph glyph-name="H.sc" horiz-adv-x="735" 
d="M33 0v6c63 0 80 22 80 85v342c0 64 -17 86 -80 86v6h280v-6c-64 0 -80 -22 -80 -86v-163h269v163c0 64 -17 86 -80 86v6h280v-6c-63 0 -80 -22 -80 -86v-342c0 -63 17 -85 80 -85v-6h-280v6c63 0 80 22 80 85v170h-269v-170c0 -63 16 -85 80 -85v-6h-280z" />
    <glyph glyph-name="I.sc" horiz-adv-x="346" 
d="M33 0v6c63 0 80 22 80 85v342c0 64 -17 86 -80 86v6h280v-6c-64 0 -80 -22 -80 -86v-342c0 -63 16 -85 80 -85v-6h-280z" />
    <glyph glyph-name="J.sc" horiz-adv-x="335" 
d="M19 -142l-2 4c81 42 90 91 90 151v420c0 64 -17 86 -79 86v6h280v-6c-64 0 -81 -22 -81 -86v-402c0 -91 -103 -146 -208 -173z" />
    <glyph glyph-name="K.sc" horiz-adv-x="653" 
d="M33 0v6c63 0 80 22 80 85v342c0 64 -17 86 -80 86v6h280v-6c-64 0 -80 -22 -80 -86v-219l147 139c62 59 90 99 90 127c0 22 -17 39 -70 39v6h251v-6c-49 0 -92 -20 -136 -52c-33 -24 -58 -47 -116 -105l-25 -25l184 -258c41 -58 64 -73 109 -73v-6h-200l-180 255
c-16 -15 -34 -32 -54 -52v-112c0 -63 16 -85 80 -85v-6h-280z" />
    <glyph glyph-name="L.sc" horiz-adv-x="554" 
d="M33 0v6c63 0 80 22 80 85v342c0 64 -17 86 -80 86v6h290v-6c-63 0 -90 -21 -90 -89v-423h52c149 0 209 79 232 180h5l-13 -187h-476z" />
    <glyph glyph-name="M.sc" horiz-adv-x="835" 
d="M6 0v6c94 0 118 46 133 277l7 84c8 111 -10 152 -101 152v6h208l191 -367l162 367h182v-6c-67 0 -85 -29 -80 -108l18 -295c6 -87 23 -110 86 -110v-6h-283v6c70 0 85 25 80 104l-22 347l-197 -443h-5l-223 426l-14 -157c-17 -231 -1 -277 95 -277v-6h-237z" />
    <glyph glyph-name="N.sc" horiz-adv-x="663" 
d="M21 0v6c101 0 109 48 109 272v97c0 98 -17 144 -104 144v6h182l327 -352v74c0 223 -7 272 -109 272v6h228v-6c-102 0 -109 -49 -109 -272v-251l-5 -1l-401 429v-146c0 -224 7 -272 110 -272v-6h-228z" />
    <glyph glyph-name="O.sc" horiz-adv-x="696" 
d="M348 -10c-177 0 -305 118 -305 273c0 154 128 272 305 272c176 0 304 -118 304 -272c0 -155 -128 -273 -304 -273zM348 -3c135 0 173 131 173 266c0 134 -38 264 -173 264c-136 0 -174 -130 -174 -264c0 -135 38 -266 174 -266z" />
    <glyph glyph-name="P.sc" horiz-adv-x="579" 
d="M33 0v6c63 0 80 22 80 85v342c0 64 -17 86 -80 86v6h284c172 0 236 -66 236 -151c0 -86 -64 -151 -236 -151h-44v7h21c98 0 131 71 131 144s-33 144 -131 144h-61v-427c0 -63 16 -85 80 -85v-6h-280z" />
    <glyph glyph-name="Q.sc" horiz-adv-x="696" 
d="M185 -125l-4 3c50 59 91 105 155 112c-171 5 -293 121 -293 273c0 154 128 272 305 272c176 0 304 -118 304 -272c0 -149 -118 -264 -284 -272c92 -8 157 -90 246 -90c45 0 70 22 93 58l5 -3c-34 -53 -80 -120 -151 -120c-86 0 -180 95 -274 95c-48 0 -77 -25 -102 -56z
M348 -3c134 0 173 130 173 266c0 135 -39 264 -173 264c-136 0 -174 -130 -174 -264c0 -135 38 -266 174 -266z" />
    <glyph glyph-name="R.sc" horiz-adv-x="640" 
d="M33 0v6c63 0 80 22 80 85v342c0 64 -17 86 -80 86v6h290c167 0 239 -56 239 -140c0 -93 -96 -126 -220 -133v-3c194 -4 172 -64 205 -170c16 -53 31 -73 86 -73v-6h-185c-11 19 -19 46 -26 77c-28 114 -21 171 -125 171h-64v-157c0 -63 16 -85 80 -85v-6h-280zM233 254
h74c99 1 131 63 131 130c0 68 -33 133 -135 134h-70v-264z" />
    <glyph glyph-name="S.sc" horiz-adv-x="528" 
d="M256 -10c-64 0 -140 12 -191 22l-10 160l5 1c37 -86 77 -177 197 -177c87 0 125 48 125 99c0 146 -320 98 -320 290c0 93 76 150 201 150c67 0 117 -16 179 -3l11 -166l-5 -1c-34 79 -74 164 -181 164c-76 0 -111 -43 -111 -89c0 -140 323 -95 323 -293
c0 -98 -80 -157 -223 -157z" />
    <glyph glyph-name="T.sc" horiz-adv-x="603" 
d="M151 0v6c64 0 90 20 90 89v423h-12c-114 0 -163 -75 -191 -176l-5 1l12 182h512l13 -182l-6 -1c-28 101 -76 176 -191 176h-12v-423c0 -69 27 -89 90 -89v-6h-300z" />
    <glyph glyph-name="U.sc" horiz-adv-x="645" 
d="M329 -10c-122 0 -227 50 -227 188v249c0 64 -17 92 -80 92v6h280v-6c-64 0 -80 -28 -80 -92v-267c0 -94 39 -158 139 -158c93 0 162 56 162 170v82c0 218 -6 265 -109 265v6h227v-6c-102 0 -109 -48 -109 -265v-81c0 -122 -72 -183 -203 -183z" />
    <glyph glyph-name="V.sc" horiz-adv-x="599" 
d="M300 -5l-191 411c-31 69 -57 113 -118 113v6h298v-6c-66 0 -79 -42 -52 -104l121 -280l49 114c57 136 67 176 67 204c0 42 -24 66 -77 66v6h225v-6c-51 0 -85 -19 -113 -65c-18 -28 -37 -73 -95 -210l-108 -249h-6z" />
    <glyph glyph-name="W.sc" horiz-adv-x="896" 
d="M290 -5l-182 411c-27 64 -55 113 -117 113v6h286v-6c-62 0 -70 -39 -46 -96l118 -281l101 240l-8 24c-28 76 -60 113 -113 113v6h292v-6c-66 0 -79 -42 -56 -104l102 -271l42 106c50 130 61 170 61 200c1 42 -21 69 -78 69v6h226v-6c-43 0 -82 -16 -109 -58
c-20 -31 -36 -77 -92 -216l-102 -250h-6l-153 375l-160 -375h-6z" />
    <glyph glyph-name="X.sc" horiz-adv-x="618" 
d="M-20 0v6c48 0 90 17 139 63c24 23 56 61 106 125l38 46l-107 155c-51 74 -87 124 -150 124v6h311v-6c-69 0 -77 -45 -40 -100l73 -108l31 38c49 64 68 95 68 122c0 29 -20 48 -68 48v6h244v-6c-47 0 -85 -17 -135 -62c-24 -22 -52 -52 -102 -114l-33 -39l118 -171
c48 -70 93 -127 153 -127v-6h-305v6c60 0 75 40 33 103l-86 124l-36 -45c-49 -63 -67 -101 -67 -128c0 -31 26 -54 78 -54v-6h-263z" />
    <glyph glyph-name="Y.sc" horiz-adv-x="601" 
d="M157 0v6c63 0 91 22 91 91v117l-133 202c-41 64 -70 103 -122 103v6h296v-6c-68 0 -69 -46 -41 -91l112 -181h2l44 77c43 75 60 116 60 144c0 37 -27 51 -71 51v6h221v-6c-45 0 -75 -18 -105 -52c-33 -36 -64 -91 -97 -147l-46 -78v-145c0 -69 27 -91 90 -91v-6h-301z
" />
    <glyph glyph-name="Z.sc" horiz-adv-x="567" 
d="M34 0l-1 2l344 516h-116c-107 0 -180 -79 -206 -169h-6l15 176h456l2 -2l-346 -516h137c111 0 176 83 207 174h5l-17 -181h-474z" />
    <glyph glyph-name="exclam.sc" horiz-adv-x="245" 
d="M119 161c-13 169 -65 245 -65 302c0 44 29 72 68 72s68 -28 68 -72c0 -57 -52 -133 -65 -302h-6zM123 -8c-36 0 -65 27 -65 61s29 60 65 60c35 0 64 -26 64 -60s-29 -61 -64 -61z" />
    <glyph glyph-name="exclamdown.sc" horiz-adv-x="245" 
d="M123 -8c-39 0 -68 28 -68 72c0 57 51 133 64 302h7c13 -169 64 -245 64 -302c0 -44 -28 -72 -67 -72zM122 535c35 0 64 -27 64 -61s-29 -60 -64 -60c-36 0 -65 26 -65 60s29 61 65 61z" />
    <glyph glyph-name="question.sc" horiz-adv-x="470" 
d="M212 163l-5 86c74 20 113 68 113 143c0 73 -34 136 -114 136c-52 0 -86 -27 -104 -57c30 -5 53 -30 53 -61c0 -34 -28 -61 -64 -61s-61 28 -61 64c0 60 77 121 201 121c125 0 207 -61 207 -143c0 -98 -138 -127 -216 -146l-4 -82h-6zM217 -8c-36 0 -65 27 -65 61
s29 60 65 60s65 -26 65 -60s-29 -61 -65 -61z" />
    <glyph glyph-name="questiondown.sc" horiz-adv-x="470" 
d="M239 -7c-125 0 -207 61 -207 143c0 98 138 127 216 146l4 82h6l5 -86c-74 -20 -113 -68 -113 -143c0 -73 34 -136 114 -136c52 0 86 27 104 57c-30 5 -53 30 -53 61c0 34 28 61 64 61s61 -28 61 -64c0 -60 -77 -121 -201 -121zM253 535c36 0 65 -27 65 -61
s-29 -60 -65 -60s-65 26 -65 60s29 61 65 61z" />
    <glyph glyph-name="bracketleft.sc" horiz-adv-x="316" 
d="M69 -143v731h218v-7h-82c-23 0 -41 -8 -41 -36v-646c0 -28 18 -36 41 -36h82v-6h-218z" />
    <glyph glyph-name="bracketright.sc" horiz-adv-x="316" 
d="M29 -143v6h82c23 0 41 8 41 36v646c0 28 -18 36 -41 36h-82v7h218v-731h-218z" />
    <glyph glyph-name="braceleft.sc" horiz-adv-x="349" 
d="M316 -148c-126 0 -185 23 -185 95c0 42 18 85 18 143c0 95 -49 129 -137 129v7c88 0 137 34 137 129c0 58 -18 100 -18 143c0 71 59 95 185 95v-6c-87 -1 -106 -26 -106 -73c0 -70 41 -141 41 -193c0 -73 -78 -87 -194 -96v-5c116 -10 194 -23 194 -96
c0 -52 -41 -124 -41 -193c0 -47 19 -73 106 -74v-5z" />
    <glyph glyph-name="braceright.sc" horiz-adv-x="349" 
d="M33 -148v5c87 1 106 27 106 74c0 69 -41 141 -41 193c0 73 78 86 194 96v5c-116 9 -194 23 -194 96c0 52 41 123 41 193c0 47 -19 72 -106 73v6c126 0 185 -24 185 -95c0 -43 -18 -85 -18 -143c0 -95 49 -129 137 -129v-7c-88 0 -137 -34 -137 -129
c0 -58 18 -101 18 -143c0 -72 -59 -95 -185 -95z" />
    <glyph glyph-name="parenleft.sc" horiz-adv-x="328" 
d="M306 -155c-86 53 -263 158 -263 378c0 218 177 324 263 377l3 -5c-68 -49 -159 -160 -159 -372s91 -325 159 -374z" />
    <glyph glyph-name="parenright.sc" horiz-adv-x="328" 
d="M22 -155l-3 4c68 49 159 162 159 374s-91 323 -159 372l3 5c86 -53 263 -159 263 -377c0 -220 -177 -325 -263 -378z" />
    <glyph glyph-name="dollar.sc" horiz-adv-x="506" 
d="M248 -89v79c-125 2 -204 58 -204 120c0 34 24 62 62 62c36 0 63 -26 63 -60c0 -30 -22 -54 -50 -61c16 -25 53 -55 129 -55v223c-91 35 -190 63 -190 169c0 89 71 145 190 146v57h9v-57c113 0 186 -53 186 -114c0 -36 -25 -62 -61 -62c-37 0 -64 26 -64 60
c0 29 19 53 47 59c-16 25 -46 52 -108 52v-202c90 -34 204 -66 204 -181c0 -89 -70 -156 -204 -156v-79h-9zM373 100c0 64 -52 90 -116 115v-219c83 5 116 55 116 104zM145 435c0 -56 46 -82 103 -104v197c-72 -3 -103 -46 -103 -93z" />
    <glyph glyph-name="Euro.sc" horiz-adv-x="600" 
d="M344 -10c-133 0 -232 82 -252 216h-58v7h57c-1 15 -2 29 -2 45c0 21 1 41 5 61h-60v7h61c27 128 130 208 262 208c129 0 191 -76 191 -135c0 -38 -26 -66 -63 -66c-36 0 -64 27 -64 63c0 32 25 57 56 61c-13 36 -41 72 -103 72c-101 0 -151 -91 -164 -203h178v-7h-179
c-2 -18 -3 -39 -3 -57c0 -15 0 -31 2 -49h180v-7h-179c10 -102 52 -205 162 -205c81 0 140 56 177 139l7 -3c-42 -91 -101 -147 -211 -147z" />
    <glyph glyph-name="yen.sc" horiz-adv-x="661" 
d="M187 0v5c67 0 88 29 88 97v65h-145v8h145v39l-42 66h-103v8h98l-86 136c-34 55 -67 95 -115 95v6h282v-6c-58 0 -72 -35 -39 -92l106 -178h1l44 77c41 69 58 112 60 140c2 31 -15 53 -73 53v6h226v-6c-56 0 -91 -24 -123 -65c-20 -25 -38 -56 -82 -130l-20 -36h115v-8
h-121l-20 -36v-69h141v-8h-141v-65c0 -68 19 -97 88 -97v-5h-284z" />
    <glyph glyph-name="sterling.sc" horiz-adv-x="553" 
d="M124 -6c-45 0 -71 25 -71 59c0 39 37 65 100 65c13 0 29 -2 47 -5c-11 54 -51 106 -80 160h-78v7h73c-16 32 -28 66 -28 102c0 96 91 152 211 152c129 0 198 -66 198 -125c0 -37 -27 -66 -63 -66c-35 0 -63 28 -63 62c0 32 23 57 54 62c-15 31 -46 61 -103 61
c-86 0 -115 -64 -115 -145c0 -32 6 -67 13 -103h155v-7h-154c7 -38 15 -76 15 -112c0 -18 -2 -35 -5 -52c52 -9 111 -22 152 -22c75 0 111 36 113 108h5c3 -80 -2 -204 -107 -204c-77 0 -103 66 -166 99c-13 -52 -43 -96 -103 -96zM122 0c52 0 84 44 79 102
c-15 6 -33 8 -53 8c-56 0 -87 -23 -87 -57c0 -29 20 -53 61 -53z" />
    <glyph glyph-name="ampersand.sc" horiz-adv-x="692" 
d="M257 -10c-124 0 -213 51 -213 134c0 75 73 108 159 137l-19 17c-42 37 -72 80 -72 129c0 80 83 127 194 127c113 0 173 -47 173 -107c0 -79 -108 -99 -168 -119l182 -171c14 31 20 63 22 82c4 39 -6 60 -86 60v6h201v-6c-82 0 -88 -22 -106 -77c-14 -42 -16 -50 -25 -69
l80 -74c43 -40 63 -53 102 -53v-6h-199l-49 47c-40 -35 -97 -57 -176 -57zM297 2c56 0 98 21 130 50l-219 204c-28 -21 -51 -58 -51 -116c0 -75 44 -138 140 -138zM306 529c-53 0 -84 -37 -84 -88c0 -36 16 -66 64 -110l22 -20c42 24 79 62 79 125c0 50 -23 93 -81 93z" />
    <glyph glyph-name="Agrave.sc" horiz-adv-x="612" 
d="M-24 0v6c82 0 119 72 161 166l162 358h7l195 -402c35 -75 69 -122 124 -122v-6h-303v6c67 0 79 47 51 110l-26 59h-198l-6 -14c-40 -88 -26 -155 69 -155v-6h-236zM153 183h190l-95 214zM389 572c-80 43 -145 73 -170 94c-24 21 -27 48 -11 67s45 20 69 -1
s62 -84 114 -158z" />
    <glyph glyph-name="Aacute.sc" horiz-adv-x="612" 
d="M-24 0v6c82 0 119 72 161 166l162 358h7l195 -402c35 -75 69 -122 124 -122v-6h-303v6c67 0 79 47 51 110l-26 59h-198l-6 -14c-40 -88 -26 -155 69 -155v-6h-236zM153 183h190l-95 214zM221 573l-2 2c53 73 91 136 115 157s53 20 69 1s13 -46 -11 -67
c-25 -21 -90 -51 -171 -93z" />
    <glyph glyph-name="Acircumflex.sc" horiz-adv-x="612" 
d="M-24 0v6c82 0 119 72 161 166l162 358h7l195 -402c35 -75 69 -122 124 -122v-6h-303v6c67 0 79 47 51 110l-26 59h-198l-6 -14c-40 -88 -26 -155 69 -155v-6h-236zM153 183h190l-95 214zM157 566l-2 2l112 144c9 13 20 20 36 20c15 0 26 -7 36 -20l111 -144l-2 -2
l-145 80z" />
    <glyph glyph-name="Adieresis.sc" horiz-adv-x="612" 
d="M-24 0v6c82 0 119 72 161 166l162 358h7l195 -402c35 -75 69 -122 124 -122v-6h-303v6c67 0 79 47 51 110l-26 59h-198l-6 -14c-40 -88 -26 -155 69 -155v-6h-236zM153 183h190l-95 214zM215 591c-33 0 -61 27 -61 61c0 33 26 61 60 61c33 0 61 -27 61 -61
s-28 -61 -60 -61zM392 591c-33 0 -60 27 -60 61c0 33 26 61 60 61c33 0 61 -27 61 -61s-28 -61 -61 -61z" />
    <glyph glyph-name="Atilde.sc" horiz-adv-x="612" 
d="M-24 0v6c82 0 119 72 161 166l162 358h7l195 -402c35 -75 69 -122 124 -122v-6h-303v6c67 0 79 47 51 110l-26 59h-198l-6 -14c-40 -88 -26 -155 69 -155v-6h-236zM153 183h190l-95 214zM154 586c5 54 15 141 82 141c52 0 104 -54 158 -54c43 0 50 33 53 61l5 -1
c-5 -62 -19 -140 -82 -140c-51 0 -103 54 -157 54c-43 0 -50 -34 -54 -61h-5z" />
    <glyph glyph-name="Aring.sc" horiz-adv-x="612" 
d="M-24 0v6c82 0 119 72 161 166l162 358h7l195 -402c35 -75 69 -122 124 -122v-6h-303v6c67 0 79 47 51 110l-26 59h-198l-6 -14c-40 -88 -26 -155 69 -155v-6h-236zM153 183h190l-95 214zM302 564c-66 0 -114 40 -114 98c0 59 48 99 114 99s115 -40 115 -99
c0 -58 -49 -98 -115 -98zM302 568c36 0 40 54 40 94s-4 94 -40 94s-40 -54 -40 -94s4 -94 40 -94z" />
    <glyph glyph-name="AE.sc" horiz-adv-x="919" 
d="M-26 0v6c82 0 150 76 216 165l240 326c-11 16 -31 22 -62 22v6h479l13 -165l-6 -1c-23 101 -86 159 -228 159h-58v-253h25c109 0 149 43 165 118h5v-242h-5c-16 75 -56 117 -165 117h-25v-251h66c150 0 204 78 230 170l5 -1l-17 -176h-484v6c64 0 80 22 80 85v98h-235
l-15 -22c-59 -80 -67 -161 32 -161v-6h-256zM219 197h229v236c0 26 -4 45 -14 58z" />
    <glyph glyph-name="Ccedilla.sc" horiz-adv-x="626" 
d="M325 -219c-48 0 -89 13 -116 32l3 5c19 -12 50 -22 78 -22c49 0 79 30 79 71c0 36 -22 64 -63 64c-15 0 -28 -4 -38 -8l-2 2l61 67c-176 12 -283 113 -283 265c0 174 140 278 322 278c73 0 132 -17 197 -1l16 -174l-5 -1c-49 113 -110 170 -202 170
c-138 0 -198 -127 -198 -267c0 -141 60 -266 193 -266c106 0 174 79 220 180l4 -1l-31 -160c-62 -17 -144 -28 -223 -24l-50 -55c13 4 32 7 55 7c67 0 114 -27 114 -78c0 -62 -70 -84 -131 -84z" />
    <glyph glyph-name="Egrave.sc" horiz-adv-x="584" 
d="M33 0v6c63 0 80 22 80 85v342c0 64 -17 86 -80 86v6h479l12 -165l-5 -1c-23 101 -87 159 -228 159h-58v-253h24c109 0 149 43 166 118h4v-242h-4c-17 75 -57 117 -166 117h-24v-251h65c150 0 204 78 231 170l5 -1l-17 -176h-484zM387 572c-81 43 -146 73 -170 94
c-25 21 -28 48 -12 67c17 19 45 20 69 -1s62 -84 115 -158z" />
    <glyph glyph-name="Eacute.sc" horiz-adv-x="584" 
d="M33 0v6c63 0 80 22 80 85v342c0 64 -17 86 -80 86v6h479l12 -165l-5 -1c-23 101 -87 159 -228 159h-58v-253h24c109 0 149 43 166 118h4v-242h-4c-17 75 -57 117 -166 117h-24v-251h65c150 0 204 78 231 170l5 -1l-17 -176h-484zM221 573l-2 2c53 73 91 136 115 157
s53 20 69 1s13 -46 -11 -67c-25 -21 -90 -51 -171 -93z" />
    <glyph glyph-name="Ecircumflex.sc" horiz-adv-x="584" 
d="M33 0v6c63 0 80 22 80 85v342c0 64 -17 86 -80 86v6h479l12 -165l-5 -1c-23 101 -87 159 -228 159h-58v-253h24c109 0 149 43 166 118h4v-242h-4c-17 75 -57 117 -166 117h-24v-251h65c150 0 204 78 231 170l5 -1l-17 -176h-484zM155 566l-2 2l112 144c9 13 20 20 36 20
c15 0 26 -7 36 -20l111 -144l-2 -2l-145 80z" />
    <glyph glyph-name="Edieresis.sc" horiz-adv-x="584" 
d="M33 0v6c63 0 80 22 80 85v342c0 64 -17 86 -80 86v6h479l12 -165l-5 -1c-23 101 -87 159 -228 159h-58v-253h24c109 0 149 43 166 118h4v-242h-4c-17 75 -57 117 -166 117h-24v-251h65c150 0 204 78 231 170l5 -1l-17 -176h-484zM218 591c-33 0 -61 27 -61 61
c0 33 26 61 60 61s61 -27 61 -61s-27 -61 -60 -61zM396 591c-33 0 -61 27 -61 61c0 33 26 61 60 61s61 -27 61 -61s-27 -61 -60 -61z" />
    <glyph glyph-name="Eth.sc" horiz-adv-x="695" 
d="M33 0v6c64 0 80 22 80 85v168h-70v9h70v165c0 64 -16 86 -80 86v6h296c200 0 322 -102 322 -262c0 -161 -121 -263 -322 -263h-296zM233 7h83c152 0 205 121 205 256c0 134 -53 255 -204 255h-84v-250h153v-9h-153v-252z" />
    <glyph glyph-name="Igrave.sc" horiz-adv-x="346" 
d="M33 0v6c63 0 80 22 80 85v342c0 64 -17 86 -80 86v6h280v-6c-64 0 -80 -22 -80 -86v-342c0 -63 16 -85 80 -85v-6h-280zM259 572c-81 43 -146 73 -170 94c-25 21 -28 48 -12 67c17 19 45 20 69 -1s62 -84 115 -158z" />
    <glyph glyph-name="Iacute.sc" horiz-adv-x="346" 
d="M33 0v6c63 0 80 22 80 85v342c0 64 -17 86 -80 86v6h280v-6c-64 0 -80 -22 -80 -86v-342c0 -63 16 -85 80 -85v-6h-280zM82 573l-2 2c52 73 91 136 115 157s52 20 69 1c16 -19 13 -46 -12 -67c-24 -21 -90 -51 -170 -93z" />
    <glyph glyph-name="Icircumflex.sc" horiz-adv-x="346" 
d="M33 0v6c63 0 80 22 80 85v342c0 64 -17 86 -80 86v6h280v-6c-64 0 -80 -22 -80 -86v-342c0 -63 16 -85 80 -85v-6h-280zM27 566l-2 2l112 144c9 13 20 20 36 20c15 0 26 -7 36 -20l111 -144l-2 -2l-145 80z" />
    <glyph glyph-name="Idieresis.sc" horiz-adv-x="346" 
d="M33 0v6c63 0 80 22 80 85v342c0 64 -17 86 -80 86v6h280v-6c-64 0 -80 -22 -80 -86v-342c0 -63 16 -85 80 -85v-6h-280zM85 591c-33 0 -61 27 -61 61c0 33 26 61 60 61c33 0 61 -27 61 -61s-28 -61 -60 -61zM262 591c-33 0 -60 27 -60 61c0 33 26 61 60 61
c33 0 61 -27 61 -61s-28 -61 -61 -61z" />
    <glyph glyph-name="Lslash.sc" horiz-adv-x="555" 
d="M33 213l-3 8l84 28v184c0 64 -17 86 -80 86v6h290v-6c-63 0 -90 -21 -90 -89v-142l130 45l3 -8l-133 -46v-272h52c149 0 209 79 232 180h5l-13 -187h-476v6c63 0 80 22 80 85v149z" />
    <glyph glyph-name="Ntilde.sc" horiz-adv-x="663" 
d="M21 0v6c101 0 109 48 109 272v97c0 98 -17 144 -104 144v6h182l327 -352v74c0 223 -7 272 -109 272v6h228v-6c-102 0 -109 -49 -109 -272v-251l-5 -1l-401 429v-146c0 -224 7 -272 110 -272v-6h-228zM198 586c5 54 15 141 81 141c52 0 105 -54 158 -54c43 0 50 33 54 61
l5 -1c-6 -62 -20 -140 -82 -140c-52 0 -104 54 -158 54c-43 0 -50 -34 -53 -61h-5z" />
    <glyph glyph-name="Ograve.sc" horiz-adv-x="696" 
d="M348 -10c-177 0 -305 118 -305 273c0 154 128 272 305 272c176 0 304 -118 304 -272c0 -155 -128 -273 -304 -273zM348 -3c135 0 173 131 173 266c0 134 -38 264 -173 264c-136 0 -174 -130 -174 -264c0 -135 38 -266 174 -266zM425 572c-80 43 -145 73 -170 94
c-24 21 -27 48 -11 67s45 20 69 -1s62 -84 114 -158z" />
    <glyph glyph-name="Oacute.sc" horiz-adv-x="696" 
d="M348 -10c-177 0 -305 118 -305 273c0 154 128 272 305 272c176 0 304 -118 304 -272c0 -155 -128 -273 -304 -273zM348 -3c135 0 173 131 173 266c0 134 -38 264 -173 264c-136 0 -174 -130 -174 -264c0 -135 38 -266 174 -266zM265 573l-2 2c53 73 91 136 115 157
s53 20 69 1s13 -46 -11 -67c-25 -21 -90 -51 -171 -93z" />
    <glyph glyph-name="Ocircumflex.sc" horiz-adv-x="696" 
d="M348 -10c-177 0 -305 118 -305 273c0 154 128 272 305 272c176 0 304 -118 304 -272c0 -155 -128 -273 -304 -273zM348 -3c135 0 173 131 173 266c0 134 -38 264 -173 264c-136 0 -174 -130 -174 -264c0 -135 38 -266 174 -266zM202 566l-2 2l111 144c10 13 21 20 36 20
c16 0 27 -7 36 -20l112 -144l-2 -2l-146 80z" />
    <glyph glyph-name="Odieresis.sc" horiz-adv-x="696" 
d="M348 -10c-177 0 -305 118 -305 273c0 154 128 272 305 272c176 0 304 -118 304 -272c0 -155 -128 -273 -304 -273zM348 -3c135 0 173 131 173 266c0 134 -38 264 -173 264c-136 0 -174 -130 -174 -264c0 -135 38 -266 174 -266zM259 591c-33 0 -61 27 -61 61
c0 33 26 61 60 61s61 -27 61 -61s-27 -61 -60 -61zM437 591c-33 0 -61 27 -61 61c0 33 26 61 60 61s61 -27 61 -61s-27 -61 -60 -61z" />
    <glyph glyph-name="Otilde.sc" horiz-adv-x="696" 
d="M348 -10c-177 0 -305 118 -305 273c0 154 128 272 305 272c176 0 304 -118 304 -272c0 -155 -128 -273 -304 -273zM348 -3c135 0 173 131 173 266c0 134 -38 264 -173 264c-136 0 -174 -130 -174 -264c0 -135 38 -266 174 -266zM194 586c5 54 15 141 81 141
c52 0 105 -54 158 -54c43 0 50 33 54 61l5 -1c-6 -62 -20 -140 -82 -140c-52 0 -104 54 -158 54c-43 0 -50 -34 -53 -61h-5z" />
    <glyph glyph-name="Oslash.sc" horiz-adv-x="696" 
d="M348 -10c-74 0 -139 20 -189 55l-57 -64l-7 6l57 63c-68 49 -109 125 -109 213c0 154 128 272 305 272c73 0 138 -21 188 -56l58 65l6 -6l-57 -64c68 -49 109 -124 109 -211c0 -155 -128 -273 -304 -273zM348 527c-136 0 -174 -130 -174 -264c0 -57 8 -113 27 -158
l290 323c-25 59 -70 99 -143 99zM348 -3c135 0 173 131 173 266c0 56 -8 112 -27 156l-290 -323c25 -59 69 -99 144 -99z" />
    <glyph glyph-name="OE.sc" horiz-adv-x="951" 
d="M348 -10c-177 0 -305 118 -305 273c0 154 128 272 305 272c45 0 94 -10 143 -10h388l12 -165l-5 -1c-23 101 -87 159 -228 159h-58v-253h24c109 0 149 43 166 118h4v-242h-4c-17 75 -57 117 -166 117h-24v-251h65c150 0 204 78 231 170l5 -1l-17 -176h-394
c-48 0 -98 -10 -142 -10zM348 -3c88 0 132 32 132 103v324c0 72 -44 103 -132 103c-136 0 -174 -130 -174 -264c0 -135 38 -266 174 -266z" />
    <glyph glyph-name="Scaron.sc" horiz-adv-x="528" 
d="M256 -10c-64 0 -140 12 -191 22l-10 160l5 1c37 -86 77 -177 197 -177c87 0 125 48 125 99c0 146 -320 98 -320 290c0 93 76 150 201 150c67 0 117 -16 179 -3l11 -166l-5 -1c-34 79 -74 164 -181 164c-76 0 -111 -43 -111 -89c0 -140 323 -95 323 -293
c0 -98 -80 -157 -223 -157zM270 565c-15 0 -26 7 -36 20l-111 144l2 2l145 -80l146 80l2 -2l-112 -144c-9 -13 -20 -20 -36 -20z" />
    <glyph glyph-name="Uacute.sc" horiz-adv-x="645" 
d="M329 -10c-122 0 -227 50 -227 188v249c0 64 -17 92 -80 92v6h280v-6c-64 0 -80 -28 -80 -92v-267c0 -94 39 -158 139 -158c93 0 162 56 162 170v82c0 218 -6 265 -109 265v6h227v-6c-102 0 -109 -48 -109 -265v-81c0 -122 -72 -183 -203 -183zM268 573l-2 2
c53 73 91 136 115 157s53 20 69 1s13 -46 -11 -67c-25 -21 -90 -51 -171 -93z" />
    <glyph glyph-name="Ugrave.sc" horiz-adv-x="645" 
d="M329 -10c-122 0 -227 50 -227 188v249c0 64 -17 92 -80 92v6h280v-6c-64 0 -80 -28 -80 -92v-267c0 -94 39 -158 139 -158c93 0 162 56 162 170v82c0 218 -6 265 -109 265v6h227v-6c-102 0 -109 -48 -109 -265v-81c0 -122 -72 -183 -203 -183zM413 572
c-81 43 -146 73 -170 94c-25 21 -28 48 -12 67c17 19 45 20 69 -1s62 -84 115 -158z" />
    <glyph glyph-name="Ucircumflex.sc" horiz-adv-x="645" 
d="M329 -10c-122 0 -227 50 -227 188v249c0 64 -17 92 -80 92v6h280v-6c-64 0 -80 -28 -80 -92v-267c0 -94 39 -158 139 -158c93 0 162 56 162 170v82c0 218 -6 265 -109 265v6h227v-6c-102 0 -109 -48 -109 -265v-81c0 -122 -72 -183 -203 -183zM195 566l-2 2l111 144
c10 13 21 20 36 20c16 0 27 -7 36 -20l112 -144l-2 -2l-146 80z" />
    <glyph glyph-name="Udieresis.sc" horiz-adv-x="645" 
d="M329 -10c-122 0 -227 50 -227 188v249c0 64 -17 92 -80 92v6h280v-6c-64 0 -80 -28 -80 -92v-267c0 -94 39 -158 139 -158c93 0 162 56 162 170v82c0 218 -6 265 -109 265v6h227v-6c-102 0 -109 -48 -109 -265v-81c0 -122 -72 -183 -203 -183zM255 591
c-33 0 -61 27 -61 61c0 33 26 61 60 61c33 0 61 -27 61 -61s-28 -61 -60 -61zM432 591c-33 0 -60 27 -60 61c0 33 26 61 60 61c33 0 61 -27 61 -61s-28 -61 -61 -61z" />
    <glyph glyph-name="Yacute.sc" horiz-adv-x="601" 
d="M157 0v6c63 0 91 22 91 91v117l-133 202c-41 64 -70 103 -122 103v6h296v-6c-68 0 -69 -46 -41 -91l112 -181h2l44 77c43 75 60 116 60 144c0 37 -27 51 -71 51v6h221v-6c-45 0 -75 -18 -105 -52c-33 -36 -64 -91 -97 -147l-46 -78v-145c0 -69 27 -91 90 -91v-6h-301z
M248 573l-2 2c52 73 91 136 115 157s52 20 69 1c16 -19 13 -46 -12 -67c-24 -21 -90 -51 -170 -93z" />
    <glyph glyph-name="Ydieresis.sc" horiz-adv-x="601" 
d="M157 0v6c63 0 91 22 91 91v117l-133 202c-41 64 -70 103 -122 103v6h296v-6c-68 0 -69 -46 -41 -91l112 -181h2l44 77c43 75 60 116 60 144c0 37 -27 51 -71 51v6h221v-6c-45 0 -75 -18 -105 -52c-33 -36 -64 -91 -97 -147l-46 -78v-145c0 -69 27 -91 90 -91v-6h-301z
M234 591c-33 0 -61 27 -61 61c0 33 26 61 60 61s61 -27 61 -61s-27 -61 -60 -61zM412 591c-33 0 -61 27 -61 61c0 33 26 61 60 61s61 -27 61 -61s-27 -61 -60 -61z" />
    <glyph glyph-name="Zcaron.sc" horiz-adv-x="567" 
d="M34 0l-1 2l344 516h-116c-107 0 -180 -79 -206 -169h-6l15 176h456l2 -2l-346 -516h137c111 0 176 83 207 174h5l-17 -181h-474zM290 565c-15 0 -26 7 -36 20l-111 144l2 2l145 -80l146 80l2 -2l-112 -144c-9 -13 -20 -20 -36 -20z" />
    <glyph glyph-name="Thorn.sc" horiz-adv-x="583" 
d="M33 0v6c63 0 80 22 80 85v342c0 64 -17 86 -80 86v6h280v-6c-64 0 -80 -22 -80 -86v-16h84c172 0 236 -66 236 -151c0 -86 -64 -151 -236 -151h-44v7h21c98 0 131 71 131 144s-33 144 -131 144h-61v-319c0 -63 16 -85 80 -85v-6h-280z" />
    <glyph glyph-name="zero.sc" horiz-adv-x="554" 
d="M277 -10c-146 0 -229 117 -229 272s83 272 229 272c145 0 229 -117 229 -272s-84 -272 -229 -272zM277 -4c84 0 105 140 105 266s-21 267 -105 267c-85 0 -106 -141 -106 -267s21 -266 106 -266z" />
    <glyph glyph-name="one.sc" horiz-adv-x="362" 
d="M46 0v5c67 0 95 18 95 85v331c0 27 -8 43 -40 43h-63v5c77 6 146 20 213 56l3 -1v-438c0 -66 26 -81 88 -81v-5h-296z" />
    <glyph glyph-name="two.sc" horiz-adv-x="514" 
d="M62 0c-12 52 -6 90 25 130c70 96 240 139 240 285c0 60 -29 112 -103 112c-62 0 -96 -37 -110 -70c32 -3 56 -28 56 -61c0 -35 -27 -61 -63 -61c-40 0 -63 32 -63 66c0 58 71 133 206 133c109 0 200 -50 200 -138c0 -147 -248 -146 -354 -266c-15 -17 -23 -32 -28 -52
c15 38 53 62 116 62c72 0 125 -38 188 -38c52 0 79 25 79 70c0 12 -1 23 -4 34h7c5 -21 9 -48 9 -76c0 -66 -23 -138 -98 -138c-98 0 -135 125 -226 125c-50 0 -74 -36 -74 -80c0 -12 3 -29 5 -37h-8z" />
    <glyph glyph-name="three.sc" horiz-adv-x="520" 
d="M249 -10c-125 0 -205 54 -205 115c0 34 26 65 63 65c35 0 63 -28 63 -63c0 -30 -22 -55 -51 -60c14 -25 43 -50 99 -50c91 0 131 63 131 139c0 89 -53 129 -138 130c-46 1 -55 -9 -66 -9c-8 0 -16 5 -16 13c0 7 6 13 16 13s22 -10 61 -10c91 0 125 63 125 132
c0 71 -36 122 -108 122c-51 0 -79 -26 -94 -50c30 -6 51 -31 51 -60c0 -34 -28 -61 -64 -61c-35 0 -61 27 -61 63c0 62 77 115 198 115c112 0 202 -45 202 -131c0 -84 -91 -129 -210 -131h-5v-3h5c120 0 227 -38 227 -135s-107 -144 -223 -144z" />
    <glyph glyph-name="four.sc" horiz-adv-x="523" 
d="M197 0v5c68 0 95 18 95 85v47h-269l-2 5l84 83c41 38 89 111 89 186c0 61 -30 100 -68 122c105 3 206 -34 206 -102c0 -76 -128 -131 -215 -209l-82 -77h257v90l109 97h4v-187c57 0 61 10 73 10c10 0 16 -7 16 -14s-8 -12 -16 -12c-11 0 -20 8 -73 8v-51
c0 -66 26 -81 88 -81v-5h-296z" />
    <glyph glyph-name="five.sc" horiz-adv-x="505" 
d="M233 -10c-120 0 -197 54 -197 115c0 36 27 65 63 65c38 0 63 -28 63 -62c0 -31 -22 -56 -52 -61c16 -26 42 -50 94 -50c96 0 133 81 133 157c0 86 -48 143 -133 143c-44 0 -87 -15 -111 -27c-4 -19 -7 -30 -20 -30c-9 0 -13 5 -13 12c0 10 11 17 27 23l24 249
c84 -3 273 -23 321 31c7 -18 13 -39 13 -58c0 -60 -49 -82 -108 -82c-68 0 -145 30 -223 68l-21 -206c39 18 87 32 148 32c121 0 220 -57 220 -157c0 -102 -101 -162 -228 -162z" />
    <glyph glyph-name="six.sc" horiz-adv-x="544" 
d="M282 -10c-175 0 -235 137 -235 262c0 156 94 282 255 282c106 0 174 -54 174 -114c0 -36 -25 -65 -62 -65c-36 0 -64 28 -64 62c0 29 21 53 48 58c-12 28 -34 53 -83 53c-124 0 -157 -172 -151 -307c15 65 69 112 153 112c105 0 180 -74 180 -168
c0 -98 -82 -175 -215 -175zM278 -5c75 0 105 88 105 169c0 83 -28 153 -97 153c-57 0 -122 -47 -121 -158c1 -82 38 -164 113 -164z" />
    <glyph glyph-name="seven.sc" horiz-adv-x="447" 
d="M141 0c15 138 100 242 207 378c26 29 47 46 62 74l-2 1c-22 -31 -45 -59 -99 -59c-51 0 -117 26 -178 26c-60 0 -81 -29 -84 -90h-7v194h7l4 -132h2c7 75 22 140 89 140c86 0 133 -103 208 -103c52 0 72 51 72 77c0 8 0 12 -2 18h9c0 -5 1 -11 1 -18
c0 -49 -34 -87 -63 -140c-59 -111 -95 -216 -103 -366h-123z" />
    <glyph glyph-name="eight.sc" horiz-adv-x="559" 
d="M279 -10c-165 0 -231 68 -231 145c0 70 55 131 194 139c-117 9 -179 58 -179 127c0 79 78 133 216 133c139 0 216 -54 216 -133c0 -69 -61 -118 -178 -127c139 -8 193 -69 193 -139c0 -77 -66 -145 -231 -145zM279 -4c74 0 108 57 108 137s-34 139 -108 139
s-107 -59 -107 -139s33 -137 107 -137zM279 528c-67 0 -93 -55 -93 -124c0 -72 26 -126 93 -126s94 54 94 126c0 69 -27 124 -94 124z" />
    <glyph glyph-name="nine.sc" horiz-adv-x="545" 
d="M240 -10c-108 0 -175 54 -175 113c0 37 24 65 62 65c37 0 63 -27 63 -61c0 -29 -20 -53 -48 -58c14 -29 39 -53 88 -53c140 0 155 201 150 309c-15 -63 -68 -109 -152 -109c-104 0 -180 69 -180 165c0 99 83 173 214 173c174 0 236 -135 236 -261
c0 -152 -88 -283 -258 -283zM269 529c-77 0 -106 -86 -106 -165c0 -98 41 -150 102 -150c56 0 113 44 113 152c0 82 -34 163 -109 163z" />
    <glyph glyph-name="Amacron.sc" horiz-adv-x="612" 
d="M-24 0v6c82 0 119 72 161 166l162 358h7l195 -402c35 -75 69 -122 124 -122v-6h-303v6c67 0 79 47 51 110l-26 59h-198l-6 -14c-40 -88 -26 -155 69 -155v-6h-236zM153 183h190l-95 214zM162 600v34h278v-34h-278z" />
    <glyph glyph-name="Abreve.sc" horiz-adv-x="612" 
d="M-24 0v6c82 0 119 72 161 166l162 358h7l195 -402c35 -75 69 -122 124 -122v-6h-303v6c67 0 79 47 51 110l-26 59h-198l-6 -14c-40 -88 -26 -155 69 -155v-6h-236zM153 183h190l-95 214zM302 576c-96 0 -120 101 -120 164h3c9 -39 37 -83 117 -83c81 0 108 44 117 83h2
c0 -63 -23 -164 -119 -164z" />
    <glyph glyph-name="Aogonek.sc" horiz-adv-x="612" 
d="M467 -216c-64 0 -105 28 -105 80c0 78 97 108 162 136h-202v6c67 0 79 47 51 110l-26 59h-198l-6 -14c-40 -88 -26 -155 69 -155v-6h-236v6c82 0 119 72 161 166l162 358h7l195 -402c35 -75 69 -122 124 -122v-6h-86c-42 -22 -85 -52 -85 -117c0 -54 29 -78 78 -78
c21 0 38 4 50 8l2 -5c-31 -13 -77 -24 -117 -24zM153 183h190l-95 214z" />
    <glyph glyph-name="Cacute.sc" horiz-adv-x="626" 
d="M368 -10c-202 0 -324 105 -324 267c0 174 140 278 322 278c73 0 132 -17 197 -1l16 -174l-5 -1c-49 113 -110 170 -202 170c-138 0 -198 -127 -198 -267c0 -141 60 -266 193 -266c106 0 174 79 220 180l4 -1l-31 -160c-46 -13 -124 -25 -192 -25zM274 573l-2 2
c52 73 91 136 115 157s52 20 69 1c16 -19 13 -46 -12 -67c-24 -21 -90 -51 -170 -93z" />
    <glyph glyph-name="Ccircumflex.sc" horiz-adv-x="626" 
d="M368 -10c-202 0 -324 105 -324 267c0 174 140 278 322 278c73 0 132 -17 197 -1l16 -174l-5 -1c-49 113 -110 170 -202 170c-138 0 -198 -127 -198 -267c0 -141 60 -266 193 -266c106 0 174 79 220 180l4 -1l-31 -160c-46 -13 -124 -25 -192 -25zM212 566l-2 2l112 144
c9 13 20 20 36 20c15 0 26 -7 36 -20l111 -144l-2 -2l-145 80z" />
    <glyph glyph-name="Cdotaccent.sc" horiz-adv-x="626" 
d="M368 -10c-202 0 -324 105 -324 267c0 174 140 278 322 278c73 0 132 -17 197 -1l16 -174l-5 -1c-49 113 -110 170 -202 170c-138 0 -198 -127 -198 -267c0 -141 60 -266 193 -266c106 0 174 79 220 180l4 -1l-31 -160c-46 -13 -124 -25 -192 -25zM358 591
c-35 0 -64 29 -64 64s29 64 64 64s64 -29 64 -64s-29 -64 -64 -64z" />
    <glyph glyph-name="Ccaron.sc" horiz-adv-x="626" 
d="M368 -10c-202 0 -324 105 -324 267c0 174 140 278 322 278c73 0 132 -17 197 -1l16 -174l-5 -1c-49 113 -110 170 -202 170c-138 0 -198 -127 -198 -267c0 -141 60 -266 193 -266c106 0 174 79 220 180l4 -1l-31 -160c-46 -13 -124 -25 -192 -25zM364 565
c-16 0 -27 7 -36 20l-112 144l2 2l146 -80l145 80l2 -2l-111 -144c-10 -13 -21 -20 -36 -20z" />
    <glyph glyph-name="Dcaron.sc" horiz-adv-x="695" 
d="M33 0v6c63 0 80 22 80 85v342c0 64 -17 86 -80 86v6h296c200 0 321 -102 321 -262c0 -161 -121 -263 -321 -263h-296zM233 7h83c151 0 204 121 204 256c0 134 -53 255 -204 255h-83v-511zM353 565c-15 0 -26 7 -36 20l-111 144l2 2l145 -80l146 80l2 -2l-112 -144
c-9 -13 -20 -20 -36 -20z" />
    <glyph glyph-name="Dcroat.sc" horiz-adv-x="695" 
d="M33 0v6c64 0 80 22 80 85v168h-70v9h70v165c0 64 -16 86 -80 86v6h296c200 0 322 -102 322 -262c0 -161 -121 -263 -322 -263h-296zM233 7h83c152 0 205 121 205 256c0 134 -53 255 -204 255h-84v-250h153v-9h-153v-252z" />
    <glyph glyph-name="Emacron.sc" horiz-adv-x="584" 
d="M33 0v6c63 0 80 22 80 85v342c0 64 -17 86 -80 86v6h479l12 -165l-5 -1c-23 101 -87 159 -228 159h-58v-253h24c109 0 149 43 166 118h4v-242h-4c-17 75 -57 117 -166 117h-24v-251h65c150 0 204 78 231 170l5 -1l-17 -176h-484zM159 600v34h279v-34h-279z" />
    <glyph glyph-name="Ebreve.sc" horiz-adv-x="584" 
d="M33 0v6c63 0 80 22 80 85v342c0 64 -17 86 -80 86v6h479l12 -165l-5 -1c-23 101 -87 159 -228 159h-58v-253h24c109 0 149 43 166 118h4v-242h-4c-17 75 -57 117 -166 117h-24v-251h65c150 0 204 78 231 170l5 -1l-17 -176h-484zM305 576c-96 0 -120 101 -120 164h3
c9 -39 37 -83 117 -83c81 0 108 44 117 83h2c0 -63 -23 -164 -119 -164z" />
    <glyph glyph-name="Edotaccent.sc" horiz-adv-x="584" 
d="M33 0v6c63 0 80 22 80 85v342c0 64 -17 86 -80 86v6h479l12 -165l-5 -1c-23 101 -87 159 -228 159h-58v-253h24c109 0 149 43 166 118h4v-242h-4c-17 75 -57 117 -166 117h-24v-251h65c150 0 204 78 231 170l5 -1l-17 -176h-484zM305 591c-36 0 -64 29 -64 64
s28 64 64 64c35 0 64 -29 64 -64s-29 -64 -64 -64z" />
    <glyph glyph-name="Eogonek.sc" horiz-adv-x="584" 
d="M33 0v6c63 0 80 22 80 85v342c0 64 -17 86 -80 86v6h479l12 -165l-5 -1c-23 101 -87 159 -228 159h-58v-253h24c109 0 149 43 166 118h4v-242h-4c-17 75 -57 117 -166 117h-24v-251h65c150 0 204 78 231 170l5 -1l-17 -176h-49c-42 -22 -85 -52 -85 -117
c0 -54 29 -78 78 -78c21 0 38 4 50 8l2 -5c-31 -13 -77 -24 -117 -24c-64 0 -105 28 -105 80c0 78 97 108 162 136h-420z" />
    <glyph glyph-name="Ecaron.sc" horiz-adv-x="584" 
d="M33 0v6c63 0 80 22 80 85v342c0 64 -17 86 -80 86v6h479l12 -165l-5 -1c-23 101 -87 159 -228 159h-58v-253h24c109 0 149 43 166 118h4v-242h-4c-17 75 -57 117 -166 117h-24v-251h65c150 0 204 78 231 170l5 -1l-17 -176h-484zM310 565c-16 0 -27 7 -36 20l-112 144
l2 2l146 -80l145 80l2 -2l-111 -144c-10 -13 -21 -20 -36 -20z" />
    <glyph glyph-name="Gcircumflex.sc" horiz-adv-x="710" 
d="M374 -10c-211 0 -330 107 -330 266c0 177 149 279 328 279c75 0 150 -18 215 -2l16 -169l-4 -1c-51 117 -126 166 -217 166c-147 0 -208 -128 -208 -274c0 -131 49 -259 200 -259c49 0 92 13 129 31v126c0 64 -21 90 -86 90v6h280v-6c-64 0 -78 -21 -78 -84v-136
c-68 -18 -165 -33 -245 -33zM223 566l-2 2l111 144c10 13 21 20 36 20c16 0 27 -7 36 -20l112 -144l-2 -2l-146 80z" />
    <glyph glyph-name="Gbreve.sc" horiz-adv-x="710" 
d="M374 -10c-211 0 -330 107 -330 266c0 177 149 279 328 279c75 0 150 -18 215 -2l16 -169l-4 -1c-51 117 -126 166 -217 166c-147 0 -208 -128 -208 -274c0 -131 49 -259 200 -259c49 0 92 13 129 31v126c0 64 -21 90 -86 90v6h280v-6c-64 0 -78 -21 -78 -84v-136
c-68 -18 -165 -33 -245 -33zM380 576c-96 0 -120 101 -120 164h3c9 -39 37 -83 117 -83c81 0 108 44 117 83h2c0 -63 -23 -164 -119 -164z" />
    <glyph glyph-name="Gdotaccent.sc" horiz-adv-x="710" 
d="M374 -10c-211 0 -330 107 -330 266c0 177 149 279 328 279c75 0 150 -18 215 -2l16 -169l-4 -1c-51 117 -126 166 -217 166c-147 0 -208 -128 -208 -274c0 -131 49 -259 200 -259c49 0 92 13 129 31v126c0 64 -21 90 -86 90v6h280v-6c-64 0 -78 -21 -78 -84v-136
c-68 -18 -165 -33 -245 -33zM376 591c-36 0 -64 29 -64 64s28 64 64 64c35 0 64 -29 64 -64s-29 -64 -64 -64z" />
    <glyph glyph-name="uni0122.sc" horiz-adv-x="710" 
d="M374 -10c-211 0 -330 107 -330 266c0 177 149 279 328 279c75 0 150 -18 215 -2l16 -169l-4 -1c-51 117 -126 166 -217 166c-147 0 -208 -128 -208 -274c0 -131 49 -259 200 -259c49 0 92 13 129 31v126c0 64 -21 90 -86 90v6h280v-6c-64 0 -78 -21 -78 -84v-136
c-68 -18 -165 -33 -245 -33zM302 -301l-3 5c56 20 103 70 105 125c-9 -7 -21 -10 -33 -10c-32 0 -57 25 -57 56s26 57 61 57c40 0 63 -32 63 -74c0 -59 -44 -126 -136 -159z" />
    <glyph glyph-name="Hcircumflex.sc" horiz-adv-x="735" 
d="M33 0v6c63 0 80 22 80 85v342c0 64 -17 86 -80 86v6h280v-6c-64 0 -80 -22 -80 -86v-163h269v163c0 64 -17 86 -80 86v6h280v-6c-63 0 -80 -22 -80 -86v-342c0 -63 17 -85 80 -85v-6h-280v6c63 0 80 22 80 85v170h-269v-170c0 -63 16 -85 80 -85v-6h-280zM222 566l-2 2
l111 144c10 13 21 20 36 20c16 0 27 -7 36 -20l112 -144l-2 -2l-146 80z" />
    <glyph glyph-name="Hbar.sc" horiz-adv-x="735" 
d="M46 380v9h67v44c0 64 -17 86 -80 86v6h280v-6c-64 0 -80 -22 -80 -86v-44h269v44c0 64 -17 86 -80 86v6h280v-6c-63 0 -80 -22 -80 -86v-44h67v-9h-67v-289c0 -63 17 -85 80 -85v-6h-280v6c63 0 80 22 80 85v170h-269v-170c0 -63 16 -85 80 -85v-6h-280v6
c63 0 80 22 80 85v289h-67zM233 270h269v110h-269v-110z" />
    <glyph glyph-name="Itilde.sc" horiz-adv-x="346" 
d="M33 0v6c63 0 80 22 80 85v342c0 64 -17 86 -80 86v6h280v-6c-64 0 -80 -22 -80 -86v-342c0 -63 16 -85 80 -85v-6h-280zM29 586c5 54 15 141 81 141c52 0 105 -54 158 -54c43 0 50 33 54 61l5 -1c-6 -62 -20 -140 -82 -140c-52 0 -104 54 -158 54c-43 0 -50 -34 -53 -61
h-5z" />
    <glyph glyph-name="Imacron.sc" horiz-adv-x="346" 
d="M33 0v6c63 0 80 22 80 85v342c0 64 -17 86 -80 86v6h280v-6c-64 0 -80 -22 -80 -86v-342c0 -63 16 -85 80 -85v-6h-280zM34 600v34h278v-34h-278z" />
    <glyph glyph-name="Ibreve.sc" horiz-adv-x="346" 
d="M33 0v6c63 0 80 22 80 85v342c0 64 -17 86 -80 86v6h280v-6c-64 0 -80 -22 -80 -86v-342c0 -63 16 -85 80 -85v-6h-280zM173 576c-96 0 -120 101 -120 164h3c9 -39 37 -83 117 -83c81 0 108 44 117 83h2c0 -63 -23 -164 -119 -164z" />
    <glyph glyph-name="Iogonek.sc" horiz-adv-x="346" 
d="M33 0v6c63 0 80 22 80 85v342c0 64 -17 86 -80 86v6h280v-6c-64 0 -80 -22 -80 -86v-342c0 -63 16 -85 80 -85v-6h-75c-42 -22 -86 -52 -86 -117c0 -54 29 -78 78 -78c21 0 38 4 50 8l2 -5c-30 -13 -76 -24 -116 -24c-64 0 -105 28 -105 80c0 78 96 108 161 136h-189z
" />
    <glyph glyph-name="Idotaccent.sc" horiz-adv-x="346" 
d="M33 0v6c63 0 80 22 80 85v342c0 64 -17 86 -80 86v6h280v-6c-64 0 -80 -22 -80 -86v-342c0 -63 16 -85 80 -85v-6h-280zM173 591c-36 0 -64 29 -64 64s28 64 64 64c35 0 64 -29 64 -64s-29 -64 -64 -64z" />
    <glyph glyph-name="Jcircumflex.sc" horiz-adv-x="335" 
d="M19 -142l-2 4c81 42 90 91 90 151v420c0 64 -17 86 -79 86v6h280v-6c-64 0 -81 -22 -81 -86v-402c0 -91 -103 -146 -208 -173zM21 566l-2 2l112 144c9 13 20 20 36 20c15 0 26 -7 36 -20l111 -144l-2 -2l-145 80z" />
    <glyph glyph-name="uni0136.sc" horiz-adv-x="653" 
d="M33 0v6c63 0 80 22 80 85v342c0 64 -17 86 -80 86v6h280v-6c-64 0 -80 -22 -80 -86v-219l147 139c62 59 90 99 90 127c0 22 -17 39 -70 39v6h251v-6c-49 0 -92 -20 -136 -52c-33 -24 -58 -47 -116 -105l-25 -25l184 -258c41 -58 64 -73 109 -73v-6h-200l-180 255
c-16 -15 -34 -32 -54 -52v-112c0 -63 16 -85 80 -85v-6h-280zM287 -301l-3 5c56 20 104 70 105 125c-9 -7 -20 -10 -33 -10c-31 0 -57 25 -57 56s26 57 61 57c40 0 63 -32 63 -74c0 -59 -43 -126 -136 -159z" />
    <glyph glyph-name="Lacute.sc" horiz-adv-x="554" 
d="M33 0v6c63 0 80 22 80 85v342c0 64 -17 86 -80 86v6h290v-6c-63 0 -90 -21 -90 -89v-423h52c149 0 209 79 232 180h5l-13 -187h-476zM143 573l-2 2c53 73 91 136 115 157s53 20 69 1s13 -46 -11 -67c-25 -21 -90 -51 -171 -93z" />
    <glyph glyph-name="uni013B.sc" horiz-adv-x="554" 
d="M33 0v6c63 0 80 22 80 85v342c0 64 -17 86 -80 86v6h290v-6c-63 0 -90 -21 -90 -89v-423h52c149 0 209 79 232 180h5l-13 -187h-476zM233 -301l-3 5c56 20 104 70 105 125c-9 -7 -20 -10 -33 -10c-31 0 -57 25 -57 56s26 57 61 57c40 0 63 -32 63 -74
c0 -59 -43 -126 -136 -159z" />
    <glyph glyph-name="Lcaron.sc" horiz-adv-x="556" 
d="M396 335l-3 1c4 61 5 138 14 163s34 41 58 32c22 -8 32 -33 22 -60c-9 -25 -48 -76 -91 -136zM33 0v6c63 0 80 22 80 85v342c0 64 -17 86 -80 86v6h290v-6c-63 0 -90 -21 -90 -89v-423h52c149 0 209 79 232 180h5l-13 -187h-476z" />
    <glyph glyph-name="Ldot.sc" horiz-adv-x="555" 
d="M33 0v6c63 0 80 22 80 85v342c0 64 -17 86 -80 86v6h290v-6c-63 0 -90 -21 -90 -89v-423h52c149 0 209 79 232 180h5l-13 -187h-476zM415 233c-36 0 -64 29 -64 64s28 64 64 64c35 0 64 -29 64 -64s-29 -64 -64 -64z" />
    <glyph glyph-name="Nacute.sc" horiz-adv-x="663" 
d="M21 0v6c101 0 109 48 109 272v97c0 98 -17 144 -104 144v6h182l327 -352v74c0 223 -7 272 -109 272v6h228v-6c-102 0 -109 -49 -109 -272v-251l-5 -1l-401 429v-146c0 -224 7 -272 110 -272v-6h-228zM281 573l-2 2c53 73 91 136 115 157s53 20 69 1s13 -46 -11 -67
c-25 -21 -90 -51 -171 -93z" />
    <glyph glyph-name="uni0145.sc" horiz-adv-x="663" 
d="M21 0v6c101 0 109 48 109 272v97c0 98 -17 144 -104 144v6h182l327 -352v74c0 223 -7 272 -109 272v6h228v-6c-102 0 -109 -49 -109 -272v-251l-5 -1l-401 429v-146c0 -224 7 -272 110 -272v-6h-228zM272 -301l-3 5c56 20 104 70 105 125c-9 -7 -20 -10 -33 -10
c-31 0 -57 25 -57 56s26 57 61 57c40 0 63 -32 63 -74c0 -59 -43 -126 -136 -159z" />
    <glyph glyph-name="Ncaron.sc" horiz-adv-x="663" 
d="M21 0v6c101 0 109 48 109 272v97c0 98 -17 144 -104 144v6h182l327 -352v74c0 223 -7 272 -109 272v6h228v-6c-102 0 -109 -49 -109 -272v-251l-5 -1l-401 429v-146c0 -224 7 -272 110 -272v-6h-228zM350 565c-15 0 -26 7 -36 20l-111 144l2 2l145 -80l146 80l2 -2
l-112 -144c-9 -13 -20 -20 -36 -20z" />
    <glyph glyph-name="Eng.sc" horiz-adv-x="663" 
d="M21 0v6c101 0 109 48 109 272v97c0 98 -17 144 -104 144v6h182l327 -352v74c0 223 -7 272 -109 272v6h228v-6c-102 0 -109 -49 -109 -272v-199c0 -101 -95 -164 -209 -190l-2 3c105 35 135 91 135 168v39l-330 356v-146c0 -224 7 -272 110 -272v-6h-228z" />
    <glyph glyph-name="Omacron.sc" horiz-adv-x="696" 
d="M348 -10c-177 0 -305 118 -305 273c0 154 128 272 305 272c176 0 304 -118 304 -272c0 -155 -128 -273 -304 -273zM348 -3c135 0 173 131 173 266c0 134 -38 264 -173 264c-136 0 -174 -130 -174 -264c0 -135 38 -266 174 -266zM208 600v34h279v-34h-279z" />
    <glyph glyph-name="Obreve.sc" horiz-adv-x="696" 
d="M348 -10c-177 0 -305 118 -305 273c0 154 128 272 305 272c176 0 304 -118 304 -272c0 -155 -128 -273 -304 -273zM348 -3c135 0 173 131 173 266c0 134 -38 264 -173 264c-136 0 -174 -130 -174 -264c0 -135 38 -266 174 -266zM347 576c-96 0 -119 101 -119 164h2
c9 -39 37 -83 117 -83c81 0 108 44 117 83h3c0 -63 -24 -164 -120 -164z" />
    <glyph glyph-name="Ohungarumlaut.sc" horiz-adv-x="696" 
d="M348 -10c-177 0 -305 118 -305 273c0 154 128 272 305 272c176 0 304 -118 304 -272c0 -155 -128 -273 -304 -273zM348 -3c135 0 173 131 173 266c0 134 -38 264 -173 264c-136 0 -174 -130 -174 -264c0 -135 38 -266 174 -266zM224 571l-2 1c34 74 59 138 77 160
c17 23 42 26 60 13c17 -13 23 -36 3 -61c-18 -23 -73 -62 -138 -113zM386 571l-2 1c34 74 59 138 77 160c17 23 42 26 60 13c17 -13 23 -36 3 -61c-18 -23 -73 -62 -138 -113z" />
    <glyph glyph-name="Racute.sc" horiz-adv-x="640" 
d="M33 0v6c63 0 80 22 80 85v342c0 64 -17 86 -80 86v6h290c167 0 239 -56 239 -140c0 -93 -96 -126 -220 -133v-3c194 -4 172 -64 205 -170c16 -53 31 -73 86 -73v-6h-185c-11 19 -19 46 -26 77c-28 114 -21 171 -125 171h-64v-157c0 -63 16 -85 80 -85v-6h-280zM233 254
h74c99 1 131 63 131 130c0 68 -33 133 -135 134h-70v-264zM251 573l-2 2c53 73 91 136 115 157s53 20 69 1s13 -46 -11 -67c-25 -21 -90 -51 -171 -93z" />
    <glyph glyph-name="uni0156.sc" horiz-adv-x="640" 
d="M33 0v6c63 0 80 22 80 85v342c0 64 -17 86 -80 86v6h290c167 0 239 -56 239 -140c0 -93 -96 -126 -220 -133v-3c194 -4 172 -64 205 -170c16 -53 31 -73 86 -73v-6h-185c-11 19 -19 46 -26 77c-28 114 -21 171 -125 171h-64v-157c0 -63 16 -85 80 -85v-6h-280zM233 254
h74c99 1 131 63 131 130c0 68 -33 133 -135 134h-70v-264zM278 -301l-3 5c56 20 103 70 105 125c-9 -7 -21 -10 -33 -10c-32 0 -57 25 -57 56s26 57 61 57c40 0 63 -32 63 -74c0 -59 -44 -126 -136 -159z" />
    <glyph glyph-name="Rcaron.sc" horiz-adv-x="640" 
d="M33 0v6c63 0 80 22 80 85v342c0 64 -17 86 -80 86v6h290c167 0 239 -56 239 -140c0 -93 -96 -126 -220 -133v-3c194 -4 172 -64 205 -170c16 -53 31 -73 86 -73v-6h-185c-11 19 -19 46 -26 77c-28 114 -21 171 -125 171h-64v-157c0 -63 16 -85 80 -85v-6h-280zM233 254
h74c99 1 131 63 131 130c0 68 -33 133 -135 134h-70v-264zM322 565c-15 0 -26 7 -36 20l-111 144l2 2l145 -80l146 80l2 -2l-112 -144c-9 -13 -20 -20 -36 -20z" />
    <glyph glyph-name="Sacute.sc" horiz-adv-x="528" 
d="M256 -10c-64 0 -140 12 -191 22l-10 160l5 1c37 -86 77 -177 197 -177c87 0 125 48 125 99c0 146 -320 98 -320 290c0 93 76 150 201 150c67 0 117 -16 179 -3l11 -166l-5 -1c-34 79 -74 164 -181 164c-76 0 -111 -43 -111 -89c0 -140 323 -95 323 -293
c0 -98 -80 -157 -223 -157zM204 573l-2 2c53 73 91 136 115 157s53 20 69 1s13 -46 -11 -67c-25 -21 -90 -51 -171 -93z" />
    <glyph glyph-name="Scircumflex.sc" horiz-adv-x="528" 
d="M256 -10c-64 0 -140 12 -191 22l-10 160l5 1c37 -86 77 -177 197 -177c87 0 125 48 125 99c0 146 -320 98 -320 290c0 93 76 150 201 150c67 0 117 -16 179 -3l11 -166l-5 -1c-34 79 -74 164 -181 164c-76 0 -111 -43 -111 -89c0 -140 323 -95 323 -293
c0 -98 -80 -157 -223 -157zM125 566l-2 2l111 144c10 13 21 20 36 20c16 0 27 -7 36 -20l112 -144l-2 -2l-146 80z" />
    <glyph glyph-name="Scedilla.sc" horiz-adv-x="528" 
d="M245 -219c-47 0 -88 13 -116 32l4 5c18 -12 49 -22 77 -22c50 0 79 30 79 71c0 36 -21 64 -63 64c-14 0 -27 -4 -37 -8l-3 2l60 65c-63 1 -133 12 -181 22l-10 160l5 1c37 -86 77 -177 197 -177c87 0 125 48 125 99c0 146 -320 98 -320 290c0 93 76 150 201 150
c67 0 117 -16 179 -3l11 -166l-5 -1c-34 79 -74 164 -181 164c-76 0 -111 -43 -111 -89c0 -140 323 -95 323 -293c0 -97 -79 -156 -222 -157l-50 -54c13 4 33 7 55 7c67 0 114 -27 114 -78c0 -62 -70 -84 -131 -84z" />
    <glyph glyph-name="uni0162.sc" horiz-adv-x="603" 
d="M151 0v6c64 0 90 20 90 89v423h-12c-114 0 -163 -75 -191 -176l-5 1l12 182h512l13 -182l-6 -1c-28 101 -76 176 -191 176h-12v-423c0 -69 27 -89 90 -89v-6h-156l-54 -58c13 4 32 7 55 7c67 0 114 -27 114 -78c0 -62 -70 -84 -131 -84c-48 0 -89 13 -116 32l3 5
c19 -12 50 -22 78 -22c49 0 79 30 79 71c0 36 -22 64 -63 64c-15 0 -28 -4 -38 -8l-2 2l64 69h-133z" />
    <glyph glyph-name="Tcaron.sc" horiz-adv-x="603" 
d="M151 0v6c64 0 90 20 90 89v423h-12c-114 0 -163 -75 -191 -176l-5 1l12 182h512l13 -182l-6 -1c-28 101 -76 176 -191 176h-12v-423c0 -69 27 -89 90 -89v-6h-300zM301 565c-16 0 -27 7 -36 20l-112 144l2 2l146 -80l145 80l2 -2l-111 -144c-10 -13 -21 -20 -36 -20z" />
    <glyph glyph-name="Tbar.sc" horiz-adv-x="604" 
d="M119 253v9h123v256h-12c-115 0 -163 -75 -191 -176l-6 1l13 182h512l12 -182l-5 -1c-28 101 -77 176 -191 176h-12v-256h122v-9h-122v-158c0 -69 26 -89 90 -89v-6h-300v6c63 0 90 20 90 89v158h-123z" />
    <glyph glyph-name="Utilde.sc" horiz-adv-x="645" 
d="M329 -10c-122 0 -227 50 -227 188v249c0 64 -17 92 -80 92v6h280v-6c-64 0 -80 -28 -80 -92v-267c0 -94 39 -158 139 -158c93 0 162 56 162 170v82c0 218 -6 265 -109 265v6h227v-6c-102 0 -109 -48 -109 -265v-81c0 -122 -72 -183 -203 -183zM199 586
c5 54 15 141 82 141c52 0 104 -54 158 -54c43 0 50 33 53 61l5 -1c-5 -62 -19 -140 -82 -140c-51 0 -103 54 -157 54c-43 0 -50 -34 -54 -61h-5z" />
    <glyph glyph-name="Umacron.sc" horiz-adv-x="645" 
d="M329 -10c-122 0 -227 50 -227 188v249c0 64 -17 92 -80 92v6h280v-6c-64 0 -80 -28 -80 -92v-267c0 -94 39 -158 139 -158c93 0 162 56 162 170v82c0 218 -6 265 -109 265v6h227v-6c-102 0 -109 -48 -109 -265v-81c0 -122 -72 -183 -203 -183zM205 600v34h278v-34h-278z
" />
    <glyph glyph-name="Ubreve.sc" horiz-adv-x="645" 
d="M329 -10c-122 0 -227 50 -227 188v249c0 64 -17 92 -80 92v6h280v-6c-64 0 -80 -28 -80 -92v-267c0 -94 39 -158 139 -158c93 0 162 56 162 170v82c0 218 -6 265 -109 265v6h227v-6c-102 0 -109 -48 -109 -265v-81c0 -122 -72 -183 -203 -183zM344 576
c-96 0 -120 101 -120 164h3c9 -39 37 -83 117 -83c81 0 108 44 117 83h2c0 -63 -23 -164 -119 -164z" />
    <glyph glyph-name="Uring.sc" horiz-adv-x="645" 
d="M329 -10c-122 0 -227 50 -227 188v249c0 64 -17 92 -80 92v6h280v-6c-64 0 -80 -28 -80 -92v-267c0 -94 39 -158 139 -158c93 0 162 56 162 170v82c0 218 -6 265 -109 265v6h227v-6c-102 0 -109 -48 -109 -265v-81c0 -122 -72 -183 -203 -183zM344 564
c-66 0 -115 40 -115 98c0 59 49 99 115 99s114 -40 114 -99c0 -58 -48 -98 -114 -98zM344 568c35 0 39 54 39 94s-4 94 -39 94c-36 0 -41 -54 -41 -94s5 -94 41 -94z" />
    <glyph glyph-name="Uhungarumlaut.sc" horiz-adv-x="645" 
d="M329 -10c-122 0 -227 50 -227 188v249c0 64 -17 92 -80 92v6h280v-6c-64 0 -80 -28 -80 -92v-267c0 -94 39 -158 139 -158c93 0 162 56 162 170v82c0 218 -6 265 -109 265v6h227v-6c-102 0 -109 -48 -109 -265v-81c0 -122 -72 -183 -203 -183zM215 571l-2 1
c34 74 59 138 76 160c18 23 43 26 60 13s23 -36 4 -61c-18 -23 -73 -62 -138 -113zM377 571l-2 1c33 74 59 138 76 160c18 23 43 26 60 13s23 -36 4 -61c-19 -23 -74 -62 -138 -113z" />
    </font>
</defs>
</svg>
