<svg xmlns="http://www.w3.org/2000/svg" width="24" height="24" viewBox="12 12 24 24"><path d="M20.479 16.59c.506-.01 1.358.313 2.196.654 1.373.55 1.586.574 2.96.01.813-.332 1.641-.604 2.518-.693 1.349-.14 2.588.178 3.743.872.569.347 1.075.763 1.481 1.294.14.178.145.277-.063.416-2.306 1.517-3.134 4.546-1.934 7.055.56 1.17 1.448 2.018 2.607 2.577.184.09.214.169.144.357a14.81 14.81 0 0 1-2.508 4.441c-.264.317-.531.63-.828.923-.902.896-1.953 1.17-3.183.838-.535-.145-1.036-.382-1.557-.561-1.398-.486-2.731-.228-4.045.332a5.148 5.148 0 0 1-1.477.387c-.739.079-1.383-.174-1.938-.649-1.105-.941-1.958-2.093-2.682-3.346-.783-1.354-1.329-2.802-1.69-4.318-.342-1.433-.486-2.881-.322-4.348.149-1.354.561-2.623 1.373-3.724 1.18-1.595 2.762-2.472 5.205-2.517zm3.481-.842c.069-1.805.912-3.183 2.344-4.229.74-.546 1.577-.853 2.475-1.017.193-.035.242.02.242.208.016 2.063-.837 3.688-2.483 4.888-.664.486-1.452.694-2.285.685-.223 0-.321-.06-.292-.292.009-.08-.001-.164-.001-.243z" fill="#FFF"/></svg>