<svg xmlns="http://www.w3.org/2000/svg" width="24" height="24" viewBox="12 12 24 24"><g fill="#FFF"><path d="M34.393 18.517c0 1.542-.004 3.084.004 4.622 0 .209-.051.296-.26.27-.035-.005-.074 0-.109 0-2.676.013-5.352.026-8.031.044-.873.004-1.751.013-2.624.029-.213.005-.287-.057-.287-.281.009-2.577.009-5.152 0-7.729 0-.222.048-.313.291-.34.978-.117 1.946-.256 2.918-.391 1.348-.19 2.689-.391 4.031-.582 1.281-.182 2.564-.352 3.846-.534.203-.03.225.057.225.226-.004 1.55-.004 3.111-.004 4.666zm-12.259.899v3.822c0 .278 0 .278-.287.278-.53.004-1.056.004-1.585.009-2.12.013-4.24.026-6.36.043-.309 0-.309.005-.309-.3v-6.494c0-.299.004-.287.3-.33.765-.104 1.529-.222 2.293-.33.587-.082 1.178-.152 1.764-.23 1.182-.16 2.363-.33 3.541-.495.169-.026.339-.073.512-.073.091 0 .135.03.131.125-.005.074 0 .144 0 .218v3.757zM22 19.39c0-1.242-.004-2.489.004-3.731 0-.183-.065-.222-.226-.213-.135.009-.239.087-.374.096-.287.017-.569.069-.856.108-.561.078-1.125.148-1.681.234-.339.053-.691.048-1.017.183-.057.021-.113.039-.169.018-.182-.074-.369-.009-.53.03-.409.104-.83.131-1.247.187-.348.048-.695.117-1.047.131-.295.009-.56.161-.864.147-.261-.014-.295.035-.295.305v6.251c0 .282.03.304.313.308 1.386.022 2.776-.064 4.162-.047 1.155.013 2.315.004 3.471 0 .334 0 .352-.014.352-.361.004-1.218.004-2.43.004-3.646zm.134 9.188c0 1.281-.005 2.563.004 3.844 0 .196-.039.265-.248.231a77.714 77.714 0 0 0-1.885-.274c-.652-.092-1.303-.165-1.955-.261-.921-.131-1.842-.273-2.767-.404-.487-.069-.973-.139-1.459-.19-.174-.018-.234-.074-.234-.252.004-2.207.004-4.415 0-6.625 0-.187.047-.274.247-.239.091.014.187.004.283.004 2.598.014 5.195.031 7.793.04.187 0 .23.061.226.233-.01 1.299-.005 2.593-.005 3.893zm-.134.004c0-1.217-.009-2.433.004-3.646.004-.316-.139-.364-.373-.364-.356 0-.708.018-1.069.009-1.59-.043-3.18.03-4.77-.048-.6-.03-1.199-.004-1.803-.004-.265 0-.295.034-.295.304v6.272c0 .282.043.31.321.335.43.039.86.074 1.282.156.53.101 1.064.156 1.599.23.278.039.564.047.83.112.378.088.76.113 1.138.175.413.069.838.121 1.26.165.538.06 1.081.121 1.616.238.174.039.256-.013.256-.222-.001-1.24.004-2.479.004-3.712zm12.41.882v4.605c0 .334 0 .338-.344.29-.816-.116-1.629-.239-2.445-.351-1.125-.157-2.25-.305-3.371-.466-1.064-.147-2.133-.3-3.197-.46-.59-.092-1.189-.14-1.78-.248-.187-.035-.191-.117-.191-.256v-7.841c0-.265.009-.282.287-.277 3.611.061 7.22.061 10.83.078.184 0 .213.073.213.23-.002 1.568-.002 3.132-.002 4.696zm-.074-.044v-4.583c0-.086.018-.178-.117-.187-.152-.009-.299-.034-.451-.039-1.512-.026-3.023 0-4.535-.034-1.916-.044-3.836-.014-5.756-.014-.304 0-.304 0-.304.295v7.212c0 .174.004.348 0 .521-.004.131.052.175.182.183.208.014.413.062.622.065.36.01.704.135 1.069.152.352.018.699.064 1.047.108.412.057.82.174 1.234.179.463.004.906.147 1.367.174.43.026.852.126 1.277.187.504.069 1.012.122 1.516.204.391.065.783.096 1.174.147.408.057.809.151 1.221.13.029 0 .064.031.096.044.252.108.359.039.359-.239l-.001-4.505z"/><path d="M22 19.39v3.645c0 .348-.013.361-.352.361-1.155 0-2.315.013-3.471 0-1.39-.018-2.776.064-4.162.047-.282-.004-.313-.029-.313-.308v-6.251c0-.27.035-.318.295-.305.3.018.569-.139.864-.147.352-.009.7-.083 1.047-.131.413-.056.834-.078 1.247-.187.161-.043.347-.104.53-.03.057.021.113.004.169-.018.326-.135.678-.13 1.017-.183.561-.086 1.121-.16 1.681-.234.282-.039.569-.092.856-.108.135-.009.243-.087.374-.096.165-.009.226.035.226.213C22 16.9 22 18.144 22 19.39zm0 9.192c0 1.237-.004 2.476.004 3.71 0 .209-.083.261-.256.222a14.61 14.61 0 0 0-1.616-.239c-.421-.047-.847-.1-1.26-.164-.378-.062-.76-.088-1.138-.175-.265-.062-.552-.074-.83-.113-.534-.073-1.069-.13-1.599-.229-.422-.083-.852-.117-1.282-.156-.282-.026-.321-.049-.321-.335v-6.272c0-.274.03-.305.295-.305.599 0 1.203-.025 1.803.005 1.59.077 3.18 0 4.77.048.356.008.713-.005 1.069-.01.235 0 .378.049.374.365-.022 1.215-.013 2.431-.013 3.648zm12.336.838v4.519c0 .278-.107.348-.359.239-.035-.014-.066-.044-.096-.044-.412.021-.816-.074-1.221-.131-.391-.052-.783-.082-1.174-.147-.504-.087-1.012-.135-1.516-.204-.426-.061-.852-.161-1.277-.187-.461-.03-.898-.169-1.367-.173-.414-.006-.822-.123-1.234-.179a11.985 11.985 0 0 0-1.047-.109c-.361-.017-.705-.143-1.069-.151-.209-.004-.413-.053-.622-.065-.125-.009-.182-.057-.182-.183.004-.174 0-.348 0-.521v-7.211c0-.295 0-.295.304-.295 1.92 0 3.836-.031 5.756.013 1.512.034 3.023.009 4.535.034.152.005.299.031.451.039.135.005.117.101.117.188v1.021l.001 3.547z"/></g></svg>