<svg xmlns="http://www.w3.org/2000/svg" width="139" height="33" viewBox="0 0 139 33"><path fill="#232323" d="M51.725 9.002a7.994 7.994 0 0 0-1.663-.499c-.331-.063-.696-.111-1.096-.146s-.845-.053-1.335-.053c-1.219 0-2.338.179-3.358.536-1.02.358-1.898.895-2.637 1.61s-1.314 1.608-1.726 2.678c-.412 1.069-.618 2.315-.618 3.738 0 1.511.176 2.834.527 3.971.352 1.136.861 2.082 1.529 2.84a6.3 6.3 0 0 0 2.44 1.706c.959.382 2.048.572 3.268.572.324 0 .677-.017 1.058-.051.38-.033.766-.091 1.158-.171.391-.082.775-.19 1.151-.328s.719-.313 1.027-.524c.162-.112.307-.247.434-.405s.19-.331.19-.519a.843.843 0 0 0-.065-.343.748.748 0 0 0-.175-.253c-.073-.069-.158-.12-.256-.153s-.199-.05-.303-.05c-.167 0-.324.026-.471.078a4.959 4.959 0 0 0-.428.172 6.152 6.152 0 0 1-1.458.415c-.543.089-1.097.134-1.663.134-.812 0-1.551-.146-2.219-.44-.668-.293-1.241-.736-1.72-1.329s-.849-1.333-1.111-2.222-.394-1.93-.394-3.124c0-1.062.125-2.003.375-2.824.25-.822.622-1.514 1.117-2.076a4.742 4.742 0 0 1 1.857-1.279c.743-.291 1.607-.437 2.594-.437.595 0 1.153.064 1.676.193.522.129.979.306 1.37.531l.925-1.948zm14.13 3.62h-1.798l-.175 1.522a4.423 4.423 0 0 0-1.716-1.395c-.69-.318-1.475-.477-2.353-.477-.861 0-1.66.149-2.396.449-.737.299-1.375.743-1.917 1.332s-.964 1.319-1.27 2.191c-.306.871-.459 1.877-.459 3.018 0 1.082.135 2.038.406 2.868s.652 1.529 1.146 2.097a4.76 4.76 0 0 0 1.785 1.288c.697.292 1.474.438 2.331.438a6.611 6.611 0 0 0 1.448-.163c.241-.054.47-.123.687-.206s.407-.18.571-.29c.165-.11.295-.236.394-.378a.792.792 0 0 0 .146-.462.74.74 0 0 0-.24-.574c-.073-.066-.158-.116-.256-.149s-.199-.05-.303-.05c-.063 0-.139.011-.228.031s-.171.044-.247.068c-.287.1-.554.171-.802.213a4.562 4.562 0 0 1-.746.063c-.533 0-1.022-.099-1.47-.297s-.834-.498-1.161-.902c-.327-.403-.581-.91-.765-1.52-.183-.609-.274-1.326-.274-2.15 0-.928.1-1.714.3-2.359.2-.645.473-1.168.821-1.569.347-.402.756-.692 1.226-.871s.978-.269 1.523-.269c.287 0 .571.027.852.082.281.054.548.139.802.255a2.826 2.826 0 0 1 1.261 1.133c.158.265.282.57.372.918.089.348.134.741.134 1.183v6.778l.003.178c.002.081.009.172.021.271a1.052 1.052 0 0 0 .381.702 1.238 1.238 0 0 0 .78.272c.15 0 .291-.024.424-.072s.25-.114.353-.2c.102-.085.188-.187.256-.306a.989.989 0 0 0 .128-.396c.013-.1.02-.19.022-.271l.003-.178V12.622zm3.995-5.941v17.775l.003.178c.002.082.01.172.022.272a1.121 1.121 0 0 0 .383.703 1.238 1.238 0 0 0 .777.271c.15 0 .291-.024.425-.072s.251-.114.353-.199c.102-.086.188-.188.256-.307.068-.118.111-.25.129-.396.012-.101.02-.19.021-.272l.003-.178V6.681H69.85zm6.366 0v17.775l.003.178c.002.082.01.172.021.272a1.121 1.121 0 0 0 .385.703c.102.085.219.151.352.199.134.048.275.072.426.072.148 0 .291-.024.424-.072s.25-.114.353-.199c.103-.086.188-.188.256-.307.069-.118.111-.25.128-.396.013-.101.02-.19.021-.272l.004-.178V6.681h-2.373zm22.345 2.496c-.504-.275-1.141-.497-1.911-.667-.77-.171-1.664-.256-2.684-.256-.471 0-.941.03-1.411.093-.47.063-.921.165-1.352.306-.43.141-.831.326-1.203.552a3.914 3.914 0 0 0-.971.834 3.7 3.7 0 0 0-.646 1.151c-.156.438-.233.941-.233 1.507 0 .462.057.888.171 1.276.115.389.279.748.494 1.077.214.329.473.631.776.907a7.22 7.22 0 0 0 1.023.771c.388.237.779.46 1.177.668s.809.431 1.232.668l.328.181c.131.07.273.149.428.237l.48.274c.166.097.33.192.493.29.162.098.317.197.465.297s.277.193.39.281c.25.199.438.447.564.742.127.295.191.627.191.992 0 .324-.047.612-.141.861a2.089 2.089 0 0 1-.958 1.117 3.488 3.488 0 0 1-.708.303 4.5 4.5 0 0 1-.783.166c-.271.033-.539.05-.806.05-.196 0-.392-.005-.587-.013s-.4-.027-.615-.06c-.214-.03-.439-.075-.677-.134s-.493-.135-.768-.23c-.532-.191-.924-.287-1.173-.287-.15 0-.291.021-.422.064a1.029 1.029 0 0 0-.34.188.887.887 0 0 0-.229.307.97.97 0 0 0-.084.414c0 .204.043.383.131.534.088.152.205.285.354.399.146.115.316.213.508.297s.391.156.6.218c.428.125.908.214 1.438.269s1.085.081 1.663.081c.5 0 .996-.039 1.488-.118.494-.079.963-.201 1.408-.365s.857-.375 1.238-.63a4.33 4.33 0 0 0 .99-.918c.278-.356.496-.763.654-1.22.158-.458.238-.973.238-1.542 0-.433-.054-.837-.16-1.211a4.065 4.065 0 0 0-.452-1.039 4.596 4.596 0 0 0-.702-.878 5.97 5.97 0 0 0-.914-.729 11.634 11.634 0 0 0-.559-.34 39.407 39.407 0 0 0-1.333-.737l-.687-.359c-.225-.116-.443-.23-.655-.343s-.421-.228-.627-.346a13.07 13.07 0 0 1-1.252-.816 2.32 2.32 0 0 1-.665-.742c-.155-.283-.233-.624-.233-1.023 0-.321.047-.602.141-.843.093-.241.222-.449.384-.624s.353-.318.57-.431c.219-.112.453-.202.703-.269s.508-.113.777-.141a7.93 7.93 0 0 1 .795-.041c.688 0 1.326.071 1.916.213a7.27 7.27 0 0 1 1.729.661l1.004-1.894zm1.272 3.445l4.818 11.935c.046.116.078.223.097.318a1.755 1.755 0 0 1-.073.904c-.111.396-.25.779-.414 1.152a6.014 6.014 0 0 1-.596 1.052c-.234.328-.503.63-.809.904a4.805 4.805 0 0 1-1.053.712c-.1.05-.202.106-.309.169-.105.062-.203.134-.29.215s-.159.174-.216.277a.753.753 0 0 0-.084.362.886.886 0 0 0 .347.734c.107.081.229.142.368.181.14.04.284.06.434.06.271 0 .55-.051.837-.152.287-.103.571-.247.852-.435a6.06 6.06 0 0 0 .827-.667 7.953 7.953 0 0 0 1.42-1.848c.197-.353.367-.718.509-1.093l5.518-14.78h-2.422l-2.396 7.166c-.079.232-.167.49-.266.773-.098.283-.194.568-.29.855s-.186.563-.269.83-.149.495-.2.687h-.1a19.706 19.706 0 0 0-.178-.652 41.31 41.31 0 0 0-.502-1.605c-.1-.293-.206-.59-.318-.889l-2.672-7.166h-2.57zm14.181 0v11.834l.003.178c.002.082.009.172.022.272a1.121 1.121 0 0 0 .383.703 1.238 1.238 0 0 0 .778.271c.15 0 .291-.024.425-.072.133-.048.251-.114.353-.199.102-.086.188-.188.256-.307a1.02 1.02 0 0 0 .128-.396c.013-.101.021-.19.022-.272.002-.08.002-.14.002-.178v-6.791c0-.59.092-1.108.271-1.554.182-.444.428-.814.737-1.108.31-.293.672-.513 1.086-.661a3.934 3.934 0 0 1 1.326-.222c.403 0 .777.062 1.12.185.344.123.639.322.887.599.248.277.441.638.58 1.083.14.445.209.988.209 1.63v6.84l.004.178c.002.082.009.172.021.272a1.121 1.121 0 0 0 .384.703c.103.085.22.151.353.199s.275.072.424.072c.15 0 .292-.024.426-.072a1.118 1.118 0 0 0 .608-.506c.069-.118.111-.25.129-.396.012-.101.02-.19.021-.272l.003-.178v-7.015c0-.903-.118-1.682-.353-2.335s-.558-1.188-.967-1.607a3.817 3.817 0 0 0-1.451-.927 5.318 5.318 0 0 0-1.799-.299c-.424 0-.842.046-1.254.14s-.805.235-1.18.425-.722.427-1.043.711c-.32.285-.601.617-.842.996v-1.923h-2.072zm24.416.351a6.83 6.83 0 0 0-1.582-.497 10.787 10.787 0 0 0-2.063-.178c-.586 0-1.162.058-1.726.172s-1.099.29-1.604.527-.971.539-1.398.904a5.491 5.491 0 0 0-1.104 1.312 6.501 6.501 0 0 0-.725 1.737c-.173.652-.259 1.381-.259 2.188 0 .786.071 1.501.216 2.144a7.03 7.03 0 0 0 .607 1.72 5.184 5.184 0 0 0 2.197 2.235c.458.24.954.421 1.488.539a7.732 7.732 0 0 0 1.683.179c.354 0 .71-.022 1.067-.065.357-.045.709-.113 1.052-.207s.675-.213.995-.358.62-.318.898-.519c.143-.1.254-.216.334-.35a.793.793 0 0 0 .122-.424c0-.25-.071-.441-.216-.574a.752.752 0 0 0-.533-.2c-.121 0-.243.021-.368.063-.124.041-.26.095-.405.161-.434.191-.872.327-1.317.406s-.896.118-1.354.118a4.034 4.034 0 0 1-1.561-.306 3.53 3.53 0 0 1-1.289-.927c-.367-.414-.659-.934-.873-1.558-.215-.624-.322-1.358-.322-2.203 0-.79.107-1.486.318-2.088a4.1 4.1 0 0 1 .912-1.511c.395-.405.877-.71 1.445-.914.567-.203 1.207-.306 1.918-.306.563 0 1.076.056 1.543.166a4.28 4.28 0 0 1 1.229.483l.675-1.869z"/><linearGradient id="a" gradientUnits="userSpaceOnUse" x1="12.94" y1="25.564" x2="12.94" y2=".561"><stop offset="0" stop-color="#5a8cff"/><stop offset="1" stop-color="#25b6c8"/></linearGradient><path fill="url(#a)" d="M16.92 23.207v2.356l6.495-4.232-6.495-4.23v2.355h-5.228c-4.175 0-7.571-3.397-7.571-7.573 0-4.175 3.397-7.571 7.572-7.571h11.939a1.876 1.876 0 0 0 0-3.751H11.694C5.45.561.37 5.64.37 11.883c0 6.244 5.079 11.324 11.322 11.324h5.228z"/><linearGradient id="b" gradientUnits="userSpaceOnUse" x1="18.775" y1="32.44" x2="18.775" y2="7.437"><stop offset="0" stop-color="#5a8cff"/><stop offset="1" stop-color="#25b6c8"/></linearGradient><path fill="url(#b)" d="M20.022 9.793h-5.228V7.437l-6.495 4.231 6.495 4.231v-2.354h5.228c4.174 0 7.571 3.396 7.571 7.571 0 4.176-3.397 7.572-7.572 7.572H8.081a1.875 1.875 0 0 0 0 3.751H20.02c6.244 0 11.323-5.079 11.323-11.323.001-6.243-5.078-11.323-11.321-11.323z"/></svg>