<svg xmlns="http://www.w3.org/2000/svg" viewBox="0 0 139 33"><path fill="#232323" d="M51.725 9.002a7.804 7.804 0 0 0-1.663-.499c-.33-.063-.696-.11-1.096-.146s-.845-.053-1.335-.053c-1.21 0-2.33.18-3.35.536-1.02.358-1.9.895-2.63 1.61s-1.31 1.608-1.72 2.678c-.41 1.07-.61 2.315-.61 3.738 0 1.51.18 2.834.53 3.97.35 1.137.86 2.083 1.53 2.84a6.3 6.3 0 0 0 2.44 1.707c.96.382 2.05.572 3.27.572.33 0 .68-.017 1.06-.05.38-.034.77-.092 1.16-.172.39-.082.78-.19 1.15-.328s.72-.313 1.03-.524c.16-.11.31-.24.44-.4s.19-.33.19-.52c0-.13-.02-.24-.06-.34-.04-.1-.1-.18-.17-.25s-.16-.12-.25-.15-.2-.05-.3-.05c-.16 0-.32.03-.47.08-.15.05-.29.11-.43.17-.42.19-.91.33-1.45.42-.54.09-1.1.14-1.66.14-.81 0-1.55-.14-2.22-.44-.67-.29-1.24-.73-1.72-1.33s-.85-1.33-1.11-2.22-.39-1.93-.39-3.12c0-1.06.13-2 .38-2.82.25-.82.63-1.51 1.12-2.07.5-.56 1.12-.98 1.86-1.28.75-.29 1.61-.43 2.6-.43.6 0 1.16.07 1.68.2.53.13.98.31 1.37.53l.93-1.95zm14.13 3.62h-1.798l-.175 1.522a4.423 4.423 0 0 0-1.716-1.395c-.69-.32-1.475-.48-2.353-.48-.86 0-1.66.15-2.396.45-.737.3-1.375.74-1.917 1.33s-.964 1.32-1.27 2.19c-.306.87-.46 1.87-.46 3.02 0 1.08.136 2.04.407 2.87s.652 1.53 1.146 2.09c.493.57 1.088.99 1.785 1.29.697.29 1.474.44 2.33.44.23 0 .468-.02.716-.04s.492-.07.733-.13c.24-.06.47-.13.687-.21s.407-.18.57-.29c.166-.11.296-.24.395-.38.09-.14.14-.3.14-.46 0-.13-.02-.24-.07-.33-.05-.1-.11-.18-.18-.25s-.16-.12-.26-.15-.2-.05-.31-.05a1.824 1.824 0 0 0-.48.1c-.29.1-.56.17-.8.21-.25.04-.5.06-.75.06-.54 0-1.03-.1-1.47-.3s-.84-.5-1.16-.91c-.33-.4-.59-.91-.77-1.52-.18-.61-.28-1.33-.28-2.15 0-.93.1-1.71.3-2.36.2-.64.47-1.17.82-1.57.35-.41.76-.7 1.23-.87s.97-.27 1.52-.27c.28 0 .57.03.85.08s.55.14.8.25a2.85 2.85 0 0 1 1.26 1.12c.16.26.28.57.37.92.09.35.14.74.14 1.18v6.96c0 .08.01.17.02.27.02.14.06.28.12.39.06.12.15.22.25.3a1.158 1.158 0 0 0 .77.27 1.158 1.158 0 0 0 .77-.27c.1-.09.18-.19.25-.31s.11-.25.13-.4c.01-.1.02-.19.02-.27v-12zM69.85 6.68v17.776a2.909 2.909 0 0 0 .025.45c.02.146.064.277.13.396.067.12.152.22.253.307.102.08.22.15.353.19a1.251 1.251 0 0 0 .86-.01c.14-.05.25-.12.36-.2.1-.09.19-.19.26-.31s.11-.25.13-.4c.02-.1.02-.19.02-.27.01-.08.01-.14.01-.18V6.68h-2.38zm6.366 0v17.776c0 .038 0 .098.003.178 0 .082.01.172.02.272.02.146.06.277.13.396a1.017 1.017 0 0 0 .6.497c.13.05.27.07.42.07.15 0 .29-.03.42-.08s.25-.12.35-.2c.1-.09.18-.19.25-.31s.11-.25.12-.4c.01-.1.02-.19.02-.27V6.68H76.2zM98.56 9.177c-.503-.275-1.14-.497-1.91-.667-.77-.17-1.664-.256-2.684-.256-.47 0-.94.03-1.41.093s-.922.165-1.353.306c-.43.14-.83.326-1.203.552a3.892 3.892 0 0 0-.97.834c-.276.32-.49.71-.647 1.15-.156.43-.233.94-.233 1.5 0 .46.057.89.17 1.27.116.39.28.75.495 1.07.214.33.473.63.776.9.31.27.65.53 1.03.77.39.24.78.46 1.18.67s.81.43 1.24.66l.33.18c.14.07.28.15.43.24l.48.27c.17.09.33.19.5.29a7.39 7.39 0 0 1 .86.57c.25.2.44.45.57.74.13.29.19.62.19.99 0 .32-.04.61-.14.86-.09.25-.22.47-.38.65-.16.18-.35.34-.57.46-.22.12-.45.22-.71.3-.25.07-.51.13-.78.16s-.54.05-.8.05c-.19 0-.39-.01-.59-.01s-.4-.03-.61-.06c-.21-.03-.44-.08-.67-.14s-.49-.14-.77-.23c-.53-.19-.93-.29-1.17-.29-.15 0-.29.02-.42.06-.13.04-.24.1-.34.19-.09.08-.17.18-.23.3-.05.12-.08.26-.08.41 0 .2.04.38.13.53.09.15.21.28.36.4.15.11.32.21.51.3s.39.15.6.22c.43.12.91.21 1.44.27s1.09.08 1.67.08c.5 0 1-.04 1.49-.12.5-.08.97-.2 1.41-.37s.86-.38 1.24-.63c.38-.26.71-.57.99-.92.28-.36.5-.77.66-1.22.16-.46.24-.98.24-1.54 0-.44-.05-.84-.16-1.22s-.26-.72-.45-1.04c-.2-.32-.43-.61-.7-.88-.27-.27-.574-.51-.91-.73-.166-.11-.353-.22-.56-.34-.205-.12-.42-.24-.645-.37-.223-.12-.45-.25-.69-.37l-.68-.36-.65-.34-.627-.34c-.21-.12-.414-.25-.62-.38-.21-.14-.42-.28-.636-.44-.282-.21-.51-.46-.66-.74-.156-.29-.234-.63-.234-1.03 0-.32.05-.6.14-.84.093-.24.222-.45.384-.63s.35-.32.57-.43c.22-.11.45-.2.7-.27s.51-.11.78-.14c.27-.03.54-.04.8-.04.69 0 1.33.07 1.92.21.59.14 1.17.36 1.73.66l1-1.89zm1.273 3.445l4.818 11.935c.05.116.08.223.1.318.02.096.03.206.03.33 0 .075 0 .155-.02.24-.01.086-.04.197-.08.334-.11.39-.25.77-.41 1.15-.16.37-.36.72-.59 1.05-.23.33-.5.63-.81.9-.3.27-.65.51-1.05.71-.1.05-.2.1-.31.17-.1.06-.2.13-.29.21s-.15.17-.21.27c-.05.1-.08.22-.08.36 0 .16.03.3.09.42s.15.22.26.3.23.14.37.18c.14.04.29.06.44.06.27 0 .55-.05.84-.15.29-.11.57-.25.85-.44s.56-.41.83-.67c.27-.26.52-.54.76-.85s.46-.65.66-1 .37-.72.51-1.1l5.52-14.78h-2.42l-2.4 7.17-.27.77c-.1.28-.19.57-.29.85s-.18.56-.27.83-.15.49-.2.69h-.1c-.05-.2-.11-.42-.18-.65s-.14-.49-.23-.76c-.08-.27-.17-.55-.27-.85-.1-.29-.21-.59-.32-.89l-2.67-7.17h-2.57zm14.18 0v11.834a3.35 3.35 0 0 0 .026.45c.02.146.06.277.13.396a1.017 1.017 0 0 0 .6.497c.13.04.27.07.42.07.15 0 .29-.03.42-.08s.25-.12.35-.2c.1-.09.19-.19.25-.31.07-.12.11-.25.13-.4.01-.1.02-.19.02-.27v-6.97c0-.59.09-1.11.27-1.56.18-.45.43-.82.73-1.11.31-.3.67-.52 1.09-.66.41-.15.85-.23 1.32-.23.4 0 .77.06 1.12.18.34.12.64.32.88.6.25.27.44.63.58 1.08.14.44.21.98.21 1.63v7.01c0 .08.01.17.02.27.02.14.06.27.13.39.06.12.15.22.25.3s.22.15.35.2.28.07.43.07a1.158 1.158 0 0 0 .77-.27c.1-.09.19-.19.25-.31.07-.12.11-.25.13-.39.01-.1.02-.19.02-.27v-7.18c0-.91-.12-1.68-.35-2.34s-.56-1.19-.97-1.61c-.41-.42-.9-.73-1.45-.93-.56-.2-1.16-.3-1.8-.3-.43 0-.85.04-1.26.14s-.81.23-1.18.42-.72.42-1.04.71c-.32.28-.6.61-.85.99v-1.9H114zm24.417.35a6.88 6.88 0 0 0-1.582-.496 10.794 10.794 0 0 0-2.063-.178c-.586 0-1.162.058-1.726.172s-1.1.29-1.61.527-.97.54-1.4.904c-.43.37-.8.81-1.11 1.32-.31.51-.55 1.09-.73 1.74-.18.66-.26 1.38-.26 2.19 0 .79.07 1.5.21 2.15.14.65.34 1.22.6 1.72.26.51.58.94.95 1.32s.78.68 1.24.92c.45.24.95.42 1.48.54.53.12 1.09.18 1.68.18.35 0 .71-.02 1.06-.06.36-.04.71-.11 1.05-.2s.67-.21.99-.35.62-.32.9-.52c.14-.1.25-.21.33-.35.08-.13.12-.27.12-.42 0-.25-.07-.44-.22-.57a.783.783 0 0 0-.54-.2c-.12 0-.25.02-.37.07-.13.04-.26.1-.41.16-.44.19-.87.33-1.32.41s-.9.12-1.36.12c-.55 0-1.07-.1-1.56-.31-.49-.2-.92-.51-1.29-.93-.363-.41-.66-.93-.87-1.55-.21-.62-.32-1.36-.32-2.2 0-.79.11-1.49.32-2.09.217-.6.52-1.11.91-1.51.4-.41.88-.71 1.45-.92.57-.2 1.21-.3 1.92-.3.566 0 1.08.06 1.546.17.47.11.88.27 1.23.48l.68-1.87z"/><linearGradient id="a" x1="12.94" x2="12.94" y1="25.564" y2=".561" gradientUnits="userSpaceOnUse"><stop offset="0" stop-color="#5A8CFF"/><stop offset="1" stop-color="#25B6C8"/></linearGradient><path fill="url(#a)" d="M16.92 23.207v2.356l6.495-4.232-6.495-4.23v2.36h-5.228a7.574 7.574 0 0 1-7.57-7.57c0-4.17 3.396-7.57 7.57-7.57h11.94c1.035 0 1.875-.84 1.875-1.87S24.667.56 23.632.56H11.694C5.45.56.37 5.64.37 11.884s5.08 11.324 11.322 11.324h5.228z"/><linearGradient id="b" x1="18.775" x2="18.775" y1="32.44" y2="7.437" gradientUnits="userSpaceOnUse"><stop offset="0" stop-color="#5A8CFF"/><stop offset="1" stop-color="#25B6C8"/></linearGradient><path fill="url(#b)" d="M20.022 9.793h-5.228V7.437L8.3 11.667l6.494 4.232v-2.36h5.228c4.174 0 7.57 3.39 7.57 7.57 0 4.17-3.396 7.57-7.57 7.57H8.08c-1.037 0-1.876.84-1.876 1.87s.84 1.87 1.875 1.87h11.94c6.24 0 11.32-5.08 11.32-11.33S26.26 9.78 20.02 9.78z"/></svg>